M48
METRIC,LZ,000.000
;FILE_FORMAT=3:3
;TYPE=PLATED
;Layer: PTH_Through_Via
;EasyEDA v6.5.22, 2023-04-22 10:00:47
;3ca0bc53c497470ea30742e0db75a0e9,0997c0c323a540828c61b468e30a80a1,10
;Gerber Generator version 0.2
;Holesize 1 = 0.306 mm
T01C0.306
;Holesize 2 = 0.501 mm
T02C0.501
%
G05
G90
T01
X008787Y092837
X016653Y090681
X018076Y102171
X018134Y094670
X039018Y092318
X024059Y100959
X042247Y101656
X024060Y099398
X042356Y099291
X023887Y097945
X039460Y098652
X024022Y097155
X039565Y097690
X024034Y095885
X039475Y096012
X024015Y094615
X039473Y094742
X024349Y093693
X039453Y093472
T02
X031395Y091219
X044079Y095522
X022352Y103563
X034954Y092909
X037846Y101981
X041021Y104394
M30
