M48
METRIC,LZ,000.000
;FILE_FORMAT=3:3
;TYPE=PLATED
;Layer: PTH_Through
;EasyEDA v6.5.22, 2023-04-04 14:03:21
;47d133e18a1f4bd981f81e581058f082,0997c0c323a540828c61b468e30a80a1,10
;Gerber Generator version 0.2
;Holesize 1 = 0.800 mm
T01C0.800
;Holesize 2 = 0.889 mm
T02C0.889
%
G05
G90
T01
X034879Y122278
X032278Y122281
X029779Y122278
X027280Y122278
X024681Y122278
X034778Y061981
X032278Y061981
X029779Y061882
X027181Y061879
X024679Y061882
T02
X008509Y081407
X008509Y083947
X008509Y086487
X008509Y089027
X008509Y091567
X008509Y094107
X008509Y096647
X008509Y099187
X052451Y081407
X052451Y083947
X052451Y086487
X052451Y089027
X052451Y091567
X052451Y094107
X052451Y096647
X052451Y099187
M30
