M48
METRIC,LZ,000.000
;FILE_FORMAT=3:3
;TYPE=PLATED
;Layer: PTH_Through_Via
;EasyEDA v6.5.22, 2023-04-04 14:03:21
;47d133e18a1f4bd981f81e581058f082,0997c0c323a540828c61b468e30a80a1,10
;Gerber Generator version 0.2
;Holesize 1 = 0.306 mm
T01C0.306
%
G05
G90
T01
X015318Y098425
X032901Y100395
X042746Y097958
X042993Y099576
X028211Y112702
X029610Y098933
X019285Y102022
X040995Y091455
X017800Y095210
X013939Y092500
X039603Y099185
X024050Y099695
X039460Y098323
X024093Y098134
X039460Y097282
X023970Y096742
X024717Y096020
X039475Y096012
X039457Y094617
X024031Y094615
X024059Y093616
X038828Y093171
X018021Y101866
X024038Y100959
X039474Y101151
X043862Y101182
M30
