G04 Layer: TopPasteMaskLayer*
G04 EasyEDA v6.5.23, 2023-06-06 19:14:30*
G04 6ef57efb87d34416a569dc9a5926d664,0997c0c323a540828c61b468e30a80a1,10*
G04 Gerber Generator version 0.2*
G04 Scale: 100 percent, Rotated: No, Reflected: No *
G04 Dimensions in millimeters *
G04 leading zeros omitted , absolute positions ,4 integer and 5 decimal *
%FSLAX45Y45*%
%MOMM*%

%AMMACRO1*21,1,$1,$2,0,0,$3*%
%ADD10MACRO1,1.296X1.7575X0.0000*%
%ADD11R,1.2960X1.7575*%
%ADD12O,1.7999964X0.5999988*%
%ADD13O,2.0999958X0.5599938*%

%LPD*%
G36*
X3150768Y12057329D02*
G01*
X3140760Y12047372D01*
X3140760Y11946585D01*
X3150768Y11936577D01*
X3186887Y11936577D01*
X3196894Y11946585D01*
X3196894Y11967667D01*
X3206902Y11977674D01*
X3244697Y11977674D01*
X3254705Y11967667D01*
X3254705Y11946585D01*
X3264712Y11936577D01*
X3300831Y11936577D01*
X3310839Y11946585D01*
X3310839Y12047372D01*
X3300831Y12057329D01*
G37*
G36*
X3150768Y11761622D02*
G01*
X3140760Y11751614D01*
X3140760Y11650827D01*
X3150768Y11640870D01*
X3300831Y11640870D01*
X3310839Y11650827D01*
X3310839Y11751614D01*
X3300831Y11761622D01*
X3264712Y11761622D01*
X3254705Y11751614D01*
X3254705Y11730532D01*
X3244697Y11720525D01*
X3206902Y11720525D01*
X3196894Y11730532D01*
X3196894Y11751614D01*
X3186887Y11761622D01*
G37*
G36*
X3646068Y12285929D02*
G01*
X3636060Y12275972D01*
X3636060Y12175185D01*
X3646068Y12165177D01*
X3682187Y12165177D01*
X3692194Y12175185D01*
X3692194Y12196267D01*
X3702202Y12206274D01*
X3739997Y12206274D01*
X3750005Y12196267D01*
X3750005Y12175185D01*
X3760012Y12165177D01*
X3796131Y12165177D01*
X3806139Y12175185D01*
X3806139Y12275972D01*
X3796131Y12285929D01*
G37*
G36*
X3646068Y11990222D02*
G01*
X3636060Y11980214D01*
X3636060Y11879427D01*
X3646068Y11869470D01*
X3796131Y11869470D01*
X3806139Y11879427D01*
X3806139Y11980214D01*
X3796131Y11990222D01*
X3760012Y11990222D01*
X3750005Y11980214D01*
X3750005Y11959132D01*
X3739997Y11949125D01*
X3702202Y11949125D01*
X3692194Y11959132D01*
X3692194Y11980214D01*
X3682187Y11990222D01*
G37*
G36*
X3150768Y6503822D02*
G01*
X3140760Y6493814D01*
X3140760Y6393027D01*
X3150768Y6383070D01*
X3300831Y6383070D01*
X3310839Y6393027D01*
X3310839Y6493814D01*
X3300831Y6503822D01*
X3264712Y6503822D01*
X3254705Y6493814D01*
X3254705Y6472732D01*
X3244697Y6462725D01*
X3206902Y6462725D01*
X3196894Y6472732D01*
X3196894Y6493814D01*
X3186887Y6503822D01*
G37*
G36*
X3150768Y6799529D02*
G01*
X3140760Y6789572D01*
X3140760Y6688785D01*
X3150768Y6678777D01*
X3186887Y6678777D01*
X3196894Y6688785D01*
X3196894Y6709867D01*
X3206902Y6719874D01*
X3244697Y6719874D01*
X3254705Y6709867D01*
X3254705Y6688785D01*
X3264712Y6678777D01*
X3300831Y6678777D01*
X3310839Y6688785D01*
X3310839Y6789572D01*
X3300831Y6799529D01*
G37*
G36*
X2642768Y6503822D02*
G01*
X2632760Y6493814D01*
X2632760Y6393027D01*
X2642768Y6383070D01*
X2792831Y6383070D01*
X2802839Y6393027D01*
X2802839Y6493814D01*
X2792831Y6503822D01*
X2756712Y6503822D01*
X2746705Y6493814D01*
X2746705Y6472732D01*
X2736697Y6462725D01*
X2698902Y6462725D01*
X2688894Y6472732D01*
X2688894Y6493814D01*
X2678887Y6503822D01*
G37*
G36*
X2642768Y6799529D02*
G01*
X2632760Y6789572D01*
X2632760Y6688785D01*
X2642768Y6678777D01*
X2678887Y6678777D01*
X2688894Y6688785D01*
X2688894Y6709867D01*
X2698902Y6719874D01*
X2736697Y6719874D01*
X2746705Y6709867D01*
X2746705Y6688785D01*
X2756712Y6678777D01*
X2792831Y6678777D01*
X2802839Y6688785D01*
X2802839Y6789572D01*
X2792831Y6799529D01*
G37*
G36*
X2160168Y6249822D02*
G01*
X2150160Y6239814D01*
X2150160Y6139027D01*
X2160168Y6129070D01*
X2310231Y6129070D01*
X2320239Y6139027D01*
X2320239Y6239814D01*
X2310231Y6249822D01*
X2274112Y6249822D01*
X2264105Y6239814D01*
X2264105Y6218732D01*
X2254097Y6208725D01*
X2216302Y6208725D01*
X2206294Y6218732D01*
X2206294Y6239814D01*
X2196287Y6249822D01*
G37*
G36*
X2160168Y6545529D02*
G01*
X2150160Y6535572D01*
X2150160Y6434785D01*
X2160168Y6424777D01*
X2196287Y6424777D01*
X2206294Y6434785D01*
X2206294Y6455867D01*
X2216302Y6465874D01*
X2254097Y6465874D01*
X2264105Y6455867D01*
X2264105Y6434785D01*
X2274112Y6424777D01*
X2310231Y6424777D01*
X2320239Y6434785D01*
X2320239Y6535572D01*
X2310231Y6545529D01*
G37*
G36*
X2655468Y12057329D02*
G01*
X2645460Y12047372D01*
X2645460Y11946585D01*
X2655468Y11936577D01*
X2691587Y11936577D01*
X2701594Y11946585D01*
X2701594Y11967667D01*
X2711602Y11977674D01*
X2749397Y11977674D01*
X2759405Y11967667D01*
X2759405Y11946585D01*
X2769412Y11936577D01*
X2805531Y11936577D01*
X2815539Y11946585D01*
X2815539Y12047372D01*
X2805531Y12057329D01*
G37*
G36*
X2655468Y11761622D02*
G01*
X2645460Y11751614D01*
X2645460Y11650827D01*
X2655468Y11640870D01*
X2805531Y11640870D01*
X2815539Y11650827D01*
X2815539Y11751614D01*
X2805531Y11761622D01*
X2769412Y11761622D01*
X2759405Y11751614D01*
X2759405Y11730532D01*
X2749397Y11720525D01*
X2711602Y11720525D01*
X2701594Y11730532D01*
X2701594Y11751614D01*
X2691587Y11761622D01*
G37*
G36*
X2160168Y12285929D02*
G01*
X2150160Y12275972D01*
X2150160Y12175185D01*
X2160168Y12165177D01*
X2196287Y12165177D01*
X2206294Y12175185D01*
X2206294Y12196267D01*
X2216302Y12206274D01*
X2254097Y12206274D01*
X2264105Y12196267D01*
X2264105Y12175185D01*
X2274112Y12165177D01*
X2310231Y12165177D01*
X2320239Y12175185D01*
X2320239Y12275972D01*
X2310231Y12285929D01*
G37*
G36*
X2160168Y11990222D02*
G01*
X2150160Y11980214D01*
X2150160Y11879427D01*
X2160168Y11869470D01*
X2310231Y11869470D01*
X2320239Y11879427D01*
X2320239Y11980214D01*
X2310231Y11990222D01*
X2274112Y11990222D01*
X2264105Y11980214D01*
X2264105Y11959132D01*
X2254097Y11949125D01*
X2216302Y11949125D01*
X2206294Y11959132D01*
X2206294Y11980214D01*
X2196287Y11990222D01*
G37*
G36*
X3633368Y6262522D02*
G01*
X3623360Y6252514D01*
X3623360Y6151727D01*
X3633368Y6141770D01*
X3783431Y6141770D01*
X3793439Y6151727D01*
X3793439Y6252514D01*
X3783431Y6262522D01*
X3747312Y6262522D01*
X3737305Y6252514D01*
X3737305Y6231432D01*
X3727297Y6221425D01*
X3689502Y6221425D01*
X3679494Y6231432D01*
X3679494Y6252514D01*
X3669487Y6262522D01*
G37*
G36*
X3633368Y6558229D02*
G01*
X3623360Y6548272D01*
X3623360Y6447485D01*
X3633368Y6437477D01*
X3669487Y6437477D01*
X3679494Y6447485D01*
X3679494Y6468567D01*
X3689502Y6478574D01*
X3727297Y6478574D01*
X3737305Y6468567D01*
X3737305Y6447485D01*
X3747312Y6437477D01*
X3783431Y6437477D01*
X3793439Y6447485D01*
X3793439Y6548272D01*
X3783431Y6558229D01*
G37*
G36*
X1812798Y9249105D02*
G01*
X1807819Y9244076D01*
X1808276Y9202115D01*
X1852320Y9202115D01*
X1852320Y9157106D01*
X1807311Y9157106D01*
X1807819Y9116110D01*
X1812798Y9111081D01*
X1927809Y9111081D01*
X1932787Y9116110D01*
X1932787Y9244076D01*
X1927809Y9249105D01*
G37*
G36*
X1597812Y9249105D02*
G01*
X1592783Y9244076D01*
X1592783Y9116110D01*
X1597812Y9111081D01*
X1712823Y9111081D01*
X1717802Y9116110D01*
X1717293Y9157106D01*
X1673301Y9157106D01*
X1673301Y9202115D01*
X1717802Y9202115D01*
X1717802Y9244076D01*
X1712823Y9249105D01*
G37*
G36*
X3558590Y10497718D02*
G01*
X3553612Y10492689D01*
X3553612Y10364724D01*
X3558590Y10359694D01*
X3673601Y10359694D01*
X3678580Y10364724D01*
X3678123Y10406684D01*
X3634079Y10406684D01*
X3634079Y10451693D01*
X3679088Y10451693D01*
X3678580Y10492689D01*
X3673601Y10497718D01*
G37*
G36*
X3773576Y10497718D02*
G01*
X3768598Y10492689D01*
X3769106Y10451693D01*
X3813098Y10451693D01*
X3813098Y10406684D01*
X3768598Y10406684D01*
X3768598Y10364724D01*
X3773576Y10359694D01*
X3888587Y10359694D01*
X3893616Y10364724D01*
X3893616Y10492689D01*
X3888587Y10497718D01*
G37*
D10*
G01*
X4114800Y10651775D03*
D11*
G01*
X4114800Y10989030D03*
D12*
G01*
X1671320Y10223500D03*
G01*
X1671320Y10096500D03*
G01*
X1671320Y9969500D03*
G01*
X1671320Y9842500D03*
G01*
X1671320Y9715500D03*
G01*
X1671320Y9588500D03*
G01*
X1671320Y9461500D03*
G01*
X1671320Y9334500D03*
G01*
X2265679Y10223500D03*
G01*
X2265679Y10096500D03*
G01*
X2265679Y9969500D03*
G01*
X2265679Y9842500D03*
G01*
X2265679Y9715500D03*
G01*
X2265679Y9588500D03*
G01*
X2265679Y9461500D03*
G01*
X2265679Y9334500D03*
D13*
G01*
X4099509Y9220200D03*
G01*
X4099509Y9347200D03*
G01*
X4099509Y9474200D03*
G01*
X4099509Y9601200D03*
G01*
X4099509Y9728200D03*
G01*
X4099509Y9855200D03*
G01*
X4099509Y9982200D03*
G01*
X4099509Y10109200D03*
G01*
X4099509Y10236200D03*
G01*
X3139490Y9220200D03*
G01*
X3139490Y9347200D03*
G01*
X3139490Y9474200D03*
G01*
X3139490Y9601200D03*
G01*
X3139490Y9728200D03*
G01*
X3139490Y9855200D03*
G01*
X3139490Y9982200D03*
G01*
X3139490Y10109200D03*
G01*
X3139490Y10236200D03*
M02*
