G04 Layer: TopSilkscreenLayer*
G04 EasyEDA v6.5.22, 2023-04-22 10:00:47*
G04 3ca0bc53c497470ea30742e0db75a0e9,0997c0c323a540828c61b468e30a80a1,10*
G04 Gerber Generator version 0.2*
G04 Scale: 100 percent, Rotated: No, Reflected: No *
G04 Dimensions in millimeters *
G04 leading zeros omitted , absolute positions ,4 integer and 5 decimal *
%FSLAX45Y45*%
%MOMM*%

%ADD10C,0.1700*%
%ADD11C,0.1200*%
%ADD12C,0.1524*%
%ADD13C,0.2032*%
%ADD14C,0.2030*%
%ADD15C,0.2540*%
%ADD16C,0.4000*%
%ADD17C,0.3000*%
%ADD18C,0.0141*%

%LPD*%
D10*
X1638300Y8647684D02*
G01*
X1638300Y8504428D01*
X1638300Y8504428D02*
G01*
X1720087Y8504428D01*
X1765045Y8647684D02*
G01*
X1765045Y8504428D01*
X1765045Y8647684D02*
G01*
X1812797Y8647684D01*
X1833371Y8640826D01*
X1846834Y8627110D01*
X1853692Y8613647D01*
X1860550Y8593074D01*
X1860550Y8559037D01*
X1853692Y8538463D01*
X1846834Y8525002D01*
X1833371Y8511286D01*
X1812797Y8504428D01*
X1765045Y8504428D01*
X1905507Y8647684D02*
G01*
X1905507Y8504428D01*
X1905507Y8647684D02*
G01*
X1960118Y8504428D01*
X2014727Y8647684D02*
G01*
X1960118Y8504428D01*
X2014727Y8647684D02*
G01*
X2014727Y8504428D01*
X2164588Y8620505D02*
G01*
X2178304Y8627110D01*
X2198877Y8647684D01*
X2198877Y8504428D01*
X2348738Y8647684D02*
G01*
X2348738Y8504428D01*
X2348738Y8504428D02*
G01*
X2430525Y8504428D01*
X2475484Y8647684D02*
G01*
X2475484Y8504428D01*
X2475484Y8647684D02*
G01*
X2564129Y8647684D01*
X2475484Y8579358D02*
G01*
X2530093Y8579358D01*
X2475484Y8504428D02*
G01*
X2564129Y8504428D01*
X2609088Y8647684D02*
G01*
X2609088Y8504428D01*
X2609088Y8647684D02*
G01*
X2656840Y8647684D01*
X2677413Y8640826D01*
X2691129Y8627110D01*
X2697734Y8613647D01*
X2704591Y8593074D01*
X2704591Y8559037D01*
X2697734Y8538463D01*
X2691129Y8525002D01*
X2677413Y8511286D01*
X2656840Y8504428D01*
X2609088Y8504428D01*
X2854706Y8647684D02*
G01*
X2854706Y8504428D01*
X2854706Y8647684D02*
G01*
X2902458Y8647684D01*
X2922777Y8640826D01*
X2936493Y8627110D01*
X2943352Y8613647D01*
X2950209Y8593074D01*
X2950209Y8559037D01*
X2943352Y8538463D01*
X2936493Y8525002D01*
X2922777Y8511286D01*
X2902458Y8504428D01*
X2854706Y8504428D01*
X2995168Y8647684D02*
G01*
X3002025Y8640826D01*
X3008629Y8647684D01*
X3002025Y8654542D01*
X2995168Y8647684D01*
X3002025Y8599931D02*
G01*
X3002025Y8504428D01*
X3128772Y8579358D02*
G01*
X3121913Y8593074D01*
X3101593Y8599931D01*
X3081020Y8599931D01*
X3060445Y8593074D01*
X3053841Y8579358D01*
X3060445Y8565895D01*
X3074161Y8559037D01*
X3108197Y8552179D01*
X3121913Y8545321D01*
X3128772Y8531860D01*
X3128772Y8525002D01*
X3121913Y8511286D01*
X3101593Y8504428D01*
X3081020Y8504428D01*
X3060445Y8511286D01*
X3053841Y8525002D01*
X3173729Y8599931D02*
G01*
X3173729Y8456676D01*
X3173729Y8579358D02*
G01*
X3187445Y8593074D01*
X3200908Y8599931D01*
X3221481Y8599931D01*
X3235197Y8593074D01*
X3248659Y8579358D01*
X3255518Y8559037D01*
X3255518Y8545321D01*
X3248659Y8525002D01*
X3235197Y8511286D01*
X3221481Y8504428D01*
X3200908Y8504428D01*
X3187445Y8511286D01*
X3173729Y8525002D01*
X3300475Y8647684D02*
G01*
X3300475Y8504428D01*
X3427475Y8599931D02*
G01*
X3427475Y8504428D01*
X3427475Y8579358D02*
G01*
X3413759Y8593074D01*
X3400043Y8599931D01*
X3379724Y8599931D01*
X3366008Y8593074D01*
X3352291Y8579358D01*
X3345688Y8559037D01*
X3345688Y8545321D01*
X3352291Y8525002D01*
X3366008Y8511286D01*
X3379724Y8504428D01*
X3400043Y8504428D01*
X3413759Y8511286D01*
X3427475Y8525002D01*
X3479291Y8599931D02*
G01*
X3520186Y8504428D01*
X3561079Y8599931D02*
G01*
X3520186Y8504428D01*
X3506470Y8477250D01*
X3492754Y8463534D01*
X3479291Y8456676D01*
X3472434Y8456676D01*
X3710940Y8647684D02*
G01*
X3710940Y8504428D01*
X3710940Y8647684D02*
G01*
X3772408Y8647684D01*
X3792727Y8640826D01*
X3799586Y8633968D01*
X3806443Y8620505D01*
X3806443Y8606789D01*
X3799586Y8593074D01*
X3792727Y8586215D01*
X3772408Y8579358D01*
X3710940Y8579358D02*
G01*
X3772408Y8579358D01*
X3792727Y8572754D01*
X3799586Y8565895D01*
X3806443Y8552179D01*
X3806443Y8531860D01*
X3799586Y8518144D01*
X3792727Y8511286D01*
X3772408Y8504428D01*
X3710940Y8504428D01*
X3885691Y8599931D02*
G01*
X3871975Y8593074D01*
X3858259Y8579358D01*
X3851402Y8559037D01*
X3851402Y8545321D01*
X3858259Y8525002D01*
X3871975Y8511286D01*
X3885691Y8504428D01*
X3906011Y8504428D01*
X3919727Y8511286D01*
X3933190Y8525002D01*
X3940047Y8545321D01*
X3940047Y8559037D01*
X3933190Y8579358D01*
X3919727Y8593074D01*
X3906011Y8599931D01*
X3885691Y8599931D01*
X4067047Y8599931D02*
G01*
X4067047Y8504428D01*
X4067047Y8579358D02*
G01*
X4053331Y8593074D01*
X4039615Y8599931D01*
X4019295Y8599931D01*
X4005579Y8593074D01*
X3991863Y8579358D01*
X3985006Y8559037D01*
X3985006Y8545321D01*
X3991863Y8525002D01*
X4005579Y8511286D01*
X4019295Y8504428D01*
X4039615Y8504428D01*
X4053331Y8511286D01*
X4067047Y8525002D01*
X4112006Y8599931D02*
G01*
X4112006Y8504428D01*
X4112006Y8559037D02*
G01*
X4118863Y8579358D01*
X4132325Y8593074D01*
X4146041Y8599931D01*
X4166361Y8599931D01*
X4293361Y8647684D02*
G01*
X4293361Y8504428D01*
X4293361Y8579358D02*
G01*
X4279645Y8593074D01*
X4265929Y8599931D01*
X4245609Y8599931D01*
X4231893Y8593074D01*
X4218177Y8579358D01*
X4211574Y8559037D01*
X4211574Y8545321D01*
X4218177Y8525002D01*
X4231893Y8511286D01*
X4245609Y8504428D01*
X4265929Y8504428D01*
X4279645Y8511286D01*
X4293361Y8525002D01*
D11*
X2201672Y8384031D02*
G01*
X2197354Y8393176D01*
X2188209Y8402065D01*
X2179065Y8406637D01*
X2160777Y8406637D01*
X2151888Y8402065D01*
X2142743Y8393176D01*
X2138172Y8384031D01*
X2133600Y8370315D01*
X2133600Y8347710D01*
X2138172Y8333994D01*
X2142743Y8324850D01*
X2151888Y8315705D01*
X2160777Y8311134D01*
X2179065Y8311134D01*
X2188209Y8315705D01*
X2197354Y8324850D01*
X2201672Y8333994D01*
X2254504Y8374887D02*
G01*
X2245359Y8370315D01*
X2236215Y8361171D01*
X2231897Y8347710D01*
X2231897Y8338565D01*
X2236215Y8324850D01*
X2245359Y8315705D01*
X2254504Y8311134D01*
X2268220Y8311134D01*
X2277109Y8315705D01*
X2286254Y8324850D01*
X2290825Y8338565D01*
X2290825Y8347710D01*
X2286254Y8361171D01*
X2277109Y8370315D01*
X2268220Y8374887D01*
X2254504Y8374887D01*
X2320797Y8374887D02*
G01*
X2320797Y8279384D01*
X2320797Y8361171D02*
G01*
X2329941Y8370315D01*
X2339086Y8374887D01*
X2352802Y8374887D01*
X2361691Y8370315D01*
X2370836Y8361171D01*
X2375408Y8347710D01*
X2375408Y8338565D01*
X2370836Y8324850D01*
X2361691Y8315705D01*
X2352802Y8311134D01*
X2339086Y8311134D01*
X2329941Y8315705D01*
X2320797Y8324850D01*
X2409952Y8374887D02*
G01*
X2437129Y8311134D01*
X2464561Y8374887D02*
G01*
X2437129Y8311134D01*
X2428240Y8293100D01*
X2419095Y8283955D01*
X2409952Y8279384D01*
X2405379Y8279384D01*
X2494534Y8374887D02*
G01*
X2494534Y8311134D01*
X2494534Y8347710D02*
G01*
X2499106Y8361171D01*
X2508250Y8370315D01*
X2517140Y8374887D01*
X2530856Y8374887D01*
X2560827Y8406637D02*
G01*
X2565400Y8402065D01*
X2569972Y8406637D01*
X2565400Y8411210D01*
X2560827Y8406637D01*
X2565400Y8374887D02*
G01*
X2565400Y8311134D01*
X2654554Y8374887D02*
G01*
X2654554Y8302244D01*
X2649981Y8288528D01*
X2645409Y8283955D01*
X2636265Y8279384D01*
X2622804Y8279384D01*
X2613659Y8283955D01*
X2654554Y8361171D02*
G01*
X2645409Y8370315D01*
X2636265Y8374887D01*
X2622804Y8374887D01*
X2613659Y8370315D01*
X2604515Y8361171D01*
X2599943Y8347710D01*
X2599943Y8338565D01*
X2604515Y8324850D01*
X2613659Y8315705D01*
X2622804Y8311134D01*
X2636265Y8311134D01*
X2645409Y8315705D01*
X2654554Y8324850D01*
X2684525Y8406637D02*
G01*
X2684525Y8311134D01*
X2684525Y8356600D02*
G01*
X2698241Y8370315D01*
X2707131Y8374887D01*
X2720847Y8374887D01*
X2729991Y8370315D01*
X2734563Y8356600D01*
X2734563Y8311134D01*
X2778252Y8406637D02*
G01*
X2778252Y8329421D01*
X2782570Y8315705D01*
X2791713Y8311134D01*
X2800858Y8311134D01*
X2764536Y8374887D02*
G01*
X2796286Y8374887D01*
X2932684Y8424926D02*
G01*
X2923540Y8415781D01*
X2914395Y8402065D01*
X2905506Y8384031D01*
X2900934Y8361171D01*
X2900934Y8343137D01*
X2905506Y8320278D01*
X2914395Y8302244D01*
X2923540Y8288528D01*
X2932684Y8279384D01*
X3017265Y8361171D02*
G01*
X3008122Y8370315D01*
X2998977Y8374887D01*
X2985515Y8374887D01*
X2976372Y8370315D01*
X2967227Y8361171D01*
X2962656Y8347710D01*
X2962656Y8338565D01*
X2967227Y8324850D01*
X2976372Y8315705D01*
X2985515Y8311134D01*
X2998977Y8311134D01*
X3008122Y8315705D01*
X3017265Y8324850D01*
X3047238Y8424926D02*
G01*
X3056381Y8415781D01*
X3065525Y8402065D01*
X3074415Y8384031D01*
X3078988Y8361171D01*
X3078988Y8343137D01*
X3074415Y8320278D01*
X3065525Y8302244D01*
X3056381Y8288528D01*
X3047238Y8279384D01*
X3183636Y8384031D02*
G01*
X3183636Y8388604D01*
X3188208Y8397494D01*
X3192779Y8402065D01*
X3201670Y8406637D01*
X3219958Y8406637D01*
X3229102Y8402065D01*
X3233674Y8397494D01*
X3238245Y8388604D01*
X3238245Y8379460D01*
X3233674Y8370315D01*
X3224529Y8356600D01*
X3179063Y8311134D01*
X3242563Y8311134D01*
X3299968Y8406637D02*
G01*
X3286252Y8402065D01*
X3277108Y8388604D01*
X3272790Y8365744D01*
X3272790Y8352281D01*
X3277108Y8329421D01*
X3286252Y8315705D01*
X3299968Y8311134D01*
X3309111Y8311134D01*
X3322574Y8315705D01*
X3331718Y8329421D01*
X3336290Y8352281D01*
X3336290Y8365744D01*
X3331718Y8388604D01*
X3322574Y8402065D01*
X3309111Y8406637D01*
X3299968Y8406637D01*
X3370834Y8384031D02*
G01*
X3370834Y8388604D01*
X3375406Y8397494D01*
X3379977Y8402065D01*
X3389122Y8406637D01*
X3407156Y8406637D01*
X3416300Y8402065D01*
X3420872Y8397494D01*
X3425443Y8388604D01*
X3425443Y8379460D01*
X3420872Y8370315D01*
X3411727Y8356600D01*
X3366261Y8311134D01*
X3430015Y8311134D01*
X3469131Y8406637D02*
G01*
X3519170Y8406637D01*
X3491738Y8370315D01*
X3505454Y8370315D01*
X3514597Y8365744D01*
X3519170Y8361171D01*
X3523488Y8347710D01*
X3523488Y8338565D01*
X3519170Y8324850D01*
X3510025Y8315705D01*
X3496309Y8311134D01*
X3482593Y8311134D01*
X3469131Y8315705D01*
X3464559Y8320278D01*
X3459988Y8329421D01*
X3623563Y8406637D02*
G01*
X3623563Y8311134D01*
X3623563Y8406637D02*
G01*
X3687318Y8311134D01*
X3687318Y8406637D02*
G01*
X3687318Y8311134D01*
X3717290Y8406637D02*
G01*
X3717290Y8311134D01*
X3717290Y8406637D02*
G01*
X3749040Y8406637D01*
X3762756Y8402065D01*
X3771900Y8393176D01*
X3776218Y8384031D01*
X3780790Y8370315D01*
X3780790Y8347710D01*
X3776218Y8333994D01*
X3771900Y8324850D01*
X3762756Y8315705D01*
X3749040Y8311134D01*
X3717290Y8311134D01*
X2616200Y8228837D02*
G01*
X2616200Y8133334D01*
X2616200Y8228837D02*
G01*
X2657093Y8228837D01*
X2670809Y8224265D01*
X2675381Y8219694D01*
X2679954Y8210804D01*
X2679954Y8201660D01*
X2675381Y8192515D01*
X2670809Y8187944D01*
X2657093Y8183371D01*
X2616200Y8183371D01*
X2647950Y8183371D02*
G01*
X2679954Y8133334D01*
X2709925Y8169910D02*
G01*
X2764281Y8169910D01*
X2764281Y8178800D01*
X2759709Y8187944D01*
X2755391Y8192515D01*
X2746247Y8197087D01*
X2732531Y8197087D01*
X2723388Y8192515D01*
X2714497Y8183371D01*
X2709925Y8169910D01*
X2709925Y8160765D01*
X2714497Y8147050D01*
X2723388Y8137905D01*
X2732531Y8133334D01*
X2746247Y8133334D01*
X2755391Y8137905D01*
X2764281Y8147050D01*
X2794508Y8197087D02*
G01*
X2821686Y8133334D01*
X2848863Y8197087D02*
G01*
X2821686Y8133334D01*
X2883408Y8156194D02*
G01*
X2878836Y8151621D01*
X2883408Y8147050D01*
X2887979Y8151621D01*
X2883408Y8156194D01*
X2988056Y8210804D02*
G01*
X2997200Y8215376D01*
X3010661Y8228837D01*
X3010661Y8133334D01*
X3045206Y8156194D02*
G01*
X3040634Y8151621D01*
X3045206Y8147050D01*
X3049777Y8151621D01*
X3045206Y8156194D01*
X3125215Y8228837D02*
G01*
X3079750Y8165337D01*
X3148075Y8165337D01*
X3125215Y8228837D02*
G01*
X3125215Y8133334D01*
X3182620Y8156194D02*
G01*
X3178047Y8151621D01*
X3182620Y8147050D01*
X3187191Y8151621D01*
X3182620Y8156194D01*
X3217163Y8210804D02*
G01*
X3226308Y8215376D01*
X3239770Y8228837D01*
X3239770Y8133334D01*
D12*
X826770Y10199115D02*
G01*
X826770Y10116058D01*
X821436Y10100310D01*
X816355Y10095229D01*
X805942Y10090150D01*
X795528Y10090150D01*
X785113Y10095229D01*
X779779Y10100310D01*
X774700Y10116058D01*
X774700Y10126471D01*
X861060Y10178287D02*
G01*
X871220Y10183621D01*
X886968Y10199115D01*
X886968Y10090150D01*
X5220970Y10199115D02*
G01*
X5220970Y10116058D01*
X5215636Y10100310D01*
X5210556Y10095229D01*
X5200141Y10090150D01*
X5189727Y10090150D01*
X5179313Y10095229D01*
X5173979Y10100310D01*
X5168900Y10116058D01*
X5168900Y10126471D01*
X5260340Y10173208D02*
G01*
X5260340Y10178287D01*
X5265420Y10188702D01*
X5270754Y10194036D01*
X5281168Y10199115D01*
X5301995Y10199115D01*
X5312409Y10194036D01*
X5317490Y10188702D01*
X5322570Y10178287D01*
X5322570Y10167874D01*
X5317490Y10157460D01*
X5307075Y10141965D01*
X5255259Y10090150D01*
X5327904Y10090150D01*
X3887977Y10947908D02*
G01*
X3882643Y10958321D01*
X3872229Y10968736D01*
X3862070Y10973815D01*
X3841241Y10973815D01*
X3830827Y10968736D01*
X3820413Y10958321D01*
X3815079Y10947908D01*
X3810000Y10932160D01*
X3810000Y10906252D01*
X3815079Y10890758D01*
X3820413Y10880344D01*
X3830827Y10869929D01*
X3841241Y10864850D01*
X3862070Y10864850D01*
X3872229Y10869929D01*
X3882643Y10880344D01*
X3887977Y10890758D01*
X3932681Y10973815D02*
G01*
X3989831Y10973815D01*
X3958590Y10932160D01*
X3974084Y10932160D01*
X3984497Y10927079D01*
X3989831Y10922000D01*
X3994911Y10906252D01*
X3994911Y10895837D01*
X3989831Y10880344D01*
X3979418Y10869929D01*
X3963670Y10864850D01*
X3948175Y10864850D01*
X3932681Y10869929D01*
X3927347Y10875010D01*
X3922268Y10885424D01*
X3162300Y11583415D02*
G01*
X3162300Y11474450D01*
X3162300Y11583415D02*
G01*
X3209036Y11583415D01*
X3224529Y11578336D01*
X3229863Y11573002D01*
X3234943Y11562587D01*
X3234943Y11552174D01*
X3229863Y11541760D01*
X3224529Y11536679D01*
X3209036Y11531600D01*
X3162300Y11531600D01*
X3198622Y11531600D02*
G01*
X3234943Y11474450D01*
X3269234Y11562587D02*
G01*
X3279647Y11567921D01*
X3295395Y11583415D01*
X3295395Y11474450D01*
X3632200Y11799315D02*
G01*
X3632200Y11690350D01*
X3632200Y11799315D02*
G01*
X3678936Y11799315D01*
X3694429Y11794236D01*
X3699763Y11788902D01*
X3704843Y11778487D01*
X3704843Y11768074D01*
X3699763Y11757660D01*
X3694429Y11752579D01*
X3678936Y11747500D01*
X3632200Y11747500D01*
X3668522Y11747500D02*
G01*
X3704843Y11690350D01*
X3744468Y11773408D02*
G01*
X3744468Y11778487D01*
X3749547Y11788902D01*
X3754881Y11794236D01*
X3765295Y11799315D01*
X3785870Y11799315D01*
X3796284Y11794236D01*
X3801618Y11788902D01*
X3806697Y11778487D01*
X3806697Y11768074D01*
X3801618Y11757660D01*
X3791204Y11742165D01*
X3739134Y11690350D01*
X3812031Y11690350D01*
X3149600Y6973315D02*
G01*
X3149600Y6864350D01*
X3149600Y6973315D02*
G01*
X3196336Y6973315D01*
X3211829Y6968236D01*
X3217163Y6962902D01*
X3222243Y6952487D01*
X3222243Y6942073D01*
X3217163Y6931660D01*
X3211829Y6926579D01*
X3196336Y6921500D01*
X3149600Y6921500D01*
X3185922Y6921500D02*
G01*
X3222243Y6864350D01*
X3266947Y6973315D02*
G01*
X3324097Y6973315D01*
X3293109Y6931660D01*
X3308604Y6931660D01*
X3319018Y6926579D01*
X3324097Y6921500D01*
X3329431Y6905752D01*
X3329431Y6895337D01*
X3324097Y6879844D01*
X3313684Y6869429D01*
X3298190Y6864350D01*
X3282695Y6864350D01*
X3266947Y6869429D01*
X3261868Y6874510D01*
X3256534Y6884923D01*
X2641600Y6973315D02*
G01*
X2641600Y6864350D01*
X2641600Y6973315D02*
G01*
X2688336Y6973315D01*
X2703829Y6968236D01*
X2709163Y6962902D01*
X2714243Y6952487D01*
X2714243Y6942073D01*
X2709163Y6931660D01*
X2703829Y6926579D01*
X2688336Y6921500D01*
X2641600Y6921500D01*
X2677922Y6921500D02*
G01*
X2714243Y6864350D01*
X2800604Y6973315D02*
G01*
X2748534Y6900671D01*
X2826511Y6900671D01*
X2800604Y6973315D02*
G01*
X2800604Y6864350D01*
X2159000Y6706615D02*
G01*
X2159000Y6597650D01*
X2159000Y6706615D02*
G01*
X2205736Y6706615D01*
X2221229Y6701536D01*
X2226563Y6696202D01*
X2231643Y6685787D01*
X2231643Y6675373D01*
X2226563Y6664960D01*
X2221229Y6659879D01*
X2205736Y6654800D01*
X2159000Y6654800D01*
X2195322Y6654800D02*
G01*
X2231643Y6597650D01*
X2328418Y6706615D02*
G01*
X2276347Y6706615D01*
X2271268Y6659879D01*
X2276347Y6664960D01*
X2292095Y6670294D01*
X2307590Y6670294D01*
X2323084Y6664960D01*
X2333497Y6654800D01*
X2338831Y6639052D01*
X2338831Y6628637D01*
X2333497Y6613144D01*
X2323084Y6602729D01*
X2307590Y6597650D01*
X2292095Y6597650D01*
X2276347Y6602729D01*
X2271268Y6607810D01*
X2265934Y6618223D01*
X2641600Y11583415D02*
G01*
X2641600Y11474450D01*
X2641600Y11583415D02*
G01*
X2688336Y11583415D01*
X2703829Y11578336D01*
X2709163Y11573002D01*
X2714243Y11562587D01*
X2714243Y11552174D01*
X2709163Y11541760D01*
X2703829Y11536679D01*
X2688336Y11531600D01*
X2641600Y11531600D01*
X2677922Y11531600D02*
G01*
X2714243Y11474450D01*
X2811018Y11567921D02*
G01*
X2805684Y11578336D01*
X2790190Y11583415D01*
X2779775Y11583415D01*
X2764281Y11578336D01*
X2753868Y11562587D01*
X2748534Y11536679D01*
X2748534Y11510771D01*
X2753868Y11489944D01*
X2764281Y11479529D01*
X2779775Y11474450D01*
X2785109Y11474450D01*
X2800604Y11479529D01*
X2811018Y11489944D01*
X2816097Y11505437D01*
X2816097Y11510771D01*
X2811018Y11526265D01*
X2800604Y11536679D01*
X2785109Y11541760D01*
X2779775Y11541760D01*
X2764281Y11536679D01*
X2753868Y11526265D01*
X2748534Y11510771D01*
X2146300Y11812015D02*
G01*
X2146300Y11703050D01*
X2146300Y11812015D02*
G01*
X2193036Y11812015D01*
X2208529Y11806936D01*
X2213863Y11801602D01*
X2218943Y11791187D01*
X2218943Y11780774D01*
X2213863Y11770360D01*
X2208529Y11765279D01*
X2193036Y11760200D01*
X2146300Y11760200D01*
X2182622Y11760200D02*
G01*
X2218943Y11703050D01*
X2326131Y11812015D02*
G01*
X2274061Y11703050D01*
X2253234Y11812015D02*
G01*
X2326131Y11812015D01*
X3632200Y6732015D02*
G01*
X3632200Y6623050D01*
X3632200Y6732015D02*
G01*
X3678936Y6732015D01*
X3694429Y6726936D01*
X3699763Y6721602D01*
X3704843Y6711187D01*
X3704843Y6700773D01*
X3699763Y6690360D01*
X3694429Y6685279D01*
X3678936Y6680200D01*
X3632200Y6680200D01*
X3668522Y6680200D02*
G01*
X3704843Y6623050D01*
X3765295Y6732015D02*
G01*
X3749547Y6726936D01*
X3744468Y6716521D01*
X3744468Y6706108D01*
X3749547Y6695694D01*
X3759961Y6690360D01*
X3780790Y6685279D01*
X3796284Y6680200D01*
X3806697Y6669786D01*
X3812031Y6659371D01*
X3812031Y6643623D01*
X3806697Y6633210D01*
X3801618Y6628129D01*
X3785870Y6623050D01*
X3765295Y6623050D01*
X3749547Y6628129D01*
X3744468Y6633210D01*
X3739134Y6643623D01*
X3739134Y6659371D01*
X3744468Y6669786D01*
X3754881Y6680200D01*
X3770375Y6685279D01*
X3791204Y6690360D01*
X3801618Y6695694D01*
X3806697Y6706108D01*
X3806697Y6716521D01*
X3801618Y6726936D01*
X3785870Y6732015D01*
X3765295Y6732015D01*
X1879600Y10427715D02*
G01*
X1879600Y10349737D01*
X1884679Y10334244D01*
X1895094Y10323829D01*
X1910842Y10318750D01*
X1921255Y10318750D01*
X1936750Y10323829D01*
X1947163Y10334244D01*
X1952243Y10349737D01*
X1952243Y10427715D01*
X1986534Y10406887D02*
G01*
X1996947Y10412221D01*
X2012695Y10427715D01*
X2012695Y10318750D01*
X3302000Y10453115D02*
G01*
X3302000Y10375137D01*
X3307079Y10359644D01*
X3317493Y10349229D01*
X3333241Y10344150D01*
X3343656Y10344150D01*
X3359150Y10349229D01*
X3369563Y10359644D01*
X3374643Y10375137D01*
X3374643Y10453115D01*
X3414268Y10427208D02*
G01*
X3414268Y10432287D01*
X3419347Y10442702D01*
X3424681Y10448036D01*
X3435095Y10453115D01*
X3455670Y10453115D01*
X3466084Y10448036D01*
X3471418Y10442702D01*
X3476497Y10432287D01*
X3476497Y10421874D01*
X3471418Y10411460D01*
X3461004Y10395965D01*
X3408934Y10344150D01*
X3481831Y10344150D01*
X1754378Y9030208D02*
G01*
X1749044Y9040621D01*
X1738629Y9051036D01*
X1728470Y9056115D01*
X1707642Y9056115D01*
X1697228Y9051036D01*
X1686813Y9040621D01*
X1681479Y9030208D01*
X1676400Y9014460D01*
X1676400Y8988552D01*
X1681479Y8973058D01*
X1686813Y8962644D01*
X1697228Y8952229D01*
X1707642Y8947150D01*
X1728470Y8947150D01*
X1738629Y8952229D01*
X1749044Y8962644D01*
X1754378Y8973058D01*
X1788668Y9035287D02*
G01*
X1799081Y9040621D01*
X1814576Y9056115D01*
X1814576Y8947150D01*
X3799077Y10643108D02*
G01*
X3793743Y10653521D01*
X3783329Y10663936D01*
X3773170Y10669015D01*
X3752341Y10669015D01*
X3741927Y10663936D01*
X3731513Y10653521D01*
X3726179Y10643108D01*
X3721100Y10627360D01*
X3721100Y10601452D01*
X3726179Y10585958D01*
X3731513Y10575544D01*
X3741927Y10565129D01*
X3752341Y10560050D01*
X3773170Y10560050D01*
X3783329Y10565129D01*
X3793743Y10575544D01*
X3799077Y10585958D01*
X3838447Y10643108D02*
G01*
X3838447Y10648187D01*
X3843781Y10658602D01*
X3848861Y10663936D01*
X3859275Y10669015D01*
X3880104Y10669015D01*
X3890518Y10663936D01*
X3895597Y10658602D01*
X3900931Y10648187D01*
X3900931Y10637774D01*
X3895597Y10627360D01*
X3885184Y10611865D01*
X3833368Y10560050D01*
X3906011Y10560050D01*
G36*
X4194860Y10660380D02*
G01*
X4194860Y10614660D01*
X4210050Y10614660D01*
X4210050Y10660380D01*
G37*
G36*
X4019550Y10660380D02*
G01*
X4019550Y10614660D01*
X4034739Y10614660D01*
X4034739Y10660380D01*
G37*
D13*
X977900Y9855200D02*
G01*
X977900Y10045700D01*
X723900Y10045700D01*
X723900Y7505700D01*
X977900Y7505700D01*
D14*
X977900Y7505700D02*
G01*
X977900Y9855200D01*
D13*
X5372100Y9855200D02*
G01*
X5372100Y10045700D01*
X5118100Y10045700D01*
X5118100Y7505700D01*
X5372100Y7505700D01*
D14*
X5372100Y7505700D02*
G01*
X5372100Y9855200D01*
D12*
X4202422Y10988017D02*
G01*
X4202422Y10652782D01*
X4027177Y10988017D02*
G01*
X4027177Y10652782D01*
X4202422Y10759968D02*
G01*
X4027177Y10759968D01*
X3333709Y11944220D02*
G01*
X3333709Y12080212D01*
X3117890Y12080212D01*
X3117890Y11944220D01*
X3333709Y11753979D02*
G01*
X3333709Y11617987D01*
X3117890Y11617987D01*
X3117890Y11753979D01*
X3829009Y12172820D02*
G01*
X3829009Y12308812D01*
X3613190Y12308812D01*
X3613190Y12172820D01*
X3829009Y11982579D02*
G01*
X3829009Y11846587D01*
X3613190Y11846587D01*
X3613190Y11982579D01*
X3117890Y6496179D02*
G01*
X3117890Y6360187D01*
X3333709Y6360187D01*
X3333709Y6496179D01*
X3117890Y6686420D02*
G01*
X3117890Y6822412D01*
X3333709Y6822412D01*
X3333709Y6686420D01*
X2609890Y6496179D02*
G01*
X2609890Y6360187D01*
X2825709Y6360187D01*
X2825709Y6496179D01*
X2609890Y6686420D02*
G01*
X2609890Y6822412D01*
X2825709Y6822412D01*
X2825709Y6686420D01*
X2127290Y6242179D02*
G01*
X2127290Y6106187D01*
X2343109Y6106187D01*
X2343109Y6242179D01*
X2127290Y6432420D02*
G01*
X2127290Y6568412D01*
X2343109Y6568412D01*
X2343109Y6432420D01*
X2838409Y11944220D02*
G01*
X2838409Y12080212D01*
X2622590Y12080212D01*
X2622590Y11944220D01*
X2838409Y11753979D02*
G01*
X2838409Y11617987D01*
X2622590Y11617987D01*
X2622590Y11753979D01*
X2343109Y12172820D02*
G01*
X2343109Y12308812D01*
X2127290Y12308812D01*
X2127290Y12172820D01*
X2343109Y11982579D02*
G01*
X2343109Y11846587D01*
X2127290Y11846587D01*
X2127290Y11982579D01*
X3600490Y6254879D02*
G01*
X3600490Y6118887D01*
X3816309Y6118887D01*
X3816309Y6254879D01*
X3600490Y6445120D02*
G01*
X3600490Y6581112D01*
X3816309Y6581112D01*
X3816309Y6445120D01*
D15*
X687806Y12738100D02*
G01*
X5417794Y12738100D01*
X5417794Y5758103D01*
X677798Y5758103D01*
X667791Y5768111D01*
X667791Y12728117D01*
X677798Y12738100D01*
X1828545Y9281413D02*
G01*
X2153920Y9281413D01*
X2153920Y10276586D01*
X1785620Y10276586D01*
X1785620Y9281413D01*
X1828545Y9281413D01*
X3276600Y9144000D02*
G01*
X3962400Y9144000D01*
X3962400Y10312400D01*
X3276600Y10312400D01*
X3276600Y9144000D01*
D12*
X1584180Y9091739D02*
G01*
X1725180Y9091739D01*
X1725180Y9272460D02*
G01*
X1584180Y9272460D01*
X1568940Y9257220D02*
G01*
X1568940Y9106979D01*
X1946419Y9091739D02*
G01*
X1805419Y9091739D01*
X1805419Y9272460D02*
G01*
X1946419Y9272460D01*
X1961659Y9257220D02*
G01*
X1961659Y9106979D01*
X3902219Y10517060D02*
G01*
X3761219Y10517060D01*
X3761219Y10336339D02*
G01*
X3902219Y10336339D01*
X3917459Y10351579D02*
G01*
X3917459Y10501820D01*
X3539980Y10517060D02*
G01*
X3680980Y10517060D01*
X3680980Y10336339D02*
G01*
X3539980Y10336339D01*
X3524740Y10351579D02*
G01*
X3524740Y10501820D01*
D16*
G75*
G01*
X2197100Y9248140D02*
G03*
X2197100Y9248394I20000J127D01*
D12*
G75*
G01*
X1584180Y9272460D02*
G03*
X1568940Y9257221I0J-15240D01*
G75*
G01*
X1568940Y9106980D02*
G03*
X1584180Y9091740I15240J0D01*
G75*
G01*
X1946420Y9272460D02*
G02*
X1961660Y9257221I0J-15240D01*
G75*
G01*
X1961660Y9106980D02*
G02*
X1946420Y9091740I-15240J0D01*
G75*
G01*
X3902220Y10336340D02*
G03*
X3917460Y10351580I0J15240D01*
G75*
G01*
X3917460Y10501821D02*
G03*
X3902220Y10517060I-15240J-1D01*
G75*
G01*
X3539980Y10336340D02*
G02*
X3524740Y10351580I0J15240D01*
G75*
G01*
X3524740Y10501821D02*
G02*
X3539980Y10517060I15240J-1D01*
D17*
G75*
G01
X3886403Y9220200D02*
G03X3886403Y9220200I-15011J0D01*
G75*
G01
X4114521Y9146972D02*
G03X4114521Y9146972I-15011J0D01*
M02*
