G04 Layer: TopSolderMaskLayer*
G04 EasyEDA v6.5.22, 2023-04-04 14:03:21*
G04 47d133e18a1f4bd981f81e581058f082,0997c0c323a540828c61b468e30a80a1,10*
G04 Gerber Generator version 0.2*
G04 Scale: 100 percent, Rotated: No, Reflected: No *
G04 Dimensions in millimeters *
G04 leading zeros omitted , absolute positions ,4 integer and 5 decimal *
%FSLAX45Y45*%
%MOMM*%

%AMMACRO1*1,1,$1,$2,$3*1,1,$1,$4,$5*1,1,$1,0-$2,0-$3*1,1,$1,0-$4,0-$5*20,1,$1,$2,$3,$4,$5,0*20,1,$1,$4,$5,0-$2,0-$3,0*20,1,$1,0-$2,0-$3,0-$4,0-$5,0*20,1,$1,0-$4,0-$5,$2,$3,0*4,1,4,$2,$3,$4,$5,0-$2,0-$3,0-$4,0-$5,$2,$3,0*%
%ADD10MACRO1,0.1016X-1.728X0.6413X1.728X0.6413*%
%ADD11MACRO1,0.1016X-1.728X-0.6413X1.728X-0.6413*%
%ADD12O,2.2015958X0.6615938*%
%ADD13MACRO1,0.1016X0.705X0.675X0.705X-0.675*%
%ADD14MACRO1,0.1016X-0.705X0.675X-0.705X-0.675*%
%ADD15MACRO1,0.1016X-0.705X-0.675X-0.705X0.675*%
%ADD16MACRO1,0.1016X0.705X-0.675X0.705X0.675*%
%ADD17MACRO1,0.1016X-1.188X-0.7531X1.188X-0.7531*%
%ADD18MACRO1,0.1016X-1.188X0.7531X1.188X0.7531*%
%ADD19R,1.6764X1.6764*%
%ADD20C,1.6764*%
%ADD21MACRO1,0.1016X1.728X-0.6413X-1.728X-0.6413*%
%ADD22MACRO1,0.1016X1.728X0.6413X-1.728X0.6413*%
%ADD23O,1.9015963999999999X0.7015988*%
%ADD24O,1.6256000000000002X2.1015960000000002*%

%LPD*%
D10*
G01*
X3797300Y6195773D03*
D11*
G01*
X3797300Y6809026D03*
D12*
G01*
X4099509Y9220200D03*
G01*
X4099509Y9347200D03*
G01*
X4099509Y9474200D03*
G01*
X4099509Y9601200D03*
G01*
X4099509Y9728200D03*
G01*
X4099509Y9855200D03*
G01*
X4099509Y9982200D03*
G01*
X4099509Y10109200D03*
G01*
X4099509Y10236200D03*
G01*
X3139490Y9220200D03*
G01*
X3139490Y9347200D03*
G01*
X3139490Y9474200D03*
G01*
X3139490Y9601200D03*
G01*
X3139490Y9728200D03*
G01*
X3139490Y9855200D03*
G01*
X3139490Y9982200D03*
G01*
X3139490Y10109200D03*
G01*
X3139490Y10236200D03*
D13*
G01*
X1665297Y9182100D03*
D14*
G01*
X1865302Y9182100D03*
D15*
G01*
X3821102Y10426700D03*
D16*
G01*
X3621097Y10426700D03*
D17*
G01*
X4089400Y10739762D03*
D18*
G01*
X4089400Y10367637D03*
D19*
G01*
X850900Y8140700D03*
D20*
G01*
X850900Y8394700D03*
G01*
X850900Y8648700D03*
G01*
X850900Y8902700D03*
G01*
X850900Y9156700D03*
G01*
X850900Y9410700D03*
G01*
X850900Y9664700D03*
G01*
X850900Y9918700D03*
D19*
G01*
X5245100Y8140700D03*
D20*
G01*
X5245100Y8394700D03*
G01*
X5245100Y8648700D03*
G01*
X5245100Y8902700D03*
G01*
X5245100Y9156700D03*
G01*
X5245100Y9410700D03*
G01*
X5245100Y9664700D03*
G01*
X5245100Y9918700D03*
D21*
G01*
X3352800Y12003326D03*
D22*
G01*
X3352800Y11390073D03*
D21*
G01*
X3797300Y12231926D03*
D22*
G01*
X3797300Y11618673D03*
D10*
G01*
X3352800Y6411673D03*
D11*
G01*
X3352800Y7024926D03*
D10*
G01*
X2603500Y6411673D03*
D11*
G01*
X2603500Y7024926D03*
D10*
G01*
X2159000Y6195773D03*
D11*
G01*
X2159000Y6809026D03*
D21*
G01*
X2590800Y12003326D03*
D22*
G01*
X2590800Y11390073D03*
D21*
G01*
X2146300Y12219226D03*
D22*
G01*
X2146300Y11605973D03*
D23*
G01*
X1671320Y10223500D03*
G01*
X1671320Y10096500D03*
G01*
X1671320Y9969500D03*
G01*
X1671320Y9842500D03*
G01*
X1671320Y9715500D03*
G01*
X1671320Y9588500D03*
G01*
X1671320Y9461500D03*
G01*
X1671320Y9334500D03*
G01*
X2265679Y10223500D03*
G01*
X2265679Y10096500D03*
G01*
X2265679Y9969500D03*
G01*
X2265679Y9842500D03*
G01*
X2265679Y9715500D03*
G01*
X2265679Y9588500D03*
G01*
X2265679Y9461500D03*
G01*
X2265679Y9334500D03*
D24*
G01*
X3487927Y12227813D03*
G01*
X3227831Y12228068D03*
G01*
X2977895Y12227813D03*
G01*
X2727959Y12227813D03*
G01*
X2468118Y12227813D03*
G01*
X3477768Y6198107D03*
G01*
X3227831Y6198107D03*
G01*
X2977895Y6188202D03*
G01*
X2718054Y6187947D03*
G01*
X2467863Y6188202D03*
M02*
