G04 Layer: TopLayer*
G04 EasyEDA v6.5.22, 2023-04-04 14:03:21*
G04 47d133e18a1f4bd981f81e581058f082,0997c0c323a540828c61b468e30a80a1,10*
G04 Gerber Generator version 0.2*
G04 Scale: 100 percent, Rotated: No, Reflected: No *
G04 Dimensions in millimeters *
G04 leading zeros omitted , absolute positions ,4 integer and 5 decimal *
%FSLAX45Y45*%
%MOMM*%

%AMMACRO1*21,1,$1,$2,0,0,$3*%
%ADD10C,0.5000*%
%ADD11C,1.0000*%
%ADD12C,0.2500*%
%ADD13MACRO1,3.456X1.2825X0.0000*%
%ADD14R,3.4560X1.2825*%
%ADD15O,2.0999958X0.5599938*%
%ADD16MACRO1,1.35X1.41X-90.0000*%
%ADD17MACRO1,1.35X1.41X90.0000*%
%ADD18R,2.3760X1.5062*%
%ADD19MACRO1,2.376X1.5063X0.0000*%
%ADD20O,1.7999964X0.5999988*%
%ADD21R,1.5748X1.5748*%
%ADD22C,1.5748*%
%ADD23O,1.524X1.9999959999999999*%
%ADD24C,0.6100*%
%ADD25C,0.0183*%

%LPD*%
G36*
X736092Y5825896D02*
G01*
X732180Y5826658D01*
X728878Y5828893D01*
X726694Y5832144D01*
X725932Y5836056D01*
X725932Y8694826D01*
X726694Y8698738D01*
X728878Y8702040D01*
X732180Y8704224D01*
X736092Y8704986D01*
X739952Y8704224D01*
X743254Y8702040D01*
X750366Y8694928D01*
X752449Y8691829D01*
X753313Y8688171D01*
X752805Y8684463D01*
X749858Y8675776D01*
X747166Y8662365D01*
X746252Y8648700D01*
X747166Y8635034D01*
X749858Y8621623D01*
X754227Y8608669D01*
X760272Y8596376D01*
X767892Y8584996D01*
X776935Y8574735D01*
X787196Y8565692D01*
X798576Y8558072D01*
X810869Y8552027D01*
X823823Y8547658D01*
X837234Y8544966D01*
X850900Y8544052D01*
X864565Y8544966D01*
X877976Y8547658D01*
X890930Y8552027D01*
X903224Y8558072D01*
X914603Y8565692D01*
X924864Y8574735D01*
X933907Y8584996D01*
X941527Y8596376D01*
X947572Y8608669D01*
X951941Y8621623D01*
X954633Y8635034D01*
X955548Y8648700D01*
X954633Y8662365D01*
X951941Y8675776D01*
X947572Y8688730D01*
X941527Y8701024D01*
X933907Y8712403D01*
X924864Y8722664D01*
X914603Y8731707D01*
X903224Y8739327D01*
X890930Y8745372D01*
X877976Y8749741D01*
X864565Y8752433D01*
X850900Y8753348D01*
X837234Y8752433D01*
X823823Y8749741D01*
X815136Y8746794D01*
X811428Y8746286D01*
X807770Y8747150D01*
X804672Y8749233D01*
X771855Y8782050D01*
X769670Y8785352D01*
X768908Y8789263D01*
X768908Y8813342D01*
X769620Y8817102D01*
X771702Y8820353D01*
X774852Y8822588D01*
X778611Y8823502D01*
X782421Y8822944D01*
X785723Y8820962D01*
X787196Y8819692D01*
X798576Y8812072D01*
X810869Y8806027D01*
X823823Y8801658D01*
X837234Y8798966D01*
X850900Y8798052D01*
X864565Y8798966D01*
X877976Y8801658D01*
X890930Y8806027D01*
X903224Y8812072D01*
X914603Y8819692D01*
X924864Y8828735D01*
X933907Y8838996D01*
X941527Y8850376D01*
X947572Y8862669D01*
X951941Y8875623D01*
X954633Y8889034D01*
X955548Y8902700D01*
X954633Y8916365D01*
X951941Y8929776D01*
X947572Y8942730D01*
X941527Y8955024D01*
X933907Y8966403D01*
X924864Y8976664D01*
X914603Y8985707D01*
X903224Y8993327D01*
X890930Y8999372D01*
X877976Y9003741D01*
X864565Y9006433D01*
X850900Y9007348D01*
X837234Y9006433D01*
X823823Y9003741D01*
X810869Y8999372D01*
X798576Y8993327D01*
X787196Y8985707D01*
X785723Y8984437D01*
X782421Y8982456D01*
X778611Y8981897D01*
X774852Y8982811D01*
X771702Y8985046D01*
X769620Y8988298D01*
X768908Y8992057D01*
X768908Y9067342D01*
X769620Y9071102D01*
X771702Y9074353D01*
X774852Y9076588D01*
X778611Y9077502D01*
X782421Y9076944D01*
X785723Y9074962D01*
X787196Y9073692D01*
X798576Y9066072D01*
X810869Y9060027D01*
X823823Y9055658D01*
X837234Y9052966D01*
X850900Y9052052D01*
X864565Y9052966D01*
X877976Y9055658D01*
X890930Y9060027D01*
X903224Y9066072D01*
X914603Y9073692D01*
X924864Y9082735D01*
X933907Y9092996D01*
X941527Y9104376D01*
X947572Y9116669D01*
X951941Y9129623D01*
X954633Y9143034D01*
X955090Y9149943D01*
X955954Y9153499D01*
X958037Y9156496D01*
X1311148Y9509607D01*
X1314450Y9511842D01*
X1318361Y9512604D01*
X1559610Y9512604D01*
X1563928Y9511639D01*
X1567434Y9508947D01*
X1569466Y9505086D01*
X1569618Y9500666D01*
X1567942Y9496602D01*
X1562912Y9489440D01*
X1558798Y9480600D01*
X1556308Y9471202D01*
X1555445Y9461500D01*
X1556308Y9451797D01*
X1558798Y9442399D01*
X1562912Y9433560D01*
X1568500Y9425584D01*
X1575409Y9418726D01*
X1583385Y9413138D01*
X1592224Y9409023D01*
X1596644Y9407804D01*
X1600555Y9405772D01*
X1603197Y9402318D01*
X1604162Y9398000D01*
X1603197Y9393682D01*
X1600555Y9390227D01*
X1596644Y9388195D01*
X1592224Y9386976D01*
X1583385Y9382861D01*
X1575409Y9377273D01*
X1568500Y9370415D01*
X1562912Y9362440D01*
X1558798Y9353600D01*
X1556308Y9344202D01*
X1555445Y9334500D01*
X1556308Y9324797D01*
X1559763Y9311436D01*
X1559102Y9307423D01*
X1556918Y9304020D01*
X1553616Y9301734D01*
X1549654Y9300921D01*
X1419860Y9300921D01*
X1415542Y9301835D01*
X1413205Y9302953D01*
X1403705Y9305493D01*
X1393901Y9306356D01*
X1384096Y9305493D01*
X1374648Y9302953D01*
X1365707Y9298787D01*
X1357680Y9293199D01*
X1350721Y9286240D01*
X1345082Y9278162D01*
X1340916Y9269272D01*
X1338376Y9259773D01*
X1337513Y9249968D01*
X1338376Y9240215D01*
X1340916Y9230715D01*
X1345082Y9221825D01*
X1350721Y9213748D01*
X1357680Y9206788D01*
X1365707Y9201200D01*
X1374648Y9197035D01*
X1384096Y9194495D01*
X1393901Y9193631D01*
X1403705Y9194495D01*
X1413205Y9197035D01*
X1415542Y9198152D01*
X1419860Y9199067D01*
X1558747Y9199067D01*
X1562608Y9198305D01*
X1565910Y9196120D01*
X1568094Y9192818D01*
X1568907Y9188907D01*
X1568907Y9115145D01*
X1569618Y9108846D01*
X1571498Y9103410D01*
X1574596Y9098483D01*
X1578660Y9094419D01*
X1583588Y9091320D01*
X1589024Y9089390D01*
X1595374Y9088678D01*
X1735226Y9088678D01*
X1741525Y9089390D01*
X1747012Y9091320D01*
X1751888Y9094419D01*
X1756003Y9098483D01*
X1759508Y9102547D01*
X1763268Y9104122D01*
X1767332Y9104122D01*
X1771091Y9102547D01*
X1774596Y9098483D01*
X1778660Y9094419D01*
X1784604Y9090710D01*
X1787143Y9088424D01*
X1788820Y9085427D01*
X1789379Y9082074D01*
X1789379Y9041942D01*
X1788617Y9038082D01*
X1786432Y9034780D01*
X971956Y8220303D01*
X968552Y8218068D01*
X964539Y8217357D01*
X960577Y8218271D01*
X957275Y8220659D01*
X955192Y8224164D01*
X952906Y8230666D01*
X949858Y8235543D01*
X945743Y8239658D01*
X940866Y8242706D01*
X935380Y8244636D01*
X929081Y8245348D01*
X772718Y8245348D01*
X766419Y8244636D01*
X760933Y8242706D01*
X756056Y8239658D01*
X751941Y8235543D01*
X748893Y8230666D01*
X746963Y8225180D01*
X746252Y8218881D01*
X746252Y8062518D01*
X746963Y8056219D01*
X748893Y8050733D01*
X751941Y8045856D01*
X756056Y8041741D01*
X760933Y8038693D01*
X766419Y8036763D01*
X772718Y8036052D01*
X929081Y8036052D01*
X935380Y8036763D01*
X940866Y8038693D01*
X945743Y8041741D01*
X949858Y8045856D01*
X952855Y8050682D01*
X955243Y8057794D01*
X957376Y8061452D01*
X960780Y8063941D01*
X964895Y8064804D01*
X1002334Y8064855D01*
X1011174Y8065668D01*
X1013612Y8066074D01*
X1022248Y8068208D01*
X1024585Y8068970D01*
X1032814Y8072374D01*
X1034999Y8073491D01*
X1042619Y8078114D01*
X1051458Y8085175D01*
X1920798Y8954516D01*
X1926488Y8961374D01*
X1927910Y8963406D01*
X1932482Y8971026D01*
X1933600Y8973210D01*
X1937004Y8981440D01*
X1937766Y8983776D01*
X1939899Y8992362D01*
X1940306Y8994800D01*
X1941169Y9003639D01*
X1941220Y9082074D01*
X1941779Y9085427D01*
X1943455Y9088424D01*
X1945995Y9090710D01*
X1951939Y9094419D01*
X1956003Y9098483D01*
X1959102Y9103410D01*
X1960981Y9108846D01*
X1961692Y9115145D01*
X1961692Y9249054D01*
X1960981Y9255353D01*
X1959102Y9260789D01*
X1956003Y9265716D01*
X1951939Y9269780D01*
X1946046Y9273489D01*
X1943607Y9275673D01*
X1941982Y9278467D01*
X1941220Y9283598D01*
X1941880Y9287713D01*
X1944166Y9291218D01*
X2054809Y9401860D01*
X2060448Y9408718D01*
X2066493Y9418370D01*
X2067610Y9420555D01*
X2071014Y9428784D01*
X2071776Y9431121D01*
X2073910Y9439706D01*
X2074316Y9442145D01*
X2075129Y9450984D01*
X2075180Y10020147D01*
X2075992Y10024008D01*
X2078177Y10027310D01*
X2135479Y10084612D01*
X2139035Y10086898D01*
X2143201Y10087559D01*
X2147265Y10086492D01*
X2150567Y10083800D01*
X2152446Y10080040D01*
X2153158Y10077399D01*
X2157272Y10068560D01*
X2162860Y10060584D01*
X2169769Y10053726D01*
X2177745Y10048138D01*
X2186584Y10044023D01*
X2191004Y10042804D01*
X2194915Y10040772D01*
X2197557Y10037318D01*
X2198522Y10033000D01*
X2197557Y10028682D01*
X2194915Y10025227D01*
X2191004Y10023195D01*
X2186584Y10021976D01*
X2177745Y10017861D01*
X2169769Y10012273D01*
X2162860Y10005415D01*
X2157272Y9997440D01*
X2153158Y9988600D01*
X2150668Y9979202D01*
X2149805Y9969500D01*
X2150668Y9959797D01*
X2153158Y9950399D01*
X2157272Y9941560D01*
X2162860Y9933584D01*
X2169769Y9926726D01*
X2177745Y9921138D01*
X2186584Y9917023D01*
X2191004Y9915804D01*
X2194915Y9913772D01*
X2197557Y9910318D01*
X2198522Y9906000D01*
X2197557Y9901682D01*
X2194915Y9898227D01*
X2191004Y9896195D01*
X2186584Y9894976D01*
X2177745Y9890861D01*
X2169769Y9885273D01*
X2162860Y9878415D01*
X2157272Y9870440D01*
X2153158Y9861600D01*
X2150668Y9852202D01*
X2149805Y9842500D01*
X2150668Y9832797D01*
X2153158Y9823399D01*
X2157272Y9814560D01*
X2162860Y9806584D01*
X2169769Y9799726D01*
X2177745Y9794138D01*
X2186584Y9790023D01*
X2191004Y9788804D01*
X2194915Y9786772D01*
X2197557Y9783318D01*
X2198522Y9779000D01*
X2197557Y9774682D01*
X2194915Y9771227D01*
X2191004Y9769195D01*
X2186584Y9767976D01*
X2177745Y9763861D01*
X2169769Y9758273D01*
X2162860Y9751415D01*
X2157272Y9743440D01*
X2153158Y9734600D01*
X2150668Y9725202D01*
X2149805Y9715500D01*
X2150668Y9705797D01*
X2153158Y9696399D01*
X2157272Y9687560D01*
X2162860Y9679584D01*
X2169769Y9672726D01*
X2177745Y9667138D01*
X2186584Y9663023D01*
X2191004Y9661804D01*
X2194915Y9659772D01*
X2197557Y9656318D01*
X2198522Y9652000D01*
X2197557Y9647682D01*
X2194915Y9644227D01*
X2191004Y9642195D01*
X2186584Y9640976D01*
X2177745Y9636861D01*
X2169769Y9631273D01*
X2162860Y9624415D01*
X2157272Y9616440D01*
X2153158Y9607600D01*
X2150668Y9598202D01*
X2149805Y9588500D01*
X2150668Y9578797D01*
X2153158Y9569399D01*
X2157272Y9560560D01*
X2162860Y9552584D01*
X2169769Y9545726D01*
X2177745Y9540138D01*
X2186584Y9536023D01*
X2191004Y9534804D01*
X2194915Y9532772D01*
X2197557Y9529318D01*
X2198522Y9525000D01*
X2197557Y9520682D01*
X2194915Y9517227D01*
X2191004Y9515195D01*
X2186584Y9513976D01*
X2177745Y9509861D01*
X2169769Y9504273D01*
X2162860Y9497415D01*
X2157272Y9489440D01*
X2153158Y9480600D01*
X2150668Y9471202D01*
X2149805Y9461500D01*
X2150668Y9451797D01*
X2153158Y9442399D01*
X2157272Y9433560D01*
X2162860Y9425584D01*
X2169769Y9418726D01*
X2177745Y9413138D01*
X2186584Y9409023D01*
X2191004Y9407804D01*
X2194915Y9405772D01*
X2197557Y9402318D01*
X2198522Y9398000D01*
X2197557Y9393682D01*
X2194915Y9390227D01*
X2191004Y9388195D01*
X2186584Y9386976D01*
X2177745Y9382861D01*
X2169769Y9377273D01*
X2162860Y9370415D01*
X2157272Y9362440D01*
X2153158Y9353600D01*
X2150668Y9344202D01*
X2149805Y9334500D01*
X2150668Y9324797D01*
X2153158Y9315399D01*
X2157272Y9306560D01*
X2162860Y9298584D01*
X2169769Y9291726D01*
X2177745Y9286138D01*
X2186584Y9282023D01*
X2195982Y9279483D01*
X2206142Y9278569D01*
X2325217Y9278569D01*
X2335377Y9279483D01*
X2344775Y9282023D01*
X2353614Y9286138D01*
X2361590Y9291726D01*
X2368499Y9298584D01*
X2373325Y9305544D01*
X2375865Y9308033D01*
X2379014Y9309506D01*
X2382570Y9309811D01*
X2396134Y9306052D01*
X2405938Y9305188D01*
X2415692Y9306052D01*
X2420569Y9307372D01*
X2424938Y9307576D01*
X2429002Y9305848D01*
X2431999Y9302648D01*
X2433320Y9298432D01*
X2432761Y9294063D01*
X2430373Y9290354D01*
X1905304Y8765286D01*
X1902155Y8761831D01*
X1899412Y8758326D01*
X1897024Y8754567D01*
X1894992Y8750604D01*
X1893316Y8746540D01*
X1891944Y8742273D01*
X1890979Y8737955D01*
X1890420Y8733536D01*
X1890217Y8728913D01*
X1890217Y6724802D01*
X1890420Y6720128D01*
X1890979Y6715759D01*
X1891944Y6711391D01*
X1893316Y6707174D01*
X1894992Y6703059D01*
X1897024Y6699148D01*
X1899412Y6695389D01*
X1902155Y6691833D01*
X1905304Y6688429D01*
X1929688Y6663994D01*
X1933143Y6660845D01*
X1936648Y6658152D01*
X1940407Y6655765D01*
X1944319Y6653733D01*
X1948434Y6652006D01*
X1952650Y6650685D01*
X1957019Y6649720D01*
X1961388Y6649161D01*
X1966061Y6648958D01*
X3470097Y6648958D01*
X3474720Y6649161D01*
X3479139Y6649720D01*
X3483457Y6650685D01*
X3487724Y6652006D01*
X3491788Y6653733D01*
X3495751Y6655765D01*
X3499510Y6658152D01*
X3503015Y6660845D01*
X3506470Y6663994D01*
X3583279Y6740855D01*
X3586683Y6743090D01*
X3590696Y6743801D01*
X3594658Y6742887D01*
X3597960Y6740499D01*
X3600043Y6736994D01*
X3601212Y6733692D01*
X3604310Y6728764D01*
X3608374Y6724700D01*
X3613302Y6721602D01*
X3618737Y6719722D01*
X3625087Y6719011D01*
X3969512Y6719011D01*
X3975862Y6719722D01*
X3981297Y6721602D01*
X3986225Y6724700D01*
X3990289Y6728764D01*
X3993387Y6733692D01*
X3995318Y6739128D01*
X3996029Y6745478D01*
X3996029Y6872579D01*
X3995318Y6878878D01*
X3993387Y6884365D01*
X3990289Y6889242D01*
X3986225Y6893356D01*
X3981297Y6896455D01*
X3975862Y6898335D01*
X3969512Y6899046D01*
X3625087Y6899046D01*
X3618737Y6898335D01*
X3613302Y6896455D01*
X3608374Y6893356D01*
X3604310Y6889242D01*
X3601212Y6884365D01*
X3599281Y6878878D01*
X3598570Y6872579D01*
X3598570Y6870090D01*
X3597808Y6866229D01*
X3595624Y6862927D01*
X3592322Y6860692D01*
X3588410Y6859930D01*
X3579672Y6859930D01*
X3575050Y6859727D01*
X3570630Y6859168D01*
X3566312Y6858203D01*
X3562045Y6856882D01*
X3557981Y6855155D01*
X3554018Y6853123D01*
X3550259Y6850735D01*
X3546754Y6848043D01*
X3543300Y6844893D01*
X3452215Y6753758D01*
X3448913Y6751523D01*
X3445001Y6750761D01*
X2414219Y6750761D01*
X2410053Y6751675D01*
X2406599Y6754164D01*
X2404516Y6757873D01*
X2404110Y6762089D01*
X2405481Y6766153D01*
X2415794Y6776313D01*
X2420874Y6783578D01*
X2424633Y6791655D01*
X2426919Y6800189D01*
X2427732Y6809486D01*
X2427732Y6924751D01*
X2428494Y6928612D01*
X2430729Y6931914D01*
X2434031Y6934098D01*
X2437892Y6934911D01*
X2775712Y6934911D01*
X2782062Y6935622D01*
X2787497Y6937502D01*
X2792425Y6940600D01*
X2796489Y6944664D01*
X2799588Y6949592D01*
X2801518Y6955028D01*
X2802229Y6961378D01*
X2802229Y6963867D01*
X2802991Y6967728D01*
X2805176Y6971030D01*
X2808478Y6973265D01*
X2812389Y6974027D01*
X2820873Y6974027D01*
X2830169Y6974840D01*
X2838754Y6977125D01*
X2846781Y6980885D01*
X2854045Y6985965D01*
X2860294Y6992213D01*
X2865374Y6999478D01*
X2869133Y7007555D01*
X2871419Y7016089D01*
X2872232Y7025386D01*
X2872232Y9325000D01*
X2872994Y9328912D01*
X2875229Y9332163D01*
X2907995Y9364980D01*
X2911297Y9367164D01*
X2915158Y9367926D01*
X2919069Y9367164D01*
X2922371Y9364980D01*
X2924556Y9361678D01*
X2925318Y9357766D01*
X2925318Y7183881D01*
X2925521Y7179208D01*
X2926130Y7174839D01*
X2927096Y7170470D01*
X2928416Y7166254D01*
X2930093Y7162139D01*
X2932176Y7158228D01*
X2934563Y7154468D01*
X2937256Y7150912D01*
X2940405Y7147509D01*
X3098800Y6989064D01*
X3102254Y6985914D01*
X3105759Y6983222D01*
X3109518Y6980834D01*
X3113481Y6978802D01*
X3117545Y6977075D01*
X3121812Y6975754D01*
X3126130Y6974789D01*
X3130550Y6974230D01*
X3135172Y6974027D01*
X3143910Y6974027D01*
X3147822Y6973265D01*
X3151124Y6971030D01*
X3153308Y6967728D01*
X3154070Y6963867D01*
X3154070Y6961378D01*
X3154781Y6955028D01*
X3156712Y6949592D01*
X3159810Y6944664D01*
X3163874Y6940600D01*
X3168802Y6937502D01*
X3174238Y6935622D01*
X3180588Y6934911D01*
X3525012Y6934911D01*
X3531362Y6935622D01*
X3536797Y6937502D01*
X3541725Y6940600D01*
X3545789Y6944664D01*
X3548887Y6949592D01*
X3550818Y6955028D01*
X3551529Y6961378D01*
X3551529Y7088479D01*
X3550818Y7094778D01*
X3548887Y7100265D01*
X3545789Y7105142D01*
X3541725Y7109256D01*
X3536797Y7112355D01*
X3531362Y7114235D01*
X3525012Y7114946D01*
X3180588Y7114946D01*
X3174238Y7114235D01*
X3168802Y7112355D01*
X3163874Y7109256D01*
X3159810Y7105142D01*
X3156712Y7100265D01*
X3155543Y7096963D01*
X3153460Y7093458D01*
X3150158Y7091070D01*
X3146196Y7090156D01*
X3142183Y7090867D01*
X3138779Y7093102D01*
X3030118Y7201763D01*
X3027934Y7205065D01*
X3027172Y7208926D01*
X3027172Y9161526D01*
X3027984Y9165488D01*
X3030270Y9168841D01*
X3033674Y9171025D01*
X3037687Y9171686D01*
X3041599Y9170720D01*
X3044088Y9169603D01*
X3053130Y9167164D01*
X3062935Y9166301D01*
X3216046Y9166301D01*
X3225850Y9167164D01*
X3234944Y9169603D01*
X3243427Y9173565D01*
X3251149Y9178950D01*
X3257753Y9185554D01*
X3263138Y9193276D01*
X3267100Y9201759D01*
X3268319Y9206230D01*
X3269335Y9208719D01*
X3270961Y9210802D01*
X3504641Y9444482D01*
X3507790Y9447885D01*
X3510483Y9451441D01*
X3512870Y9455200D01*
X3514902Y9459112D01*
X3516629Y9463227D01*
X3517950Y9467443D01*
X3518915Y9471812D01*
X3519474Y9476181D01*
X3519678Y9480854D01*
X3519678Y10329926D01*
X3520592Y10334091D01*
X3523132Y10337546D01*
X3526891Y10339628D01*
X3531209Y10339984D01*
X3535222Y10338511D01*
X3540404Y10335310D01*
X3542944Y10333024D01*
X3544620Y10330027D01*
X3545179Y10326674D01*
X3545230Y9433915D01*
X3546094Y9425076D01*
X3546500Y9422638D01*
X3548634Y9414052D01*
X3549396Y9411716D01*
X3552799Y9403486D01*
X3553917Y9401302D01*
X3558489Y9393682D01*
X3559911Y9391650D01*
X3565601Y9384792D01*
X4865217Y8085175D01*
X4874056Y8078114D01*
X4881676Y8073491D01*
X4883861Y8072374D01*
X4892090Y8068970D01*
X4894427Y8068208D01*
X4903063Y8066074D01*
X4905502Y8065668D01*
X4914341Y8064855D01*
X5131104Y8064804D01*
X5135219Y8063941D01*
X5138623Y8061452D01*
X5140756Y8057794D01*
X5143144Y8050682D01*
X5146141Y8045856D01*
X5150256Y8041741D01*
X5155133Y8038693D01*
X5160619Y8036763D01*
X5166918Y8036052D01*
X5323281Y8036052D01*
X5329580Y8036763D01*
X5335066Y8038693D01*
X5339943Y8041741D01*
X5344058Y8045856D01*
X5347106Y8050733D01*
X5349036Y8056219D01*
X5349748Y8062518D01*
X5349748Y8218881D01*
X5349036Y8225180D01*
X5347106Y8230666D01*
X5344058Y8235543D01*
X5339943Y8239658D01*
X5335066Y8242706D01*
X5329580Y8244636D01*
X5323281Y8245348D01*
X5166918Y8245348D01*
X5160619Y8244636D01*
X5155133Y8242706D01*
X5150256Y8239658D01*
X5146141Y8235543D01*
X5143144Y8230717D01*
X5140756Y8223605D01*
X5138623Y8219948D01*
X5135219Y8217458D01*
X5131104Y8216595D01*
X4952644Y8216595D01*
X4948732Y8217357D01*
X4945430Y8219592D01*
X4093159Y9071864D01*
X4091025Y9075013D01*
X4090212Y9078772D01*
X4090822Y9082532D01*
X4092752Y9085783D01*
X4095800Y9088120D01*
X4099458Y9089186D01*
X4109313Y9090050D01*
X4118813Y9092590D01*
X4127703Y9096756D01*
X4135729Y9102344D01*
X4142689Y9109303D01*
X4148328Y9117380D01*
X4152493Y9126270D01*
X4155033Y9135770D01*
X4155897Y9145524D01*
X4155033Y9155226D01*
X4155541Y9159392D01*
X4157675Y9162999D01*
X4161078Y9165437D01*
X4165142Y9166301D01*
X4176064Y9166301D01*
X4185869Y9167164D01*
X4194911Y9169603D01*
X4203446Y9173565D01*
X4211116Y9178950D01*
X4217771Y9185554D01*
X4223156Y9193276D01*
X4227118Y9201759D01*
X4229557Y9210852D01*
X4230370Y9220200D01*
X4229557Y9229547D01*
X4227118Y9238640D01*
X4223156Y9247124D01*
X4217771Y9254845D01*
X4211116Y9261449D01*
X4203446Y9266834D01*
X4194911Y9270796D01*
X4185869Y9273235D01*
X4182110Y9273590D01*
X4177995Y9274860D01*
X4174794Y9277654D01*
X4173067Y9281566D01*
X4173067Y9285833D01*
X4174794Y9289745D01*
X4177995Y9292539D01*
X4182110Y9293809D01*
X4185869Y9294164D01*
X4194911Y9296603D01*
X4203446Y9300565D01*
X4211116Y9305950D01*
X4217771Y9312554D01*
X4223156Y9320276D01*
X4227118Y9328759D01*
X4229557Y9337852D01*
X4230370Y9347200D01*
X4229557Y9356547D01*
X4227118Y9365640D01*
X4223156Y9374124D01*
X4217771Y9381845D01*
X4211116Y9388449D01*
X4203446Y9393834D01*
X4194911Y9397796D01*
X4185869Y9400235D01*
X4182110Y9400590D01*
X4177995Y9401860D01*
X4174794Y9404654D01*
X4173067Y9408566D01*
X4173067Y9412833D01*
X4174794Y9416745D01*
X4177995Y9419539D01*
X4182110Y9420809D01*
X4185869Y9421164D01*
X4194911Y9423603D01*
X4203446Y9427565D01*
X4211116Y9432950D01*
X4217771Y9439554D01*
X4223156Y9447276D01*
X4227118Y9455759D01*
X4229557Y9464852D01*
X4230370Y9474200D01*
X4229557Y9483547D01*
X4227118Y9492640D01*
X4223156Y9501124D01*
X4217771Y9508845D01*
X4211116Y9515449D01*
X4203446Y9520834D01*
X4194911Y9524796D01*
X4185869Y9527235D01*
X4182110Y9527590D01*
X4177995Y9528860D01*
X4174794Y9531654D01*
X4173067Y9535566D01*
X4173067Y9539833D01*
X4174794Y9543745D01*
X4177995Y9546539D01*
X4182110Y9547809D01*
X4185869Y9548164D01*
X4194911Y9550603D01*
X4203446Y9554565D01*
X4211116Y9559950D01*
X4217771Y9566554D01*
X4223156Y9574276D01*
X4227118Y9582759D01*
X4229557Y9591852D01*
X4230370Y9601200D01*
X4229557Y9610547D01*
X4227118Y9619640D01*
X4223156Y9628124D01*
X4217771Y9635845D01*
X4211116Y9642449D01*
X4203446Y9647834D01*
X4194911Y9651796D01*
X4185869Y9654235D01*
X4182110Y9654590D01*
X4177995Y9655860D01*
X4174794Y9658654D01*
X4173067Y9662566D01*
X4173067Y9666833D01*
X4174794Y9670745D01*
X4177995Y9673539D01*
X4182110Y9674809D01*
X4185869Y9675164D01*
X4194911Y9677603D01*
X4203446Y9681565D01*
X4211116Y9686950D01*
X4217771Y9693554D01*
X4223156Y9701276D01*
X4227118Y9709759D01*
X4229557Y9718852D01*
X4230370Y9728200D01*
X4229455Y9738461D01*
X4229862Y9742271D01*
X4231589Y9745675D01*
X4234484Y9748164D01*
X4238091Y9749434D01*
X4241952Y9749231D01*
X4255363Y9742779D01*
X4264863Y9740239D01*
X4274667Y9739376D01*
X4284421Y9740239D01*
X4293920Y9742779D01*
X4302810Y9746945D01*
X4307941Y9750501D01*
X4312005Y9752177D01*
X4316374Y9752025D01*
X4320286Y9749993D01*
X4322978Y9746488D01*
X4323892Y9742170D01*
X4323943Y9237319D01*
X4324807Y9228480D01*
X4325213Y9226042D01*
X4327347Y9217456D01*
X4328109Y9215120D01*
X4331512Y9206890D01*
X4332630Y9204706D01*
X4337202Y9197086D01*
X4338624Y9195054D01*
X4344314Y9188196D01*
X5137962Y8394496D01*
X5140045Y8391499D01*
X5140909Y8387994D01*
X5141366Y8381034D01*
X5144058Y8367623D01*
X5148427Y8354669D01*
X5154472Y8342375D01*
X5162092Y8330996D01*
X5171135Y8320735D01*
X5181396Y8311692D01*
X5192776Y8304072D01*
X5205069Y8298027D01*
X5218023Y8293658D01*
X5231434Y8290966D01*
X5245100Y8290052D01*
X5258765Y8290966D01*
X5272176Y8293658D01*
X5285130Y8298027D01*
X5297424Y8304072D01*
X5308803Y8311692D01*
X5319064Y8320735D01*
X5328107Y8330996D01*
X5335727Y8342375D01*
X5341772Y8354669D01*
X5346141Y8367623D01*
X5348833Y8381034D01*
X5349748Y8394700D01*
X5348833Y8408365D01*
X5346141Y8421776D01*
X5341772Y8434730D01*
X5335727Y8447024D01*
X5328107Y8458403D01*
X5319064Y8468664D01*
X5308803Y8477707D01*
X5297424Y8485327D01*
X5285130Y8491372D01*
X5272176Y8495741D01*
X5258765Y8498433D01*
X5251856Y8498890D01*
X5248300Y8499754D01*
X5245303Y8501837D01*
X5218582Y8528558D01*
X5216296Y8532164D01*
X5215636Y8536381D01*
X5216804Y8540546D01*
X5219598Y8543798D01*
X5223459Y8545626D01*
X5227777Y8545677D01*
X5231434Y8544966D01*
X5245100Y8544052D01*
X5258765Y8544966D01*
X5272176Y8547658D01*
X5285130Y8552027D01*
X5297424Y8558072D01*
X5308803Y8565692D01*
X5319064Y8574735D01*
X5328107Y8584996D01*
X5335727Y8596376D01*
X5341772Y8608669D01*
X5346141Y8621623D01*
X5348833Y8635034D01*
X5349748Y8648700D01*
X5348833Y8662365D01*
X5346141Y8675776D01*
X5341772Y8688730D01*
X5335727Y8701024D01*
X5328107Y8712403D01*
X5319064Y8722664D01*
X5308803Y8731707D01*
X5297424Y8739327D01*
X5285130Y8745372D01*
X5272176Y8749741D01*
X5258765Y8752433D01*
X5245100Y8753348D01*
X5231434Y8752433D01*
X5218023Y8749741D01*
X5205069Y8745372D01*
X5192776Y8739327D01*
X5181396Y8731707D01*
X5171135Y8722664D01*
X5162092Y8712403D01*
X5154472Y8701024D01*
X5148427Y8688730D01*
X5144058Y8675776D01*
X5141366Y8662365D01*
X5140452Y8648700D01*
X5141366Y8635034D01*
X5142077Y8631377D01*
X5142026Y8627059D01*
X5140198Y8623198D01*
X5136946Y8620404D01*
X5132781Y8619236D01*
X5128564Y8619896D01*
X5124958Y8622182D01*
X4478680Y9268460D01*
X4476496Y9271762D01*
X4475734Y9275622D01*
X4475683Y10107218D01*
X4474819Y10116058D01*
X4474413Y10118496D01*
X4472279Y10127081D01*
X4471517Y10129418D01*
X4468114Y10137648D01*
X4466996Y10139832D01*
X4462424Y10147452D01*
X4461002Y10149484D01*
X4455363Y10156240D01*
X4440123Y10171582D01*
X4431233Y10179253D01*
X4421632Y10185298D01*
X4411218Y10189819D01*
X4400296Y10192766D01*
X4389018Y10194036D01*
X4377690Y10193578D01*
X4366514Y10191496D01*
X4355846Y10187736D01*
X4345787Y10182453D01*
X4336694Y10175697D01*
X4328668Y10167670D01*
X4321911Y10158577D01*
X4316628Y10148519D01*
X4312869Y10137851D01*
X4310786Y10126675D01*
X4310329Y10115346D01*
X4311599Y10104069D01*
X4314545Y10093147D01*
X4319066Y10082733D01*
X4322368Y10077551D01*
X4323486Y10074960D01*
X4323892Y10072116D01*
X4323892Y10022382D01*
X4323232Y10018725D01*
X4321302Y10015575D01*
X4318355Y10013340D01*
X4314799Y10012273D01*
X4311142Y10012578D01*
X4309059Y10013137D01*
X4299254Y10014000D01*
X4289450Y10013137D01*
X4280001Y10010597D01*
X4271060Y10006431D01*
X4263034Y10000792D01*
X4256074Y9993833D01*
X4250436Y9985806D01*
X4249318Y9983368D01*
X4246626Y9979863D01*
X4242714Y9977831D01*
X4238345Y9977628D01*
X4234281Y9979304D01*
X4231284Y9982555D01*
X4229963Y9986772D01*
X4229557Y9991547D01*
X4227118Y10000640D01*
X4223156Y10009124D01*
X4217771Y10016845D01*
X4211116Y10023449D01*
X4203446Y10028834D01*
X4194911Y10032796D01*
X4185869Y10035235D01*
X4182110Y10035590D01*
X4177995Y10036860D01*
X4174794Y10039654D01*
X4173067Y10043566D01*
X4173067Y10047833D01*
X4174794Y10051745D01*
X4177995Y10054539D01*
X4182110Y10055809D01*
X4185869Y10056164D01*
X4194911Y10058603D01*
X4203446Y10062565D01*
X4211116Y10067950D01*
X4217771Y10074554D01*
X4223156Y10082276D01*
X4227118Y10090759D01*
X4229557Y10099852D01*
X4230370Y10109200D01*
X4229557Y10118547D01*
X4227118Y10127640D01*
X4223156Y10136124D01*
X4217771Y10143845D01*
X4211116Y10150449D01*
X4203446Y10155834D01*
X4194911Y10159796D01*
X4185869Y10162235D01*
X4182110Y10162590D01*
X4177995Y10163860D01*
X4174794Y10166654D01*
X4173067Y10170566D01*
X4173067Y10174833D01*
X4174794Y10178745D01*
X4177995Y10181539D01*
X4182110Y10182809D01*
X4185869Y10183164D01*
X4194911Y10185603D01*
X4203446Y10189565D01*
X4211116Y10194950D01*
X4217771Y10201554D01*
X4223156Y10209276D01*
X4226204Y10215829D01*
X4158335Y10215829D01*
X4158335Y10173258D01*
X4157573Y10169398D01*
X4155389Y10166096D01*
X4152087Y10163860D01*
X4148175Y10163098D01*
X4050792Y10163098D01*
X4046931Y10163860D01*
X4043629Y10166096D01*
X4041444Y10169398D01*
X4040632Y10173258D01*
X4040632Y10215829D01*
X3972763Y10215829D01*
X3975862Y10209276D01*
X3981246Y10201554D01*
X3987850Y10194950D01*
X3995572Y10189565D01*
X4004056Y10185603D01*
X4013149Y10183164D01*
X4016908Y10182809D01*
X4020972Y10181539D01*
X4024172Y10178745D01*
X4025950Y10174833D01*
X4025950Y10170566D01*
X4024172Y10166654D01*
X4020972Y10163860D01*
X4016908Y10162590D01*
X4013149Y10162235D01*
X4004056Y10159796D01*
X3995521Y10155834D01*
X3991508Y10154869D01*
X3987444Y10155580D01*
X3975557Y10163860D01*
X3966667Y10168026D01*
X3957167Y10170566D01*
X3947414Y10171430D01*
X3937609Y10170566D01*
X3928110Y10168026D01*
X3919220Y10163860D01*
X3911142Y10158272D01*
X3904234Y10151313D01*
X3898595Y10143236D01*
X3894429Y10134346D01*
X3891889Y10124846D01*
X3891026Y10115042D01*
X3891889Y10105288D01*
X3894429Y10095788D01*
X3898595Y10086898D01*
X3904234Y10078821D01*
X3911142Y10071862D01*
X3919220Y10066274D01*
X3928110Y10062108D01*
X3937609Y10059568D01*
X3947414Y10058704D01*
X3957167Y10059568D01*
X3966667Y10062108D01*
X3975557Y10066274D01*
X3977081Y10067340D01*
X3980891Y10068966D01*
X3985006Y10068966D01*
X3988765Y10067340D01*
X3995572Y10062565D01*
X4004056Y10058603D01*
X4013149Y10056164D01*
X4016908Y10055809D01*
X4020972Y10054539D01*
X4024172Y10051745D01*
X4025950Y10047833D01*
X4025950Y10043566D01*
X4024172Y10039654D01*
X4020972Y10036860D01*
X4016908Y10035590D01*
X4013149Y10035235D01*
X4004056Y10032796D01*
X3995572Y10028834D01*
X3987850Y10023449D01*
X3981246Y10016845D01*
X3975862Y10009124D01*
X3971899Y10000640D01*
X3969461Y9991547D01*
X3968800Y9984028D01*
X3967886Y9980625D01*
X3965854Y9977729D01*
X3962958Y9975697D01*
X3959555Y9974783D01*
X3950512Y9973970D01*
X3941064Y9971430D01*
X3932123Y9967264D01*
X3924096Y9961676D01*
X3917137Y9954717D01*
X3911498Y9946640D01*
X3907332Y9937750D01*
X3904792Y9928250D01*
X3903929Y9918446D01*
X3904792Y9908692D01*
X3907332Y9899192D01*
X3911854Y9889490D01*
X3912971Y9886137D01*
X3913327Y9882581D01*
X3912463Y9879076D01*
X3910380Y9876129D01*
X3902811Y9868560D01*
X3897172Y9860534D01*
X3893007Y9851644D01*
X3890467Y9842144D01*
X3889603Y9832340D01*
X3890467Y9822535D01*
X3893007Y9813036D01*
X3897172Y9804146D01*
X3902811Y9796119D01*
X3913276Y9785807D01*
X3914749Y9782200D01*
X3914749Y9778339D01*
X3913276Y9774732D01*
X3902862Y9764420D01*
X3897223Y9756394D01*
X3893058Y9747504D01*
X3890518Y9738004D01*
X3889654Y9728200D01*
X3890518Y9718395D01*
X3893058Y9708896D01*
X3897223Y9700006D01*
X3902862Y9691979D01*
X3909771Y9685020D01*
X3917848Y9679381D01*
X3926738Y9675215D01*
X3930142Y9674301D01*
X3934053Y9672269D01*
X3936746Y9668814D01*
X3937711Y9664496D01*
X3936746Y9660229D01*
X3934053Y9656724D01*
X3930142Y9654692D01*
X3928262Y9654184D01*
X3919321Y9650018D01*
X3911295Y9644380D01*
X3904335Y9637420D01*
X3898696Y9629394D01*
X3894531Y9620504D01*
X3891991Y9611004D01*
X3891127Y9601200D01*
X3891991Y9591395D01*
X3894531Y9581896D01*
X3898696Y9573006D01*
X3904335Y9564979D01*
X3911295Y9558020D01*
X3919321Y9552381D01*
X3928262Y9548215D01*
X3937711Y9545675D01*
X3947515Y9544812D01*
X3957320Y9545675D01*
X3966819Y9548215D01*
X3975709Y9552381D01*
X3981348Y9556343D01*
X3985107Y9557969D01*
X3989222Y9557969D01*
X3993032Y9556343D01*
X3995572Y9554565D01*
X4004056Y9550603D01*
X4013149Y9548164D01*
X4016908Y9547809D01*
X4020972Y9546539D01*
X4024172Y9543745D01*
X4025950Y9539833D01*
X4025950Y9535566D01*
X4024172Y9531654D01*
X4020972Y9528860D01*
X4016908Y9527590D01*
X4013149Y9527235D01*
X4004056Y9524796D01*
X3995572Y9520834D01*
X3987850Y9515449D01*
X3985056Y9512655D01*
X3981602Y9510369D01*
X3977589Y9509658D01*
X3973576Y9510623D01*
X3964990Y9514636D01*
X3955491Y9517176D01*
X3945686Y9518040D01*
X3935882Y9517176D01*
X3926433Y9514636D01*
X3917492Y9510471D01*
X3909466Y9504832D01*
X3902506Y9497872D01*
X3896868Y9489846D01*
X3892702Y9480956D01*
X3890162Y9471456D01*
X3889298Y9461652D01*
X3890162Y9451848D01*
X3892702Y9442348D01*
X3896868Y9433458D01*
X3902506Y9425432D01*
X3909466Y9418472D01*
X3917492Y9412833D01*
X3926433Y9408668D01*
X3935882Y9406128D01*
X3938727Y9405874D01*
X3942943Y9404553D01*
X3945686Y9402064D01*
X3948429Y9404553D01*
X3952646Y9405874D01*
X3955491Y9406128D01*
X3964990Y9408668D01*
X3973880Y9412833D01*
X3981907Y9418472D01*
X3983736Y9420250D01*
X3987037Y9422485D01*
X3990898Y9423247D01*
X4004005Y9423247D01*
X4006596Y9422892D01*
X4013149Y9421164D01*
X4016908Y9420809D01*
X4020972Y9419539D01*
X4024172Y9416745D01*
X4025950Y9412833D01*
X4025950Y9408566D01*
X4024172Y9404654D01*
X4020972Y9401860D01*
X4016908Y9400590D01*
X4013149Y9400235D01*
X4004056Y9397796D01*
X3995572Y9393834D01*
X3984599Y9386366D01*
X3980789Y9385604D01*
X3953510Y9385604D01*
X3949242Y9386570D01*
X3945636Y9389262D01*
X3942181Y9386570D01*
X3937863Y9385604D01*
X3913378Y9385604D01*
X3905402Y9384842D01*
X3898239Y9382658D01*
X3891584Y9379102D01*
X3887368Y9375648D01*
X3884777Y9374124D01*
X3881831Y9373362D01*
X3872992Y9372600D01*
X3863543Y9370060D01*
X3854602Y9365894D01*
X3846576Y9360306D01*
X3839616Y9353346D01*
X3835044Y9346844D01*
X3831844Y9343847D01*
X3827627Y9342526D01*
X3823258Y9343136D01*
X3819550Y9345472D01*
X3699967Y9465056D01*
X3697782Y9468358D01*
X3697020Y9472218D01*
X3697020Y10326674D01*
X3697579Y10330027D01*
X3699256Y10333024D01*
X3701796Y10335310D01*
X3707739Y10339019D01*
X3711803Y10343083D01*
X3715308Y10347147D01*
X3719068Y10348722D01*
X3723132Y10348722D01*
X3726891Y10347147D01*
X3730396Y10343083D01*
X3734511Y10339019D01*
X3739387Y10335920D01*
X3744874Y10333990D01*
X3751173Y10333278D01*
X3779520Y10333278D01*
X3779520Y10386618D01*
X3727653Y10386618D01*
X3723792Y10387380D01*
X3720490Y10389565D01*
X3718255Y10392867D01*
X3717493Y10396778D01*
X3717493Y10456621D01*
X3718255Y10460532D01*
X3720490Y10463834D01*
X3723792Y10466019D01*
X3727653Y10466781D01*
X3779520Y10466781D01*
X3779520Y10520121D01*
X3751173Y10520121D01*
X3744874Y10519410D01*
X3739387Y10517479D01*
X3734511Y10514380D01*
X3730396Y10510316D01*
X3726891Y10506252D01*
X3723132Y10504678D01*
X3719068Y10504678D01*
X3715308Y10506252D01*
X3711803Y10510316D01*
X3707688Y10514380D01*
X3701846Y10518089D01*
X3699408Y10520273D01*
X3697732Y10523067D01*
X3697020Y10528198D01*
X3697732Y10532313D01*
X3699967Y10535818D01*
X3825036Y10660888D01*
X3828338Y10663072D01*
X3832250Y10663834D01*
X3936390Y10663834D01*
X3940454Y10663021D01*
X3943858Y10660583D01*
X3945991Y10657027D01*
X3947312Y10653217D01*
X3950411Y10648340D01*
X3954475Y10644225D01*
X3959402Y10641177D01*
X3964838Y10639247D01*
X3971188Y10638536D01*
X4207611Y10638536D01*
X4213961Y10639247D01*
X4219397Y10641177D01*
X4224324Y10644225D01*
X4228388Y10648340D01*
X4231487Y10653217D01*
X4232808Y10657027D01*
X4234942Y10660583D01*
X4238345Y10663021D01*
X4242409Y10663834D01*
X4278071Y10663834D01*
X4283913Y10664088D01*
X4289552Y10664698D01*
X4295140Y10665764D01*
X4300626Y10667238D01*
X4305960Y10669117D01*
X4311192Y10671352D01*
X4316222Y10674045D01*
X4320997Y10677042D01*
X4325569Y10680395D01*
X4329887Y10684103D01*
X4333900Y10688116D01*
X4337608Y10692434D01*
X4340961Y10697006D01*
X4343958Y10701782D01*
X4346651Y10706811D01*
X4348886Y10712043D01*
X4350766Y10717377D01*
X4352239Y10722864D01*
X4353306Y10728452D01*
X4353915Y10734090D01*
X4354169Y10739932D01*
X4354118Y11591594D01*
X4353255Y11600434D01*
X4352848Y11602872D01*
X4350715Y11611457D01*
X4349953Y11613794D01*
X4346549Y11622024D01*
X4345432Y11624208D01*
X4340860Y11631828D01*
X4339437Y11633860D01*
X4333748Y11640718D01*
X4080103Y11894362D01*
X4073245Y11900052D01*
X4071213Y11901474D01*
X4063593Y11906046D01*
X4061409Y11907164D01*
X4053230Y11910568D01*
X4050893Y11911330D01*
X4042257Y11913463D01*
X4039819Y11913870D01*
X4030979Y11914733D01*
X3558590Y11914784D01*
X3554780Y11915495D01*
X3551580Y11917578D01*
X3549345Y11920728D01*
X3548430Y11924487D01*
X3548989Y11928297D01*
X3550818Y11933428D01*
X3551529Y11939778D01*
X3551529Y12066879D01*
X3550818Y12073178D01*
X3548887Y12078665D01*
X3545789Y12083542D01*
X3541725Y12087656D01*
X3536797Y12090755D01*
X3531412Y12092635D01*
X3528009Y12094616D01*
X3525621Y12097766D01*
X3524656Y12101576D01*
X3525164Y12105487D01*
X3527145Y12108942D01*
X3530295Y12111329D01*
X3538982Y12115596D01*
X3550056Y12123013D01*
X3560114Y12131852D01*
X3568903Y12141860D01*
X3575354Y12151512D01*
X3577640Y12153900D01*
X3580536Y12155474D01*
X3583787Y12156033D01*
X3595979Y12156033D01*
X3599942Y12155220D01*
X3603244Y12152934D01*
X3608476Y12147550D01*
X3613302Y12144502D01*
X3618737Y12142622D01*
X3625087Y12141911D01*
X3969512Y12141911D01*
X3975862Y12142622D01*
X3981297Y12144502D01*
X3986225Y12147600D01*
X3990289Y12151664D01*
X3993387Y12156592D01*
X3995318Y12162028D01*
X3996029Y12168378D01*
X3996029Y12295479D01*
X3995318Y12301778D01*
X3993387Y12307265D01*
X3990289Y12312142D01*
X3986225Y12316256D01*
X3981297Y12319355D01*
X3975862Y12321235D01*
X3969512Y12321946D01*
X3625087Y12321946D01*
X3618737Y12321235D01*
X3613302Y12319355D01*
X3608476Y12316307D01*
X3603244Y12310922D01*
X3599942Y12308636D01*
X3595979Y12307824D01*
X3578301Y12307824D01*
X3575050Y12308382D01*
X3572103Y12309957D01*
X3560114Y12323775D01*
X3550056Y12332614D01*
X3538982Y12340031D01*
X3526993Y12345924D01*
X3514344Y12350242D01*
X3501237Y12352832D01*
X3487928Y12353696D01*
X3474618Y12352832D01*
X3461512Y12350242D01*
X3448862Y12345924D01*
X3436874Y12340031D01*
X3425799Y12332614D01*
X3415741Y12323775D01*
X3406952Y12313767D01*
X3399536Y12302642D01*
X3393592Y12290704D01*
X3389325Y12278055D01*
X3386734Y12264948D01*
X3385820Y12251283D01*
X3385820Y12204344D01*
X3386734Y12190679D01*
X3389325Y12177572D01*
X3393592Y12164923D01*
X3399536Y12152985D01*
X3406952Y12141860D01*
X3415741Y12131852D01*
X3425799Y12123013D01*
X3436874Y12115596D01*
X3442919Y12112650D01*
X3446424Y12109805D01*
X3448354Y12105741D01*
X3448304Y12101220D01*
X3446322Y12097156D01*
X3442817Y12094362D01*
X3438398Y12093346D01*
X3374339Y12093346D01*
X3370427Y12094108D01*
X3367125Y12096343D01*
X3319424Y12144044D01*
X3317138Y12147550D01*
X3316427Y12151715D01*
X3317494Y12155728D01*
X3322167Y12165177D01*
X3326434Y12177826D01*
X3329025Y12190933D01*
X3329940Y12204598D01*
X3329940Y12251537D01*
X3329025Y12265202D01*
X3326434Y12278309D01*
X3322167Y12290958D01*
X3316224Y12302896D01*
X3308807Y12314021D01*
X3300018Y12324029D01*
X3289960Y12332868D01*
X3278886Y12340285D01*
X3266897Y12346178D01*
X3254248Y12350496D01*
X3241141Y12353086D01*
X3227832Y12353950D01*
X3214522Y12353086D01*
X3201416Y12350496D01*
X3188766Y12346178D01*
X3176778Y12340285D01*
X3165703Y12332868D01*
X3155645Y12324029D01*
X3146856Y12314021D01*
X3139440Y12302896D01*
X3133496Y12290958D01*
X3129229Y12278309D01*
X3126638Y12265202D01*
X3125724Y12251537D01*
X3125724Y12204598D01*
X3126638Y12190933D01*
X3129229Y12177826D01*
X3133496Y12165177D01*
X3139440Y12153239D01*
X3146856Y12142114D01*
X3149396Y12139218D01*
X3151276Y12136120D01*
X3151936Y12132564D01*
X3151987Y12125604D01*
X3152800Y12116816D01*
X3153206Y12114377D01*
X3155340Y12105741D01*
X3156102Y12103506D01*
X3160623Y12093194D01*
X3161385Y12089993D01*
X3161182Y12086742D01*
X3159912Y12083694D01*
X3156712Y12078665D01*
X3154781Y12073178D01*
X3154070Y12066879D01*
X3154070Y11939778D01*
X3154781Y11933428D01*
X3156712Y11927992D01*
X3159810Y11923064D01*
X3163874Y11919000D01*
X3168802Y11915902D01*
X3174238Y11914022D01*
X3180588Y11913311D01*
X3402837Y11913311D01*
X3406800Y11912498D01*
X3410153Y11910212D01*
X3412337Y11906808D01*
X3412998Y11902795D01*
X3412083Y11898884D01*
X3409696Y11895632D01*
X3406140Y11892381D01*
X3042818Y11529009D01*
X3037128Y11522151D01*
X3035706Y11520119D01*
X3031134Y11512499D01*
X3030016Y11510314D01*
X3026613Y11502085D01*
X3025851Y11499748D01*
X3023717Y11491163D01*
X3023311Y11488724D01*
X3022447Y11479885D01*
X3022396Y10322255D01*
X3021634Y10318394D01*
X3019450Y10315092D01*
X3016148Y10312857D01*
X3012236Y10312095D01*
X2275738Y10312044D01*
X2266899Y10311231D01*
X2264460Y10310825D01*
X2255824Y10308691D01*
X2253488Y10307929D01*
X2245563Y10304627D01*
X2238908Y10300766D01*
X2236419Y10299750D01*
X2233828Y10299395D01*
X2164334Y10299344D01*
X2155494Y10298531D01*
X2153056Y10298125D01*
X2144471Y10295991D01*
X2142134Y10295229D01*
X2133904Y10291826D01*
X2131720Y10290708D01*
X2122068Y10284663D01*
X2115261Y10279024D01*
X1943760Y10107574D01*
X1938121Y10100716D01*
X1932076Y10091064D01*
X1930958Y10088880D01*
X1926793Y10078313D01*
X1924659Y10069728D01*
X1924253Y10067290D01*
X1923440Y10058450D01*
X1923389Y9489287D01*
X1922627Y9485426D01*
X1920392Y9482124D01*
X1809800Y9371431D01*
X1804111Y9364573D01*
X1799539Y9357360D01*
X1796542Y9354159D01*
X1792478Y9352584D01*
X1788160Y9352788D01*
X1784299Y9354820D01*
X1781657Y9358274D01*
X1779727Y9362440D01*
X1774139Y9370415D01*
X1767230Y9377273D01*
X1759254Y9382861D01*
X1750415Y9386976D01*
X1745996Y9388195D01*
X1742084Y9390227D01*
X1739442Y9393682D01*
X1738477Y9398000D01*
X1739442Y9402318D01*
X1742084Y9405772D01*
X1745996Y9407804D01*
X1750415Y9409023D01*
X1759254Y9413138D01*
X1767230Y9418726D01*
X1774139Y9425584D01*
X1779727Y9433560D01*
X1783842Y9442399D01*
X1786331Y9451797D01*
X1786889Y9457842D01*
X1788058Y9461754D01*
X1790700Y9464903D01*
X1794357Y9466783D01*
X1799234Y9468053D01*
X1808124Y9472218D01*
X1816201Y9477857D01*
X1823161Y9484817D01*
X1828800Y9492843D01*
X1832914Y9501733D01*
X1835454Y9511233D01*
X1836318Y9521037D01*
X1835454Y9530842D01*
X1832914Y9540341D01*
X1828800Y9549231D01*
X1823161Y9557258D01*
X1816201Y9564217D01*
X1808124Y9569856D01*
X1799234Y9574022D01*
X1794459Y9575292D01*
X1791258Y9576765D01*
X1788769Y9579254D01*
X1787296Y9582454D01*
X1786991Y9586010D01*
X1787194Y9588500D01*
X1786331Y9598202D01*
X1783842Y9607600D01*
X1779727Y9616440D01*
X1774139Y9624415D01*
X1767230Y9631273D01*
X1759254Y9636861D01*
X1750415Y9640976D01*
X1745996Y9642195D01*
X1742084Y9644227D01*
X1739442Y9647682D01*
X1738477Y9652000D01*
X1739442Y9656318D01*
X1742084Y9659772D01*
X1745996Y9661804D01*
X1750415Y9663023D01*
X1759254Y9667138D01*
X1767230Y9672726D01*
X1774139Y9679584D01*
X1779727Y9687560D01*
X1783842Y9696399D01*
X1786331Y9705797D01*
X1787398Y9719005D01*
X1788566Y9721951D01*
X1790649Y9724390D01*
X1795627Y9728708D01*
X1846884Y9779965D01*
X1850034Y9783368D01*
X1852726Y9786924D01*
X1855114Y9790684D01*
X1857197Y9794595D01*
X1858873Y9798710D01*
X1860194Y9802926D01*
X1861159Y9807295D01*
X1861769Y9811664D01*
X1861972Y9816338D01*
X1861972Y10012121D01*
X1861769Y10016744D01*
X1861159Y10021163D01*
X1860194Y10025481D01*
X1858873Y10029748D01*
X1857197Y10033812D01*
X1855114Y10037775D01*
X1852726Y10041534D01*
X1850034Y10045039D01*
X1846884Y10048494D01*
X1787245Y10108133D01*
X1785620Y10110216D01*
X1783384Y10116515D01*
X1782419Y10120630D01*
X1783232Y10124795D01*
X1785670Y10128250D01*
X1789277Y10130434D01*
X1793493Y10130942D01*
X1802079Y10130180D01*
X1811832Y10131044D01*
X1821332Y10133584D01*
X1830222Y10137749D01*
X1838299Y10143388D01*
X1845259Y10150348D01*
X1850898Y10158374D01*
X1855012Y10167264D01*
X1857806Y10178186D01*
X1859635Y10181894D01*
X1862785Y10184536D01*
X1866747Y10185755D01*
X1870811Y10185298D01*
X1874418Y10183266D01*
X1876856Y10179913D01*
X1879650Y10173970D01*
X1885289Y10165943D01*
X1892249Y10158984D01*
X1900275Y10153345D01*
X1909216Y10149179D01*
X1918665Y10146639D01*
X1928469Y10145776D01*
X1938274Y10146639D01*
X1947773Y10149179D01*
X1956663Y10153345D01*
X1964689Y10158984D01*
X1971649Y10165943D01*
X1977288Y10173970D01*
X1981454Y10182860D01*
X1983993Y10192359D01*
X1984857Y10202164D01*
X1983993Y10211968D01*
X1981454Y10221468D01*
X1980336Y10223804D01*
X1979371Y10228122D01*
X1979371Y11505793D01*
X1980133Y11509654D01*
X1982368Y11512956D01*
X1985670Y11515140D01*
X1989531Y11515953D01*
X2318512Y11515953D01*
X2324862Y11516664D01*
X2330297Y11518544D01*
X2335225Y11521643D01*
X2339289Y11525758D01*
X2342388Y11530634D01*
X2344318Y11536121D01*
X2345029Y11542420D01*
X2345029Y11669522D01*
X2344318Y11675872D01*
X2342388Y11681307D01*
X2339289Y11686235D01*
X2335225Y11690299D01*
X2330297Y11693398D01*
X2324862Y11695277D01*
X2318512Y11695988D01*
X1974088Y11695988D01*
X1967738Y11695277D01*
X1962302Y11693398D01*
X1957374Y11690299D01*
X1953310Y11686235D01*
X1950212Y11681307D01*
X1948281Y11675872D01*
X1947570Y11669522D01*
X1947570Y11667032D01*
X1946808Y11663172D01*
X1944624Y11659870D01*
X1941322Y11657634D01*
X1937410Y11656872D01*
X1928926Y11656872D01*
X1919630Y11656060D01*
X1911096Y11653774D01*
X1903018Y11650014D01*
X1895754Y11644934D01*
X1889506Y11638686D01*
X1884425Y11631422D01*
X1880666Y11623344D01*
X1878380Y11614810D01*
X1877568Y11605514D01*
X1877568Y10228122D01*
X1876602Y10223804D01*
X1875536Y10221468D01*
X1872691Y10210546D01*
X1870862Y10206837D01*
X1867712Y10204196D01*
X1863801Y10202976D01*
X1859686Y10203434D01*
X1856130Y10205466D01*
X1853641Y10208818D01*
X1850898Y10214762D01*
X1845259Y10222788D01*
X1838299Y10229748D01*
X1830222Y10235387D01*
X1821332Y10239552D01*
X1811832Y10242092D01*
X1803501Y10242804D01*
X1800098Y10243718D01*
X1797202Y10245750D01*
X1792630Y10250322D01*
X1786432Y10255402D01*
X1779828Y10258958D01*
X1774748Y10260482D01*
X1772462Y10261498D01*
X1770532Y10263022D01*
X1767230Y10266273D01*
X1759254Y10271861D01*
X1750415Y10275976D01*
X1741017Y10278516D01*
X1730857Y10279430D01*
X1611782Y10279430D01*
X1601622Y10278516D01*
X1592224Y10275976D01*
X1583385Y10271861D01*
X1575409Y10266273D01*
X1568500Y10259415D01*
X1562912Y10251440D01*
X1558798Y10242600D01*
X1556308Y10233202D01*
X1555445Y10223500D01*
X1556308Y10213797D01*
X1558798Y10204399D01*
X1562912Y10195560D01*
X1568500Y10187584D01*
X1575409Y10180726D01*
X1583385Y10175138D01*
X1592224Y10171023D01*
X1596644Y10169804D01*
X1600555Y10167772D01*
X1603197Y10164318D01*
X1604162Y10160000D01*
X1603197Y10155682D01*
X1600555Y10152227D01*
X1596644Y10150195D01*
X1592224Y10148976D01*
X1583385Y10144861D01*
X1575409Y10139273D01*
X1568500Y10132415D01*
X1562912Y10124440D01*
X1558798Y10115600D01*
X1556308Y10106202D01*
X1555445Y10096500D01*
X1556308Y10086797D01*
X1558798Y10077399D01*
X1562912Y10068560D01*
X1568500Y10060584D01*
X1575409Y10053726D01*
X1583385Y10048138D01*
X1592224Y10044023D01*
X1596644Y10042804D01*
X1600555Y10040772D01*
X1603197Y10037318D01*
X1604162Y10033000D01*
X1603197Y10028682D01*
X1600555Y10025227D01*
X1596644Y10023195D01*
X1592224Y10021976D01*
X1583385Y10017861D01*
X1575409Y10012273D01*
X1573987Y10010902D01*
X1570685Y10008666D01*
X1566824Y10007904D01*
X1328674Y10007904D01*
X1320698Y10007142D01*
X1313535Y10004958D01*
X1306880Y10001402D01*
X1300683Y9996322D01*
X926337Y9621977D01*
X923036Y9619742D01*
X919124Y9618980D01*
X896619Y9618980D01*
X896619Y9596475D01*
X895858Y9592564D01*
X893622Y9589262D01*
X883412Y9579051D01*
X880110Y9576816D01*
X876249Y9576054D01*
X815340Y9576054D01*
X811428Y9576816D01*
X808177Y9579051D01*
X805942Y9582353D01*
X805180Y9586214D01*
X805180Y9618980D01*
X757021Y9618980D01*
X760272Y9612376D01*
X767892Y9600996D01*
X776935Y9590735D01*
X787501Y9581438D01*
X790092Y9577882D01*
X790956Y9573615D01*
X789990Y9569348D01*
X787247Y9565944D01*
X785469Y9564471D01*
X743254Y9522256D01*
X739952Y9520021D01*
X736092Y9519259D01*
X732180Y9520021D01*
X728878Y9522256D01*
X726694Y9525558D01*
X725932Y9529419D01*
X725932Y12663881D01*
X726694Y12667792D01*
X728878Y12671094D01*
X732180Y12673279D01*
X736092Y12674041D01*
X5363921Y12674041D01*
X5367832Y12673279D01*
X5371084Y12671094D01*
X5373319Y12667792D01*
X5374081Y12663881D01*
X5374081Y5836056D01*
X5373319Y5832144D01*
X5371084Y5828893D01*
X5367832Y5826658D01*
X5363921Y5825896D01*
G37*

%LPC*%
G36*
X2718054Y6062065D02*
G01*
X2731363Y6062929D01*
X2744470Y6065520D01*
X2757119Y6069838D01*
X2769108Y6075730D01*
X2780182Y6083147D01*
X2790240Y6091986D01*
X2799029Y6101994D01*
X2806446Y6113119D01*
X2812389Y6125057D01*
X2816656Y6137706D01*
X2819247Y6150813D01*
X2820162Y6164478D01*
X2820162Y6211417D01*
X2819247Y6225082D01*
X2816656Y6238189D01*
X2812389Y6250838D01*
X2806446Y6262776D01*
X2799029Y6273901D01*
X2796489Y6276797D01*
X2794609Y6279896D01*
X2793949Y6283452D01*
X2793898Y6299860D01*
X2793085Y6308598D01*
X2792679Y6311036D01*
X2790748Y6318707D01*
X2790494Y6322161D01*
X2791409Y6325514D01*
X2793441Y6328359D01*
X2796489Y6331458D01*
X2799588Y6336334D01*
X2801518Y6341821D01*
X2802229Y6348120D01*
X2802229Y6475222D01*
X2801518Y6481572D01*
X2799588Y6487007D01*
X2796489Y6491935D01*
X2792425Y6495999D01*
X2787497Y6499098D01*
X2782062Y6500977D01*
X2775712Y6501688D01*
X2431288Y6501688D01*
X2424938Y6500977D01*
X2419502Y6499098D01*
X2414574Y6495999D01*
X2410510Y6491935D01*
X2407412Y6487007D01*
X2405481Y6481572D01*
X2404770Y6475222D01*
X2404770Y6348120D01*
X2405481Y6341821D01*
X2407412Y6336334D01*
X2410510Y6331458D01*
X2414574Y6327343D01*
X2419502Y6324244D01*
X2423363Y6322923D01*
X2426766Y6320891D01*
X2429154Y6317742D01*
X2430170Y6313932D01*
X2429611Y6310020D01*
X2427630Y6306616D01*
X2424531Y6304178D01*
X2416810Y6300419D01*
X2405735Y6293002D01*
X2395677Y6284163D01*
X2387752Y6275120D01*
X2384298Y6272580D01*
X2380081Y6271666D01*
X2360320Y6271666D01*
X2356358Y6272479D01*
X2353056Y6274765D01*
X2347823Y6280150D01*
X2342997Y6283198D01*
X2337562Y6285077D01*
X2331212Y6285788D01*
X1986788Y6285788D01*
X1980438Y6285077D01*
X1975002Y6283198D01*
X1970074Y6280099D01*
X1966010Y6276035D01*
X1962912Y6271107D01*
X1960981Y6265672D01*
X1960270Y6259322D01*
X1960270Y6132220D01*
X1960981Y6125921D01*
X1962912Y6120434D01*
X1966010Y6115558D01*
X1970074Y6111443D01*
X1975002Y6108344D01*
X1980438Y6106464D01*
X1986788Y6105753D01*
X2331212Y6105753D01*
X2337562Y6106464D01*
X2342997Y6108344D01*
X2347823Y6111392D01*
X2353056Y6116777D01*
X2356358Y6119063D01*
X2360320Y6119876D01*
X2369921Y6119876D01*
X2373630Y6119164D01*
X2376779Y6117183D01*
X2386888Y6102248D01*
X2395677Y6092240D01*
X2405735Y6083401D01*
X2416810Y6075984D01*
X2428798Y6070092D01*
X2441448Y6065774D01*
X2454554Y6063183D01*
X2467864Y6062319D01*
X2481173Y6063183D01*
X2494280Y6065774D01*
X2506929Y6070092D01*
X2518918Y6075984D01*
X2529992Y6083401D01*
X2540050Y6092240D01*
X2548839Y6102248D01*
X2556256Y6113373D01*
X2562199Y6125311D01*
X2566466Y6137960D01*
X2569057Y6151067D01*
X2569972Y6164732D01*
X2569972Y6211671D01*
X2569057Y6225336D01*
X2566466Y6238443D01*
X2562199Y6251092D01*
X2556256Y6263030D01*
X2548839Y6274155D01*
X2540050Y6284163D01*
X2529992Y6293002D01*
X2518918Y6300419D01*
X2514955Y6302349D01*
X2511450Y6305194D01*
X2509520Y6309258D01*
X2509520Y6313779D01*
X2511501Y6317843D01*
X2515057Y6320637D01*
X2519426Y6321653D01*
X2581960Y6321653D01*
X2585872Y6320840D01*
X2589174Y6318656D01*
X2629916Y6277914D01*
X2631897Y6275070D01*
X2632862Y6271717D01*
X2632608Y6268262D01*
X2631186Y6265062D01*
X2629662Y6262776D01*
X2623718Y6250838D01*
X2619451Y6238189D01*
X2616860Y6225082D01*
X2615946Y6211417D01*
X2615946Y6164478D01*
X2616860Y6150813D01*
X2619451Y6137706D01*
X2623718Y6125057D01*
X2629662Y6113119D01*
X2637078Y6101994D01*
X2645867Y6091986D01*
X2655925Y6083147D01*
X2667000Y6075730D01*
X2678988Y6069838D01*
X2691638Y6065520D01*
X2704744Y6062929D01*
G37*
G36*
X2977896Y6062319D02*
G01*
X2991205Y6063183D01*
X3004312Y6065774D01*
X3016961Y6070092D01*
X3028950Y6075984D01*
X3040024Y6083401D01*
X3050082Y6092240D01*
X3058871Y6102248D01*
X3066288Y6113373D01*
X3072231Y6125311D01*
X3076498Y6137960D01*
X3079089Y6151067D01*
X3080004Y6164732D01*
X3080004Y6211671D01*
X3079089Y6225336D01*
X3076498Y6238443D01*
X3072231Y6251092D01*
X3066288Y6263030D01*
X3058871Y6274155D01*
X3050082Y6284163D01*
X3040024Y6293002D01*
X3028950Y6300419D01*
X3016961Y6306312D01*
X3004312Y6310630D01*
X2991205Y6313220D01*
X2977896Y6314084D01*
X2964586Y6313220D01*
X2951480Y6310630D01*
X2938830Y6306312D01*
X2926842Y6300419D01*
X2915767Y6293002D01*
X2905709Y6284163D01*
X2896920Y6274155D01*
X2889504Y6263030D01*
X2883560Y6251092D01*
X2879293Y6238443D01*
X2876702Y6225336D01*
X2875788Y6211671D01*
X2875788Y6164732D01*
X2876702Y6151067D01*
X2879293Y6137960D01*
X2883560Y6125311D01*
X2889504Y6113373D01*
X2896920Y6102248D01*
X2905709Y6092240D01*
X2915767Y6083401D01*
X2926842Y6075984D01*
X2938830Y6070092D01*
X2951480Y6065774D01*
X2964586Y6063183D01*
G37*
G36*
X3227832Y6072225D02*
G01*
X3241141Y6073089D01*
X3254248Y6075680D01*
X3266897Y6079998D01*
X3278886Y6085890D01*
X3289960Y6093307D01*
X3300018Y6102146D01*
X3308807Y6112154D01*
X3316224Y6123279D01*
X3322167Y6135217D01*
X3326434Y6147866D01*
X3329025Y6160973D01*
X3329940Y6174638D01*
X3329940Y6221577D01*
X3329025Y6235242D01*
X3326434Y6248349D01*
X3322167Y6260998D01*
X3321151Y6262928D01*
X3320135Y6266992D01*
X3320796Y6271107D01*
X3323082Y6274612D01*
X3367125Y6318656D01*
X3370427Y6320840D01*
X3374339Y6321653D01*
X3410153Y6321653D01*
X3414369Y6320739D01*
X3417824Y6318199D01*
X3419906Y6314440D01*
X3420262Y6310172D01*
X3418789Y6306108D01*
X3415639Y6302908D01*
X3405581Y6294069D01*
X3396792Y6284061D01*
X3389376Y6272936D01*
X3383432Y6260998D01*
X3379165Y6248349D01*
X3376574Y6235242D01*
X3375660Y6221577D01*
X3375660Y6174638D01*
X3376574Y6160973D01*
X3379165Y6147866D01*
X3383432Y6135217D01*
X3389376Y6123279D01*
X3396792Y6112154D01*
X3405581Y6102146D01*
X3415639Y6093307D01*
X3426714Y6085890D01*
X3438702Y6079998D01*
X3451351Y6075680D01*
X3464458Y6073089D01*
X3477768Y6072225D01*
X3491077Y6073089D01*
X3504184Y6075680D01*
X3516833Y6079998D01*
X3528822Y6085890D01*
X3539896Y6093307D01*
X3549954Y6102146D01*
X3558743Y6112154D01*
X3560876Y6115354D01*
X3563162Y6117742D01*
X3566058Y6119317D01*
X3569309Y6119876D01*
X3595979Y6119876D01*
X3599942Y6119063D01*
X3603244Y6116777D01*
X3608476Y6111392D01*
X3613302Y6108344D01*
X3618737Y6106464D01*
X3625087Y6105753D01*
X3969512Y6105753D01*
X3975862Y6106464D01*
X3981297Y6108344D01*
X3986225Y6111443D01*
X3990289Y6115558D01*
X3993387Y6120434D01*
X3995318Y6125921D01*
X3996029Y6132220D01*
X3996029Y6259322D01*
X3995318Y6265672D01*
X3993387Y6271107D01*
X3990289Y6276035D01*
X3986225Y6280099D01*
X3981297Y6283198D01*
X3975862Y6285077D01*
X3969512Y6285788D01*
X3625087Y6285788D01*
X3618737Y6285077D01*
X3613302Y6283198D01*
X3608476Y6280150D01*
X3603244Y6274765D01*
X3599942Y6272479D01*
X3595979Y6271666D01*
X3572459Y6271666D01*
X3569208Y6272225D01*
X3566261Y6273800D01*
X3564026Y6276187D01*
X3558743Y6284061D01*
X3549954Y6294069D01*
X3539896Y6302908D01*
X3534816Y6306312D01*
X3531768Y6309512D01*
X3530346Y6313678D01*
X3530803Y6318046D01*
X3533140Y6321806D01*
X3541725Y6327343D01*
X3545789Y6331458D01*
X3548887Y6336334D01*
X3550818Y6341821D01*
X3551529Y6348120D01*
X3551529Y6475222D01*
X3550818Y6481572D01*
X3548887Y6487007D01*
X3545789Y6491935D01*
X3541725Y6495999D01*
X3536797Y6499098D01*
X3531362Y6500977D01*
X3525012Y6501688D01*
X3180588Y6501688D01*
X3174238Y6500977D01*
X3168802Y6499098D01*
X3163874Y6495999D01*
X3159810Y6491935D01*
X3156712Y6487007D01*
X3154781Y6481572D01*
X3154070Y6475222D01*
X3154070Y6348120D01*
X3154781Y6341821D01*
X3156712Y6336334D01*
X3159912Y6331305D01*
X3161233Y6327952D01*
X3161334Y6324396D01*
X3155340Y6309258D01*
X3153308Y6300927D01*
X3152444Y6293561D01*
X3151733Y6290818D01*
X3150260Y6288328D01*
X3146958Y6284214D01*
X3139440Y6272936D01*
X3133496Y6260998D01*
X3129229Y6248349D01*
X3126638Y6235242D01*
X3125724Y6221577D01*
X3125724Y6174638D01*
X3126638Y6160973D01*
X3129229Y6147866D01*
X3133496Y6135217D01*
X3139440Y6123279D01*
X3146856Y6112154D01*
X3155645Y6102146D01*
X3165703Y6093307D01*
X3176778Y6085890D01*
X3188766Y6079998D01*
X3201416Y6075680D01*
X3214522Y6073089D01*
G37*
G36*
X850900Y8290052D02*
G01*
X864565Y8290966D01*
X877976Y8293658D01*
X890930Y8298027D01*
X903224Y8304072D01*
X914603Y8311692D01*
X924864Y8320735D01*
X933907Y8330996D01*
X941527Y8342375D01*
X947572Y8354669D01*
X951941Y8367623D01*
X954633Y8381034D01*
X955548Y8394700D01*
X954633Y8408365D01*
X951941Y8421776D01*
X947572Y8434730D01*
X941527Y8447024D01*
X933907Y8458403D01*
X924864Y8468664D01*
X914603Y8477707D01*
X903224Y8485327D01*
X890930Y8491372D01*
X877976Y8495741D01*
X864565Y8498433D01*
X850900Y8499348D01*
X837234Y8498433D01*
X823823Y8495741D01*
X810869Y8491372D01*
X798576Y8485327D01*
X787196Y8477707D01*
X776935Y8468664D01*
X767892Y8458403D01*
X760272Y8447024D01*
X754227Y8434730D01*
X749858Y8421776D01*
X747166Y8408365D01*
X746252Y8394700D01*
X747166Y8381034D01*
X749858Y8367623D01*
X754227Y8354669D01*
X760272Y8342375D01*
X767892Y8330996D01*
X776935Y8320735D01*
X787196Y8311692D01*
X798576Y8304072D01*
X810869Y8298027D01*
X823823Y8293658D01*
X837234Y8290966D01*
G37*
G36*
X5245100Y8798052D02*
G01*
X5258765Y8798966D01*
X5272176Y8801658D01*
X5285130Y8806027D01*
X5297424Y8812072D01*
X5308803Y8819692D01*
X5319064Y8828735D01*
X5328107Y8838996D01*
X5335727Y8850376D01*
X5341772Y8862669D01*
X5346141Y8875623D01*
X5348833Y8889034D01*
X5349748Y8902700D01*
X5348833Y8916365D01*
X5346141Y8929776D01*
X5341772Y8942730D01*
X5335727Y8955024D01*
X5328107Y8966403D01*
X5319064Y8976664D01*
X5308803Y8985707D01*
X5297424Y8993327D01*
X5285130Y8999372D01*
X5272176Y9003741D01*
X5258765Y9006433D01*
X5245100Y9007348D01*
X5231434Y9006433D01*
X5218023Y9003741D01*
X5205069Y8999372D01*
X5192776Y8993327D01*
X5181396Y8985707D01*
X5171135Y8976664D01*
X5162092Y8966403D01*
X5154472Y8955024D01*
X5148427Y8942730D01*
X5144058Y8929776D01*
X5141366Y8916365D01*
X5140452Y8902700D01*
X5141366Y8889034D01*
X5144058Y8875623D01*
X5148427Y8862669D01*
X5154472Y8850376D01*
X5162092Y8838996D01*
X5171135Y8828735D01*
X5181396Y8819692D01*
X5192776Y8812072D01*
X5205069Y8806027D01*
X5218023Y8801658D01*
X5231434Y8798966D01*
G37*
G36*
X5245100Y9052052D02*
G01*
X5258765Y9052966D01*
X5272176Y9055658D01*
X5285130Y9060027D01*
X5297424Y9066072D01*
X5308803Y9073692D01*
X5319064Y9082735D01*
X5328107Y9092996D01*
X5335727Y9104376D01*
X5341772Y9116669D01*
X5346141Y9129623D01*
X5348833Y9143034D01*
X5349748Y9156700D01*
X5348833Y9170365D01*
X5346141Y9183776D01*
X5341772Y9196730D01*
X5335727Y9209024D01*
X5328107Y9220403D01*
X5319064Y9230664D01*
X5308803Y9239707D01*
X5297424Y9247327D01*
X5285130Y9253372D01*
X5272176Y9257741D01*
X5258765Y9260433D01*
X5245100Y9261348D01*
X5231434Y9260433D01*
X5218023Y9257741D01*
X5205069Y9253372D01*
X5192776Y9247327D01*
X5181396Y9239707D01*
X5171135Y9230664D01*
X5162092Y9220403D01*
X5154472Y9209024D01*
X5148427Y9196730D01*
X5144058Y9183776D01*
X5141366Y9170365D01*
X5140452Y9156700D01*
X5141366Y9143034D01*
X5144058Y9129623D01*
X5148427Y9116669D01*
X5154472Y9104376D01*
X5162092Y9092996D01*
X5171135Y9082735D01*
X5181396Y9073692D01*
X5192776Y9066072D01*
X5205069Y9060027D01*
X5218023Y9055658D01*
X5231434Y9052966D01*
G37*
G36*
X5245100Y9306052D02*
G01*
X5258765Y9306966D01*
X5272176Y9309658D01*
X5285130Y9314027D01*
X5297424Y9320072D01*
X5308803Y9327692D01*
X5319064Y9336735D01*
X5328107Y9346996D01*
X5335727Y9358376D01*
X5341772Y9370669D01*
X5346141Y9383623D01*
X5348833Y9397034D01*
X5349748Y9410700D01*
X5348833Y9424365D01*
X5346141Y9437776D01*
X5341772Y9450730D01*
X5335727Y9463024D01*
X5328107Y9474403D01*
X5319064Y9484664D01*
X5308803Y9493707D01*
X5297424Y9501327D01*
X5285130Y9507372D01*
X5272176Y9511741D01*
X5258765Y9514433D01*
X5245100Y9515348D01*
X5231434Y9514433D01*
X5218023Y9511741D01*
X5205069Y9507372D01*
X5192776Y9501327D01*
X5181396Y9493707D01*
X5171135Y9484664D01*
X5162092Y9474403D01*
X5154472Y9463024D01*
X5148427Y9450730D01*
X5144058Y9437776D01*
X5141366Y9424365D01*
X5140452Y9410700D01*
X5141366Y9397034D01*
X5144058Y9383623D01*
X5148427Y9370669D01*
X5154472Y9358376D01*
X5162092Y9346996D01*
X5171135Y9336735D01*
X5181396Y9327692D01*
X5192776Y9320072D01*
X5205069Y9314027D01*
X5218023Y9309658D01*
X5231434Y9306966D01*
G37*
G36*
X5290820Y9570821D02*
G01*
X5297424Y9574072D01*
X5308803Y9581692D01*
X5319064Y9590735D01*
X5328107Y9600996D01*
X5335727Y9612376D01*
X5338978Y9618980D01*
X5290820Y9618980D01*
G37*
G36*
X5199380Y9570821D02*
G01*
X5199380Y9618980D01*
X5151221Y9618980D01*
X5154472Y9612376D01*
X5162092Y9600996D01*
X5171135Y9590735D01*
X5181396Y9581692D01*
X5192776Y9574072D01*
G37*
G36*
X896619Y9710420D02*
G01*
X944778Y9710420D01*
X941527Y9717024D01*
X933907Y9728403D01*
X924864Y9738664D01*
X914603Y9747707D01*
X903224Y9755327D01*
X896619Y9758578D01*
G37*
G36*
X757021Y9710420D02*
G01*
X805180Y9710420D01*
X805180Y9758578D01*
X798576Y9755327D01*
X787196Y9747707D01*
X776935Y9738664D01*
X767892Y9728403D01*
X760272Y9717024D01*
G37*
G36*
X5151221Y9710420D02*
G01*
X5199380Y9710420D01*
X5199380Y9758578D01*
X5192776Y9755327D01*
X5181396Y9747707D01*
X5171135Y9738664D01*
X5162092Y9728403D01*
X5154472Y9717024D01*
G37*
G36*
X5290820Y9710420D02*
G01*
X5338978Y9710420D01*
X5335727Y9717024D01*
X5328107Y9728403D01*
X5319064Y9738664D01*
X5308803Y9747707D01*
X5297424Y9755327D01*
X5290820Y9758578D01*
G37*
G36*
X805180Y9824821D02*
G01*
X805180Y9872980D01*
X757021Y9872980D01*
X760272Y9866376D01*
X767892Y9854996D01*
X776935Y9844735D01*
X787196Y9835692D01*
X798576Y9828072D01*
G37*
G36*
X896619Y9824821D02*
G01*
X903224Y9828072D01*
X914603Y9835692D01*
X924864Y9844735D01*
X933907Y9854996D01*
X941527Y9866376D01*
X944778Y9872980D01*
X896619Y9872980D01*
G37*
G36*
X5290820Y9824821D02*
G01*
X5297424Y9828072D01*
X5308803Y9835692D01*
X5319064Y9844735D01*
X5328107Y9854996D01*
X5335727Y9866376D01*
X5338978Y9872980D01*
X5290820Y9872980D01*
G37*
G36*
X5199380Y9824821D02*
G01*
X5199380Y9872980D01*
X5151221Y9872980D01*
X5154472Y9866376D01*
X5162092Y9854996D01*
X5171135Y9844735D01*
X5181396Y9835692D01*
X5192776Y9828072D01*
G37*
G36*
X757021Y9964420D02*
G01*
X805180Y9964420D01*
X805180Y10012578D01*
X798576Y10009327D01*
X787196Y10001707D01*
X776935Y9992664D01*
X767892Y9982403D01*
X760272Y9971024D01*
G37*
G36*
X896619Y9964420D02*
G01*
X944778Y9964420D01*
X941527Y9971024D01*
X933907Y9982403D01*
X924864Y9992664D01*
X914603Y10001707D01*
X903224Y10009327D01*
X896619Y10012578D01*
G37*
G36*
X5151221Y9964420D02*
G01*
X5199380Y9964420D01*
X5199380Y10012578D01*
X5192776Y10009327D01*
X5181396Y10001707D01*
X5171135Y9992664D01*
X5162092Y9982403D01*
X5154472Y9971024D01*
G37*
G36*
X5290820Y9964420D02*
G01*
X5338978Y9964420D01*
X5335727Y9971024D01*
X5328107Y9982403D01*
X5319064Y9992664D01*
X5308803Y10001707D01*
X5297424Y10009327D01*
X5290820Y10012578D01*
G37*
G36*
X4158335Y10256570D02*
G01*
X4226204Y10256570D01*
X4223664Y10262006D01*
X4222699Y10266019D01*
X4223410Y10270083D01*
X4225696Y10273487D01*
X4228388Y10276230D01*
X4231487Y10281107D01*
X4233418Y10286593D01*
X4234129Y10292892D01*
X4234129Y10323626D01*
X4155135Y10323626D01*
X4155135Y10307675D01*
X4157522Y10304322D01*
X4158335Y10300258D01*
G37*
G36*
X3972051Y10256570D02*
G01*
X4023664Y10256570D01*
X4023664Y10323626D01*
X3944670Y10323626D01*
X3944670Y10292892D01*
X3945382Y10286593D01*
X3947312Y10281107D01*
X3950411Y10276230D01*
X3954475Y10272115D01*
X3959402Y10269016D01*
X3965448Y10266934D01*
X3968699Y10265054D01*
X3971086Y10262057D01*
X3972204Y10258450D01*
G37*
G36*
X3862679Y10333278D02*
G01*
X3891026Y10333278D01*
X3897376Y10333990D01*
X3902811Y10335920D01*
X3907739Y10339019D01*
X3911803Y10343083D01*
X3914901Y10348010D01*
X3916781Y10353446D01*
X3917492Y10359745D01*
X3917492Y10386618D01*
X3862679Y10386618D01*
G37*
G36*
X4155135Y10411663D02*
G01*
X4234129Y10411663D01*
X4234129Y10442397D01*
X4233418Y10448696D01*
X4231487Y10454182D01*
X4228388Y10459059D01*
X4224324Y10463174D01*
X4219397Y10466222D01*
X4213961Y10468152D01*
X4207611Y10468864D01*
X4155135Y10468864D01*
G37*
G36*
X3944670Y10411663D02*
G01*
X4023664Y10411663D01*
X4023664Y10468864D01*
X3971188Y10468864D01*
X3964838Y10468152D01*
X3959402Y10466222D01*
X3954475Y10463174D01*
X3950411Y10459059D01*
X3947312Y10454182D01*
X3945382Y10448696D01*
X3944670Y10442397D01*
G37*
G36*
X3862679Y10466781D02*
G01*
X3917492Y10466781D01*
X3917492Y10493654D01*
X3916781Y10499953D01*
X3914901Y10505389D01*
X3911803Y10510316D01*
X3907739Y10514380D01*
X3902811Y10517479D01*
X3897376Y10519410D01*
X3891026Y10520121D01*
X3862679Y10520121D01*
G37*
G36*
X2821076Y11213795D02*
G01*
X2830830Y11214658D01*
X2840329Y11217198D01*
X2849219Y11221364D01*
X2857296Y11226952D01*
X2864256Y11233912D01*
X2869895Y11241989D01*
X2874010Y11250879D01*
X2876550Y11260378D01*
X2877413Y11270132D01*
X2876550Y11279936D01*
X2874010Y11289436D01*
X2869895Y11298326D01*
X2864256Y11306403D01*
X2862529Y11308130D01*
X2860294Y11311382D01*
X2859532Y11315293D01*
X2859532Y11389614D01*
X2858719Y11398910D01*
X2856433Y11407444D01*
X2852674Y11415522D01*
X2847594Y11422786D01*
X2841345Y11429034D01*
X2834081Y11434114D01*
X2826054Y11437874D01*
X2817469Y11440160D01*
X2808173Y11440972D01*
X2799689Y11440972D01*
X2795778Y11441734D01*
X2792476Y11443970D01*
X2790291Y11447272D01*
X2789529Y11451132D01*
X2789529Y11453622D01*
X2788818Y11459972D01*
X2786888Y11465407D01*
X2783789Y11470335D01*
X2779725Y11474399D01*
X2774797Y11477498D01*
X2769362Y11479377D01*
X2763012Y11480088D01*
X2418588Y11480088D01*
X2412238Y11479377D01*
X2406802Y11477498D01*
X2401874Y11474399D01*
X2397810Y11470335D01*
X2394712Y11465407D01*
X2392781Y11459972D01*
X2392070Y11453622D01*
X2392070Y11326520D01*
X2392781Y11320221D01*
X2394712Y11314734D01*
X2397810Y11309858D01*
X2401874Y11305743D01*
X2406802Y11302644D01*
X2412238Y11300764D01*
X2418588Y11300053D01*
X2747568Y11300053D01*
X2751429Y11299240D01*
X2754731Y11297056D01*
X2756966Y11293754D01*
X2757728Y11289893D01*
X2757932Y11278158D01*
X2758490Y11273739D01*
X2759456Y11269421D01*
X2760827Y11265154D01*
X2762504Y11261090D01*
X2767685Y11251692D01*
X2772257Y11241989D01*
X2777896Y11233912D01*
X2784805Y11226952D01*
X2792882Y11221364D01*
X2801772Y11217198D01*
X2811272Y11214658D01*
G37*
G36*
X2418588Y11913311D02*
G01*
X2763012Y11913311D01*
X2769362Y11914022D01*
X2774797Y11915902D01*
X2779623Y11918950D01*
X2784856Y11924334D01*
X2788158Y11926620D01*
X2792120Y11927433D01*
X2833471Y11927433D01*
X2839313Y11927636D01*
X2844952Y11928297D01*
X2850540Y11929313D01*
X2856026Y11930786D01*
X2861360Y11932666D01*
X2866593Y11934952D01*
X2871622Y11937593D01*
X2876397Y11940641D01*
X2880969Y11943994D01*
X2885287Y11947702D01*
X2889300Y11951716D01*
X2893009Y11955983D01*
X2896362Y11960555D01*
X2899359Y11965381D01*
X2902051Y11970410D01*
X2904286Y11975592D01*
X2906166Y11980976D01*
X2907639Y11986463D01*
X2908706Y11992000D01*
X2909316Y11997639D01*
X2909570Y12003532D01*
X2909570Y12108129D01*
X2910484Y12112396D01*
X2913126Y12115901D01*
X2916986Y12117933D01*
X2921304Y12118187D01*
X2925368Y12116612D01*
X2926842Y12115596D01*
X2938830Y12109704D01*
X2951480Y12105386D01*
X2964586Y12102795D01*
X2977896Y12101931D01*
X2991205Y12102795D01*
X3004312Y12105386D01*
X3016961Y12109704D01*
X3028950Y12115596D01*
X3040024Y12123013D01*
X3050082Y12131852D01*
X3058871Y12141860D01*
X3066288Y12152985D01*
X3072231Y12164923D01*
X3076498Y12177572D01*
X3079089Y12190679D01*
X3080004Y12204344D01*
X3080004Y12251283D01*
X3079089Y12264948D01*
X3076498Y12278055D01*
X3072231Y12290704D01*
X3066288Y12302642D01*
X3058871Y12313767D01*
X3050082Y12323775D01*
X3040024Y12332614D01*
X3028950Y12340031D01*
X3016961Y12345924D01*
X3004312Y12350242D01*
X2991205Y12352832D01*
X2977896Y12353696D01*
X2964586Y12352832D01*
X2951480Y12350242D01*
X2938830Y12345924D01*
X2926842Y12340031D01*
X2915767Y12332614D01*
X2905709Y12323775D01*
X2896920Y12313767D01*
X2889504Y12302642D01*
X2883560Y12290704D01*
X2879293Y12278055D01*
X2876702Y12264948D01*
X2875788Y12251283D01*
X2875788Y12211862D01*
X2875026Y12208002D01*
X2872790Y12204700D01*
X2869539Y12202464D01*
X2865628Y12201702D01*
X2861716Y12202464D01*
X2858465Y12204700D01*
X2833065Y12230100D01*
X2830830Y12233402D01*
X2830068Y12237262D01*
X2830068Y12251283D01*
X2829153Y12264948D01*
X2826562Y12278055D01*
X2822295Y12290704D01*
X2816352Y12302642D01*
X2808935Y12313767D01*
X2800146Y12323775D01*
X2790088Y12332614D01*
X2779014Y12340031D01*
X2767025Y12345924D01*
X2754376Y12350242D01*
X2741269Y12352832D01*
X2727960Y12353696D01*
X2714650Y12352832D01*
X2701544Y12350242D01*
X2688894Y12345924D01*
X2676906Y12340031D01*
X2665831Y12332614D01*
X2655773Y12323775D01*
X2646984Y12313767D01*
X2639568Y12302642D01*
X2633624Y12290704D01*
X2629357Y12278055D01*
X2626766Y12264948D01*
X2625852Y12251283D01*
X2625852Y12204344D01*
X2626766Y12190679D01*
X2629357Y12177572D01*
X2633624Y12164923D01*
X2639568Y12152985D01*
X2646984Y12141860D01*
X2655773Y12131852D01*
X2665831Y12123013D01*
X2676906Y12115596D01*
X2682951Y12112650D01*
X2686456Y12109805D01*
X2688386Y12105741D01*
X2688336Y12101220D01*
X2686354Y12097156D01*
X2682849Y12094362D01*
X2678430Y12093346D01*
X2517648Y12093346D01*
X2513228Y12094362D01*
X2509723Y12097156D01*
X2507742Y12101220D01*
X2507691Y12105741D01*
X2509621Y12109805D01*
X2513126Y12112650D01*
X2519172Y12115596D01*
X2530246Y12123013D01*
X2540304Y12131852D01*
X2549093Y12141860D01*
X2556510Y12152985D01*
X2562453Y12164923D01*
X2566720Y12177572D01*
X2569311Y12190679D01*
X2570226Y12204344D01*
X2570226Y12251283D01*
X2569311Y12264948D01*
X2566720Y12278055D01*
X2562453Y12290704D01*
X2556510Y12302642D01*
X2549093Y12313767D01*
X2540304Y12323775D01*
X2530246Y12332614D01*
X2519172Y12340031D01*
X2507183Y12345924D01*
X2494534Y12350242D01*
X2481427Y12352832D01*
X2468118Y12353696D01*
X2454808Y12352832D01*
X2441702Y12350242D01*
X2429052Y12345924D01*
X2417064Y12340031D01*
X2405989Y12332614D01*
X2395931Y12323775D01*
X2387142Y12313767D01*
X2380894Y12304420D01*
X2378608Y12301982D01*
X2375611Y12300407D01*
X2372817Y12299492D01*
X2364282Y12295987D01*
X2360422Y12295174D01*
X2347671Y12295124D01*
X2343708Y12295936D01*
X2340356Y12298222D01*
X2335123Y12303607D01*
X2330297Y12306655D01*
X2324862Y12308535D01*
X2318512Y12309246D01*
X1974088Y12309246D01*
X1967738Y12308535D01*
X1962302Y12306655D01*
X1957374Y12303556D01*
X1953310Y12299442D01*
X1950212Y12294565D01*
X1948281Y12289078D01*
X1947570Y12282779D01*
X1947570Y12155678D01*
X1948281Y12149328D01*
X1950212Y12143892D01*
X1953310Y12138964D01*
X1957374Y12134900D01*
X1962302Y12131802D01*
X1967738Y12129922D01*
X1974088Y12129211D01*
X2318512Y12129211D01*
X2324862Y12129922D01*
X2330297Y12131802D01*
X2335123Y12134850D01*
X2340356Y12140234D01*
X2343658Y12142520D01*
X2347620Y12143333D01*
X2381250Y12143333D01*
X2385466Y12142419D01*
X2388870Y12139879D01*
X2395931Y12131852D01*
X2405989Y12123013D01*
X2417064Y12115596D01*
X2423109Y12112650D01*
X2426512Y12109907D01*
X2428443Y12106046D01*
X2428595Y12101728D01*
X2426970Y12097715D01*
X2423769Y12094768D01*
X2419654Y12093397D01*
X2412187Y12092635D01*
X2406802Y12090755D01*
X2401874Y12087656D01*
X2397810Y12083542D01*
X2394712Y12078665D01*
X2392781Y12073178D01*
X2392070Y12066879D01*
X2392070Y11939778D01*
X2392781Y11933428D01*
X2394712Y11927992D01*
X2397810Y11923064D01*
X2401874Y11919000D01*
X2406802Y11915902D01*
X2412238Y11914022D01*
G37*

%LPD*%
D10*
X3134972Y7024928D02*
G01*
X2976247Y7183653D01*
X2976247Y9382328D01*
X3068119Y9474200D01*
X3139493Y9474200D01*
X3352802Y7024928D02*
G01*
X3134972Y7024928D01*
X2603502Y7024928D02*
G01*
X2821332Y7024928D01*
X2821332Y7024928D02*
G01*
X2821332Y9350298D01*
X3072234Y9601200D01*
X3139493Y9601200D01*
X3797302Y6809028D02*
G01*
X3579472Y6809028D01*
X3139493Y10109200D02*
G01*
X3069033Y10109200D01*
X2674647Y9714814D01*
X2674647Y9462643D01*
X1941121Y8729116D01*
X1941121Y6724573D01*
X1965835Y6699859D01*
X3470302Y6699859D01*
X3579472Y6809028D01*
X2159002Y6809028D02*
G01*
X2376832Y6809028D01*
X2376832Y6809028D02*
G01*
X2376832Y9027337D01*
X3077695Y9728200D01*
X3139493Y9728200D01*
D11*
X3477770Y6198107D02*
G01*
X3552116Y6198107D01*
X3554453Y6195771D01*
X3797302Y6195771D02*
G01*
X3554453Y6195771D01*
X2468120Y12227813D02*
G01*
X2397737Y12227813D01*
X2389151Y12219228D01*
X2146302Y12219228D02*
G01*
X2389151Y12219228D01*
X2727962Y12227813D02*
G01*
X2833651Y12122124D01*
X2833651Y12003328D01*
X2590802Y12003328D02*
G01*
X2833651Y12003328D01*
X2467866Y6188202D02*
G01*
X2409421Y6188202D01*
X2401851Y6195771D01*
X2159002Y6195771D02*
G01*
X2401851Y6195771D01*
X2718056Y6187947D02*
G01*
X2718056Y6297117D01*
X2603502Y6411671D01*
X3227834Y6198107D02*
G01*
X3227834Y6286703D01*
X3352802Y6411671D01*
X3487930Y12227813D02*
G01*
X3550338Y12227813D01*
X3554453Y12231928D01*
X3797302Y12231928D02*
G01*
X3554453Y12231928D01*
X3227834Y12228068D02*
G01*
X3227834Y12128296D01*
X3352802Y12003328D01*
X1671322Y9588500D02*
G01*
X1282702Y9588500D01*
X850902Y9156700D01*
X1865302Y9182100D02*
G01*
X1865302Y9319666D01*
X999695Y8140700D02*
G01*
X1865302Y9006306D01*
X1865302Y9182100D01*
X850902Y8140700D02*
G01*
X999695Y8140700D01*
X3621102Y10426700D02*
G01*
X3621102Y10564266D01*
X2265682Y10223500D02*
G01*
X2278382Y10236200D01*
X3139493Y10236200D01*
X4089402Y10739754D02*
G01*
X3796591Y10739754D01*
X3621102Y10564266D01*
X4278251Y10739754D02*
G01*
X4278251Y11588927D01*
X4028315Y11838863D01*
X3459965Y11838863D01*
X3098319Y11477218D01*
X3098319Y10277373D01*
X3139493Y10236200D01*
X4089402Y10739754D02*
G01*
X4278251Y10739754D01*
X1865302Y9319666D02*
G01*
X1999287Y9453651D01*
X1999287Y10055783D01*
X2167003Y10223500D01*
X2265682Y10223500D01*
X3621102Y10426700D02*
G01*
X3621102Y9436582D01*
X4916985Y8140700D01*
X5245102Y8140700D01*
D12*
X850902Y8648700D02*
G01*
X730481Y8769121D01*
X730481Y9455150D01*
X812980Y9537649D01*
X896343Y9537649D01*
X1328193Y9969500D01*
X1671322Y9969500D01*
D11*
X5245102Y8394700D02*
G01*
X4399815Y9239986D01*
X4399815Y10104551D01*
X4386176Y10118191D01*
X5245102Y9918700D02*
G01*
X5245102Y9664700D01*
X4089402Y10367645D02*
G01*
X4099511Y10357535D01*
X4099511Y10236200D01*
X3821102Y10426700D02*
G01*
X3841498Y10426700D01*
X3900553Y10367645D01*
X4089402Y10367645D02*
G01*
X3900553Y10367645D01*
X5245102Y9918700D02*
G01*
X4925545Y10238257D01*
X4101569Y10238257D01*
X4099511Y10236200D01*
X850902Y9918700D02*
G01*
X850902Y9664700D01*
D12*
X4099511Y10109200D02*
G01*
X3953258Y10109200D01*
X3947391Y10115067D01*
X2403756Y10095864D02*
G01*
X2266317Y10095864D01*
X2265682Y10096500D01*
X1671322Y10223500D02*
G01*
X1765124Y10223500D01*
X1802056Y10186568D01*
X4099511Y9347200D02*
G01*
X3912897Y9347200D01*
X3882798Y9317101D01*
X2405915Y9361576D02*
G01*
X2292758Y9361576D01*
X2265682Y9334500D01*
X2265682Y9461500D02*
G01*
X2403071Y9461500D01*
X3945689Y9461652D02*
G01*
X4086964Y9461652D01*
X4099511Y9474200D01*
X4099511Y9601200D02*
G01*
X3947518Y9601200D01*
X2265682Y9588500D02*
G01*
X2458189Y9588500D01*
X2471701Y9602012D01*
X3946019Y9728200D02*
G01*
X4099511Y9728200D01*
X2265682Y9715500D02*
G01*
X2355674Y9715500D01*
X2396975Y9674199D01*
X3945994Y9832339D02*
G01*
X4076651Y9832339D01*
X4099511Y9855200D01*
X2265682Y9842500D02*
G01*
X2380287Y9842500D01*
X2409344Y9813442D01*
X2265682Y9969500D02*
G01*
X2404976Y9969500D01*
X3960319Y9918471D02*
G01*
X4035783Y9918471D01*
X4099511Y9982200D01*
D10*
X3352802Y11390071D02*
G01*
X3352802Y11497970D01*
X3594839Y11740006D01*
X3977566Y11740006D01*
X4015158Y11702414D01*
X4015158Y11209858D01*
X3468778Y10663478D01*
X3468778Y9480626D01*
X3208352Y9220200D01*
X3139493Y9220200D01*
X850902Y9410700D02*
G01*
X1204597Y9764395D01*
X1555727Y9764395D01*
X1671322Y10096500D02*
G01*
X1726872Y10096500D01*
X1811047Y10012324D01*
X1811047Y9816109D01*
X1759358Y9764420D01*
X1555727Y9764420D01*
X1555727Y9764395D01*
X1555727Y9764395D02*
G01*
X1604622Y9715500D01*
X1671322Y9715500D01*
X1665302Y9249994D02*
G01*
X1393903Y9249994D01*
X1671322Y9334500D02*
G01*
X1665302Y9328480D01*
X1665302Y9249994D01*
X1665302Y9249994D02*
G01*
X1665302Y9182100D01*
D12*
X1671322Y9461500D02*
G01*
X1720420Y9461500D01*
X1779958Y9521037D01*
X4099511Y9220200D02*
G01*
X4099511Y9145549D01*
D10*
X2146302Y11605971D02*
G01*
X1928472Y11605971D01*
X2960956Y9893325D02*
G01*
X3049831Y9982200D01*
X3139493Y9982200D01*
X1928472Y11605971D02*
G01*
X1928472Y10202163D01*
X4299257Y9957612D02*
G01*
X4274644Y9933000D01*
X4274644Y9795763D01*
X2590802Y11390071D02*
G01*
X2808632Y11390071D01*
X2808632Y11390071D02*
G01*
X2808632Y11282578D01*
X2821053Y11270157D01*
X3290064Y10039527D02*
G01*
X3290064Y9950881D01*
X3194382Y9855200D01*
X3139493Y9855200D01*
X3797302Y11618671D02*
G01*
X3579472Y11618671D01*
X3139493Y9347200D02*
G01*
X3198700Y9347200D01*
X3366518Y9515017D01*
X3366518Y10771682D01*
X3579472Y10984636D01*
X3579472Y11618671D01*
D12*
X1671322Y9842500D02*
G01*
X1531825Y9842500D01*
D13*
G01*
X3797300Y6195773D03*
D14*
G01*
X3797300Y6809028D03*
D15*
G01*
X4099509Y9220200D03*
G01*
X4099509Y9347200D03*
G01*
X4099509Y9474200D03*
G01*
X4099509Y9601200D03*
G01*
X4099509Y9728200D03*
G01*
X4099509Y9855200D03*
G01*
X4099509Y9982200D03*
G01*
X4099509Y10109200D03*
G01*
X4099509Y10236200D03*
G01*
X3139490Y9220200D03*
G01*
X3139490Y9347200D03*
G01*
X3139490Y9474200D03*
G01*
X3139490Y9601200D03*
G01*
X3139490Y9728200D03*
G01*
X3139490Y9855200D03*
G01*
X3139490Y9982200D03*
G01*
X3139490Y10109200D03*
G01*
X3139490Y10236200D03*
D16*
G01*
X1665297Y9182100D03*
G01*
X1865302Y9182100D03*
D17*
G01*
X3821102Y10426700D03*
G01*
X3621097Y10426700D03*
D18*
G01*
X4089400Y10739754D03*
D19*
G01*
X4089400Y10367637D03*
D13*
G01*
X3352800Y12003326D03*
D14*
G01*
X3352800Y11390071D03*
D13*
G01*
X3797300Y12231926D03*
D14*
G01*
X3797300Y11618671D03*
D13*
G01*
X3352800Y6411673D03*
D14*
G01*
X3352800Y7024928D03*
D13*
G01*
X2603500Y6411673D03*
D14*
G01*
X2603500Y7024928D03*
D13*
G01*
X2159000Y6195773D03*
D14*
G01*
X2159000Y6809028D03*
D13*
G01*
X2590800Y12003326D03*
D14*
G01*
X2590800Y11390071D03*
D13*
G01*
X2146300Y12219226D03*
D14*
G01*
X2146300Y11605971D03*
D20*
G01*
X1671320Y10223500D03*
G01*
X1671320Y10096500D03*
G01*
X1671320Y9969500D03*
G01*
X1671320Y9842500D03*
G01*
X1671320Y9715500D03*
G01*
X1671320Y9588500D03*
G01*
X1671320Y9461500D03*
G01*
X1671320Y9334500D03*
G01*
X2265679Y10223500D03*
G01*
X2265679Y10096500D03*
G01*
X2265679Y9969500D03*
G01*
X2265679Y9842500D03*
G01*
X2265679Y9715500D03*
G01*
X2265679Y9588500D03*
G01*
X2265679Y9461500D03*
G01*
X2265679Y9334500D03*
D21*
G01*
X850900Y8140700D03*
D22*
G01*
X850900Y8394700D03*
G01*
X850900Y8648700D03*
G01*
X850900Y8902700D03*
G01*
X850900Y9156700D03*
G01*
X850900Y9410700D03*
G01*
X850900Y9664700D03*
G01*
X850900Y9918700D03*
D21*
G01*
X5245100Y8140700D03*
D22*
G01*
X5245100Y8394700D03*
G01*
X5245100Y8648700D03*
G01*
X5245100Y8902700D03*
G01*
X5245100Y9156700D03*
G01*
X5245100Y9410700D03*
G01*
X5245100Y9664700D03*
G01*
X5245100Y9918700D03*
D23*
G01*
X3487927Y12227813D03*
G01*
X3227831Y12228068D03*
G01*
X2977895Y12227813D03*
G01*
X2727959Y12227813D03*
G01*
X2468118Y12227813D03*
G01*
X3477768Y6198107D03*
G01*
X3227831Y6198107D03*
G01*
X2977895Y6188202D03*
G01*
X2718054Y6187947D03*
G01*
X2467863Y6188202D03*
D24*
G01*
X1531825Y9842500D03*
G01*
X3290064Y10039527D03*
G01*
X4274644Y9795763D03*
G01*
X4299257Y9957612D03*
G01*
X2821053Y11270157D03*
G01*
X2960956Y9893325D03*
G01*
X1928472Y10202163D03*
G01*
X4099511Y9145549D03*
G01*
X1779958Y9521037D03*
G01*
X1393903Y9249994D03*
G01*
X3960319Y9918471D03*
G01*
X2404976Y9969500D03*
G01*
X3945994Y9832339D03*
G01*
X2409344Y9813442D03*
G01*
X3946019Y9728200D03*
G01*
X2396975Y9674199D03*
G01*
X2471701Y9602012D03*
G01*
X3947518Y9601200D03*
G01*
X3945689Y9461652D03*
G01*
X2403071Y9461500D03*
G01*
X2405915Y9361576D03*
G01*
X3882798Y9317101D03*
G01*
X1802056Y10186568D03*
G01*
X2403756Y10095864D03*
G01*
X3947391Y10115067D03*
G01*
X4386176Y10118191D03*
M02*
