G04 Layer: TopPasteMaskLayer*
G04 EasyEDA v6.5.22, 2023-04-04 14:03:21*
G04 47d133e18a1f4bd981f81e581058f082,0997c0c323a540828c61b468e30a80a1,10*
G04 Gerber Generator version 0.2*
G04 Scale: 100 percent, Rotated: No, Reflected: No *
G04 Dimensions in millimeters *
G04 leading zeros omitted , absolute positions ,4 integer and 5 decimal *
%FSLAX45Y45*%
%MOMM*%

%AMMACRO1*21,1,$1,$2,0,0,$3*%
%ADD10O,2.0999958X0.5599938*%
%ADD11R,2.3760X1.5062*%
%ADD12MACRO1,2.376X1.5063X0.0000*%
%ADD13O,1.7999964X0.5999988*%

%LPD*%
G36*
X3634486Y6259880D02*
G01*
X3624478Y6249924D01*
X3624478Y6141669D01*
X3634486Y6131661D01*
X3960114Y6131661D01*
X3970121Y6141669D01*
X3970121Y6249924D01*
X3960114Y6259880D01*
X3866032Y6259880D01*
X3856075Y6249924D01*
X3856075Y6226302D01*
X3846068Y6216294D01*
X3748532Y6216294D01*
X3738524Y6226302D01*
X3738524Y6249924D01*
X3728567Y6259880D01*
G37*
G36*
X3634486Y6873138D02*
G01*
X3624478Y6863130D01*
X3624478Y6754875D01*
X3634486Y6744919D01*
X3728567Y6744919D01*
X3738524Y6754875D01*
X3738524Y6778498D01*
X3748532Y6788505D01*
X3846068Y6788505D01*
X3856075Y6778498D01*
X3856075Y6754875D01*
X3866032Y6744919D01*
X3960114Y6744919D01*
X3970121Y6754875D01*
X3970121Y6863130D01*
X3960114Y6873138D01*
G37*
G36*
X1812798Y9249105D02*
G01*
X1807819Y9244076D01*
X1808276Y9202115D01*
X1852320Y9202115D01*
X1852320Y9157106D01*
X1807311Y9157106D01*
X1807819Y9116110D01*
X1812798Y9111081D01*
X1927809Y9111081D01*
X1932787Y9116110D01*
X1932787Y9244076D01*
X1927809Y9249105D01*
G37*
G36*
X1597812Y9249105D02*
G01*
X1592783Y9244076D01*
X1592783Y9116110D01*
X1597812Y9111081D01*
X1712823Y9111081D01*
X1717802Y9116110D01*
X1717293Y9157106D01*
X1673301Y9157106D01*
X1673301Y9202115D01*
X1717802Y9202115D01*
X1717802Y9244076D01*
X1712823Y9249105D01*
G37*
G36*
X3558590Y10497718D02*
G01*
X3553612Y10492689D01*
X3553612Y10364724D01*
X3558590Y10359694D01*
X3673601Y10359694D01*
X3678580Y10364724D01*
X3678123Y10406684D01*
X3634079Y10406684D01*
X3634079Y10451693D01*
X3679088Y10451693D01*
X3678580Y10492689D01*
X3673601Y10497718D01*
G37*
G36*
X3773576Y10497718D02*
G01*
X3768598Y10492689D01*
X3769106Y10451693D01*
X3813098Y10451693D01*
X3813098Y10406684D01*
X3768598Y10406684D01*
X3768598Y10364724D01*
X3773576Y10359694D01*
X3888587Y10359694D01*
X3893616Y10364724D01*
X3893616Y10492689D01*
X3888587Y10497718D01*
G37*
G36*
X3189986Y12067438D02*
G01*
X3179978Y12057430D01*
X3179978Y11949176D01*
X3189986Y11939219D01*
X3284067Y11939219D01*
X3294024Y11949176D01*
X3294024Y11972798D01*
X3304032Y11982805D01*
X3401568Y11982805D01*
X3411575Y11972798D01*
X3411575Y11949176D01*
X3421532Y11939219D01*
X3515614Y11939219D01*
X3525621Y11949176D01*
X3525621Y12057430D01*
X3515614Y12067438D01*
G37*
G36*
X3189986Y11454180D02*
G01*
X3179978Y11444224D01*
X3179978Y11335969D01*
X3189986Y11325961D01*
X3515614Y11325961D01*
X3525621Y11335969D01*
X3525621Y11444224D01*
X3515614Y11454180D01*
X3421532Y11454180D01*
X3411575Y11444224D01*
X3411575Y11420602D01*
X3401568Y11410594D01*
X3304032Y11410594D01*
X3294024Y11420602D01*
X3294024Y11444224D01*
X3284067Y11454180D01*
G37*
G36*
X3634486Y12296038D02*
G01*
X3624478Y12286030D01*
X3624478Y12177776D01*
X3634486Y12167819D01*
X3728567Y12167819D01*
X3738524Y12177776D01*
X3738524Y12201398D01*
X3748532Y12211405D01*
X3846068Y12211405D01*
X3856075Y12201398D01*
X3856075Y12177776D01*
X3866032Y12167819D01*
X3960114Y12167819D01*
X3970121Y12177776D01*
X3970121Y12286030D01*
X3960114Y12296038D01*
G37*
G36*
X3634486Y11682780D02*
G01*
X3624478Y11672824D01*
X3624478Y11564569D01*
X3634486Y11554561D01*
X3960114Y11554561D01*
X3970121Y11564569D01*
X3970121Y11672824D01*
X3960114Y11682780D01*
X3866032Y11682780D01*
X3856075Y11672824D01*
X3856075Y11649202D01*
X3846068Y11639194D01*
X3748532Y11639194D01*
X3738524Y11649202D01*
X3738524Y11672824D01*
X3728567Y11682780D01*
G37*
G36*
X3189986Y6475780D02*
G01*
X3179978Y6465824D01*
X3179978Y6357569D01*
X3189986Y6347561D01*
X3515614Y6347561D01*
X3525621Y6357569D01*
X3525621Y6465824D01*
X3515614Y6475780D01*
X3421532Y6475780D01*
X3411575Y6465824D01*
X3411575Y6442202D01*
X3401568Y6432194D01*
X3304032Y6432194D01*
X3294024Y6442202D01*
X3294024Y6465824D01*
X3284067Y6475780D01*
G37*
G36*
X3189986Y7089038D02*
G01*
X3179978Y7079030D01*
X3179978Y6970775D01*
X3189986Y6960819D01*
X3284067Y6960819D01*
X3294024Y6970775D01*
X3294024Y6994398D01*
X3304032Y7004405D01*
X3401568Y7004405D01*
X3411575Y6994398D01*
X3411575Y6970775D01*
X3421532Y6960819D01*
X3515614Y6960819D01*
X3525621Y6970775D01*
X3525621Y7079030D01*
X3515614Y7089038D01*
G37*
G36*
X2440686Y6475780D02*
G01*
X2430678Y6465824D01*
X2430678Y6357569D01*
X2440686Y6347561D01*
X2766314Y6347561D01*
X2776321Y6357569D01*
X2776321Y6465824D01*
X2766314Y6475780D01*
X2672232Y6475780D01*
X2662275Y6465824D01*
X2662275Y6442202D01*
X2652268Y6432194D01*
X2554732Y6432194D01*
X2544724Y6442202D01*
X2544724Y6465824D01*
X2534767Y6475780D01*
G37*
G36*
X2440686Y7089038D02*
G01*
X2430678Y7079030D01*
X2430678Y6970775D01*
X2440686Y6960819D01*
X2534767Y6960819D01*
X2544724Y6970775D01*
X2544724Y6994398D01*
X2554732Y7004405D01*
X2652268Y7004405D01*
X2662275Y6994398D01*
X2662275Y6970775D01*
X2672232Y6960819D01*
X2766314Y6960819D01*
X2776321Y6970775D01*
X2776321Y7079030D01*
X2766314Y7089038D01*
G37*
G36*
X1996186Y6259880D02*
G01*
X1986178Y6249924D01*
X1986178Y6141669D01*
X1996186Y6131661D01*
X2321814Y6131661D01*
X2331821Y6141669D01*
X2331821Y6249924D01*
X2321814Y6259880D01*
X2227732Y6259880D01*
X2217775Y6249924D01*
X2217775Y6226302D01*
X2207768Y6216294D01*
X2110232Y6216294D01*
X2100224Y6226302D01*
X2100224Y6249924D01*
X2090267Y6259880D01*
G37*
G36*
X1996186Y6873138D02*
G01*
X1986178Y6863130D01*
X1986178Y6754875D01*
X1996186Y6744919D01*
X2090267Y6744919D01*
X2100224Y6754875D01*
X2100224Y6778498D01*
X2110232Y6788505D01*
X2207768Y6788505D01*
X2217775Y6778498D01*
X2217775Y6754875D01*
X2227732Y6744919D01*
X2321814Y6744919D01*
X2331821Y6754875D01*
X2331821Y6863130D01*
X2321814Y6873138D01*
G37*
G36*
X2427986Y12067438D02*
G01*
X2417978Y12057430D01*
X2417978Y11949176D01*
X2427986Y11939219D01*
X2522067Y11939219D01*
X2532024Y11949176D01*
X2532024Y11972798D01*
X2542032Y11982805D01*
X2639568Y11982805D01*
X2649575Y11972798D01*
X2649575Y11949176D01*
X2659532Y11939219D01*
X2753614Y11939219D01*
X2763621Y11949176D01*
X2763621Y12057430D01*
X2753614Y12067438D01*
G37*
G36*
X2427986Y11454180D02*
G01*
X2417978Y11444224D01*
X2417978Y11335969D01*
X2427986Y11325961D01*
X2753614Y11325961D01*
X2763621Y11335969D01*
X2763621Y11444224D01*
X2753614Y11454180D01*
X2659532Y11454180D01*
X2649575Y11444224D01*
X2649575Y11420602D01*
X2639568Y11410594D01*
X2542032Y11410594D01*
X2532024Y11420602D01*
X2532024Y11444224D01*
X2522067Y11454180D01*
G37*
G36*
X1983486Y12283338D02*
G01*
X1973478Y12273330D01*
X1973478Y12165076D01*
X1983486Y12155119D01*
X2077567Y12155119D01*
X2087524Y12165076D01*
X2087524Y12188698D01*
X2097532Y12198705D01*
X2195068Y12198705D01*
X2205075Y12188698D01*
X2205075Y12165076D01*
X2215032Y12155119D01*
X2309114Y12155119D01*
X2319121Y12165076D01*
X2319121Y12273330D01*
X2309114Y12283338D01*
G37*
G36*
X1983486Y11670080D02*
G01*
X1973478Y11660124D01*
X1973478Y11551869D01*
X1983486Y11541861D01*
X2309114Y11541861D01*
X2319121Y11551869D01*
X2319121Y11660124D01*
X2309114Y11670080D01*
X2215032Y11670080D01*
X2205075Y11660124D01*
X2205075Y11636502D01*
X2195068Y11626494D01*
X2097532Y11626494D01*
X2087524Y11636502D01*
X2087524Y11660124D01*
X2077567Y11670080D01*
G37*
D10*
G01*
X4099509Y9220200D03*
G01*
X4099509Y9347200D03*
G01*
X4099509Y9474200D03*
G01*
X4099509Y9601200D03*
G01*
X4099509Y9728200D03*
G01*
X4099509Y9855200D03*
G01*
X4099509Y9982200D03*
G01*
X4099509Y10109200D03*
G01*
X4099509Y10236200D03*
G01*
X3139490Y9220200D03*
G01*
X3139490Y9347200D03*
G01*
X3139490Y9474200D03*
G01*
X3139490Y9601200D03*
G01*
X3139490Y9728200D03*
G01*
X3139490Y9855200D03*
G01*
X3139490Y9982200D03*
G01*
X3139490Y10109200D03*
G01*
X3139490Y10236200D03*
D11*
G01*
X4089400Y10739754D03*
D12*
G01*
X4089400Y10367637D03*
D13*
G01*
X1671320Y10223500D03*
G01*
X1671320Y10096500D03*
G01*
X1671320Y9969500D03*
G01*
X1671320Y9842500D03*
G01*
X1671320Y9715500D03*
G01*
X1671320Y9588500D03*
G01*
X1671320Y9461500D03*
G01*
X1671320Y9334500D03*
G01*
X2265679Y10223500D03*
G01*
X2265679Y10096500D03*
G01*
X2265679Y9969500D03*
G01*
X2265679Y9842500D03*
G01*
X2265679Y9715500D03*
G01*
X2265679Y9588500D03*
G01*
X2265679Y9461500D03*
G01*
X2265679Y9334500D03*
M02*
