G04 Layer: BottomSilkscreenLayer*
G04 EasyEDA v6.5.22, 2023-04-04 14:03:21*
G04 47d133e18a1f4bd981f81e581058f082,0997c0c323a540828c61b468e30a80a1,10*
G04 Gerber Generator version 0.2*
G04 Scale: 100 percent, Rotated: No, Reflected: No *
G04 Dimensions in millimeters *
G04 leading zeros omitted , absolute positions ,4 integer and 5 decimal *
%FSLAX45Y45*%
%MOMM*%

%ADD10C,0.1500*%
%ADD11C,0.1200*%
%ADD12C,0.1700*%

%LPD*%
G36*
X4853228Y6606692D02*
G01*
X4852974Y6606031D01*
X4852670Y6601612D01*
X4852720Y6596532D01*
X4853025Y6594652D01*
X4853736Y6592620D01*
X4855006Y6590182D01*
X4856988Y6587236D01*
X4863896Y6578701D01*
X4875733Y6565493D01*
X4958435Y6476238D01*
X4957733Y6434429D01*
X4971694Y6434429D01*
X4971796Y6451904D01*
X4972202Y6455918D01*
X4972761Y6458610D01*
X4973421Y6459626D01*
X4977333Y6456934D01*
X4982718Y6450685D01*
X4987493Y6443675D01*
X4989525Y6438595D01*
X4989220Y6436461D01*
X4987950Y6435191D01*
X4985207Y6434582D01*
X4957733Y6434429D01*
X4957521Y6421780D01*
X4983480Y6421678D01*
X4988610Y6421170D01*
X4990628Y6420205D01*
X5005425Y6420205D01*
X5005578Y6421120D01*
X5006136Y6421424D01*
X5007203Y6421069D01*
X5011115Y6418021D01*
X5018074Y6411264D01*
X5044287Y6383629D01*
X5098194Y6325565D01*
X5116525Y6325565D01*
X5119573Y6329527D01*
X5140299Y6353352D01*
X5177282Y6394348D01*
X5194300Y6412534D01*
X5195316Y6413398D01*
X5195620Y6412687D01*
X5195570Y6407962D01*
X5192217Y6370370D01*
X5186527Y6299149D01*
X5183936Y6270701D01*
X5182209Y6256070D01*
X5181955Y6255207D01*
X5180990Y6255664D01*
X5175402Y6260795D01*
X5154777Y6282131D01*
X5142687Y6295085D01*
X5131409Y6307531D01*
X5122468Y6317742D01*
X5117236Y6324244D01*
X5116525Y6325565D01*
X5098194Y6325565D01*
X5098948Y6324752D01*
X5032451Y6251194D01*
X5025593Y6244082D01*
X5021783Y6240526D01*
X5021275Y6240322D01*
X5005425Y6420205D01*
X4990628Y6420205D01*
X4990947Y6420053D01*
X4991506Y6418122D01*
X5005070Y6260185D01*
X5007406Y6229350D01*
X5006949Y6226911D01*
X5005273Y6223558D01*
X5001920Y6218631D01*
X4997693Y6213246D01*
X5023510Y6213246D01*
X5023916Y6218224D01*
X5025491Y6221984D01*
X5028996Y6227318D01*
X5034991Y6234938D01*
X5056835Y6260236D01*
X5087670Y6294577D01*
X5105450Y6313728D01*
X5106517Y6314643D01*
X5109870Y6311544D01*
X5130139Y6290564D01*
X5181549Y6235903D01*
X5175402Y6161278D01*
X5061204Y6161278D01*
X5059883Y6170726D01*
X5058460Y6177229D01*
X5056225Y6183376D01*
X5053126Y6188964D01*
X5049215Y6194094D01*
X5044592Y6198666D01*
X5039258Y6202578D01*
X5033264Y6205880D01*
X5026609Y6208420D01*
X5024932Y6209334D01*
X5023916Y6210858D01*
X5023510Y6213246D01*
X4997693Y6213246D01*
X4983175Y6196126D01*
X4915509Y6120079D01*
X4893157Y6094476D01*
X4887264Y6087059D01*
X4884013Y6082334D01*
X4883200Y6080709D01*
X4882845Y6079439D01*
X4882845Y6078474D01*
X4883658Y6076950D01*
X4886350Y6074206D01*
X4887468Y6073394D01*
X4888230Y6073089D01*
X4894834Y6079744D01*
X4932984Y6121704D01*
X4976418Y6170320D01*
X4977927Y6163360D01*
X4998161Y6163360D01*
X4999228Y6171742D01*
X5000498Y6175298D01*
X5002225Y6178651D01*
X5004155Y6181445D01*
X5006086Y6183325D01*
X5010658Y6185865D01*
X5015280Y6187338D01*
X5019903Y6187694D01*
X5024323Y6187084D01*
X5028488Y6185458D01*
X5032248Y6182918D01*
X5035448Y6179413D01*
X5037988Y6175044D01*
X5039614Y6170269D01*
X5040223Y6165646D01*
X5039918Y6161227D01*
X5038801Y6157061D01*
X5036972Y6153251D01*
X5034483Y6149949D01*
X5031435Y6147206D01*
X5027930Y6145123D01*
X5024018Y6143752D01*
X5019802Y6143294D01*
X5015382Y6143752D01*
X5010810Y6145225D01*
X5004155Y6149644D01*
X4999888Y6155842D01*
X4998161Y6163360D01*
X4977927Y6163360D01*
X4980940Y6151524D01*
X4983784Y6144158D01*
X4987086Y6138164D01*
X4990846Y6133693D01*
X4995468Y6130036D01*
X5000498Y6127089D01*
X5005882Y6124956D01*
X5011420Y6123533D01*
X5017109Y6122873D01*
X5022799Y6122924D01*
X5028387Y6123686D01*
X5033772Y6125159D01*
X5038852Y6127394D01*
X5043474Y6130290D01*
X5047538Y6133846D01*
X5050993Y6138164D01*
X5055311Y6144514D01*
X5156200Y6144514D01*
X5156200Y6121400D01*
X5182006Y6121400D01*
X5182158Y6138265D01*
X5182717Y6142126D01*
X5183733Y6144717D01*
X5186172Y6147104D01*
X5186984Y6148679D01*
X5187746Y6151219D01*
X5189118Y6159652D01*
X5194808Y6219647D01*
X5200142Y6214313D01*
X5233822Y6178804D01*
X5306466Y6100826D01*
X5334609Y6069888D01*
X5343652Y6079388D01*
X5195824Y6238087D01*
X5211826Y6433312D01*
X5244287Y6469024D01*
X5319064Y6552793D01*
X5339892Y6576822D01*
X5345938Y6584340D01*
X5349748Y6589674D01*
X5351780Y6593382D01*
X5352542Y6596176D01*
X5352491Y6600190D01*
X5352186Y6602475D01*
X5351729Y6604000D01*
X5351170Y6604558D01*
X5345226Y6598615D01*
X5308498Y6558381D01*
X5255971Y6500012D01*
X5234381Y6476542D01*
X5219750Y6461099D01*
X5215686Y6457137D01*
X5214213Y6456121D01*
X5214112Y6458559D01*
X5214670Y6469938D01*
X5216702Y6496405D01*
X5229910Y6497523D01*
X5232450Y6498590D01*
X5233416Y6500825D01*
X5233568Y6504889D01*
X5233416Y6509004D01*
X5232501Y6511188D01*
X5230164Y6512001D01*
X5222189Y6512306D01*
X5219700Y6512814D01*
X5218226Y6513728D01*
X5215585Y6519824D01*
X5210302Y6526682D01*
X5203596Y6533489D01*
X5197094Y6538417D01*
X5193842Y6540550D01*
X5191658Y6542684D01*
X5190337Y6544868D01*
X5189626Y6549898D01*
X5188000Y6551371D01*
X5184089Y6551930D01*
X5168646Y6552234D01*
X5160060Y6552793D01*
X5143703Y6554673D01*
X5136794Y6555892D01*
X5131358Y6557162D01*
X5127752Y6558483D01*
X5124907Y6561124D01*
X5119522Y6561988D01*
X5108956Y6562445D01*
X5081320Y6562547D01*
X5066944Y6562293D01*
X5062626Y6561988D01*
X5059730Y6561480D01*
X5057952Y6560820D01*
X5056987Y6559854D01*
X5055565Y6556806D01*
X5053584Y6555384D01*
X5050383Y6554266D01*
X5040122Y6552387D01*
X5034178Y6550914D01*
X5028133Y6549085D01*
X5022138Y6546951D01*
X5016783Y6544716D01*
X5070906Y6544716D01*
X5071719Y6546291D01*
X5074869Y6547256D01*
X5081219Y6547713D01*
X5091734Y6547866D01*
X5102250Y6547713D01*
X5108600Y6547256D01*
X5111699Y6546291D01*
X5112562Y6544716D01*
X5111699Y6543090D01*
X5108600Y6542176D01*
X5102250Y6541668D01*
X5081219Y6541668D01*
X5074869Y6542176D01*
X5071719Y6543090D01*
X5070906Y6544716D01*
X5016783Y6544716D01*
X5010759Y6541871D01*
X5005679Y6539026D01*
X4995621Y6532321D01*
X4992065Y6530543D01*
X4989525Y6530594D01*
X4983022Y6534353D01*
X4979060Y6535369D01*
X4975098Y6535369D01*
X4971338Y6534454D01*
X4967833Y6532676D01*
X4964734Y6530187D01*
X4962093Y6527088D01*
X4960112Y6523481D01*
X4958791Y6519519D01*
X4958384Y6515252D01*
X4958466Y6514541D01*
X5001006Y6514541D01*
X5001006Y6515354D01*
X5001412Y6516268D01*
X5003139Y6518757D01*
X5005832Y6521297D01*
X5009337Y6523888D01*
X5013655Y6526479D01*
X5018582Y6528917D01*
X5024018Y6531254D01*
X5029911Y6533388D01*
X5036159Y6535267D01*
X5048148Y6538315D01*
X5054346Y6539026D01*
X5056632Y6537045D01*
X5056987Y6532118D01*
X5056987Y6524752D01*
X5126431Y6524752D01*
X5126583Y6536385D01*
X5126888Y6539026D01*
X5127345Y6540703D01*
X5127955Y6541262D01*
X5155234Y6537350D01*
X5161686Y6535216D01*
X5163921Y6531152D01*
X5164124Y6518452D01*
X5189931Y6518452D01*
X5190388Y6522872D01*
X5190947Y6524244D01*
X5191556Y6524752D01*
X5192623Y6524244D01*
X5196535Y6520891D01*
X5204561Y6512153D01*
X5193233Y6512306D01*
X5191048Y6513068D01*
X5190134Y6514998D01*
X5189931Y6518452D01*
X5164124Y6518452D01*
X5164124Y6512153D01*
X5034584Y6512204D01*
X5016296Y6512458D01*
X5006035Y6512966D01*
X5003241Y6513372D01*
X5001666Y6513931D01*
X5001006Y6514541D01*
X4958466Y6514541D01*
X4958892Y6510832D01*
X4960518Y6506413D01*
X4964023Y6501638D01*
X4969002Y6497929D01*
X4974437Y6495846D01*
X4982362Y6495948D01*
X4982940Y6495338D01*
X5202224Y6495338D01*
X5198973Y6450482D01*
X5197754Y6443726D01*
X5196840Y6440627D01*
X5195671Y6437579D01*
X5192420Y6431432D01*
X5187492Y6424523D01*
X5180634Y6416141D01*
X5107584Y6333947D01*
X5054955Y6389217D01*
X5128412Y6390386D01*
X5128412Y6421780D01*
X5041138Y6421780D01*
X5041138Y6404051D01*
X5007406Y6439560D01*
X5007254Y6465874D01*
X5006746Y6471208D01*
X5005527Y6473850D01*
X5001463Y6475882D01*
X5000244Y6477711D01*
X4999634Y6480810D01*
X4999482Y6495338D01*
X4982940Y6495338D01*
X4984242Y6493967D01*
X4985258Y6489598D01*
X4985512Y6480098D01*
X4985054Y6476339D01*
X4984546Y6475069D01*
X4983784Y6474256D01*
X4982768Y6473952D01*
X4981397Y6474155D01*
X4979670Y6474917D01*
X4977485Y6476288D01*
X4974894Y6478270D01*
X4968189Y6484315D01*
X4959197Y6493256D01*
X4932883Y6521094D01*
X4880711Y6577431D01*
G37*
G36*
X5019649Y6180023D02*
G01*
X5014722Y6178956D01*
X5009997Y6175654D01*
X5006746Y6170980D01*
X5005628Y6165850D01*
X5006594Y6160617D01*
X5009743Y6155639D01*
X5014518Y6151981D01*
X5019649Y6150864D01*
X5024678Y6152337D01*
X5029098Y6156350D01*
X5032044Y6161430D01*
X5032959Y6166205D01*
X5031943Y6170777D01*
X5028895Y6175349D01*
X5024475Y6178804D01*
G37*
G36*
X4898288Y5963818D02*
G01*
X4898288Y5856681D01*
X5310987Y5856681D01*
X5310987Y5963818D01*
G37*
G36*
X1152753Y6566357D02*
G01*
X1125067Y6566001D01*
X1088745Y6565036D01*
X1060196Y6559245D01*
X1048258Y6556349D01*
X1036421Y6553098D01*
X1024737Y6549440D01*
X1013155Y6545326D01*
X1001623Y6540754D01*
X990092Y6535674D01*
X978560Y6530187D01*
X945642Y6513220D01*
X920292Y6494170D01*
X910488Y6486194D01*
X900734Y6477660D01*
X891133Y6468668D01*
X881786Y6459321D01*
X872744Y6449669D01*
X864158Y6439865D01*
X856132Y6430060D01*
X836930Y6404610D01*
X806805Y6345275D01*
X798220Y6317183D01*
X795070Y6305804D01*
X789533Y6282893D01*
X784453Y6257086D01*
X784453Y6182207D01*
X822045Y6182207D01*
X822045Y6250076D01*
X827532Y6277660D01*
X830580Y6290614D01*
X834085Y6303314D01*
X838047Y6315760D01*
X842518Y6328003D01*
X847394Y6339992D01*
X852830Y6351778D01*
X858723Y6363411D01*
X865073Y6374841D01*
X871982Y6386118D01*
X887221Y6409283D01*
X941222Y6463233D01*
X964336Y6478473D01*
X975614Y6485331D01*
X987044Y6491681D01*
X998677Y6497574D01*
X1010513Y6503009D01*
X1022451Y6507886D01*
X1034592Y6512306D01*
X1046886Y6516217D01*
X1059281Y6519672D01*
X1071829Y6522567D01*
X1082700Y6524599D01*
X1093825Y6526072D01*
X1106525Y6527342D01*
X1119174Y6528307D01*
X1151991Y6529527D01*
X1175969Y6526530D01*
X1187907Y6524599D01*
X1199743Y6522212D01*
X1211326Y6519418D01*
X1222806Y6516217D01*
X1234084Y6512610D01*
X1245108Y6508597D01*
X1255979Y6504178D01*
X1266647Y6499402D01*
X1277112Y6494272D01*
X1287322Y6488734D01*
X1297330Y6482842D01*
X1307033Y6476593D01*
X1316532Y6469989D01*
X1325778Y6463030D01*
X1334770Y6455765D01*
X1343456Y6448196D01*
X1351838Y6440271D01*
X1359966Y6432092D01*
X1367790Y6423558D01*
X1375308Y6414770D01*
X1382522Y6405676D01*
X1389430Y6396278D01*
X1395933Y6386677D01*
X1402181Y6376771D01*
X1408023Y6366611D01*
X1413560Y6356197D01*
X1418691Y6345580D01*
X1423466Y6334709D01*
X1427835Y6323584D01*
X1431848Y6312255D01*
X1435455Y6300724D01*
X1438656Y6289040D01*
X1441450Y6277102D01*
X1446784Y6250076D01*
X1446784Y6182207D01*
X1441348Y6154623D01*
X1438300Y6141669D01*
X1434795Y6128969D01*
X1430832Y6116523D01*
X1426362Y6104331D01*
X1421434Y6092291D01*
X1416050Y6080506D01*
X1410157Y6068872D01*
X1403807Y6057442D01*
X1396898Y6046165D01*
X1381658Y6023000D01*
X1327658Y5969101D01*
X1304544Y5953810D01*
X1293215Y5946952D01*
X1281785Y5940552D01*
X1270152Y5934659D01*
X1258366Y5929274D01*
X1246327Y5924346D01*
X1234084Y5919927D01*
X1221638Y5915964D01*
X1208938Y5912459D01*
X1195984Y5909411D01*
X1168400Y5903925D01*
X1100480Y5903925D01*
X1072896Y5909411D01*
X1059942Y5912459D01*
X1047242Y5915964D01*
X1034745Y5919927D01*
X1022553Y5924346D01*
X1010513Y5929274D01*
X998728Y5934659D01*
X987094Y5940552D01*
X975614Y5946952D01*
X964336Y5953810D01*
X941222Y5969101D01*
X887221Y6023000D01*
X871982Y6046165D01*
X865073Y6057442D01*
X858723Y6068872D01*
X852830Y6080506D01*
X847394Y6092291D01*
X842518Y6104331D01*
X838047Y6116523D01*
X834085Y6128969D01*
X830580Y6141669D01*
X827532Y6154623D01*
X822045Y6182207D01*
X784453Y6182207D01*
X784453Y6175197D01*
X789533Y6149390D01*
X795070Y6126480D01*
X798220Y6115100D01*
X806805Y6087008D01*
X836930Y6027724D01*
X856132Y6002274D01*
X864158Y5992418D01*
X872744Y5982614D01*
X881786Y5973013D01*
X891133Y5963615D01*
X900785Y5954572D01*
X910590Y5946038D01*
X920445Y5938012D01*
X945896Y5918758D01*
X1005230Y5888685D01*
X1033322Y5880100D01*
X1056640Y5873953D01*
X1067663Y5871413D01*
X1093470Y5866333D01*
X1175410Y5866333D01*
X1201216Y5871413D01*
X1212240Y5873953D01*
X1235557Y5880100D01*
X1263650Y5888685D01*
X1322984Y5918758D01*
X1348435Y5938012D01*
X1358290Y5946038D01*
X1368094Y5954572D01*
X1377746Y5963615D01*
X1387094Y5973013D01*
X1396136Y5982614D01*
X1404721Y5992418D01*
X1412748Y6002274D01*
X1431950Y6027724D01*
X1462074Y6087008D01*
X1470660Y6115100D01*
X1473809Y6126480D01*
X1479346Y6149390D01*
X1484426Y6175197D01*
X1484426Y6257086D01*
X1479346Y6282893D01*
X1473809Y6305804D01*
X1470660Y6317183D01*
X1462074Y6345275D01*
X1431950Y6404610D01*
X1412748Y6430060D01*
X1404721Y6439865D01*
X1396136Y6449669D01*
X1387094Y6459321D01*
X1377746Y6468668D01*
X1368094Y6477660D01*
X1358341Y6486194D01*
X1348536Y6494170D01*
X1323238Y6513220D01*
X1268425Y6541566D01*
X1238910Y6551117D01*
X1227886Y6554266D01*
X1216152Y6557162D01*
X1203604Y6559905D01*
X1190193Y6562445D01*
X1175918Y6564782D01*
X1166266Y6566103D01*
G37*
G36*
X1133348Y6516268D02*
G01*
X1019098Y6399885D01*
X874471Y6251549D01*
X874471Y6232855D01*
X886815Y6223152D01*
X1012850Y6223152D01*
X959103Y6161176D01*
X943356Y6143599D01*
X938936Y6147003D01*
X915466Y6166916D01*
X913130Y6161024D01*
X907796Y6141618D01*
X899769Y6110478D01*
X891540Y6077458D01*
X885698Y6052616D01*
X884275Y6045301D01*
X887577Y6046114D01*
X908710Y6053937D01*
X949045Y6069990D01*
X979779Y6082792D01*
X991006Y6087668D01*
X997813Y6090920D01*
X999134Y6091732D01*
X998677Y6093307D01*
X996238Y6096355D01*
X992225Y6100521D01*
X973226Y6117132D01*
X1073556Y6233261D01*
X1073556Y6250381D01*
X1066901Y6259474D01*
X939596Y6261811D01*
X1133195Y6460286D01*
X1246632Y6344208D01*
X1284274Y6305346D01*
X1327048Y6260642D01*
X1202334Y6260642D01*
X1192987Y6251244D01*
X1192987Y6232855D01*
X1277213Y6135370D01*
X1292504Y6117183D01*
X1264716Y6092393D01*
X1287576Y6082385D01*
X1315974Y6070549D01*
X1345133Y6058712D01*
X1377035Y6046419D01*
X1381506Y6044996D01*
X1382166Y6044946D01*
X1381506Y6048705D01*
X1376121Y6071565D01*
X1363218Y6123228D01*
X1352956Y6162243D01*
X1351737Y6165951D01*
X1350365Y6165342D01*
X1347165Y6163106D01*
X1327556Y6147003D01*
X1323086Y6143599D01*
X1312519Y6155283D01*
X1253642Y6223152D01*
X1380591Y6223152D01*
X1392072Y6234633D01*
X1392072Y6251803D01*
G37*
D10*
X1201818Y8168081D02*
G01*
X1206362Y8177171D01*
X1215453Y8186262D01*
X1224546Y8190809D01*
X1242728Y8190809D01*
X1251818Y8186262D01*
X1260909Y8177171D01*
X1265453Y8168081D01*
X1270000Y8154446D01*
X1270000Y8131718D01*
X1265453Y8118081D01*
X1260909Y8108990D01*
X1251818Y8099899D01*
X1242728Y8095353D01*
X1224546Y8095353D01*
X1215453Y8099899D01*
X1206362Y8108990D01*
X1201818Y8118081D01*
X1201818Y8131718D01*
X1224546Y8131718D02*
G01*
X1201818Y8131718D01*
X1171818Y8190809D02*
G01*
X1171818Y8095353D01*
X1171818Y8190809D02*
G01*
X1108181Y8095353D01*
X1108181Y8190809D02*
G01*
X1108181Y8095353D01*
X1078181Y8190809D02*
G01*
X1078181Y8095353D01*
X1078181Y8190809D02*
G01*
X1046363Y8190809D01*
X1032728Y8186262D01*
X1023637Y8177171D01*
X1019091Y8168081D01*
X1014547Y8154446D01*
X1014547Y8131718D01*
X1019091Y8118081D01*
X1023637Y8108990D01*
X1032728Y8099899D01*
X1046363Y8095353D01*
X1078181Y8095353D01*
X1335237Y8444809D02*
G01*
X1371600Y8349353D01*
X1335237Y8444809D02*
G01*
X1298872Y8349353D01*
X1357962Y8381171D02*
G01*
X1312509Y8381171D01*
X1200691Y8422081D02*
G01*
X1205237Y8431171D01*
X1214328Y8440262D01*
X1223418Y8444809D01*
X1241600Y8444809D01*
X1250690Y8440262D01*
X1259781Y8431171D01*
X1264328Y8422081D01*
X1268872Y8408446D01*
X1268872Y8385718D01*
X1264328Y8372081D01*
X1259781Y8362990D01*
X1250690Y8353899D01*
X1241600Y8349353D01*
X1223418Y8349353D01*
X1214328Y8353899D01*
X1205237Y8362990D01*
X1200691Y8372081D01*
X1200691Y8385718D01*
X1223418Y8385718D02*
G01*
X1200691Y8385718D01*
X1170691Y8444809D02*
G01*
X1170691Y8349353D01*
X1170691Y8444809D02*
G01*
X1107053Y8349353D01*
X1107053Y8444809D02*
G01*
X1107053Y8349353D01*
X1077053Y8444809D02*
G01*
X1077053Y8349353D01*
X1077053Y8444809D02*
G01*
X1045237Y8444809D01*
X1031600Y8440262D01*
X1022510Y8431171D01*
X1017963Y8422081D01*
X1013419Y8408446D01*
X1013419Y8385718D01*
X1017963Y8372081D01*
X1022510Y8362990D01*
X1031600Y8353899D01*
X1045237Y8349353D01*
X1077053Y8349353D01*
X5011818Y8142681D02*
G01*
X5016362Y8151771D01*
X5025453Y8160862D01*
X5034546Y8165409D01*
X5052728Y8165409D01*
X5061818Y8160862D01*
X5070909Y8151771D01*
X5075453Y8142681D01*
X5080000Y8129046D01*
X5080000Y8106318D01*
X5075453Y8092681D01*
X5070909Y8083590D01*
X5061818Y8074499D01*
X5052728Y8069953D01*
X5034546Y8069953D01*
X5025453Y8074499D01*
X5016362Y8083590D01*
X5011818Y8092681D01*
X5011818Y8106318D01*
X5034546Y8106318D02*
G01*
X5011818Y8106318D01*
X4981818Y8165409D02*
G01*
X4981818Y8069953D01*
X4981818Y8165409D02*
G01*
X4918181Y8069953D01*
X4918181Y8165409D02*
G01*
X4918181Y8069953D01*
X4888181Y8165409D02*
G01*
X4888181Y8069953D01*
X4888181Y8165409D02*
G01*
X4856363Y8165409D01*
X4842728Y8160862D01*
X4833637Y8151771D01*
X4829091Y8142681D01*
X4824547Y8129046D01*
X4824547Y8106318D01*
X4829091Y8092681D01*
X4833637Y8083590D01*
X4842728Y8074499D01*
X4856363Y8069953D01*
X4888181Y8069953D01*
X5043637Y8419409D02*
G01*
X5080000Y8323953D01*
X5043637Y8419409D02*
G01*
X5007272Y8323953D01*
X5066362Y8355771D02*
G01*
X5020909Y8355771D01*
X4909091Y8396681D02*
G01*
X4913637Y8405771D01*
X4922728Y8414862D01*
X4931818Y8419409D01*
X4950000Y8419409D01*
X4959090Y8414862D01*
X4968181Y8405771D01*
X4972728Y8396681D01*
X4977272Y8383046D01*
X4977272Y8360318D01*
X4972728Y8346681D01*
X4968181Y8337590D01*
X4959090Y8328499D01*
X4950000Y8323953D01*
X4931818Y8323953D01*
X4922728Y8328499D01*
X4913637Y8337590D01*
X4909091Y8346681D01*
X4909091Y8360318D01*
X4931818Y8360318D02*
G01*
X4909091Y8360318D01*
X4879091Y8419409D02*
G01*
X4879091Y8323953D01*
X4879091Y8419409D02*
G01*
X4815453Y8323953D01*
X4815453Y8419409D02*
G01*
X4815453Y8323953D01*
X4785453Y8419409D02*
G01*
X4785453Y8323953D01*
X4785453Y8419409D02*
G01*
X4753637Y8419409D01*
X4740000Y8414862D01*
X4730910Y8405771D01*
X4726363Y8396681D01*
X4721819Y8383046D01*
X4721819Y8360318D01*
X4726363Y8346681D01*
X4730910Y8337590D01*
X4740000Y8328499D01*
X4753637Y8323953D01*
X4785453Y8323953D01*
X5003662Y8659771D02*
G01*
X5012753Y8668862D01*
X5026390Y8673409D01*
X5044572Y8673409D01*
X5058209Y8668862D01*
X5067300Y8659771D01*
X5067300Y8650681D01*
X5062753Y8641590D01*
X5058209Y8637046D01*
X5049118Y8632499D01*
X5021846Y8623409D01*
X5012753Y8618862D01*
X5008209Y8614318D01*
X5003662Y8605227D01*
X5003662Y8591590D01*
X5012753Y8582499D01*
X5026390Y8577953D01*
X5044572Y8577953D01*
X5058209Y8582499D01*
X5067300Y8591590D01*
X4973662Y8614318D02*
G01*
X4919118Y8614318D01*
X4919118Y8623409D01*
X4923663Y8632499D01*
X4928209Y8637046D01*
X4937300Y8641590D01*
X4950937Y8641590D01*
X4960028Y8637046D01*
X4969118Y8627953D01*
X4973662Y8614318D01*
X4973662Y8605227D01*
X4969118Y8591590D01*
X4960028Y8582499D01*
X4950937Y8577953D01*
X4937300Y8577953D01*
X4928209Y8582499D01*
X4919118Y8591590D01*
X4889118Y8641590D02*
G01*
X4889118Y8577953D01*
X4889118Y8614318D02*
G01*
X4884572Y8627953D01*
X4875481Y8637046D01*
X4866391Y8641590D01*
X4852753Y8641590D01*
X4822753Y8673409D02*
G01*
X4818209Y8668862D01*
X4813663Y8673409D01*
X4818209Y8677953D01*
X4822753Y8673409D01*
X4818209Y8641590D02*
G01*
X4818209Y8577953D01*
X4729119Y8641590D02*
G01*
X4729119Y8577953D01*
X4729119Y8627953D02*
G01*
X4738209Y8637046D01*
X4747300Y8641590D01*
X4760937Y8641590D01*
X4770028Y8637046D01*
X4779119Y8627953D01*
X4783663Y8614318D01*
X4783663Y8605227D01*
X4779119Y8591590D01*
X4770028Y8582499D01*
X4760937Y8577953D01*
X4747300Y8577953D01*
X4738209Y8582499D01*
X4729119Y8591590D01*
X4699119Y8673409D02*
G01*
X4699119Y8577953D01*
X4530938Y8650681D02*
G01*
X4535482Y8659771D01*
X4544573Y8668862D01*
X4553663Y8673409D01*
X4571847Y8673409D01*
X4580938Y8668862D01*
X4590028Y8659771D01*
X4594572Y8650681D01*
X4599119Y8637046D01*
X4599119Y8614318D01*
X4594572Y8600681D01*
X4590028Y8591590D01*
X4580938Y8582499D01*
X4571847Y8577953D01*
X4553663Y8577953D01*
X4544573Y8582499D01*
X4535482Y8591590D01*
X4530938Y8600681D01*
X4500938Y8673409D02*
G01*
X4500938Y8577953D01*
X4500938Y8577953D02*
G01*
X4446391Y8577953D01*
X4416391Y8673409D02*
G01*
X4416391Y8577953D01*
X4352754Y8673409D02*
G01*
X4416391Y8609771D01*
X4393664Y8632499D02*
G01*
X4352754Y8577953D01*
X1663562Y8685171D02*
G01*
X1672653Y8694262D01*
X1686290Y8698809D01*
X1704472Y8698809D01*
X1718109Y8694262D01*
X1727200Y8685171D01*
X1727200Y8676081D01*
X1722653Y8666990D01*
X1718109Y8662446D01*
X1709018Y8657899D01*
X1681746Y8648809D01*
X1672653Y8644262D01*
X1668109Y8639718D01*
X1663562Y8630627D01*
X1663562Y8616990D01*
X1672653Y8607899D01*
X1686290Y8603353D01*
X1704472Y8603353D01*
X1718109Y8607899D01*
X1727200Y8616990D01*
X1633562Y8639718D02*
G01*
X1579018Y8639718D01*
X1579018Y8648809D01*
X1583562Y8657899D01*
X1588109Y8662446D01*
X1597200Y8666990D01*
X1610837Y8666990D01*
X1619928Y8662446D01*
X1629018Y8653353D01*
X1633562Y8639718D01*
X1633562Y8630627D01*
X1629018Y8616990D01*
X1619928Y8607899D01*
X1610837Y8603353D01*
X1597200Y8603353D01*
X1588109Y8607899D01*
X1579018Y8616990D01*
X1549019Y8666990D02*
G01*
X1549019Y8603353D01*
X1549019Y8639718D02*
G01*
X1544472Y8653353D01*
X1535381Y8662446D01*
X1526291Y8666990D01*
X1512653Y8666990D01*
X1482653Y8698809D02*
G01*
X1478109Y8694262D01*
X1473563Y8698809D01*
X1478109Y8703353D01*
X1482653Y8698809D01*
X1478109Y8666990D02*
G01*
X1478109Y8603353D01*
X1389019Y8666990D02*
G01*
X1389019Y8603353D01*
X1389019Y8653353D02*
G01*
X1398109Y8662446D01*
X1407200Y8666990D01*
X1420837Y8666990D01*
X1429928Y8662446D01*
X1439019Y8653353D01*
X1443563Y8639718D01*
X1443563Y8630627D01*
X1439019Y8616990D01*
X1429928Y8607899D01*
X1420837Y8603353D01*
X1407200Y8603353D01*
X1398109Y8607899D01*
X1389019Y8616990D01*
X1359019Y8698809D02*
G01*
X1359019Y8603353D01*
X1190838Y8676081D02*
G01*
X1195382Y8685171D01*
X1204473Y8694262D01*
X1213563Y8698809D01*
X1231747Y8698809D01*
X1240838Y8694262D01*
X1249928Y8685171D01*
X1254472Y8676081D01*
X1259019Y8662446D01*
X1259019Y8639718D01*
X1254472Y8626081D01*
X1249928Y8616990D01*
X1240838Y8607899D01*
X1231747Y8603353D01*
X1213563Y8603353D01*
X1204473Y8607899D01*
X1195382Y8616990D01*
X1190838Y8626081D01*
X1160838Y8698809D02*
G01*
X1160838Y8603353D01*
X1160838Y8603353D02*
G01*
X1106291Y8603353D01*
X1076291Y8698809D02*
G01*
X1076291Y8603353D01*
X1012654Y8698809D02*
G01*
X1076291Y8635171D01*
X1053564Y8657899D02*
G01*
X1012654Y8603353D01*
X1930400Y8940109D02*
G01*
X1930400Y8844653D01*
X1930400Y8940109D02*
G01*
X1889490Y8940109D01*
X1875853Y8935562D01*
X1871309Y8931018D01*
X1866762Y8921927D01*
X1866762Y8912837D01*
X1871309Y8903746D01*
X1875853Y8899199D01*
X1889490Y8894653D01*
X1930400Y8894653D01*
X1898581Y8894653D02*
G01*
X1866762Y8844653D01*
X1836762Y8881018D02*
G01*
X1782218Y8881018D01*
X1782218Y8890109D01*
X1786762Y8899199D01*
X1791309Y8903746D01*
X1800400Y8908290D01*
X1814037Y8908290D01*
X1823128Y8903746D01*
X1832218Y8894653D01*
X1836762Y8881018D01*
X1836762Y8871927D01*
X1832218Y8858290D01*
X1823128Y8849199D01*
X1814037Y8844653D01*
X1800400Y8844653D01*
X1791309Y8849199D01*
X1782218Y8858290D01*
X1697672Y8908290D02*
G01*
X1697672Y8835562D01*
X1702219Y8821928D01*
X1706763Y8817381D01*
X1715853Y8812837D01*
X1729491Y8812837D01*
X1738581Y8817381D01*
X1697672Y8894653D02*
G01*
X1706763Y8903746D01*
X1715853Y8908290D01*
X1729491Y8908290D01*
X1738581Y8903746D01*
X1747672Y8894653D01*
X1752219Y8881018D01*
X1752219Y8871927D01*
X1747672Y8858290D01*
X1738581Y8849199D01*
X1729491Y8844653D01*
X1715853Y8844653D01*
X1706763Y8849199D01*
X1697672Y8858290D01*
X1667672Y8940109D02*
G01*
X1663128Y8935562D01*
X1658581Y8940109D01*
X1663128Y8944653D01*
X1667672Y8940109D01*
X1663128Y8908290D02*
G01*
X1663128Y8844653D01*
X1578582Y8894653D02*
G01*
X1583128Y8903746D01*
X1596763Y8908290D01*
X1610400Y8908290D01*
X1624037Y8903746D01*
X1628581Y8894653D01*
X1624037Y8885562D01*
X1614947Y8881018D01*
X1592219Y8876471D01*
X1583128Y8871927D01*
X1578582Y8862837D01*
X1578582Y8858290D01*
X1583128Y8849199D01*
X1596763Y8844653D01*
X1610400Y8844653D01*
X1624037Y8849199D01*
X1628581Y8858290D01*
X1534947Y8940109D02*
G01*
X1534947Y8862837D01*
X1530400Y8849199D01*
X1521310Y8844653D01*
X1512219Y8844653D01*
X1548582Y8908290D02*
G01*
X1516763Y8908290D01*
X1482219Y8881018D02*
G01*
X1427673Y8881018D01*
X1427673Y8890109D01*
X1432219Y8899199D01*
X1436763Y8903746D01*
X1445854Y8908290D01*
X1459491Y8908290D01*
X1468582Y8903746D01*
X1477672Y8894653D01*
X1482219Y8881018D01*
X1482219Y8871927D01*
X1477672Y8858290D01*
X1468582Y8849199D01*
X1459491Y8844653D01*
X1445854Y8844653D01*
X1436763Y8849199D01*
X1427673Y8858290D01*
X1397673Y8908290D02*
G01*
X1397673Y8844653D01*
X1397673Y8881018D02*
G01*
X1393129Y8894653D01*
X1384038Y8903746D01*
X1374947Y8908290D01*
X1361310Y8908290D01*
X1193129Y8917381D02*
G01*
X1197673Y8926471D01*
X1206764Y8935562D01*
X1215854Y8940109D01*
X1234038Y8940109D01*
X1243129Y8935562D01*
X1252220Y8926471D01*
X1256764Y8917381D01*
X1261310Y8903746D01*
X1261310Y8881018D01*
X1256764Y8867381D01*
X1252220Y8858290D01*
X1243129Y8849199D01*
X1234038Y8844653D01*
X1215854Y8844653D01*
X1206764Y8849199D01*
X1197673Y8858290D01*
X1193129Y8867381D01*
X1163129Y8940109D02*
G01*
X1163129Y8844653D01*
X1163129Y8844653D02*
G01*
X1108582Y8844653D01*
X1078583Y8940109D02*
G01*
X1078583Y8844653D01*
X1014948Y8940109D02*
G01*
X1078583Y8876471D01*
X1055855Y8899199D02*
G01*
X1014948Y8844653D01*
X5092700Y8952809D02*
G01*
X5092700Y8857353D01*
X5092700Y8952809D02*
G01*
X5051790Y8952809D01*
X5038153Y8948262D01*
X5033609Y8943718D01*
X5029062Y8934627D01*
X5029062Y8925537D01*
X5033609Y8916446D01*
X5038153Y8911899D01*
X5051790Y8907353D01*
X5092700Y8907353D01*
X5060881Y8907353D02*
G01*
X5029062Y8857353D01*
X4999062Y8893718D02*
G01*
X4944518Y8893718D01*
X4944518Y8902809D01*
X4949063Y8911899D01*
X4953609Y8916446D01*
X4962700Y8920990D01*
X4976337Y8920990D01*
X4985428Y8916446D01*
X4994518Y8907353D01*
X4999062Y8893718D01*
X4999062Y8884627D01*
X4994518Y8870990D01*
X4985428Y8861899D01*
X4976337Y8857353D01*
X4962700Y8857353D01*
X4953609Y8861899D01*
X4944518Y8870990D01*
X4859972Y8920990D02*
G01*
X4859972Y8848262D01*
X4864519Y8834628D01*
X4869063Y8830081D01*
X4878153Y8825537D01*
X4891791Y8825537D01*
X4900881Y8830081D01*
X4859972Y8907353D02*
G01*
X4869063Y8916446D01*
X4878153Y8920990D01*
X4891791Y8920990D01*
X4900881Y8916446D01*
X4909972Y8907353D01*
X4914518Y8893718D01*
X4914518Y8884627D01*
X4909972Y8870990D01*
X4900881Y8861899D01*
X4891791Y8857353D01*
X4878153Y8857353D01*
X4869063Y8861899D01*
X4859972Y8870990D01*
X4829972Y8952809D02*
G01*
X4825428Y8948262D01*
X4820881Y8952809D01*
X4825428Y8957353D01*
X4829972Y8952809D01*
X4825428Y8920990D02*
G01*
X4825428Y8857353D01*
X4740882Y8907353D02*
G01*
X4745428Y8916446D01*
X4759063Y8920990D01*
X4772700Y8920990D01*
X4786337Y8916446D01*
X4790881Y8907353D01*
X4786337Y8898262D01*
X4777247Y8893718D01*
X4754519Y8889171D01*
X4745428Y8884627D01*
X4740882Y8875537D01*
X4740882Y8870990D01*
X4745428Y8861899D01*
X4759063Y8857353D01*
X4772700Y8857353D01*
X4786337Y8861899D01*
X4790881Y8870990D01*
X4697247Y8952809D02*
G01*
X4697247Y8875537D01*
X4692700Y8861899D01*
X4683610Y8857353D01*
X4674519Y8857353D01*
X4710882Y8920990D02*
G01*
X4679063Y8920990D01*
X4644519Y8893718D02*
G01*
X4589973Y8893718D01*
X4589973Y8902809D01*
X4594519Y8911899D01*
X4599063Y8916446D01*
X4608154Y8920990D01*
X4621791Y8920990D01*
X4630882Y8916446D01*
X4639972Y8907353D01*
X4644519Y8893718D01*
X4644519Y8884627D01*
X4639972Y8870990D01*
X4630882Y8861899D01*
X4621791Y8857353D01*
X4608154Y8857353D01*
X4599063Y8861899D01*
X4589973Y8870990D01*
X4559973Y8920990D02*
G01*
X4559973Y8857353D01*
X4559973Y8893718D02*
G01*
X4555429Y8907353D01*
X4546338Y8916446D01*
X4537247Y8920990D01*
X4523610Y8920990D01*
X4355429Y8930081D02*
G01*
X4359973Y8939171D01*
X4369064Y8948262D01*
X4378154Y8952809D01*
X4396338Y8952809D01*
X4405429Y8948262D01*
X4414520Y8939171D01*
X4419064Y8930081D01*
X4423610Y8916446D01*
X4423610Y8893718D01*
X4419064Y8880081D01*
X4414520Y8870990D01*
X4405429Y8861899D01*
X4396338Y8857353D01*
X4378154Y8857353D01*
X4369064Y8861899D01*
X4359973Y8870990D01*
X4355429Y8880081D01*
X4325429Y8952809D02*
G01*
X4325429Y8857353D01*
X4325429Y8857353D02*
G01*
X4270883Y8857353D01*
X4240883Y8952809D02*
G01*
X4240883Y8857353D01*
X4177248Y8952809D02*
G01*
X4240883Y8889171D01*
X4218155Y8911899D02*
G01*
X4177248Y8857353D01*
X5080000Y9194109D02*
G01*
X5080000Y9098653D01*
X5080000Y9194109D02*
G01*
X5048181Y9194109D01*
X5034546Y9189562D01*
X5025453Y9180471D01*
X5020909Y9171381D01*
X5016362Y9157746D01*
X5016362Y9135018D01*
X5020909Y9121381D01*
X5025453Y9112290D01*
X5034546Y9103199D01*
X5048181Y9098653D01*
X5080000Y9098653D01*
X4931818Y9162290D02*
G01*
X4931818Y9098653D01*
X4931818Y9148653D02*
G01*
X4940909Y9157746D01*
X4950000Y9162290D01*
X4963637Y9162290D01*
X4972728Y9157746D01*
X4981818Y9148653D01*
X4986362Y9135018D01*
X4986362Y9125927D01*
X4981818Y9112290D01*
X4972728Y9103199D01*
X4963637Y9098653D01*
X4950000Y9098653D01*
X4940909Y9103199D01*
X4931818Y9112290D01*
X4888181Y9194109D02*
G01*
X4888181Y9116837D01*
X4883637Y9103199D01*
X4874547Y9098653D01*
X4865453Y9098653D01*
X4901818Y9162290D02*
G01*
X4870000Y9162290D01*
X4780909Y9162290D02*
G01*
X4780909Y9098653D01*
X4780909Y9148653D02*
G01*
X4790000Y9157746D01*
X4799091Y9162290D01*
X4812728Y9162290D01*
X4821819Y9157746D01*
X4830909Y9148653D01*
X4835453Y9135018D01*
X4835453Y9125927D01*
X4830909Y9112290D01*
X4821819Y9103199D01*
X4812728Y9098653D01*
X4799091Y9098653D01*
X4790000Y9103199D01*
X4780909Y9112290D01*
X4653638Y9194109D02*
G01*
X4662728Y9189562D01*
X4671819Y9180471D01*
X4676363Y9171381D01*
X4680910Y9157746D01*
X4680910Y9135018D01*
X4676363Y9121381D01*
X4671819Y9112290D01*
X4662728Y9103199D01*
X4653638Y9098653D01*
X4635454Y9098653D01*
X4626363Y9103199D01*
X4617272Y9112290D01*
X4612728Y9121381D01*
X4608182Y9135018D01*
X4608182Y9157746D01*
X4612728Y9171381D01*
X4617272Y9180471D01*
X4626363Y9189562D01*
X4635454Y9194109D01*
X4653638Y9194109D01*
X4578182Y9194109D02*
G01*
X4578182Y9125927D01*
X4573638Y9112290D01*
X4564547Y9103199D01*
X4550910Y9098653D01*
X4541819Y9098653D01*
X4528182Y9103199D01*
X4519091Y9112290D01*
X4514547Y9125927D01*
X4514547Y9194109D01*
X4452729Y9194109D02*
G01*
X4452729Y9098653D01*
X4484547Y9194109D02*
G01*
X4420910Y9194109D01*
X1498600Y9206809D02*
G01*
X1498600Y9111353D01*
X1498600Y9206809D02*
G01*
X1466781Y9206809D01*
X1453146Y9202262D01*
X1444053Y9193171D01*
X1439509Y9184081D01*
X1434962Y9170446D01*
X1434962Y9147718D01*
X1439509Y9134081D01*
X1444053Y9124990D01*
X1453146Y9115899D01*
X1466781Y9111353D01*
X1498600Y9111353D01*
X1350418Y9174990D02*
G01*
X1350418Y9111353D01*
X1350418Y9161353D02*
G01*
X1359509Y9170446D01*
X1368600Y9174990D01*
X1382237Y9174990D01*
X1391328Y9170446D01*
X1400418Y9161353D01*
X1404962Y9147718D01*
X1404962Y9138627D01*
X1400418Y9124990D01*
X1391328Y9115899D01*
X1382237Y9111353D01*
X1368600Y9111353D01*
X1359509Y9115899D01*
X1350418Y9124990D01*
X1306781Y9206809D02*
G01*
X1306781Y9129537D01*
X1302237Y9115899D01*
X1293147Y9111353D01*
X1284053Y9111353D01*
X1320419Y9174990D02*
G01*
X1288600Y9174990D01*
X1199509Y9174990D02*
G01*
X1199509Y9111353D01*
X1199509Y9161353D02*
G01*
X1208600Y9170446D01*
X1217691Y9174990D01*
X1231328Y9174990D01*
X1240419Y9170446D01*
X1249509Y9161353D01*
X1254053Y9147718D01*
X1254053Y9138627D01*
X1249509Y9124990D01*
X1240419Y9115899D01*
X1231328Y9111353D01*
X1217691Y9111353D01*
X1208600Y9115899D01*
X1199509Y9124990D01*
X1099510Y9206809D02*
G01*
X1099510Y9111353D01*
X1069510Y9206809D02*
G01*
X1069510Y9111353D01*
X1069510Y9206809D02*
G01*
X1005873Y9111353D01*
X1005873Y9206809D02*
G01*
X1005873Y9111353D01*
X1241790Y9447171D02*
G01*
X1241790Y9365353D01*
X1282700Y9406262D02*
G01*
X1200881Y9406262D01*
X1116337Y9460809D02*
G01*
X1161790Y9460809D01*
X1166337Y9419899D01*
X1161790Y9424446D01*
X1148153Y9428990D01*
X1134518Y9428990D01*
X1120881Y9424446D01*
X1111791Y9415353D01*
X1107246Y9401718D01*
X1107246Y9392627D01*
X1111791Y9378990D01*
X1120881Y9369899D01*
X1134518Y9365353D01*
X1148153Y9365353D01*
X1161790Y9369899D01*
X1166337Y9374446D01*
X1170881Y9383537D01*
X1077247Y9460809D02*
G01*
X1040881Y9365353D01*
X1004519Y9460809D02*
G01*
X1040881Y9365353D01*
X5039090Y9447171D02*
G01*
X5039090Y9365353D01*
X5080000Y9406262D02*
G01*
X4998181Y9406262D01*
X4913637Y9460809D02*
G01*
X4959090Y9460809D01*
X4963637Y9419899D01*
X4959090Y9424446D01*
X4945453Y9428990D01*
X4931818Y9428990D01*
X4918181Y9424446D01*
X4909091Y9415353D01*
X4904546Y9401718D01*
X4904546Y9392627D01*
X4909091Y9378990D01*
X4918181Y9369899D01*
X4931818Y9365353D01*
X4945453Y9365353D01*
X4959090Y9369899D01*
X4963637Y9374446D01*
X4968181Y9383537D01*
X4874547Y9460809D02*
G01*
X4838181Y9365353D01*
X4801819Y9460809D02*
G01*
X4838181Y9365353D01*
X1689100Y9981509D02*
G01*
X1689100Y9886053D01*
X1689100Y9886053D02*
G01*
X1634553Y9886053D01*
X1604553Y9981509D02*
G01*
X1604553Y9886053D01*
X1604553Y9981509D02*
G01*
X1545462Y9981509D01*
X1604553Y9936053D02*
G01*
X1568190Y9936053D01*
X1604553Y9886053D02*
G01*
X1545462Y9886053D01*
X1515463Y9981509D02*
G01*
X1515463Y9886053D01*
X1515463Y9981509D02*
G01*
X1483647Y9981509D01*
X1470009Y9976962D01*
X1460919Y9967871D01*
X1456372Y9958781D01*
X1451828Y9945146D01*
X1451828Y9922418D01*
X1456372Y9908781D01*
X1460919Y9899690D01*
X1470009Y9890599D01*
X1483647Y9886053D01*
X1515463Y9886053D01*
X1351828Y9981509D02*
G01*
X1351828Y9886053D01*
X1351828Y9981509D02*
G01*
X1320010Y9981509D01*
X1306372Y9976962D01*
X1297282Y9967871D01*
X1292738Y9958781D01*
X1288191Y9945146D01*
X1288191Y9922418D01*
X1292738Y9908781D01*
X1297282Y9899690D01*
X1306372Y9890599D01*
X1320010Y9886053D01*
X1351828Y9886053D01*
X1258191Y9949690D02*
G01*
X1258191Y9886053D01*
X1258191Y9922418D02*
G01*
X1253647Y9936053D01*
X1244554Y9945146D01*
X1235463Y9949690D01*
X1221828Y9949690D01*
X1191828Y9981509D02*
G01*
X1187282Y9976962D01*
X1182738Y9981509D01*
X1187282Y9986053D01*
X1191828Y9981509D01*
X1187282Y9949690D02*
G01*
X1187282Y9886053D01*
X1152738Y9949690D02*
G01*
X1125463Y9886053D01*
X1098191Y9949690D02*
G01*
X1125463Y9886053D01*
X1068191Y9922418D02*
G01*
X1013647Y9922418D01*
X1013647Y9931509D01*
X1018192Y9940599D01*
X1022738Y9945146D01*
X1031829Y9949690D01*
X1045463Y9949690D01*
X1054554Y9945146D01*
X1063647Y9936053D01*
X1068191Y9922418D01*
X1068191Y9913327D01*
X1063647Y9899690D01*
X1054554Y9890599D01*
X1045463Y9886053D01*
X1031829Y9886053D01*
X1022738Y9890599D01*
X1013647Y9899690D01*
X1689100Y9740209D02*
G01*
X1689100Y9644753D01*
X1689100Y9644753D02*
G01*
X1634553Y9644753D01*
X1604553Y9740209D02*
G01*
X1604553Y9644753D01*
X1604553Y9740209D02*
G01*
X1545462Y9740209D01*
X1604553Y9694753D02*
G01*
X1568190Y9694753D01*
X1604553Y9644753D02*
G01*
X1545462Y9644753D01*
X1515463Y9740209D02*
G01*
X1515463Y9644753D01*
X1515463Y9740209D02*
G01*
X1483647Y9740209D01*
X1470009Y9735662D01*
X1460919Y9726571D01*
X1456372Y9717481D01*
X1451828Y9703846D01*
X1451828Y9681118D01*
X1456372Y9667481D01*
X1460919Y9658390D01*
X1470009Y9649299D01*
X1483647Y9644753D01*
X1515463Y9644753D01*
X1351828Y9740209D02*
G01*
X1351828Y9644753D01*
X1351828Y9740209D02*
G01*
X1320010Y9740209D01*
X1306372Y9735662D01*
X1297282Y9726571D01*
X1292738Y9717481D01*
X1288191Y9703846D01*
X1288191Y9681118D01*
X1292738Y9667481D01*
X1297282Y9658390D01*
X1306372Y9649299D01*
X1320010Y9644753D01*
X1351828Y9644753D01*
X1258191Y9708390D02*
G01*
X1258191Y9644753D01*
X1258191Y9681118D02*
G01*
X1253647Y9694753D01*
X1244554Y9703846D01*
X1235463Y9708390D01*
X1221828Y9708390D01*
X1191828Y9740209D02*
G01*
X1187282Y9735662D01*
X1182738Y9740209D01*
X1187282Y9744753D01*
X1191828Y9740209D01*
X1187282Y9708390D02*
G01*
X1187282Y9644753D01*
X1152738Y9708390D02*
G01*
X1125463Y9644753D01*
X1098191Y9708390D02*
G01*
X1125463Y9644753D01*
X1068191Y9681118D02*
G01*
X1013647Y9681118D01*
X1013647Y9690209D01*
X1018192Y9699299D01*
X1022738Y9703846D01*
X1031829Y9708390D01*
X1045463Y9708390D01*
X1054554Y9703846D01*
X1063647Y9694753D01*
X1068191Y9681118D01*
X1068191Y9672027D01*
X1063647Y9658390D01*
X1054554Y9649299D01*
X1045463Y9644753D01*
X1031829Y9644753D01*
X1022738Y9649299D01*
X1013647Y9658390D01*
X5080000Y9702109D02*
G01*
X5080000Y9606653D01*
X5080000Y9606653D02*
G01*
X5025453Y9606653D01*
X4995453Y9702109D02*
G01*
X4995453Y9606653D01*
X4995453Y9702109D02*
G01*
X4936363Y9702109D01*
X4995453Y9656653D02*
G01*
X4959090Y9656653D01*
X4995453Y9606653D02*
G01*
X4936363Y9606653D01*
X4906363Y9702109D02*
G01*
X4906363Y9606653D01*
X4906363Y9702109D02*
G01*
X4874547Y9702109D01*
X4860909Y9697562D01*
X4851819Y9688471D01*
X4847272Y9679381D01*
X4842728Y9665746D01*
X4842728Y9643018D01*
X4847272Y9629381D01*
X4851819Y9620290D01*
X4860909Y9611199D01*
X4874547Y9606653D01*
X4906363Y9606653D01*
X4742728Y9702109D02*
G01*
X4742728Y9606653D01*
X4742728Y9702109D02*
G01*
X4710910Y9702109D01*
X4697272Y9697562D01*
X4688182Y9688471D01*
X4683638Y9679381D01*
X4679091Y9665746D01*
X4679091Y9643018D01*
X4683638Y9629381D01*
X4688182Y9620290D01*
X4697272Y9611199D01*
X4710910Y9606653D01*
X4742728Y9606653D01*
X4649091Y9670290D02*
G01*
X4649091Y9606653D01*
X4649091Y9643018D02*
G01*
X4644547Y9656653D01*
X4635454Y9665746D01*
X4626363Y9670290D01*
X4612728Y9670290D01*
X4582728Y9702109D02*
G01*
X4578182Y9697562D01*
X4573638Y9702109D01*
X4578182Y9706653D01*
X4582728Y9702109D01*
X4578182Y9670290D02*
G01*
X4578182Y9606653D01*
X4543638Y9670290D02*
G01*
X4516363Y9606653D01*
X4489091Y9670290D02*
G01*
X4516363Y9606653D01*
X4459091Y9643018D02*
G01*
X4404547Y9643018D01*
X4404547Y9652109D01*
X4409092Y9661199D01*
X4413638Y9665746D01*
X4422729Y9670290D01*
X4436363Y9670290D01*
X4445454Y9665746D01*
X4454547Y9656653D01*
X4459091Y9643018D01*
X4459091Y9633927D01*
X4454547Y9620290D01*
X4445454Y9611199D01*
X4436363Y9606653D01*
X4422729Y9606653D01*
X4413638Y9611199D01*
X4404547Y9620290D01*
X5080000Y9943409D02*
G01*
X5080000Y9847953D01*
X5080000Y9847953D02*
G01*
X5025453Y9847953D01*
X4995453Y9943409D02*
G01*
X4995453Y9847953D01*
X4995453Y9943409D02*
G01*
X4936363Y9943409D01*
X4995453Y9897953D02*
G01*
X4959090Y9897953D01*
X4995453Y9847953D02*
G01*
X4936363Y9847953D01*
X4906363Y9943409D02*
G01*
X4906363Y9847953D01*
X4906363Y9943409D02*
G01*
X4874547Y9943409D01*
X4860909Y9938862D01*
X4851819Y9929771D01*
X4847272Y9920681D01*
X4842728Y9907046D01*
X4842728Y9884318D01*
X4847272Y9870681D01*
X4851819Y9861590D01*
X4860909Y9852499D01*
X4874547Y9847953D01*
X4906363Y9847953D01*
X4742728Y9943409D02*
G01*
X4742728Y9847953D01*
X4742728Y9943409D02*
G01*
X4710910Y9943409D01*
X4697272Y9938862D01*
X4688182Y9929771D01*
X4683638Y9920681D01*
X4679091Y9907046D01*
X4679091Y9884318D01*
X4683638Y9870681D01*
X4688182Y9861590D01*
X4697272Y9852499D01*
X4710910Y9847953D01*
X4742728Y9847953D01*
X4649091Y9911590D02*
G01*
X4649091Y9847953D01*
X4649091Y9884318D02*
G01*
X4644547Y9897953D01*
X4635454Y9907046D01*
X4626363Y9911590D01*
X4612728Y9911590D01*
X4582728Y9943409D02*
G01*
X4578182Y9938862D01*
X4573638Y9943409D01*
X4578182Y9947953D01*
X4582728Y9943409D01*
X4578182Y9911590D02*
G01*
X4578182Y9847953D01*
X4543638Y9911590D02*
G01*
X4516363Y9847953D01*
X4489091Y9911590D02*
G01*
X4516363Y9847953D01*
X4459091Y9884318D02*
G01*
X4404547Y9884318D01*
X4404547Y9893409D01*
X4409092Y9902499D01*
X4413638Y9907046D01*
X4422729Y9911590D01*
X4436363Y9911590D01*
X4445454Y9907046D01*
X4454547Y9897953D01*
X4459091Y9884318D01*
X4459091Y9875227D01*
X4454547Y9861590D01*
X4445454Y9852499D01*
X4436363Y9847953D01*
X4422729Y9847953D01*
X4413638Y9852499D01*
X4404547Y9861590D01*
D11*
X3289300Y11645209D02*
G01*
X3289300Y11549753D01*
X3289300Y11645209D02*
G01*
X3248390Y11645209D01*
X3234753Y11640662D01*
X3230209Y11636118D01*
X3225662Y11627027D01*
X3225662Y11617937D01*
X3230209Y11608846D01*
X3234753Y11604299D01*
X3248390Y11599753D01*
X3289300Y11599753D01*
X3257481Y11599753D02*
G01*
X3225662Y11549753D01*
X3195662Y11586118D02*
G01*
X3141118Y11586118D01*
X3141118Y11595209D01*
X3145663Y11604299D01*
X3150209Y11608846D01*
X3159300Y11613390D01*
X3172937Y11613390D01*
X3182028Y11608846D01*
X3191118Y11599753D01*
X3195662Y11586118D01*
X3195662Y11577027D01*
X3191118Y11563390D01*
X3182028Y11554299D01*
X3172937Y11549753D01*
X3159300Y11549753D01*
X3150209Y11554299D01*
X3141118Y11563390D01*
X3111118Y11613390D02*
G01*
X3083847Y11549753D01*
X3056572Y11613390D02*
G01*
X3083847Y11549753D01*
X3022028Y11572481D02*
G01*
X3026572Y11567937D01*
X3022028Y11563390D01*
X3017481Y11567937D01*
X3022028Y11572481D01*
X2917482Y11627027D02*
G01*
X2908391Y11631571D01*
X2894754Y11645209D01*
X2894754Y11549753D01*
X2860210Y11572481D02*
G01*
X2864754Y11567937D01*
X2860210Y11563390D01*
X2855663Y11567937D01*
X2860210Y11572481D01*
X2821119Y11622481D02*
G01*
X2821119Y11627027D01*
X2816572Y11636118D01*
X2812028Y11640662D01*
X2802938Y11645209D01*
X2784754Y11645209D01*
X2775663Y11640662D01*
X2771119Y11636118D01*
X2766573Y11627027D01*
X2766573Y11617937D01*
X2771119Y11608846D01*
X2780210Y11595209D01*
X2825663Y11549753D01*
X2762029Y11549753D01*
D12*
X4540046Y12030809D02*
G01*
X4553681Y12044446D01*
X4574136Y12051263D01*
X4601408Y12051263D01*
X4621862Y12044446D01*
X4635500Y12030809D01*
X4635500Y12017171D01*
X4628682Y12003537D01*
X4621862Y11996717D01*
X4608228Y11989899D01*
X4567318Y11976262D01*
X4553681Y11969445D01*
X4546864Y11962627D01*
X4540046Y11948990D01*
X4540046Y11928535D01*
X4553681Y11914898D01*
X4574136Y11908081D01*
X4601408Y11908081D01*
X4621862Y11914898D01*
X4635500Y11928535D01*
X4495045Y11962627D02*
G01*
X4413227Y11962627D01*
X4413227Y11976262D01*
X4420047Y11989899D01*
X4426864Y11996717D01*
X4440499Y12003537D01*
X4460953Y12003537D01*
X4474590Y11996717D01*
X4488228Y11983082D01*
X4495045Y11962627D01*
X4495045Y11948990D01*
X4488228Y11928535D01*
X4474590Y11914898D01*
X4460953Y11908081D01*
X4440499Y11908081D01*
X4426864Y11914898D01*
X4413227Y11928535D01*
X4368228Y12003537D02*
G01*
X4327319Y11908081D01*
X4286410Y12003537D02*
G01*
X4327319Y11908081D01*
X4241408Y11962627D02*
G01*
X4159592Y11962627D01*
X4159592Y11976262D01*
X4166410Y11989899D01*
X4173227Y11996717D01*
X4186864Y12003537D01*
X4207319Y12003537D01*
X4220954Y11996717D01*
X4234591Y11983082D01*
X4241408Y11962627D01*
X4241408Y11948990D01*
X4234591Y11928535D01*
X4220954Y11914898D01*
X4207319Y11908081D01*
X4186864Y11908081D01*
X4173227Y11914898D01*
X4159592Y11928535D01*
X4114591Y12003537D02*
G01*
X4114591Y11908081D01*
X4114591Y11976262D02*
G01*
X4094137Y11996717D01*
X4080499Y12003537D01*
X4060047Y12003537D01*
X4046410Y11996717D01*
X4039593Y11976262D01*
X4039593Y11908081D01*
X3994591Y11969445D02*
G01*
X3871864Y11969445D01*
X3751864Y11983082D02*
G01*
X3758684Y11996717D01*
X3779138Y12003537D01*
X3799593Y12003537D01*
X3820048Y11996717D01*
X3826865Y11983082D01*
X3820048Y11969445D01*
X3806410Y11962627D01*
X3772319Y11955807D01*
X3758684Y11948990D01*
X3751864Y11935353D01*
X3751864Y11928535D01*
X3758684Y11914898D01*
X3779138Y11908081D01*
X3799593Y11908081D01*
X3820048Y11914898D01*
X3826865Y11928535D01*
X3706865Y11962627D02*
G01*
X3625047Y11962627D01*
X3625047Y11976262D01*
X3631864Y11989899D01*
X3638684Y11996717D01*
X3652319Y12003537D01*
X3672773Y12003537D01*
X3686411Y11996717D01*
X3700048Y11983082D01*
X3706865Y11962627D01*
X3706865Y11948990D01*
X3700048Y11928535D01*
X3686411Y11914898D01*
X3672773Y11908081D01*
X3652319Y11908081D01*
X3638684Y11914898D01*
X3625047Y11928535D01*
X3498230Y12003537D02*
G01*
X3498230Y11894446D01*
X3505047Y11873992D01*
X3511864Y11867172D01*
X3525502Y11860354D01*
X3545956Y11860354D01*
X3559594Y11867172D01*
X3498230Y11983082D02*
G01*
X3511864Y11996717D01*
X3525502Y12003537D01*
X3545956Y12003537D01*
X3559594Y11996717D01*
X3573228Y11983082D01*
X3580048Y11962627D01*
X3580048Y11948990D01*
X3573228Y11928535D01*
X3559594Y11914898D01*
X3545956Y11908081D01*
X3525502Y11908081D01*
X3511864Y11914898D01*
X3498230Y11928535D01*
X3453229Y12003537D02*
G01*
X3453229Y11908081D01*
X3453229Y11976262D02*
G01*
X3432774Y11996717D01*
X3419139Y12003537D01*
X3398685Y12003537D01*
X3385047Y11996717D01*
X3378230Y11976262D01*
X3378230Y11908081D01*
X3378230Y11976262D02*
G01*
X3357775Y11996717D01*
X3344138Y12003537D01*
X3323683Y12003537D01*
X3310049Y11996717D01*
X3303229Y11976262D01*
X3303229Y11908081D01*
X3258230Y11962627D02*
G01*
X3176412Y11962627D01*
X3176412Y11976262D01*
X3183229Y11989899D01*
X3190049Y11996717D01*
X3203684Y12003537D01*
X3224138Y12003537D01*
X3237776Y11996717D01*
X3251410Y11983082D01*
X3258230Y11962627D01*
X3258230Y11948990D01*
X3251410Y11928535D01*
X3237776Y11914898D01*
X3224138Y11908081D01*
X3203684Y11908081D01*
X3190049Y11914898D01*
X3176412Y11928535D01*
X3131411Y12003537D02*
G01*
X3131411Y11908081D01*
X3131411Y11976262D02*
G01*
X3110956Y11996717D01*
X3097321Y12003537D01*
X3076867Y12003537D01*
X3063229Y11996717D01*
X3056412Y11976262D01*
X3056412Y11908081D01*
X2990956Y12051263D02*
G01*
X2990956Y11935353D01*
X2984139Y11914898D01*
X2970502Y11908081D01*
X2956867Y11908081D01*
X3011411Y12003537D02*
G01*
X2963684Y12003537D01*
X2725049Y12051263D02*
G01*
X2725049Y11908081D01*
X2725049Y11983082D02*
G01*
X2738686Y11996717D01*
X2752321Y12003537D01*
X2772775Y12003537D01*
X2786413Y11996717D01*
X2800050Y11983082D01*
X2806867Y11962627D01*
X2806867Y11948990D01*
X2800050Y11928535D01*
X2786413Y11914898D01*
X2772775Y11908081D01*
X2752321Y11908081D01*
X2738686Y11914898D01*
X2725049Y11928535D01*
X2680050Y12003537D02*
G01*
X2680050Y11908081D01*
X2680050Y11962627D02*
G01*
X2673230Y11983082D01*
X2659595Y11996717D01*
X2645958Y12003537D01*
X2625504Y12003537D01*
X2580502Y12051263D02*
G01*
X2573685Y12044446D01*
X2566868Y12051263D01*
X2573685Y12058081D01*
X2580502Y12051263D01*
X2573685Y12003537D02*
G01*
X2573685Y11908081D01*
X2521866Y12003537D02*
G01*
X2480957Y11908081D01*
X2440050Y12003537D02*
G01*
X2480957Y11908081D01*
X2395049Y11962627D02*
G01*
X2313231Y11962627D01*
X2313231Y11976262D01*
X2320051Y11989899D01*
X2326868Y11996717D01*
X2340503Y12003537D01*
X2360957Y12003537D01*
X2374595Y11996717D01*
X2388232Y11983082D01*
X2395049Y11962627D01*
X2395049Y11948990D01*
X2388232Y11928535D01*
X2374595Y11914898D01*
X2360957Y11908081D01*
X2340503Y11908081D01*
X2326868Y11914898D01*
X2313231Y11928535D01*
X2268232Y12003537D02*
G01*
X2268232Y11908081D01*
X2268232Y11962627D02*
G01*
X2261412Y11983082D01*
X2247778Y11996717D01*
X2234140Y12003537D01*
X2213686Y12003537D01*
X2063686Y12051263D02*
G01*
X2063686Y11908081D01*
X2063686Y11983082D02*
G01*
X2050051Y11996717D01*
X2036414Y12003537D01*
X2015959Y12003537D01*
X2002322Y11996717D01*
X1988687Y11983082D01*
X1981868Y11962627D01*
X1981868Y11948990D01*
X1988687Y11928535D01*
X2002322Y11914898D01*
X2015959Y11908081D01*
X2036414Y11908081D01*
X2050051Y11914898D01*
X2063686Y11928535D01*
X1902777Y12003537D02*
G01*
X1916414Y11996717D01*
X1930052Y11983082D01*
X1936869Y11962627D01*
X1936869Y11948990D01*
X1930052Y11928535D01*
X1916414Y11914898D01*
X1902777Y11908081D01*
X1882322Y11908081D01*
X1868688Y11914898D01*
X1855050Y11928535D01*
X1848233Y11948990D01*
X1848233Y11962627D01*
X1855050Y11983082D01*
X1868688Y11996717D01*
X1882322Y12003537D01*
X1902777Y12003537D01*
X1721413Y12003537D02*
G01*
X1721413Y11908081D01*
X1721413Y11983082D02*
G01*
X1735051Y11996717D01*
X1748688Y12003537D01*
X1769143Y12003537D01*
X1782777Y11996717D01*
X1796414Y11983082D01*
X1803232Y11962627D01*
X1803232Y11948990D01*
X1796414Y11928535D01*
X1782777Y11914898D01*
X1769143Y11908081D01*
X1748688Y11908081D01*
X1735051Y11914898D01*
X1721413Y11928535D01*
X1676415Y12003537D02*
G01*
X1676415Y11908081D01*
X1676415Y11962627D02*
G01*
X1669597Y11983082D01*
X1655960Y11996717D01*
X1642323Y12003537D01*
X1621868Y12003537D01*
X1495051Y12051263D02*
G01*
X1495051Y11908081D01*
X1495051Y11983082D02*
G01*
X1508688Y11996717D01*
X1522323Y12003537D01*
X1542778Y12003537D01*
X1556415Y11996717D01*
X1570052Y11983082D01*
X1576870Y11962627D01*
X1576870Y11948990D01*
X1570052Y11928535D01*
X1556415Y11914898D01*
X1542778Y11908081D01*
X1522323Y11908081D01*
X1508688Y11914898D01*
X1495051Y11928535D01*
D11*
X3818018Y11787581D02*
G01*
X3822562Y11796671D01*
X3831653Y11805762D01*
X3840746Y11810309D01*
X3858928Y11810309D01*
X3868018Y11805762D01*
X3877109Y11796671D01*
X3881653Y11787581D01*
X3886200Y11773946D01*
X3886200Y11751218D01*
X3881653Y11737581D01*
X3877109Y11728490D01*
X3868018Y11719399D01*
X3858928Y11714853D01*
X3840746Y11714853D01*
X3831653Y11719399D01*
X3822562Y11728490D01*
X3818018Y11737581D01*
X3765290Y11778490D02*
G01*
X3774381Y11773946D01*
X3783472Y11764853D01*
X3788018Y11751218D01*
X3788018Y11742127D01*
X3783472Y11728490D01*
X3774381Y11719399D01*
X3765290Y11714853D01*
X3751653Y11714853D01*
X3742563Y11719399D01*
X3733472Y11728490D01*
X3728928Y11742127D01*
X3728928Y11751218D01*
X3733472Y11764853D01*
X3742563Y11773946D01*
X3751653Y11778490D01*
X3765290Y11778490D01*
X3698928Y11778490D02*
G01*
X3698928Y11683037D01*
X3698928Y11764853D02*
G01*
X3689837Y11773946D01*
X3680747Y11778490D01*
X3667109Y11778490D01*
X3658019Y11773946D01*
X3648928Y11764853D01*
X3644381Y11751218D01*
X3644381Y11742127D01*
X3648928Y11728490D01*
X3658019Y11719399D01*
X3667109Y11714853D01*
X3680747Y11714853D01*
X3689837Y11719399D01*
X3698928Y11728490D01*
X3609837Y11778490D02*
G01*
X3582563Y11714853D01*
X3555291Y11778490D02*
G01*
X3582563Y11714853D01*
X3591653Y11696672D01*
X3600747Y11687581D01*
X3609837Y11683037D01*
X3614381Y11683037D01*
X3525291Y11778490D02*
G01*
X3525291Y11714853D01*
X3525291Y11751218D02*
G01*
X3520747Y11764853D01*
X3511654Y11773946D01*
X3502563Y11778490D01*
X3488928Y11778490D01*
X3458928Y11810309D02*
G01*
X3454382Y11805762D01*
X3449838Y11810309D01*
X3454382Y11814853D01*
X3458928Y11810309D01*
X3454382Y11778490D02*
G01*
X3454382Y11714853D01*
X3365291Y11778490D02*
G01*
X3365291Y11705762D01*
X3369838Y11692128D01*
X3374382Y11687581D01*
X3383473Y11683037D01*
X3397110Y11683037D01*
X3406200Y11687581D01*
X3365291Y11764853D02*
G01*
X3374382Y11773946D01*
X3383473Y11778490D01*
X3397110Y11778490D01*
X3406200Y11773946D01*
X3415291Y11764853D01*
X3419838Y11751218D01*
X3419838Y11742127D01*
X3415291Y11728490D01*
X3406200Y11719399D01*
X3397110Y11714853D01*
X3383473Y11714853D01*
X3374382Y11719399D01*
X3365291Y11728490D01*
X3335291Y11810309D02*
G01*
X3335291Y11714853D01*
X3335291Y11760309D02*
G01*
X3321654Y11773946D01*
X3312563Y11778490D01*
X3298929Y11778490D01*
X3289838Y11773946D01*
X3285291Y11760309D01*
X3285291Y11714853D01*
X3241654Y11810309D02*
G01*
X3241654Y11733037D01*
X3237110Y11719399D01*
X3228019Y11714853D01*
X3218929Y11714853D01*
X3255291Y11778490D02*
G01*
X3223473Y11778490D01*
X3087110Y11828490D02*
G01*
X3096201Y11819399D01*
X3105292Y11805762D01*
X3114382Y11787581D01*
X3118929Y11764853D01*
X3118929Y11746671D01*
X3114382Y11723946D01*
X3105292Y11705762D01*
X3096201Y11692128D01*
X3087110Y11683037D01*
X3002564Y11764853D02*
G01*
X3011655Y11773946D01*
X3020748Y11778490D01*
X3034383Y11778490D01*
X3043473Y11773946D01*
X3052564Y11764853D01*
X3057110Y11751218D01*
X3057110Y11742127D01*
X3052564Y11728490D01*
X3043473Y11719399D01*
X3034383Y11714853D01*
X3020748Y11714853D01*
X3011655Y11719399D01*
X3002564Y11728490D01*
X2972564Y11828490D02*
G01*
X2963473Y11819399D01*
X2954383Y11805762D01*
X2945292Y11787581D01*
X2940748Y11764853D01*
X2940748Y11746671D01*
X2945292Y11723946D01*
X2954383Y11705762D01*
X2963473Y11692128D01*
X2972564Y11683037D01*
X2836202Y11787581D02*
G01*
X2836202Y11792127D01*
X2831655Y11801218D01*
X2827111Y11805762D01*
X2818020Y11810309D01*
X2799839Y11810309D01*
X2790748Y11805762D01*
X2786202Y11801218D01*
X2781655Y11792127D01*
X2781655Y11783037D01*
X2786202Y11773946D01*
X2795292Y11760309D01*
X2840748Y11714853D01*
X2777111Y11714853D01*
X2719839Y11810309D02*
G01*
X2733474Y11805762D01*
X2742565Y11792127D01*
X2747111Y11769399D01*
X2747111Y11755762D01*
X2742565Y11733037D01*
X2733474Y11719399D01*
X2719839Y11714853D01*
X2710748Y11714853D01*
X2697111Y11719399D01*
X2688021Y11733037D01*
X2683474Y11755762D01*
X2683474Y11769399D01*
X2688021Y11792127D01*
X2697111Y11805762D01*
X2710748Y11810309D01*
X2719839Y11810309D01*
X2648930Y11787581D02*
G01*
X2648930Y11792127D01*
X2644383Y11801218D01*
X2639839Y11805762D01*
X2630749Y11810309D01*
X2612565Y11810309D01*
X2603474Y11805762D01*
X2598930Y11801218D01*
X2594383Y11792127D01*
X2594383Y11783037D01*
X2598930Y11773946D01*
X2608021Y11760309D01*
X2653474Y11714853D01*
X2589839Y11714853D01*
X2550749Y11810309D02*
G01*
X2500749Y11810309D01*
X2528021Y11773946D01*
X2514384Y11773946D01*
X2505293Y11769399D01*
X2500749Y11764853D01*
X2496202Y11751218D01*
X2496202Y11742127D01*
X2500749Y11728490D01*
X2509840Y11719399D01*
X2523474Y11714853D01*
X2537112Y11714853D01*
X2550749Y11719399D01*
X2555293Y11723946D01*
X2559839Y11733037D01*
X2396202Y11810309D02*
G01*
X2396202Y11714853D01*
X2396202Y11810309D02*
G01*
X2332565Y11714853D01*
X2332565Y11810309D02*
G01*
X2332565Y11714853D01*
X2302565Y11810309D02*
G01*
X2302565Y11714853D01*
X2302565Y11810309D02*
G01*
X2270749Y11810309D01*
X2257112Y11805762D01*
X2248021Y11796671D01*
X2243475Y11787581D01*
X2238931Y11773946D01*
X2238931Y11751218D01*
X2243475Y11737581D01*
X2248021Y11728490D01*
X2257112Y11719399D01*
X2270749Y11714853D01*
X2302565Y11714853D01*
X901700Y10184709D02*
G01*
X901700Y10089253D01*
X871700Y10184709D02*
G01*
X871700Y10089253D01*
X871700Y10184709D02*
G01*
X808062Y10089253D01*
X808062Y10184709D02*
G01*
X808062Y10089253D01*
X5332128Y10172009D02*
G01*
X5341218Y10167462D01*
X5350309Y10158371D01*
X5354853Y10149281D01*
X5359400Y10135646D01*
X5359400Y10112918D01*
X5354853Y10099281D01*
X5350309Y10090190D01*
X5341218Y10081099D01*
X5332128Y10076553D01*
X5313946Y10076553D01*
X5304853Y10081099D01*
X5295762Y10090190D01*
X5291218Y10099281D01*
X5286672Y10112918D01*
X5286672Y10135646D01*
X5291218Y10149281D01*
X5295762Y10158371D01*
X5304853Y10167462D01*
X5313946Y10172009D01*
X5332128Y10172009D01*
X5256672Y10172009D02*
G01*
X5256672Y10103827D01*
X5252128Y10090190D01*
X5243037Y10081099D01*
X5229400Y10076553D01*
X5220309Y10076553D01*
X5206672Y10081099D01*
X5197581Y10090190D01*
X5193037Y10103827D01*
X5193037Y10172009D01*
X5131219Y10172009D02*
G01*
X5131219Y10076553D01*
X5163037Y10172009D02*
G01*
X5099400Y10172009D01*
M02*
