G04 Layer: TopLayer*
G04 EasyEDA v6.5.23, 2023-06-06 19:14:30*
G04 6ef57efb87d34416a569dc9a5926d664,0997c0c323a540828c61b468e30a80a1,10*
G04 Gerber Generator version 0.2*
G04 Scale: 100 percent, Rotated: No, Reflected: No *
G04 Dimensions in millimeters *
G04 leading zeros omitted , absolute positions ,4 integer and 5 decimal *
%FSLAX45Y45*%
%MOMM*%

%AMMACRO1*21,1,$1,$2,0,0,$3*%
%ADD10C,0.2500*%
%ADD11C,0.5000*%
%ADD12C,1.0000*%
%ADD13MACRO1,1.296X1.7575X0.0000*%
%ADD14R,1.2960X1.7575*%
%ADD15MACRO1,1.701X1.2075X0.0000*%
%ADD16R,1.7010X1.2075*%
%ADD17O,1.7999964X0.5999988*%
%ADD18O,2.0999958X0.5599938*%
%ADD19MACRO1,1.35X1.41X-90.0000*%
%ADD20MACRO1,1.35X1.41X90.0000*%
%ADD21C,1.5748*%
%ADD22R,1.5748X1.5748*%
%ADD23O,1.524X1.9999959999999999*%
%ADD24C,0.6100*%
%ADD25C,0.0149*%

%LPD*%
G36*
X3765194Y9609582D02*
G01*
X3761333Y9610344D01*
X3758031Y9612528D01*
X3755847Y9615830D01*
X3754526Y9618980D01*
X3752494Y9622891D01*
X3750106Y9626650D01*
X3747414Y9630206D01*
X3744264Y9633610D01*
X3273145Y10104729D01*
X3271113Y10107625D01*
X3270199Y10111028D01*
X3269538Y10118547D01*
X3267100Y10127640D01*
X3263138Y10136124D01*
X3257753Y10143845D01*
X3251149Y10150449D01*
X3243427Y10155834D01*
X3234944Y10159796D01*
X3225850Y10162235D01*
X3222091Y10162590D01*
X3218027Y10163860D01*
X3214827Y10166654D01*
X3213049Y10170566D01*
X3213049Y10174833D01*
X3214827Y10178745D01*
X3218027Y10181539D01*
X3222091Y10182809D01*
X3225850Y10183164D01*
X3234944Y10185603D01*
X3243427Y10189565D01*
X3251149Y10194950D01*
X3257753Y10201554D01*
X3263138Y10209276D01*
X3267100Y10217759D01*
X3269538Y10226852D01*
X3270351Y10236200D01*
X3269538Y10245547D01*
X3268268Y10250424D01*
X3267964Y10253929D01*
X3268878Y10257332D01*
X3270859Y10260228D01*
X3358438Y10347807D01*
X3361740Y10350042D01*
X3365652Y10350804D01*
X3519932Y10350804D01*
X3523284Y10350246D01*
X3526282Y10348569D01*
X3528517Y10346029D01*
X3530396Y10343083D01*
X3534460Y10339019D01*
X3539388Y10335920D01*
X3544824Y10333990D01*
X3551174Y10333278D01*
X3691026Y10333278D01*
X3697325Y10333990D01*
X3702812Y10335920D01*
X3707688Y10339019D01*
X3711803Y10343083D01*
X3715308Y10347147D01*
X3719068Y10348722D01*
X3723132Y10348722D01*
X3726891Y10347147D01*
X3730396Y10343083D01*
X3734511Y10339019D01*
X3739387Y10335920D01*
X3744874Y10333990D01*
X3751173Y10333278D01*
X3779520Y10333278D01*
X3779520Y10386618D01*
X3727653Y10386618D01*
X3723792Y10387380D01*
X3720490Y10389565D01*
X3718255Y10392867D01*
X3717493Y10396778D01*
X3717493Y10456621D01*
X3718255Y10460532D01*
X3720490Y10463834D01*
X3723792Y10466019D01*
X3727653Y10466781D01*
X3779520Y10466781D01*
X3779520Y10520121D01*
X3751173Y10520121D01*
X3744874Y10519410D01*
X3739387Y10517479D01*
X3734511Y10514380D01*
X3730396Y10510316D01*
X3726891Y10506252D01*
X3723132Y10504678D01*
X3719068Y10504678D01*
X3715308Y10506252D01*
X3711803Y10510316D01*
X3707688Y10514380D01*
X3701846Y10518089D01*
X3699408Y10520273D01*
X3697732Y10523067D01*
X3697020Y10528198D01*
X3697732Y10532313D01*
X3699967Y10535818D01*
X3881221Y10717022D01*
X3884472Y10719206D01*
X3888384Y10719968D01*
X3892245Y10719206D01*
X3895547Y10717022D01*
X3897782Y10713720D01*
X3898544Y10709808D01*
X3898544Y10530281D01*
X3897782Y10526369D01*
X3895547Y10523067D01*
X3892245Y10520883D01*
X3888384Y10520121D01*
X3862679Y10520121D01*
X3862679Y10466781D01*
X3888384Y10466781D01*
X3892245Y10466019D01*
X3895547Y10463834D01*
X3897782Y10460532D01*
X3898544Y10456621D01*
X3898544Y10396778D01*
X3897782Y10392867D01*
X3895547Y10389565D01*
X3892245Y10387380D01*
X3888384Y10386618D01*
X3862679Y10386618D01*
X3862679Y10333278D01*
X3888384Y10333278D01*
X3892245Y10332516D01*
X3895547Y10330332D01*
X3897782Y10327030D01*
X3898544Y10323118D01*
X3898544Y10056977D01*
X3897782Y10053116D01*
X3895547Y10049814D01*
X3790442Y9944709D01*
X3787292Y9941255D01*
X3784600Y9937750D01*
X3782212Y9933990D01*
X3780129Y9930028D01*
X3778453Y9925964D01*
X3777132Y9921697D01*
X3776167Y9917379D01*
X3775557Y9912959D01*
X3775354Y9908336D01*
X3775354Y9619742D01*
X3774592Y9615830D01*
X3772408Y9612528D01*
X3769106Y9610344D01*
G37*

%LPD*%
G36*
X736092Y5825896D02*
G01*
X732180Y5826658D01*
X728878Y5828893D01*
X726694Y5832144D01*
X725932Y5836056D01*
X725932Y7932826D01*
X726694Y7936738D01*
X728878Y7940040D01*
X732180Y7942224D01*
X736092Y7942986D01*
X739952Y7942224D01*
X743254Y7940040D01*
X750366Y7932928D01*
X752449Y7929829D01*
X753313Y7926171D01*
X752805Y7922463D01*
X749858Y7913776D01*
X747166Y7900365D01*
X746252Y7886700D01*
X747166Y7873034D01*
X749858Y7859623D01*
X754227Y7846669D01*
X760272Y7834375D01*
X767892Y7822996D01*
X776935Y7812735D01*
X787196Y7803692D01*
X798576Y7796072D01*
X810869Y7790027D01*
X823823Y7785658D01*
X837234Y7782966D01*
X850900Y7782052D01*
X864565Y7782966D01*
X877976Y7785658D01*
X890930Y7790027D01*
X903224Y7796072D01*
X914603Y7803692D01*
X924864Y7812735D01*
X933907Y7822996D01*
X941527Y7834375D01*
X947572Y7846669D01*
X951941Y7859623D01*
X954633Y7873034D01*
X955548Y7886700D01*
X954633Y7900365D01*
X951941Y7913776D01*
X947572Y7926730D01*
X941527Y7939024D01*
X933907Y7950403D01*
X924864Y7960664D01*
X914603Y7969707D01*
X903224Y7977327D01*
X890930Y7983372D01*
X877976Y7987741D01*
X864565Y7990433D01*
X850900Y7991348D01*
X837234Y7990433D01*
X823823Y7987741D01*
X815136Y7984794D01*
X811428Y7984286D01*
X807770Y7985150D01*
X804672Y7987233D01*
X771804Y8020100D01*
X769620Y8023402D01*
X768858Y8027314D01*
X768858Y8051393D01*
X769569Y8055152D01*
X771652Y8058403D01*
X774801Y8060639D01*
X778560Y8061553D01*
X782370Y8060944D01*
X785672Y8059013D01*
X787196Y8057692D01*
X798576Y8050072D01*
X810869Y8044027D01*
X823823Y8039658D01*
X837234Y8036966D01*
X850900Y8036052D01*
X864565Y8036966D01*
X877976Y8039658D01*
X890930Y8044027D01*
X903224Y8050072D01*
X914603Y8057692D01*
X919835Y8062264D01*
X922934Y8064144D01*
X926490Y8064804D01*
X964082Y8064855D01*
X972921Y8065668D01*
X975360Y8066074D01*
X983996Y8068208D01*
X986332Y8068970D01*
X994562Y8072374D01*
X996746Y8073491D01*
X1004366Y8078114D01*
X1013206Y8085175D01*
X1920798Y8992768D01*
X1926488Y8999626D01*
X1927910Y9001658D01*
X1932482Y9009278D01*
X1933600Y9011462D01*
X1937004Y9019692D01*
X1937766Y9022029D01*
X1939899Y9030614D01*
X1940306Y9033052D01*
X1941169Y9041892D01*
X1941220Y9082074D01*
X1941779Y9085427D01*
X1943455Y9088424D01*
X1945995Y9090710D01*
X1951939Y9094419D01*
X1956003Y9098483D01*
X1959102Y9103410D01*
X1960981Y9108846D01*
X1961692Y9115145D01*
X1961692Y9249054D01*
X1960981Y9255353D01*
X1959102Y9260789D01*
X1956003Y9265716D01*
X1951939Y9269780D01*
X1946046Y9273489D01*
X1943607Y9275673D01*
X1941982Y9278467D01*
X1941220Y9283598D01*
X1941880Y9287713D01*
X1944166Y9291218D01*
X1969465Y9316567D01*
X1975154Y9323425D01*
X1976577Y9325406D01*
X1981149Y9333026D01*
X1982266Y9335211D01*
X1985670Y9343440D01*
X1986432Y9345777D01*
X1988566Y9354413D01*
X1988972Y9356852D01*
X1989836Y9365691D01*
X1989886Y9910622D01*
X1990648Y9914534D01*
X1992833Y9917836D01*
X2143099Y10068052D01*
X2146808Y10070439D01*
X2151176Y10070998D01*
X2155342Y10069677D01*
X2158593Y10066680D01*
X2162860Y10060584D01*
X2169769Y10053726D01*
X2177745Y10048138D01*
X2186584Y10044023D01*
X2191004Y10042804D01*
X2194915Y10040772D01*
X2197557Y10037318D01*
X2198522Y10033000D01*
X2197557Y10028682D01*
X2194915Y10025227D01*
X2191004Y10023195D01*
X2186584Y10021976D01*
X2177745Y10017861D01*
X2169769Y10012273D01*
X2162860Y10005415D01*
X2157272Y9997440D01*
X2153158Y9988600D01*
X2150668Y9979202D01*
X2149805Y9969500D01*
X2150668Y9959797D01*
X2153158Y9950399D01*
X2157272Y9941560D01*
X2162860Y9933584D01*
X2169769Y9926726D01*
X2177745Y9921138D01*
X2186584Y9917023D01*
X2191004Y9915804D01*
X2194915Y9913772D01*
X2197557Y9910318D01*
X2198522Y9906000D01*
X2197557Y9901682D01*
X2194915Y9898227D01*
X2191004Y9896195D01*
X2186584Y9894976D01*
X2177745Y9890861D01*
X2169769Y9885273D01*
X2162860Y9878415D01*
X2157272Y9870440D01*
X2153158Y9861600D01*
X2150668Y9852202D01*
X2149805Y9842500D01*
X2150668Y9832797D01*
X2153158Y9823399D01*
X2157272Y9814560D01*
X2162860Y9806584D01*
X2169769Y9799726D01*
X2177745Y9794138D01*
X2186584Y9790023D01*
X2191004Y9788804D01*
X2194915Y9786772D01*
X2197557Y9783318D01*
X2198522Y9779000D01*
X2197557Y9774682D01*
X2194915Y9771227D01*
X2191004Y9769195D01*
X2186584Y9767976D01*
X2177745Y9763861D01*
X2169769Y9758273D01*
X2162860Y9751415D01*
X2157272Y9743440D01*
X2153158Y9734600D01*
X2150668Y9725202D01*
X2149805Y9715500D01*
X2150668Y9705797D01*
X2153158Y9696399D01*
X2157272Y9687560D01*
X2162860Y9679584D01*
X2169769Y9672726D01*
X2177745Y9667138D01*
X2186584Y9663023D01*
X2191004Y9661804D01*
X2194915Y9659772D01*
X2197557Y9656318D01*
X2198522Y9652000D01*
X2197557Y9647682D01*
X2194915Y9644227D01*
X2191004Y9642195D01*
X2186584Y9640976D01*
X2177745Y9636861D01*
X2169769Y9631273D01*
X2162860Y9624415D01*
X2157272Y9616440D01*
X2153158Y9607600D01*
X2150668Y9598202D01*
X2149805Y9588500D01*
X2150668Y9578797D01*
X2153158Y9569399D01*
X2157272Y9560560D01*
X2162860Y9552584D01*
X2169769Y9545726D01*
X2177745Y9540138D01*
X2186584Y9536023D01*
X2191004Y9534804D01*
X2194915Y9532772D01*
X2197557Y9529318D01*
X2198522Y9525000D01*
X2197557Y9520682D01*
X2194915Y9517227D01*
X2191004Y9515195D01*
X2186584Y9513976D01*
X2177745Y9509861D01*
X2169769Y9504273D01*
X2162860Y9497415D01*
X2157272Y9489440D01*
X2153158Y9480600D01*
X2150668Y9471202D01*
X2149805Y9461500D01*
X2150668Y9451797D01*
X2153158Y9442399D01*
X2157272Y9433560D01*
X2162860Y9425584D01*
X2169769Y9418726D01*
X2177745Y9413138D01*
X2186584Y9409023D01*
X2191004Y9407804D01*
X2194915Y9405772D01*
X2197557Y9402318D01*
X2198522Y9398000D01*
X2197557Y9393682D01*
X2194915Y9390227D01*
X2191004Y9388195D01*
X2186584Y9386976D01*
X2177745Y9382861D01*
X2169769Y9377273D01*
X2162860Y9370415D01*
X2157272Y9362440D01*
X2153158Y9353600D01*
X2150668Y9344202D01*
X2149805Y9334500D01*
X2150668Y9324797D01*
X2153158Y9315399D01*
X2157272Y9306560D01*
X2162860Y9298584D01*
X2169769Y9291726D01*
X2177745Y9286138D01*
X2186584Y9282023D01*
X2195982Y9279483D01*
X2206142Y9278569D01*
X2325217Y9278569D01*
X2335377Y9279483D01*
X2344775Y9282023D01*
X2353614Y9286138D01*
X2361590Y9291726D01*
X2368499Y9298584D01*
X2374087Y9306560D01*
X2378202Y9315399D01*
X2380234Y9323070D01*
X2382164Y9326829D01*
X2385415Y9329470D01*
X2389530Y9330588D01*
X2393696Y9329928D01*
X2397252Y9327591D01*
X2398674Y9326118D01*
X2406751Y9320530D01*
X2415641Y9316364D01*
X2425141Y9313824D01*
X2434945Y9312960D01*
X2444699Y9313824D01*
X2454198Y9316364D01*
X2463088Y9320530D01*
X2471166Y9326118D01*
X2478125Y9333077D01*
X2483764Y9341154D01*
X2487879Y9350044D01*
X2490419Y9359544D01*
X2491282Y9369298D01*
X2490419Y9379102D01*
X2487879Y9388602D01*
X2483764Y9397492D01*
X2478125Y9405569D01*
X2471166Y9412528D01*
X2463088Y9418116D01*
X2455976Y9421469D01*
X2452776Y9423806D01*
X2450744Y9427210D01*
X2450134Y9431121D01*
X2451049Y9434982D01*
X2454452Y9442196D01*
X2456992Y9451695D01*
X2457856Y9461500D01*
X2456992Y9471304D01*
X2454452Y9480804D01*
X2450287Y9489694D01*
X2444648Y9497720D01*
X2437688Y9504680D01*
X2429662Y9510318D01*
X2420772Y9514484D01*
X2419045Y9514941D01*
X2415133Y9516973D01*
X2412492Y9520428D01*
X2411526Y9524746D01*
X2412492Y9529013D01*
X2415133Y9532518D01*
X2419045Y9534550D01*
X2422702Y9535515D01*
X2431592Y9539681D01*
X2439670Y9545320D01*
X2446629Y9552279D01*
X2452268Y9560306D01*
X2456383Y9569196D01*
X2458923Y9578695D01*
X2459786Y9588500D01*
X2458923Y9598304D01*
X2456383Y9607804D01*
X2452268Y9616694D01*
X2446629Y9624720D01*
X2439670Y9631680D01*
X2431592Y9637318D01*
X2422702Y9641484D01*
X2419400Y9642348D01*
X2415540Y9644380D01*
X2412847Y9647885D01*
X2411882Y9652152D01*
X2412847Y9656470D01*
X2415540Y9659924D01*
X2419400Y9661956D01*
X2421483Y9662515D01*
X2430373Y9666681D01*
X2438450Y9672320D01*
X2445410Y9679279D01*
X2451049Y9687306D01*
X2455164Y9696196D01*
X2457704Y9705695D01*
X2458567Y9715500D01*
X2457704Y9725304D01*
X2455164Y9734804D01*
X2451049Y9743694D01*
X2445410Y9751720D01*
X2440432Y9756698D01*
X2438196Y9760102D01*
X2437434Y9764166D01*
X2438400Y9768179D01*
X2441702Y9775240D01*
X2444242Y9784740D01*
X2445105Y9794544D01*
X2444242Y9804349D01*
X2441702Y9813848D01*
X2437587Y9822738D01*
X2431948Y9830765D01*
X2424988Y9837724D01*
X2416911Y9843363D01*
X2408021Y9847529D01*
X2398522Y9850069D01*
X2390190Y9850780D01*
X2386787Y9851694D01*
X2383891Y9853726D01*
X2380894Y9856724D01*
X2379268Y9858806D01*
X2378202Y9861600D01*
X2374087Y9870440D01*
X2372614Y9872472D01*
X2370937Y9876536D01*
X2371140Y9880955D01*
X2373172Y9884867D01*
X2376678Y9887508D01*
X2380945Y9888474D01*
X2385263Y9887508D01*
X2386787Y9886797D01*
X2396236Y9884257D01*
X2406040Y9883394D01*
X2415844Y9884257D01*
X2425344Y9886797D01*
X2434234Y9890963D01*
X2442260Y9896602D01*
X2449220Y9903561D01*
X2454859Y9911588D01*
X2459024Y9920478D01*
X2461564Y9929977D01*
X2462428Y9939782D01*
X2461564Y9949586D01*
X2459024Y9959086D01*
X2454859Y9967976D01*
X2449220Y9976002D01*
X2442260Y9982962D01*
X2434234Y9988600D01*
X2425344Y9992766D01*
X2415844Y9995306D01*
X2406040Y9996170D01*
X2396286Y9995306D01*
X2385720Y9992410D01*
X2381554Y9992156D01*
X2377694Y9993579D01*
X2374696Y9996424D01*
X2368448Y10005415D01*
X2361590Y10012273D01*
X2353614Y10017861D01*
X2344775Y10021976D01*
X2340356Y10023195D01*
X2336444Y10025227D01*
X2333802Y10028682D01*
X2332837Y10033000D01*
X2333802Y10037318D01*
X2336444Y10040772D01*
X2340356Y10042804D01*
X2344775Y10044023D01*
X2353614Y10048138D01*
X2359101Y10051948D01*
X2362860Y10053574D01*
X2366975Y10053574D01*
X2370734Y10051948D01*
X2377744Y10047071D01*
X2386634Y10042906D01*
X2396134Y10040366D01*
X2405938Y10039502D01*
X2415692Y10040366D01*
X2425192Y10042906D01*
X2434082Y10047071D01*
X2442159Y10052659D01*
X2449118Y10059619D01*
X2454757Y10067696D01*
X2458872Y10076586D01*
X2461412Y10086086D01*
X2462276Y10095839D01*
X2461412Y10105644D01*
X2458872Y10115143D01*
X2454757Y10124033D01*
X2449118Y10132110D01*
X2442159Y10139070D01*
X2434082Y10144658D01*
X2425192Y10148824D01*
X2415692Y10151364D01*
X2405938Y10152227D01*
X2396134Y10151364D01*
X2386634Y10148824D01*
X2377744Y10144658D01*
X2371648Y10140442D01*
X2367889Y10138816D01*
X2363774Y10138816D01*
X2359964Y10140442D01*
X2353614Y10144861D01*
X2344267Y10149128D01*
X2340406Y10151110D01*
X2337765Y10154513D01*
X2336749Y10158730D01*
X2337562Y10162997D01*
X2340051Y10166502D01*
X2344115Y10170160D01*
X2346655Y10171836D01*
X2353614Y10175087D01*
X2361590Y10180726D01*
X2368499Y10187584D01*
X2374087Y10195560D01*
X2377287Y10202468D01*
X2379319Y10205364D01*
X2540050Y10366197D01*
X2545740Y10373055D01*
X2547162Y10375036D01*
X2551734Y10382656D01*
X2552852Y10384840D01*
X2556256Y10393070D01*
X2557018Y10395407D01*
X2559151Y10404043D01*
X2559558Y10406481D01*
X2560421Y10415320D01*
X2560472Y11664137D01*
X2561234Y11667998D01*
X2563418Y11671300D01*
X2602179Y11710060D01*
X2605481Y11712244D01*
X2609392Y11713057D01*
X2613253Y11712244D01*
X2616555Y11710060D01*
X2618790Y11706758D01*
X2619552Y11702897D01*
X2619552Y11641429D01*
X2620264Y11635079D01*
X2622143Y11629644D01*
X2625242Y11624716D01*
X2629357Y11620652D01*
X2634234Y11617553D01*
X2639720Y11615674D01*
X2646019Y11614962D01*
X2669184Y11614962D01*
X2673096Y11614150D01*
X2676398Y11611965D01*
X2678582Y11608663D01*
X2679344Y11604752D01*
X2676245Y10354970D01*
X2676245Y10204500D01*
X2676448Y10199878D01*
X2677058Y10195458D01*
X2678023Y10191140D01*
X2679344Y10186873D01*
X2681020Y10182809D01*
X2683103Y10178846D01*
X2685491Y10175087D01*
X2688183Y10171582D01*
X2691333Y10168128D01*
X3006445Y9853066D01*
X3008477Y9850170D01*
X3011881Y9836759D01*
X3015843Y9828276D01*
X3021228Y9820554D01*
X3027883Y9813950D01*
X3035554Y9808565D01*
X3044088Y9804603D01*
X3053130Y9802164D01*
X3056890Y9801809D01*
X3061004Y9800539D01*
X3064205Y9797745D01*
X3065932Y9793833D01*
X3065932Y9789566D01*
X3064205Y9785654D01*
X3061004Y9782860D01*
X3056890Y9781590D01*
X3053130Y9781235D01*
X3044088Y9778796D01*
X3035554Y9774834D01*
X3027883Y9769449D01*
X3021228Y9762845D01*
X3015843Y9755124D01*
X3011881Y9746640D01*
X3009442Y9737547D01*
X3008731Y9729063D01*
X3007817Y9725660D01*
X3005785Y9722764D01*
X2199386Y8916365D01*
X2196236Y8912910D01*
X2193493Y8909405D01*
X2191105Y8905646D01*
X2189073Y8901684D01*
X2187397Y8897620D01*
X2186025Y8893352D01*
X2185060Y8889034D01*
X2184501Y8884615D01*
X2184298Y8879992D01*
X2184298Y6581597D01*
X2183536Y6577736D01*
X2181301Y6574434D01*
X2177999Y6572250D01*
X2174138Y6571437D01*
X2150719Y6571437D01*
X2144420Y6570725D01*
X2138934Y6568846D01*
X2134057Y6565747D01*
X2129942Y6561683D01*
X2126843Y6556756D01*
X2124964Y6551320D01*
X2124252Y6544970D01*
X2124252Y6425387D01*
X2124964Y6419037D01*
X2126843Y6413601D01*
X2129942Y6408674D01*
X2134057Y6404610D01*
X2138934Y6401511D01*
X2144420Y6399580D01*
X2150719Y6398869D01*
X2319680Y6398869D01*
X2325979Y6399580D01*
X2331466Y6401511D01*
X2336342Y6404610D01*
X2340457Y6408674D01*
X2343556Y6413601D01*
X2345436Y6419037D01*
X2346147Y6425387D01*
X2346147Y6544970D01*
X2345436Y6551320D01*
X2343556Y6556756D01*
X2340457Y6561683D01*
X2336342Y6565747D01*
X2331466Y6568846D01*
X2325979Y6570725D01*
X2319680Y6571437D01*
X2296261Y6571437D01*
X2292400Y6572250D01*
X2289098Y6574434D01*
X2286863Y6577736D01*
X2286101Y6581597D01*
X2286101Y8854897D01*
X2286863Y8858808D01*
X2289098Y8862060D01*
X2649575Y9222536D01*
X2652826Y9224772D01*
X2656738Y9225534D01*
X2660599Y9224772D01*
X2663901Y9222536D01*
X2666136Y9219234D01*
X2666898Y9215374D01*
X2666898Y6835597D01*
X2666136Y6831736D01*
X2663901Y6828434D01*
X2660599Y6826250D01*
X2656738Y6825437D01*
X2633319Y6825437D01*
X2627020Y6824725D01*
X2621534Y6822846D01*
X2616657Y6819747D01*
X2612542Y6815683D01*
X2609443Y6810756D01*
X2607564Y6805320D01*
X2606852Y6798970D01*
X2606852Y6679387D01*
X2607564Y6673037D01*
X2609443Y6667601D01*
X2612542Y6662674D01*
X2616657Y6658609D01*
X2621534Y6655511D01*
X2627020Y6653580D01*
X2633319Y6652869D01*
X2802280Y6652869D01*
X2808579Y6653580D01*
X2814066Y6655511D01*
X2818942Y6658609D01*
X2823057Y6662674D01*
X2826156Y6667601D01*
X2828036Y6673037D01*
X2828747Y6679387D01*
X2828747Y6798970D01*
X2828036Y6805320D01*
X2826156Y6810756D01*
X2823057Y6815683D01*
X2818942Y6819747D01*
X2814066Y6822846D01*
X2808579Y6824725D01*
X2802280Y6825437D01*
X2778861Y6825437D01*
X2775000Y6826250D01*
X2771698Y6828434D01*
X2769463Y6831736D01*
X2768701Y6835597D01*
X2768701Y9217355D01*
X2769463Y9221266D01*
X2771698Y9224518D01*
X2905760Y9358579D01*
X2909011Y9360814D01*
X2912922Y9361576D01*
X2916783Y9360814D01*
X2920085Y9358579D01*
X2922320Y9355277D01*
X2923082Y9351416D01*
X2923082Y7096607D01*
X2923286Y7091984D01*
X2923844Y7087565D01*
X2924810Y7083247D01*
X2926181Y7078980D01*
X2927858Y7074916D01*
X2929890Y7070953D01*
X2932277Y7067194D01*
X2935020Y7063689D01*
X2938170Y7060234D01*
X3155594Y6842810D01*
X3157778Y6839508D01*
X3158591Y6835597D01*
X3157778Y6831736D01*
X3155594Y6828434D01*
X3152292Y6826250D01*
X3148431Y6825437D01*
X3141319Y6825437D01*
X3135020Y6824725D01*
X3129534Y6822846D01*
X3124657Y6819747D01*
X3120542Y6815683D01*
X3117443Y6810756D01*
X3115564Y6805320D01*
X3114852Y6798970D01*
X3114852Y6679387D01*
X3115564Y6673037D01*
X3117443Y6667601D01*
X3120542Y6662674D01*
X3124657Y6658609D01*
X3129534Y6655511D01*
X3135020Y6653580D01*
X3141319Y6652869D01*
X3310280Y6652869D01*
X3316579Y6653580D01*
X3322065Y6655511D01*
X3326942Y6658609D01*
X3331057Y6662674D01*
X3334156Y6667601D01*
X3336036Y6673037D01*
X3336747Y6679387D01*
X3336747Y6798970D01*
X3336036Y6805320D01*
X3334156Y6810756D01*
X3331057Y6815683D01*
X3326942Y6819747D01*
X3322065Y6822846D01*
X3316579Y6824725D01*
X3310280Y6825437D01*
X3286861Y6825437D01*
X3283000Y6826250D01*
X3279698Y6828434D01*
X3277463Y6831736D01*
X3276701Y6835597D01*
X3276701Y6844385D01*
X3276498Y6849008D01*
X3275939Y6853428D01*
X3274974Y6857746D01*
X3273653Y6862013D01*
X3271926Y6866077D01*
X3269894Y6870039D01*
X3267506Y6873798D01*
X3264814Y6877303D01*
X3261664Y6880758D01*
X3027883Y7114540D01*
X3025648Y7117791D01*
X3024886Y7121702D01*
X3024886Y9162592D01*
X3025698Y9166555D01*
X3027984Y9169908D01*
X3031388Y9172041D01*
X3035401Y9172752D01*
X3039364Y9171787D01*
X3044088Y9169603D01*
X3053130Y9167164D01*
X3061614Y9166402D01*
X3065424Y9165336D01*
X3068472Y9162897D01*
X3070402Y9159443D01*
X3070860Y9155582D01*
X3065627Y9139224D01*
X3063849Y9127744D01*
X3063849Y9116110D01*
X3065627Y9104630D01*
X3069132Y9093555D01*
X3074263Y9083141D01*
X3080969Y9073642D01*
X3088995Y9065260D01*
X3098241Y9058249D01*
X3108452Y9052712D01*
X3119374Y9048750D01*
X3130804Y9046565D01*
X3142386Y9046108D01*
X3153918Y9047429D01*
X3165144Y9050528D01*
X3175762Y9055252D01*
X3185515Y9061602D01*
X3194151Y9069324D01*
X3201568Y9078264D01*
X3207512Y9088272D01*
X3211830Y9099042D01*
X3214471Y9110319D01*
X3215386Y9121902D01*
X3214471Y9133535D01*
X3211830Y9144812D01*
X3208731Y9152483D01*
X3208020Y9156192D01*
X3208680Y9159900D01*
X3210661Y9163100D01*
X3213658Y9165386D01*
X3217265Y9166402D01*
X3225850Y9167164D01*
X3234944Y9169603D01*
X3243427Y9173565D01*
X3251149Y9178950D01*
X3257753Y9185554D01*
X3260953Y9190126D01*
X3264204Y9193123D01*
X3268421Y9194444D01*
X3272790Y9193885D01*
X3276498Y9191498D01*
X3443224Y9024721D01*
X3445459Y9021470D01*
X3446221Y9017558D01*
X3446221Y6493764D01*
X3446424Y6489090D01*
X3446983Y6484721D01*
X3447948Y6480352D01*
X3449320Y6476136D01*
X3450996Y6472021D01*
X3453028Y6468110D01*
X3455415Y6464350D01*
X3458159Y6460794D01*
X3461308Y6457391D01*
X3570224Y6348425D01*
X3573678Y6345275D01*
X3577183Y6342583D01*
X3580942Y6340195D01*
X3584905Y6338112D01*
X3588969Y6336436D01*
X3593236Y6335115D01*
X3597554Y6334150D01*
X3601974Y6333540D01*
X3606596Y6333337D01*
X3809339Y6333337D01*
X3814013Y6333540D01*
X3818432Y6334150D01*
X3822750Y6335115D01*
X3826967Y6336436D01*
X3831082Y6338112D01*
X3835044Y6340195D01*
X3838752Y6342583D01*
X3842308Y6345275D01*
X3845712Y6348425D01*
X3874363Y6377025D01*
X3877513Y6380480D01*
X3880205Y6383985D01*
X3882593Y6387744D01*
X3884625Y6391706D01*
X3886352Y6395770D01*
X3887673Y6400038D01*
X3888638Y6404356D01*
X3889197Y6408775D01*
X3889400Y6413398D01*
X3889400Y9165437D01*
X3890264Y9169552D01*
X3892702Y9172905D01*
X3896309Y9175038D01*
X3911600Y9176308D01*
X3921099Y9178848D01*
X3925417Y9180830D01*
X3929684Y9181795D01*
X3980789Y9181795D01*
X3984599Y9181033D01*
X3995572Y9173565D01*
X4004056Y9169603D01*
X4013149Y9167164D01*
X4022953Y9166301D01*
X4176064Y9166301D01*
X4185869Y9167164D01*
X4194911Y9169603D01*
X4203446Y9173565D01*
X4211116Y9178950D01*
X4217771Y9185554D01*
X4223156Y9193276D01*
X4227118Y9201759D01*
X4229557Y9210852D01*
X4230370Y9220200D01*
X4229557Y9229547D01*
X4227118Y9238640D01*
X4223156Y9247124D01*
X4217771Y9254845D01*
X4211116Y9261449D01*
X4203446Y9266834D01*
X4194911Y9270796D01*
X4185869Y9273235D01*
X4182110Y9273590D01*
X4177995Y9274860D01*
X4174794Y9277654D01*
X4173067Y9281566D01*
X4173067Y9285833D01*
X4174794Y9289745D01*
X4177995Y9292539D01*
X4182110Y9293809D01*
X4185869Y9294164D01*
X4194911Y9296603D01*
X4203446Y9300565D01*
X4211116Y9305950D01*
X4217771Y9312554D01*
X4223156Y9320276D01*
X4227118Y9328759D01*
X4229557Y9337852D01*
X4230370Y9347200D01*
X4229557Y9356547D01*
X4227118Y9365640D01*
X4223156Y9374124D01*
X4217771Y9381845D01*
X4211116Y9388449D01*
X4203446Y9393834D01*
X4194911Y9397796D01*
X4185869Y9400235D01*
X4182110Y9400590D01*
X4177995Y9401860D01*
X4174794Y9404654D01*
X4173067Y9408566D01*
X4173067Y9412833D01*
X4174794Y9416745D01*
X4177995Y9419539D01*
X4182110Y9420809D01*
X4185869Y9421164D01*
X4194911Y9423603D01*
X4203446Y9427565D01*
X4211116Y9432950D01*
X4217771Y9439554D01*
X4223156Y9447276D01*
X4227118Y9455759D01*
X4229557Y9464852D01*
X4230370Y9474200D01*
X4229557Y9483547D01*
X4227118Y9492640D01*
X4223156Y9501124D01*
X4217771Y9508845D01*
X4211116Y9515449D01*
X4203446Y9520834D01*
X4194911Y9524796D01*
X4185869Y9527235D01*
X4182110Y9527590D01*
X4177995Y9528860D01*
X4174794Y9531654D01*
X4173067Y9535566D01*
X4173067Y9539833D01*
X4174794Y9543745D01*
X4177995Y9546539D01*
X4182110Y9547809D01*
X4185869Y9548164D01*
X4194911Y9550603D01*
X4203446Y9554565D01*
X4211116Y9559950D01*
X4217771Y9566554D01*
X4223156Y9574276D01*
X4227118Y9582759D01*
X4229557Y9591852D01*
X4230370Y9601200D01*
X4229557Y9610547D01*
X4227118Y9619640D01*
X4223156Y9628124D01*
X4217771Y9635845D01*
X4211116Y9642449D01*
X4203446Y9647834D01*
X4194911Y9651796D01*
X4185869Y9654235D01*
X4182110Y9654590D01*
X4177995Y9655860D01*
X4174794Y9658654D01*
X4173067Y9662566D01*
X4173067Y9666833D01*
X4174794Y9670745D01*
X4177995Y9673539D01*
X4182110Y9674809D01*
X4185869Y9675164D01*
X4194911Y9677603D01*
X4203446Y9681565D01*
X4211116Y9686950D01*
X4217771Y9693554D01*
X4223156Y9701276D01*
X4227118Y9709759D01*
X4229557Y9718852D01*
X4230370Y9728200D01*
X4229557Y9737547D01*
X4227118Y9746640D01*
X4223156Y9755124D01*
X4217771Y9762845D01*
X4211116Y9769449D01*
X4203446Y9774834D01*
X4194911Y9778796D01*
X4185869Y9781235D01*
X4182110Y9781590D01*
X4177995Y9782860D01*
X4174794Y9785654D01*
X4173067Y9789566D01*
X4173067Y9793833D01*
X4174794Y9797745D01*
X4177995Y9800539D01*
X4182110Y9801809D01*
X4185869Y9802164D01*
X4194911Y9804603D01*
X4203446Y9808565D01*
X4211116Y9813950D01*
X4217771Y9820554D01*
X4223156Y9828276D01*
X4227118Y9836759D01*
X4229557Y9845852D01*
X4230370Y9855200D01*
X4229760Y9862058D01*
X4230217Y9865969D01*
X4232097Y9869474D01*
X4235196Y9871913D01*
X4239006Y9873030D01*
X4245406Y9873589D01*
X4254906Y9876129D01*
X4263796Y9880295D01*
X4271822Y9885934D01*
X4278782Y9892893D01*
X4284421Y9900920D01*
X4288586Y9909810D01*
X4291126Y9919309D01*
X4291990Y9929114D01*
X4291126Y9938918D01*
X4288586Y9948418D01*
X4284421Y9957308D01*
X4278782Y9965334D01*
X4271822Y9972294D01*
X4263796Y9977932D01*
X4254906Y9982098D01*
X4245406Y9984638D01*
X4238142Y9985248D01*
X4234230Y9986416D01*
X4231081Y9989058D01*
X4229252Y9992766D01*
X4227118Y10000640D01*
X4223156Y10009124D01*
X4217771Y10016845D01*
X4211116Y10023449D01*
X4203446Y10028834D01*
X4194911Y10032796D01*
X4185869Y10035235D01*
X4182110Y10035590D01*
X4177995Y10036860D01*
X4174794Y10039654D01*
X4173067Y10043566D01*
X4173067Y10047833D01*
X4174794Y10051745D01*
X4177995Y10054539D01*
X4182110Y10055809D01*
X4185869Y10056164D01*
X4194911Y10058603D01*
X4203446Y10062565D01*
X4211116Y10067950D01*
X4217771Y10074554D01*
X4223156Y10082276D01*
X4227118Y10090759D01*
X4229557Y10099852D01*
X4229709Y10101884D01*
X4230928Y10105847D01*
X4233570Y10108996D01*
X4237228Y10110825D01*
X4244035Y10112654D01*
X4252925Y10116820D01*
X4260951Y10122408D01*
X4267911Y10129367D01*
X4273550Y10137444D01*
X4277715Y10146334D01*
X4280255Y10155834D01*
X4281119Y10165588D01*
X4280255Y10175392D01*
X4277715Y10184892D01*
X4273550Y10193782D01*
X4267911Y10201859D01*
X4260951Y10208818D01*
X4252925Y10214406D01*
X4244035Y10218572D01*
X4234535Y10221112D01*
X4224731Y10221976D01*
X4214926Y10221112D01*
X4205478Y10218572D01*
X4201617Y10216794D01*
X4197350Y10215829D01*
X4158335Y10215829D01*
X4158335Y10173258D01*
X4157573Y10169398D01*
X4155389Y10166096D01*
X4152087Y10163860D01*
X4148175Y10163098D01*
X4050792Y10163098D01*
X4046931Y10163860D01*
X4043629Y10166096D01*
X4041444Y10169398D01*
X4040632Y10173258D01*
X4040632Y10215829D01*
X4010507Y10215829D01*
X4006646Y10216642D01*
X4003344Y10218826D01*
X4001109Y10222128D01*
X4000347Y10225989D01*
X4000347Y10246410D01*
X4001109Y10250271D01*
X4003344Y10253573D01*
X4006646Y10255758D01*
X4010507Y10256570D01*
X4040632Y10256570D01*
X4040632Y10290098D01*
X4022953Y10290098D01*
X4009440Y10288981D01*
X4005884Y10289997D01*
X4002989Y10292283D01*
X4001008Y10295432D01*
X4000347Y10299039D01*
X4000347Y10695127D01*
X4001109Y10699038D01*
X4003344Y10702290D01*
X4006748Y10705744D01*
X4010101Y10707979D01*
X4014114Y10708690D01*
X4018026Y10707827D01*
X4021328Y10705490D01*
X4023461Y10702086D01*
X4076039Y10702086D01*
X4076039Y10752582D01*
X4076801Y10756442D01*
X4079036Y10759744D01*
X4082338Y10761980D01*
X4086199Y10762742D01*
X4143400Y10762742D01*
X4147261Y10761980D01*
X4150563Y10759744D01*
X4152798Y10756442D01*
X4153560Y10752582D01*
X4153560Y10702086D01*
X4205528Y10702086D01*
X4205528Y10739069D01*
X4204817Y10745419D01*
X4202887Y10750854D01*
X4199788Y10755782D01*
X4195724Y10759846D01*
X4193133Y10761472D01*
X4190390Y10764012D01*
X4188764Y10767314D01*
X4188409Y10771022D01*
X4189425Y10774578D01*
X4191914Y10777778D01*
X4260494Y10846358D01*
X4263644Y10849813D01*
X4266336Y10853318D01*
X4268724Y10857077D01*
X4270806Y10861040D01*
X4272483Y10865104D01*
X4273804Y10869371D01*
X4274769Y10873689D01*
X4275378Y10878108D01*
X4275582Y10882731D01*
X4275582Y11320627D01*
X4275378Y11325301D01*
X4274769Y11329670D01*
X4273804Y11334038D01*
X4272483Y11338255D01*
X4270806Y11342370D01*
X4268724Y11346281D01*
X4266336Y11350040D01*
X4263644Y11353596D01*
X4260494Y11357000D01*
X3791305Y11826189D01*
X3789121Y11829491D01*
X3788359Y11833402D01*
X3789121Y11837263D01*
X3791305Y11840565D01*
X3794607Y11842750D01*
X3798519Y11843562D01*
X3805580Y11843562D01*
X3811879Y11844274D01*
X3817365Y11846153D01*
X3822242Y11849252D01*
X3826357Y11853316D01*
X3829456Y11858244D01*
X3831336Y11863679D01*
X3832047Y11870029D01*
X3832047Y11933834D01*
X3832809Y11937746D01*
X3835044Y11941048D01*
X3838346Y11943232D01*
X3842207Y11943994D01*
X3846118Y11943232D01*
X3849420Y11941048D01*
X4354017Y11436400D01*
X4356201Y11433149D01*
X4356963Y11429238D01*
X4356963Y9612528D01*
X4356252Y9608718D01*
X4354169Y9605467D01*
X4349343Y9600488D01*
X4342688Y9590989D01*
X4337507Y9580575D01*
X4334002Y9569500D01*
X4332224Y9558020D01*
X4332224Y9546386D01*
X4334002Y9534906D01*
X4337507Y9523831D01*
X4342688Y9513417D01*
X4349343Y9503918D01*
X4357420Y9495536D01*
X4366666Y9488525D01*
X4376877Y9482988D01*
X4387799Y9479026D01*
X4399178Y9476841D01*
X4410811Y9476384D01*
X4422343Y9477705D01*
X4433519Y9480804D01*
X4444136Y9485528D01*
X4453890Y9491878D01*
X4462576Y9499600D01*
X4469942Y9508540D01*
X4475886Y9518548D01*
X4480255Y9529318D01*
X4482896Y9540595D01*
X4483760Y9552178D01*
X4482896Y9563811D01*
X4480255Y9575088D01*
X4475886Y9585858D01*
X4469942Y9595866D01*
X4462221Y9605162D01*
X4459681Y9608566D01*
X4458817Y9612731D01*
X4458817Y11454333D01*
X4458614Y11458956D01*
X4458004Y11463375D01*
X4457039Y11467693D01*
X4455718Y11471960D01*
X4454042Y11476024D01*
X4451959Y11479987D01*
X4449572Y11483746D01*
X4446879Y11487251D01*
X4443730Y11490706D01*
X3863340Y12071096D01*
X3859885Y12074245D01*
X3856380Y12076938D01*
X3852621Y12079325D01*
X3848658Y12081408D01*
X3844594Y12083084D01*
X3840327Y12084405D01*
X3836009Y12085370D01*
X3831590Y12085980D01*
X3826967Y12086183D01*
X3560064Y12086183D01*
X3555390Y12085980D01*
X3551021Y12085370D01*
X3546652Y12084405D01*
X3542436Y12083084D01*
X3538321Y12081408D01*
X3534410Y12079325D01*
X3530650Y12076938D01*
X3527145Y12074245D01*
X3523691Y12071096D01*
X3313125Y11860530D01*
X3309823Y11858294D01*
X3305911Y11857532D01*
X3226257Y11857532D01*
X3216960Y11856720D01*
X3208426Y11854434D01*
X3200349Y11850674D01*
X3193084Y11845594D01*
X3186836Y11839346D01*
X3181756Y11832082D01*
X3177997Y11824004D01*
X3175711Y11815470D01*
X3174898Y11806174D01*
X3174898Y11797690D01*
X3174136Y11793778D01*
X3171901Y11790476D01*
X3168599Y11788292D01*
X3164738Y11787530D01*
X3141319Y11787530D01*
X3135020Y11786819D01*
X3129534Y11784888D01*
X3124657Y11781790D01*
X3120542Y11777726D01*
X3117443Y11772798D01*
X3115564Y11767362D01*
X3114852Y11761012D01*
X3114852Y11693245D01*
X3114090Y11689334D01*
X3111855Y11686032D01*
X3108553Y11683847D01*
X3104692Y11683085D01*
X3100781Y11683847D01*
X3097479Y11686032D01*
X2896311Y11887149D01*
X2889453Y11892838D01*
X2887472Y11894261D01*
X2879852Y11898833D01*
X2877667Y11899950D01*
X2869438Y11903354D01*
X2867101Y11904116D01*
X2858465Y11906250D01*
X2856128Y11906656D01*
X2845155Y11907570D01*
X2841193Y11908739D01*
X2838043Y11911380D01*
X2836164Y11915089D01*
X2835960Y11919204D01*
X2837383Y11923115D01*
X2838856Y11925401D01*
X2840736Y11930837D01*
X2841447Y11937187D01*
X2841447Y12056770D01*
X2840736Y12063120D01*
X2838856Y12068556D01*
X2835757Y12073483D01*
X2831642Y12077547D01*
X2826766Y12080646D01*
X2821279Y12082526D01*
X2814980Y12083237D01*
X2791561Y12083237D01*
X2787700Y12084050D01*
X2784398Y12086234D01*
X2782163Y12089536D01*
X2781401Y12093397D01*
X2781401Y12111786D01*
X2781960Y12115038D01*
X2783535Y12117984D01*
X2785922Y12120219D01*
X2790088Y12123013D01*
X2800146Y12131852D01*
X2808935Y12141860D01*
X2816352Y12152985D01*
X2822295Y12164923D01*
X2826562Y12177572D01*
X2829153Y12190679D01*
X2830068Y12204344D01*
X2830068Y12251283D01*
X2829153Y12264948D01*
X2826562Y12278055D01*
X2822295Y12290704D01*
X2816352Y12302642D01*
X2808935Y12313767D01*
X2800146Y12323775D01*
X2790088Y12332614D01*
X2779014Y12340031D01*
X2767025Y12345924D01*
X2754376Y12350242D01*
X2741269Y12352832D01*
X2727960Y12353696D01*
X2714650Y12352832D01*
X2701544Y12350242D01*
X2688894Y12345924D01*
X2676906Y12340031D01*
X2665831Y12332614D01*
X2655773Y12323775D01*
X2646984Y12313767D01*
X2639568Y12302642D01*
X2633624Y12290704D01*
X2629357Y12278055D01*
X2626766Y12264948D01*
X2625852Y12251283D01*
X2625852Y12204344D01*
X2626766Y12190679D01*
X2629357Y12177572D01*
X2633624Y12164923D01*
X2639568Y12152985D01*
X2646984Y12141860D01*
X2655773Y12131852D01*
X2665831Y12123013D01*
X2675077Y12116816D01*
X2677515Y12114580D01*
X2679039Y12111634D01*
X2679598Y12108383D01*
X2679598Y12093397D01*
X2678836Y12089536D01*
X2676601Y12086234D01*
X2673299Y12084050D01*
X2669438Y12083237D01*
X2646019Y12083237D01*
X2639720Y12082526D01*
X2634234Y12080646D01*
X2629357Y12077547D01*
X2625242Y12073483D01*
X2622143Y12068556D01*
X2620264Y12063120D01*
X2619552Y12056770D01*
X2619552Y11937187D01*
X2620264Y11930837D01*
X2622143Y11925401D01*
X2623616Y11923115D01*
X2625039Y11919204D01*
X2624836Y11915089D01*
X2622956Y11911380D01*
X2619806Y11908739D01*
X2615844Y11907570D01*
X2604871Y11906656D01*
X2602484Y11906250D01*
X2593898Y11904116D01*
X2591562Y11903354D01*
X2583332Y11899950D01*
X2581148Y11898833D01*
X2573528Y11894261D01*
X2571496Y11892838D01*
X2564688Y11887149D01*
X2429052Y11751564D01*
X2423363Y11744706D01*
X2421940Y11742674D01*
X2417368Y11735054D01*
X2416251Y11732869D01*
X2412847Y11724640D01*
X2412085Y11722303D01*
X2409952Y11713718D01*
X2409545Y11711279D01*
X2408682Y11702440D01*
X2408631Y10453624D01*
X2407869Y10449712D01*
X2405684Y10446410D01*
X2326335Y10367060D01*
X2322728Y10364724D01*
X2318461Y10364114D01*
X2314346Y10365282D01*
X2311095Y10368076D01*
X2309215Y10371937D01*
X2307539Y10379151D01*
X2303221Y10389920D01*
X2297277Y10399928D01*
X2289505Y10409224D01*
X2287016Y10412628D01*
X2286101Y10416794D01*
X2286101Y11833402D01*
X2286863Y11837263D01*
X2289098Y11840565D01*
X2292400Y11842750D01*
X2296261Y11843562D01*
X2319680Y11843562D01*
X2325979Y11844274D01*
X2331466Y11846153D01*
X2336342Y11849252D01*
X2340457Y11853316D01*
X2343556Y11858244D01*
X2345436Y11863679D01*
X2346147Y11870029D01*
X2346147Y11989612D01*
X2345436Y11995962D01*
X2343556Y12001398D01*
X2340457Y12006326D01*
X2336342Y12010390D01*
X2331466Y12013488D01*
X2325979Y12015419D01*
X2319680Y12016130D01*
X2150719Y12016130D01*
X2144420Y12015419D01*
X2138934Y12013488D01*
X2134057Y12010390D01*
X2129942Y12006326D01*
X2126843Y12001398D01*
X2124964Y11995962D01*
X2124252Y11989612D01*
X2124252Y11870029D01*
X2124964Y11863679D01*
X2126843Y11858244D01*
X2129942Y11853316D01*
X2134057Y11849252D01*
X2138934Y11846153D01*
X2144420Y11844274D01*
X2150719Y11843562D01*
X2174138Y11843562D01*
X2177999Y11842750D01*
X2181301Y11840565D01*
X2183536Y11837263D01*
X2184298Y11833402D01*
X2184298Y10416590D01*
X2183536Y10412780D01*
X2181453Y10409529D01*
X2176678Y10404551D01*
X2169972Y10395051D01*
X2164842Y10384637D01*
X2161336Y10373563D01*
X2159558Y10362082D01*
X2159558Y10350449D01*
X2161336Y10338968D01*
X2164842Y10327894D01*
X2169972Y10317480D01*
X2174138Y10311587D01*
X2175662Y10308132D01*
X2175865Y10304373D01*
X2174697Y10300817D01*
X2172309Y10297922D01*
X2169007Y10296093D01*
X2166315Y10295229D01*
X2158085Y10291826D01*
X2155901Y10290708D01*
X2146249Y10284663D01*
X2139442Y10279024D01*
X1858467Y9998049D01*
X1853895Y9992563D01*
X1850847Y9990074D01*
X1847037Y9988905D01*
X1843125Y9989312D01*
X1839620Y9991191D01*
X1837131Y9994239D01*
X1835962Y9998049D01*
X1835150Y10006330D01*
X1832965Y10013543D01*
X1829409Y10020198D01*
X1824329Y10026396D01*
X1785518Y10065207D01*
X1783232Y10068610D01*
X1782521Y10072674D01*
X1786331Y10086797D01*
X1787194Y10096500D01*
X1786331Y10106202D01*
X1783842Y10115600D01*
X1779727Y10124440D01*
X1774139Y10132415D01*
X1767230Y10139273D01*
X1759254Y10144861D01*
X1750415Y10148976D01*
X1745996Y10150195D01*
X1742084Y10152227D01*
X1739442Y10155682D01*
X1738477Y10160000D01*
X1739442Y10164318D01*
X1742084Y10167772D01*
X1745996Y10169804D01*
X1750415Y10170972D01*
X1760220Y10175595D01*
X1763674Y10176560D01*
X1767179Y10176205D01*
X1770430Y10174681D01*
X1779473Y10168280D01*
X1788363Y10164165D01*
X1797812Y10161625D01*
X1807616Y10160762D01*
X1817420Y10161625D01*
X1826920Y10164165D01*
X1835810Y10168331D01*
X1843836Y10173919D01*
X1850796Y10180878D01*
X1856435Y10188956D01*
X1860600Y10197846D01*
X1863140Y10207345D01*
X1864004Y10217099D01*
X1863140Y10226903D01*
X1860600Y10236403D01*
X1856435Y10245293D01*
X1850796Y10253370D01*
X1843836Y10260330D01*
X1835810Y10265918D01*
X1826920Y10270083D01*
X1817420Y10272623D01*
X1807616Y10273487D01*
X1797812Y10272623D01*
X1788363Y10270083D01*
X1775663Y10264292D01*
X1771548Y10264292D01*
X1767738Y10265918D01*
X1759254Y10271861D01*
X1750415Y10275976D01*
X1741017Y10278516D01*
X1730857Y10279430D01*
X1611782Y10279430D01*
X1601622Y10278516D01*
X1592224Y10275976D01*
X1583385Y10271861D01*
X1575409Y10266273D01*
X1568500Y10259415D01*
X1562912Y10251440D01*
X1558798Y10242600D01*
X1556308Y10233202D01*
X1555445Y10223500D01*
X1556308Y10213797D01*
X1558798Y10204399D01*
X1562912Y10195560D01*
X1568500Y10187584D01*
X1575409Y10180726D01*
X1583385Y10175138D01*
X1592224Y10171023D01*
X1596644Y10169804D01*
X1600555Y10167772D01*
X1603197Y10164318D01*
X1604162Y10160000D01*
X1603197Y10155682D01*
X1600555Y10152227D01*
X1596644Y10150195D01*
X1592224Y10148976D01*
X1583385Y10144861D01*
X1575409Y10139273D01*
X1568500Y10132415D01*
X1562912Y10124440D01*
X1558798Y10115600D01*
X1556308Y10106202D01*
X1555445Y10096500D01*
X1556308Y10086797D01*
X1558798Y10077399D01*
X1562912Y10068560D01*
X1568500Y10060584D01*
X1575409Y10053726D01*
X1583385Y10048138D01*
X1592224Y10044023D01*
X1596644Y10042804D01*
X1600555Y10040772D01*
X1603197Y10037318D01*
X1604162Y10033000D01*
X1603197Y10028682D01*
X1600555Y10025227D01*
X1596644Y10023195D01*
X1592224Y10021976D01*
X1583385Y10017861D01*
X1575409Y10012273D01*
X1573987Y10010902D01*
X1570685Y10008666D01*
X1566824Y10007904D01*
X1424279Y10007904D01*
X1416304Y10007142D01*
X1409090Y10004958D01*
X1402486Y10001402D01*
X1396238Y9996322D01*
X976528Y9576562D01*
X973226Y9574377D01*
X969365Y9573615D01*
X932281Y9573615D01*
X928522Y9574326D01*
X925271Y9576409D01*
X923036Y9579559D01*
X922121Y9583318D01*
X922680Y9587128D01*
X924661Y9590430D01*
X933907Y9600996D01*
X941527Y9612376D01*
X944778Y9618980D01*
X896619Y9618980D01*
X896619Y9583775D01*
X895858Y9579864D01*
X893622Y9576562D01*
X890371Y9574377D01*
X886460Y9573615D01*
X815340Y9573615D01*
X811428Y9574377D01*
X808177Y9576562D01*
X805942Y9579864D01*
X805180Y9583775D01*
X805180Y9618980D01*
X757021Y9618980D01*
X760272Y9612376D01*
X767892Y9600996D01*
X776935Y9590735D01*
X786384Y9582404D01*
X788974Y9578898D01*
X789838Y9574580D01*
X788873Y9570364D01*
X786130Y9566910D01*
X780135Y9561982D01*
X743254Y9525101D01*
X739952Y9522866D01*
X736092Y9522104D01*
X732180Y9522866D01*
X728878Y9525101D01*
X726694Y9528403D01*
X725932Y9532264D01*
X725932Y12663881D01*
X726694Y12667792D01*
X728878Y12671094D01*
X732180Y12673279D01*
X736092Y12674041D01*
X5363921Y12674041D01*
X5367832Y12673279D01*
X5371084Y12671094D01*
X5373319Y12667792D01*
X5374081Y12663881D01*
X5374081Y5836056D01*
X5373319Y5832144D01*
X5371084Y5828893D01*
X5367832Y5826658D01*
X5363921Y5825896D01*
G37*

%LPC*%
G36*
X2718054Y6062065D02*
G01*
X2731363Y6062929D01*
X2744470Y6065520D01*
X2757119Y6069838D01*
X2769108Y6075730D01*
X2780182Y6083147D01*
X2790240Y6091986D01*
X2799029Y6101994D01*
X2806446Y6113119D01*
X2812389Y6125057D01*
X2816656Y6137706D01*
X2819247Y6150813D01*
X2820162Y6164478D01*
X2820162Y6211417D01*
X2819247Y6225082D01*
X2816656Y6238189D01*
X2812389Y6250838D01*
X2806446Y6262776D01*
X2799029Y6273901D01*
X2790240Y6283909D01*
X2780182Y6292748D01*
X2773222Y6297422D01*
X2770835Y6299657D01*
X2769260Y6302603D01*
X2768701Y6305854D01*
X2768701Y6347002D01*
X2769463Y6350863D01*
X2771698Y6354165D01*
X2775000Y6356350D01*
X2778861Y6357162D01*
X2802280Y6357162D01*
X2808579Y6357874D01*
X2814066Y6359753D01*
X2818942Y6362852D01*
X2823057Y6366916D01*
X2826156Y6371844D01*
X2828036Y6377279D01*
X2828747Y6383629D01*
X2828747Y6503212D01*
X2828036Y6509562D01*
X2826156Y6514998D01*
X2823057Y6519926D01*
X2818942Y6523990D01*
X2814066Y6527088D01*
X2808579Y6529019D01*
X2802280Y6529730D01*
X2633319Y6529730D01*
X2627020Y6529019D01*
X2621534Y6527088D01*
X2616657Y6523990D01*
X2612542Y6519926D01*
X2609443Y6514998D01*
X2607564Y6509562D01*
X2606852Y6503212D01*
X2606852Y6383629D01*
X2607564Y6377279D01*
X2609443Y6371844D01*
X2612542Y6366916D01*
X2616657Y6362852D01*
X2621534Y6359753D01*
X2627020Y6357874D01*
X2633319Y6357162D01*
X2656738Y6357162D01*
X2660599Y6356350D01*
X2663901Y6354165D01*
X2666136Y6350863D01*
X2666898Y6347002D01*
X2666898Y6305499D01*
X2666339Y6302248D01*
X2664815Y6299301D01*
X2662377Y6297066D01*
X2655925Y6292748D01*
X2645867Y6283909D01*
X2637078Y6273901D01*
X2629662Y6262776D01*
X2623718Y6250838D01*
X2619451Y6238189D01*
X2616860Y6225082D01*
X2615946Y6211417D01*
X2615946Y6164478D01*
X2616860Y6150813D01*
X2619451Y6137706D01*
X2623718Y6125057D01*
X2629662Y6113119D01*
X2637078Y6101994D01*
X2645867Y6091986D01*
X2655925Y6083147D01*
X2667000Y6075730D01*
X2678988Y6069838D01*
X2691638Y6065520D01*
X2704744Y6062929D01*
G37*
G36*
X2977896Y6062319D02*
G01*
X2991205Y6063183D01*
X3004312Y6065774D01*
X3016961Y6070092D01*
X3028950Y6075984D01*
X3040024Y6083401D01*
X3050082Y6092240D01*
X3058871Y6102248D01*
X3066288Y6113373D01*
X3072231Y6125311D01*
X3076498Y6137960D01*
X3079089Y6151067D01*
X3080004Y6164732D01*
X3080004Y6211671D01*
X3079089Y6225336D01*
X3076498Y6238443D01*
X3072231Y6251092D01*
X3066288Y6263030D01*
X3058871Y6274155D01*
X3050082Y6284163D01*
X3040024Y6293002D01*
X3028950Y6300419D01*
X3016961Y6306312D01*
X3004312Y6310630D01*
X2991205Y6313220D01*
X2977896Y6314084D01*
X2964586Y6313220D01*
X2951480Y6310630D01*
X2938830Y6306312D01*
X2926842Y6300419D01*
X2915767Y6293002D01*
X2905709Y6284163D01*
X2896920Y6274155D01*
X2889504Y6263030D01*
X2883560Y6251092D01*
X2879293Y6238443D01*
X2876702Y6225336D01*
X2875788Y6211671D01*
X2875788Y6164732D01*
X2876702Y6151067D01*
X2879293Y6137960D01*
X2883560Y6125311D01*
X2889504Y6113373D01*
X2896920Y6102248D01*
X2905709Y6092240D01*
X2915767Y6083401D01*
X2926842Y6075984D01*
X2938830Y6070092D01*
X2951480Y6065774D01*
X2964586Y6063183D01*
G37*
G36*
X2467864Y6062319D02*
G01*
X2481173Y6063183D01*
X2494280Y6065774D01*
X2506929Y6070092D01*
X2518918Y6075984D01*
X2529992Y6083401D01*
X2540050Y6092240D01*
X2548839Y6102248D01*
X2556256Y6113373D01*
X2562199Y6125311D01*
X2566466Y6137960D01*
X2569057Y6151067D01*
X2569972Y6164732D01*
X2569972Y6211671D01*
X2569057Y6225336D01*
X2566466Y6238443D01*
X2562199Y6251092D01*
X2556256Y6263030D01*
X2548839Y6274155D01*
X2540050Y6284163D01*
X2529992Y6293002D01*
X2518918Y6300419D01*
X2506929Y6306312D01*
X2494280Y6310630D01*
X2481173Y6313220D01*
X2467864Y6314084D01*
X2454554Y6313220D01*
X2441448Y6310630D01*
X2428798Y6306312D01*
X2416810Y6300419D01*
X2405735Y6293002D01*
X2395677Y6284163D01*
X2386888Y6274155D01*
X2379472Y6263030D01*
X2373528Y6251092D01*
X2372258Y6247231D01*
X2370124Y6243624D01*
X2366721Y6241186D01*
X2362606Y6240322D01*
X2356256Y6240322D01*
X2352598Y6240983D01*
X2349449Y6242913D01*
X2347214Y6245809D01*
X2346147Y6249365D01*
X2345436Y6255562D01*
X2343556Y6260998D01*
X2340457Y6265926D01*
X2336342Y6269990D01*
X2331466Y6273088D01*
X2325979Y6275019D01*
X2319680Y6275730D01*
X2150719Y6275730D01*
X2144420Y6275019D01*
X2138934Y6273088D01*
X2134057Y6269990D01*
X2129942Y6265926D01*
X2126843Y6260998D01*
X2124964Y6255562D01*
X2124252Y6249212D01*
X2124252Y6129629D01*
X2124964Y6123279D01*
X2126843Y6117844D01*
X2129942Y6112916D01*
X2134057Y6108852D01*
X2138934Y6105753D01*
X2144420Y6103874D01*
X2150719Y6103162D01*
X2319680Y6103162D01*
X2325979Y6103874D01*
X2331466Y6105753D01*
X2336342Y6108852D01*
X2340457Y6112916D01*
X2343556Y6117844D01*
X2345436Y6123279D01*
X2346096Y6129172D01*
X2347315Y6132931D01*
X2349855Y6135979D01*
X2353411Y6137808D01*
X2357323Y6138113D01*
X2363266Y6137452D01*
X2366924Y6136335D01*
X2369870Y6133947D01*
X2371750Y6130645D01*
X2373528Y6125311D01*
X2379472Y6113373D01*
X2386888Y6102248D01*
X2395677Y6092240D01*
X2405735Y6083401D01*
X2416810Y6075984D01*
X2428798Y6070092D01*
X2441448Y6065774D01*
X2454554Y6063183D01*
G37*
G36*
X3227832Y6072225D02*
G01*
X3241141Y6073089D01*
X3254248Y6075680D01*
X3266897Y6079998D01*
X3278886Y6085890D01*
X3289960Y6093307D01*
X3300018Y6102146D01*
X3308807Y6112154D01*
X3316224Y6123279D01*
X3322167Y6135217D01*
X3326434Y6147866D01*
X3329025Y6160973D01*
X3329940Y6174638D01*
X3329940Y6221577D01*
X3329025Y6235242D01*
X3326434Y6248349D01*
X3322167Y6260998D01*
X3316224Y6272936D01*
X3308807Y6284061D01*
X3300018Y6294069D01*
X3289960Y6302908D01*
X3281222Y6308750D01*
X3278835Y6310985D01*
X3277260Y6313932D01*
X3276701Y6317183D01*
X3276701Y6347002D01*
X3277463Y6350863D01*
X3279698Y6354165D01*
X3283000Y6356350D01*
X3286861Y6357162D01*
X3310280Y6357162D01*
X3316579Y6357874D01*
X3322065Y6359753D01*
X3326942Y6362852D01*
X3331057Y6366916D01*
X3334156Y6371844D01*
X3336036Y6377279D01*
X3336747Y6383629D01*
X3336747Y6503212D01*
X3336036Y6509562D01*
X3334156Y6514998D01*
X3331057Y6519926D01*
X3326942Y6523990D01*
X3322065Y6527088D01*
X3316579Y6529019D01*
X3310280Y6529730D01*
X3141319Y6529730D01*
X3135020Y6529019D01*
X3129534Y6527088D01*
X3124657Y6523990D01*
X3120542Y6519926D01*
X3117443Y6514998D01*
X3115564Y6509562D01*
X3114852Y6503212D01*
X3114852Y6383629D01*
X3115564Y6377279D01*
X3117443Y6371844D01*
X3120542Y6366916D01*
X3124657Y6362852D01*
X3129534Y6359753D01*
X3135020Y6357874D01*
X3141319Y6357162D01*
X3164738Y6357162D01*
X3168599Y6356350D01*
X3171901Y6354165D01*
X3174136Y6350863D01*
X3174898Y6347002D01*
X3174898Y6314490D01*
X3174339Y6311239D01*
X3172815Y6308293D01*
X3170377Y6306058D01*
X3165703Y6302908D01*
X3155645Y6294069D01*
X3146856Y6284061D01*
X3139440Y6272936D01*
X3133496Y6260998D01*
X3129229Y6248349D01*
X3126638Y6235242D01*
X3125724Y6221577D01*
X3125724Y6174638D01*
X3126638Y6160973D01*
X3129229Y6147866D01*
X3133496Y6135217D01*
X3139440Y6123279D01*
X3146856Y6112154D01*
X3155645Y6102146D01*
X3165703Y6093307D01*
X3176778Y6085890D01*
X3188766Y6079998D01*
X3201416Y6075680D01*
X3214522Y6073089D01*
G37*
G36*
X3477768Y6072225D02*
G01*
X3491077Y6073089D01*
X3504184Y6075680D01*
X3516833Y6079998D01*
X3528822Y6085890D01*
X3539896Y6093307D01*
X3549954Y6102146D01*
X3558743Y6112154D01*
X3566160Y6123279D01*
X3572103Y6135217D01*
X3574084Y6141110D01*
X3575761Y6144209D01*
X3578351Y6146495D01*
X3581603Y6147816D01*
X3585413Y6148578D01*
X3589528Y6148628D01*
X3593337Y6146952D01*
X3596182Y6143955D01*
X3597554Y6140043D01*
X3598113Y6136132D01*
X3600043Y6130544D01*
X3603142Y6125616D01*
X3607257Y6121552D01*
X3612134Y6118453D01*
X3617620Y6116574D01*
X3623919Y6115862D01*
X3792880Y6115862D01*
X3799179Y6116574D01*
X3804665Y6118453D01*
X3809542Y6121552D01*
X3813657Y6125616D01*
X3816756Y6130544D01*
X3818636Y6135979D01*
X3819347Y6142329D01*
X3819347Y6261912D01*
X3818636Y6268262D01*
X3816756Y6273698D01*
X3813657Y6278626D01*
X3809542Y6282690D01*
X3804665Y6285788D01*
X3799179Y6287719D01*
X3792880Y6288430D01*
X3623919Y6288430D01*
X3617620Y6287719D01*
X3612134Y6285788D01*
X3607257Y6282690D01*
X3603142Y6278626D01*
X3600043Y6273698D01*
X3598164Y6268262D01*
X3597452Y6262065D01*
X3596386Y6258509D01*
X3594150Y6255613D01*
X3591001Y6253683D01*
X3587343Y6253022D01*
X3582060Y6253022D01*
X3577945Y6253886D01*
X3574592Y6256324D01*
X3566160Y6272936D01*
X3558743Y6284061D01*
X3549954Y6294069D01*
X3539896Y6302908D01*
X3528822Y6310325D01*
X3516833Y6316218D01*
X3504184Y6320536D01*
X3491077Y6323126D01*
X3477768Y6323990D01*
X3464458Y6323126D01*
X3451351Y6320536D01*
X3438702Y6316218D01*
X3426714Y6310325D01*
X3415639Y6302908D01*
X3405581Y6294069D01*
X3396792Y6284061D01*
X3389376Y6272936D01*
X3383432Y6260998D01*
X3379165Y6248349D01*
X3376574Y6235242D01*
X3375660Y6221577D01*
X3375660Y6174638D01*
X3376574Y6160973D01*
X3379165Y6147866D01*
X3383432Y6135217D01*
X3389376Y6123279D01*
X3396792Y6112154D01*
X3405581Y6102146D01*
X3415639Y6093307D01*
X3426714Y6085890D01*
X3438702Y6079998D01*
X3451351Y6075680D01*
X3464458Y6073089D01*
G37*
G36*
X850900Y7528052D02*
G01*
X864565Y7528966D01*
X877976Y7531658D01*
X890930Y7536027D01*
X903224Y7542072D01*
X914603Y7549692D01*
X924864Y7558735D01*
X933907Y7568996D01*
X941527Y7580375D01*
X947572Y7592669D01*
X951941Y7605623D01*
X954633Y7619034D01*
X955548Y7632700D01*
X954633Y7646365D01*
X951941Y7659776D01*
X947572Y7672730D01*
X941527Y7685024D01*
X933907Y7696403D01*
X924864Y7706664D01*
X914603Y7715707D01*
X903224Y7723327D01*
X890930Y7729372D01*
X877976Y7733741D01*
X864565Y7736433D01*
X850900Y7737348D01*
X837234Y7736433D01*
X823823Y7733741D01*
X810869Y7729372D01*
X798576Y7723327D01*
X787196Y7715707D01*
X776935Y7706664D01*
X767892Y7696403D01*
X760272Y7685024D01*
X754227Y7672730D01*
X749858Y7659776D01*
X747166Y7646365D01*
X746252Y7632700D01*
X747166Y7619034D01*
X749858Y7605623D01*
X754227Y7592669D01*
X760272Y7580375D01*
X767892Y7568996D01*
X776935Y7558735D01*
X787196Y7549692D01*
X798576Y7542072D01*
X810869Y7536027D01*
X823823Y7531658D01*
X837234Y7528966D01*
G37*
G36*
X5245100Y7528052D02*
G01*
X5258765Y7528966D01*
X5272176Y7531658D01*
X5285130Y7536027D01*
X5297424Y7542072D01*
X5308803Y7549692D01*
X5319064Y7558735D01*
X5328107Y7568996D01*
X5335727Y7580375D01*
X5341772Y7592669D01*
X5346141Y7605623D01*
X5348833Y7619034D01*
X5349748Y7632700D01*
X5348833Y7646365D01*
X5346141Y7659776D01*
X5341772Y7672730D01*
X5335727Y7685024D01*
X5328107Y7696403D01*
X5319064Y7706664D01*
X5308803Y7715707D01*
X5297424Y7723327D01*
X5285130Y7729372D01*
X5272176Y7733741D01*
X5258765Y7736433D01*
X5245100Y7737348D01*
X5231434Y7736433D01*
X5218023Y7733741D01*
X5205069Y7729372D01*
X5192776Y7723327D01*
X5181396Y7715707D01*
X5171135Y7706664D01*
X5162092Y7696403D01*
X5154472Y7685024D01*
X5148427Y7672730D01*
X5144058Y7659776D01*
X5141366Y7646365D01*
X5140452Y7632700D01*
X5141366Y7619034D01*
X5144058Y7605623D01*
X5148427Y7592669D01*
X5154472Y7580375D01*
X5162092Y7568996D01*
X5171135Y7558735D01*
X5181396Y7549692D01*
X5192776Y7542072D01*
X5205069Y7536027D01*
X5218023Y7531658D01*
X5231434Y7528966D01*
G37*
G36*
X5245100Y7782052D02*
G01*
X5258765Y7782966D01*
X5272176Y7785658D01*
X5285130Y7790027D01*
X5297424Y7796072D01*
X5308803Y7803692D01*
X5319064Y7812735D01*
X5328107Y7822996D01*
X5335727Y7834375D01*
X5341772Y7846669D01*
X5346141Y7859623D01*
X5348833Y7873034D01*
X5349748Y7886700D01*
X5348833Y7900365D01*
X5346141Y7913776D01*
X5341772Y7926730D01*
X5335727Y7939024D01*
X5328107Y7950403D01*
X5319064Y7960664D01*
X5308803Y7969707D01*
X5297424Y7977327D01*
X5285130Y7983372D01*
X5272176Y7987741D01*
X5258765Y7990433D01*
X5245100Y7991348D01*
X5231434Y7990433D01*
X5218023Y7987741D01*
X5205069Y7983372D01*
X5192776Y7977327D01*
X5181396Y7969707D01*
X5171135Y7960664D01*
X5162092Y7950403D01*
X5154472Y7939024D01*
X5148427Y7926730D01*
X5144058Y7913776D01*
X5141366Y7900365D01*
X5140452Y7886700D01*
X5141366Y7873034D01*
X5144058Y7859623D01*
X5148427Y7846669D01*
X5154472Y7834375D01*
X5162092Y7822996D01*
X5171135Y7812735D01*
X5181396Y7803692D01*
X5192776Y7796072D01*
X5205069Y7790027D01*
X5218023Y7785658D01*
X5231434Y7782966D01*
G37*
G36*
X5245100Y8036052D02*
G01*
X5258765Y8036966D01*
X5272176Y8039658D01*
X5285130Y8044027D01*
X5297424Y8050072D01*
X5308803Y8057692D01*
X5319064Y8066735D01*
X5328107Y8076996D01*
X5335727Y8088375D01*
X5341772Y8100669D01*
X5346141Y8113623D01*
X5348833Y8127034D01*
X5349748Y8140700D01*
X5348833Y8154365D01*
X5346141Y8167776D01*
X5341772Y8180730D01*
X5335727Y8193024D01*
X5328107Y8204403D01*
X5319064Y8214664D01*
X5308803Y8223707D01*
X5297424Y8231327D01*
X5285130Y8237372D01*
X5272176Y8241741D01*
X5258765Y8244433D01*
X5245100Y8245348D01*
X5231434Y8244433D01*
X5218023Y8241741D01*
X5205069Y8237372D01*
X5192776Y8231327D01*
X5181396Y8223707D01*
X5171135Y8214664D01*
X5162092Y8204403D01*
X5154472Y8193024D01*
X5148427Y8180730D01*
X5144058Y8167776D01*
X5141366Y8154365D01*
X5140452Y8140700D01*
X5141366Y8127034D01*
X5144058Y8113623D01*
X5148427Y8100669D01*
X5154472Y8088375D01*
X5162092Y8076996D01*
X5171135Y8066735D01*
X5181396Y8057692D01*
X5192776Y8050072D01*
X5205069Y8044027D01*
X5218023Y8039658D01*
X5231434Y8036966D01*
G37*
G36*
X5245100Y8290052D02*
G01*
X5258765Y8290966D01*
X5272176Y8293658D01*
X5285130Y8298027D01*
X5297424Y8304072D01*
X5308803Y8311692D01*
X5319064Y8320735D01*
X5328107Y8330996D01*
X5335727Y8342375D01*
X5341772Y8354669D01*
X5346141Y8367623D01*
X5348833Y8381034D01*
X5349748Y8394700D01*
X5348833Y8408365D01*
X5346141Y8421776D01*
X5341772Y8434730D01*
X5335727Y8447024D01*
X5328107Y8458403D01*
X5319064Y8468664D01*
X5308803Y8477707D01*
X5297424Y8485327D01*
X5285130Y8491372D01*
X5272176Y8495741D01*
X5258765Y8498433D01*
X5245100Y8499348D01*
X5231434Y8498433D01*
X5218023Y8495741D01*
X5205069Y8491372D01*
X5192776Y8485327D01*
X5181396Y8477707D01*
X5171135Y8468664D01*
X5162092Y8458403D01*
X5154472Y8447024D01*
X5148427Y8434730D01*
X5144058Y8421776D01*
X5141366Y8408365D01*
X5140452Y8394700D01*
X5141366Y8381034D01*
X5144058Y8367623D01*
X5148427Y8354669D01*
X5154472Y8342375D01*
X5162092Y8330996D01*
X5171135Y8320735D01*
X5181396Y8311692D01*
X5192776Y8304072D01*
X5205069Y8298027D01*
X5218023Y8293658D01*
X5231434Y8290966D01*
G37*
G36*
X5245100Y8544052D02*
G01*
X5258765Y8544966D01*
X5272176Y8547658D01*
X5285130Y8552027D01*
X5297424Y8558072D01*
X5308803Y8565692D01*
X5319064Y8574735D01*
X5328107Y8584996D01*
X5335727Y8596376D01*
X5341772Y8608669D01*
X5346141Y8621623D01*
X5348833Y8635034D01*
X5349748Y8648700D01*
X5348833Y8662365D01*
X5346141Y8675776D01*
X5341772Y8688730D01*
X5335727Y8701024D01*
X5328107Y8712403D01*
X5319064Y8722664D01*
X5308803Y8731707D01*
X5297424Y8739327D01*
X5285130Y8745372D01*
X5272176Y8749741D01*
X5258765Y8752433D01*
X5245100Y8753348D01*
X5231434Y8752433D01*
X5218023Y8749741D01*
X5205069Y8745372D01*
X5192776Y8739327D01*
X5181396Y8731707D01*
X5171135Y8722664D01*
X5162092Y8712403D01*
X5154472Y8701024D01*
X5148427Y8688730D01*
X5144058Y8675776D01*
X5141366Y8662365D01*
X5140452Y8648700D01*
X5141366Y8635034D01*
X5144058Y8621623D01*
X5148427Y8608669D01*
X5154472Y8596376D01*
X5162092Y8584996D01*
X5171135Y8574735D01*
X5181396Y8565692D01*
X5192776Y8558072D01*
X5205069Y8552027D01*
X5218023Y8547658D01*
X5231434Y8544966D01*
G37*
G36*
X5245100Y8798052D02*
G01*
X5258765Y8798966D01*
X5272176Y8801658D01*
X5285130Y8806027D01*
X5297424Y8812072D01*
X5308803Y8819692D01*
X5319064Y8828735D01*
X5328107Y8838996D01*
X5335727Y8850376D01*
X5341772Y8862669D01*
X5346141Y8875623D01*
X5348833Y8889034D01*
X5349748Y8902700D01*
X5348833Y8916365D01*
X5346141Y8929776D01*
X5341772Y8942730D01*
X5335727Y8955024D01*
X5328107Y8966403D01*
X5319064Y8976664D01*
X5308803Y8985707D01*
X5297424Y8993327D01*
X5285130Y8999372D01*
X5272176Y9003741D01*
X5258765Y9006433D01*
X5245100Y9007348D01*
X5231434Y9006433D01*
X5218023Y9003741D01*
X5205069Y8999372D01*
X5192776Y8993327D01*
X5181396Y8985707D01*
X5171135Y8976664D01*
X5162092Y8966403D01*
X5154472Y8955024D01*
X5148427Y8942730D01*
X5144058Y8929776D01*
X5141366Y8916365D01*
X5140452Y8902700D01*
X5141366Y8889034D01*
X5144058Y8875623D01*
X5148427Y8862669D01*
X5154472Y8850376D01*
X5162092Y8838996D01*
X5171135Y8828735D01*
X5181396Y8819692D01*
X5192776Y8812072D01*
X5205069Y8806027D01*
X5218023Y8801658D01*
X5231434Y8798966D01*
G37*
G36*
X5245100Y9052052D02*
G01*
X5258765Y9052966D01*
X5272176Y9055658D01*
X5285130Y9060027D01*
X5297424Y9066072D01*
X5308803Y9073692D01*
X5319064Y9082735D01*
X5328107Y9092996D01*
X5335727Y9104376D01*
X5341772Y9116669D01*
X5346141Y9129623D01*
X5348833Y9143034D01*
X5349748Y9156700D01*
X5348833Y9170365D01*
X5346141Y9183776D01*
X5341772Y9196730D01*
X5335727Y9209024D01*
X5328107Y9220403D01*
X5319064Y9230664D01*
X5308803Y9239707D01*
X5297424Y9247327D01*
X5285130Y9253372D01*
X5272176Y9257741D01*
X5258765Y9260433D01*
X5245100Y9261348D01*
X5231434Y9260433D01*
X5218023Y9257741D01*
X5205069Y9253372D01*
X5192776Y9247327D01*
X5181396Y9239707D01*
X5171135Y9230664D01*
X5162092Y9220403D01*
X5154472Y9209024D01*
X5148427Y9196730D01*
X5144058Y9183776D01*
X5141366Y9170365D01*
X5140452Y9156700D01*
X5141366Y9143034D01*
X5144058Y9129623D01*
X5148427Y9116669D01*
X5154472Y9104376D01*
X5162092Y9092996D01*
X5171135Y9082735D01*
X5181396Y9073692D01*
X5192776Y9066072D01*
X5205069Y9060027D01*
X5218023Y9055658D01*
X5231434Y9052966D01*
G37*
G36*
X5245100Y9306052D02*
G01*
X5258765Y9306966D01*
X5272176Y9309658D01*
X5285130Y9314027D01*
X5297424Y9320072D01*
X5308803Y9327692D01*
X5319064Y9336735D01*
X5328107Y9346996D01*
X5335727Y9358376D01*
X5341772Y9370669D01*
X5346141Y9383623D01*
X5348833Y9397034D01*
X5349748Y9410700D01*
X5348833Y9424365D01*
X5346141Y9437776D01*
X5341772Y9450730D01*
X5335727Y9463024D01*
X5328107Y9474403D01*
X5319064Y9484664D01*
X5308803Y9493707D01*
X5297424Y9501327D01*
X5285130Y9507372D01*
X5272176Y9511741D01*
X5258765Y9514433D01*
X5245100Y9515348D01*
X5231434Y9514433D01*
X5218023Y9511741D01*
X5205069Y9507372D01*
X5192776Y9501327D01*
X5181396Y9493707D01*
X5171135Y9484664D01*
X5162092Y9474403D01*
X5154472Y9463024D01*
X5148427Y9450730D01*
X5144058Y9437776D01*
X5141366Y9424365D01*
X5140452Y9410700D01*
X5141366Y9397034D01*
X5144058Y9383623D01*
X5148427Y9370669D01*
X5154472Y9358376D01*
X5162092Y9346996D01*
X5171135Y9336735D01*
X5181396Y9327692D01*
X5192776Y9320072D01*
X5205069Y9314027D01*
X5218023Y9309658D01*
X5231434Y9306966D01*
G37*
G36*
X5290820Y9570821D02*
G01*
X5297424Y9574072D01*
X5308803Y9581692D01*
X5319064Y9590735D01*
X5328107Y9600996D01*
X5335727Y9612376D01*
X5338978Y9618980D01*
X5290820Y9618980D01*
G37*
G36*
X5199380Y9570821D02*
G01*
X5199380Y9618980D01*
X5151221Y9618980D01*
X5154472Y9612376D01*
X5162092Y9600996D01*
X5171135Y9590735D01*
X5181396Y9581692D01*
X5192776Y9574072D01*
G37*
G36*
X896619Y9710420D02*
G01*
X944778Y9710420D01*
X941527Y9717024D01*
X933907Y9728403D01*
X924864Y9738664D01*
X914603Y9747707D01*
X903224Y9755327D01*
X896619Y9758578D01*
G37*
G36*
X757021Y9710420D02*
G01*
X805180Y9710420D01*
X805180Y9758578D01*
X798576Y9755327D01*
X787196Y9747707D01*
X776935Y9738664D01*
X767892Y9728403D01*
X760272Y9717024D01*
G37*
G36*
X5151221Y9710420D02*
G01*
X5199380Y9710420D01*
X5199380Y9758578D01*
X5192776Y9755327D01*
X5181396Y9747707D01*
X5171135Y9738664D01*
X5162092Y9728403D01*
X5154472Y9717024D01*
G37*
G36*
X5290820Y9710420D02*
G01*
X5338978Y9710420D01*
X5335727Y9717024D01*
X5328107Y9728403D01*
X5319064Y9738664D01*
X5308803Y9747707D01*
X5297424Y9755327D01*
X5290820Y9758578D01*
G37*
G36*
X772718Y9814052D02*
G01*
X805180Y9814052D01*
X805180Y9872980D01*
X746252Y9872980D01*
X746252Y9840518D01*
X746963Y9834219D01*
X748893Y9828733D01*
X751941Y9823856D01*
X756056Y9819741D01*
X760933Y9816693D01*
X766419Y9814763D01*
G37*
G36*
X896619Y9814052D02*
G01*
X929081Y9814052D01*
X935380Y9814763D01*
X940866Y9816693D01*
X945743Y9819741D01*
X949858Y9823856D01*
X952906Y9828733D01*
X954836Y9834219D01*
X955548Y9840518D01*
X955548Y9872980D01*
X896619Y9872980D01*
G37*
G36*
X5166918Y9814052D02*
G01*
X5199380Y9814052D01*
X5199380Y9872980D01*
X5140452Y9872980D01*
X5140452Y9840518D01*
X5141163Y9834219D01*
X5143093Y9828733D01*
X5146141Y9823856D01*
X5150256Y9819741D01*
X5155133Y9816693D01*
X5160619Y9814763D01*
G37*
G36*
X5290820Y9814052D02*
G01*
X5323281Y9814052D01*
X5329580Y9814763D01*
X5335066Y9816693D01*
X5339943Y9819741D01*
X5344058Y9823856D01*
X5347106Y9828733D01*
X5349036Y9834219D01*
X5349748Y9840518D01*
X5349748Y9872980D01*
X5290820Y9872980D01*
G37*
G36*
X746252Y9964420D02*
G01*
X805180Y9964420D01*
X805180Y10023348D01*
X772718Y10023348D01*
X766419Y10022636D01*
X760933Y10020706D01*
X756056Y10017658D01*
X751941Y10013543D01*
X748893Y10008666D01*
X746963Y10003180D01*
X746252Y9996881D01*
G37*
G36*
X896619Y9964420D02*
G01*
X955548Y9964420D01*
X955548Y9996881D01*
X954836Y10003180D01*
X952906Y10008666D01*
X949858Y10013543D01*
X945743Y10017658D01*
X940866Y10020706D01*
X935380Y10022636D01*
X929081Y10023348D01*
X896619Y10023348D01*
G37*
G36*
X5290820Y9964420D02*
G01*
X5349748Y9964420D01*
X5349748Y9996881D01*
X5349036Y10003180D01*
X5347106Y10008666D01*
X5344058Y10013543D01*
X5339943Y10017658D01*
X5335066Y10020706D01*
X5329580Y10022636D01*
X5323281Y10023348D01*
X5290820Y10023348D01*
G37*
G36*
X5140452Y9964420D02*
G01*
X5199380Y9964420D01*
X5199380Y10023348D01*
X5166918Y10023348D01*
X5160619Y10022636D01*
X5155133Y10020706D01*
X5150256Y10017658D01*
X5146141Y10013543D01*
X5143093Y10008666D01*
X5141163Y10003180D01*
X5140452Y9996881D01*
G37*
G36*
X4158335Y10256570D02*
G01*
X4226204Y10256570D01*
X4223156Y10263124D01*
X4217771Y10270845D01*
X4211116Y10277449D01*
X4203446Y10282834D01*
X4194911Y10286796D01*
X4185869Y10289235D01*
X4176064Y10290098D01*
X4158335Y10290098D01*
G37*
G36*
X4050588Y10538002D02*
G01*
X4076039Y10538002D01*
X4076039Y10601502D01*
X4024071Y10601502D01*
X4024071Y10564469D01*
X4024782Y10558170D01*
X4026712Y10552684D01*
X4029811Y10547807D01*
X4033875Y10543692D01*
X4038803Y10540593D01*
X4044238Y10538714D01*
G37*
G36*
X4153560Y10538002D02*
G01*
X4179011Y10538002D01*
X4185361Y10538714D01*
X4190796Y10540593D01*
X4195724Y10543692D01*
X4199788Y10547807D01*
X4202887Y10552684D01*
X4204817Y10558170D01*
X4205528Y10564469D01*
X4205528Y10601502D01*
X4153560Y10601502D01*
G37*
G36*
X3141319Y11910669D02*
G01*
X3310280Y11910669D01*
X3316579Y11911380D01*
X3322065Y11913311D01*
X3326942Y11916410D01*
X3331057Y11920474D01*
X3334156Y11925401D01*
X3336036Y11930837D01*
X3336747Y11937187D01*
X3336747Y12056770D01*
X3336036Y12063120D01*
X3334156Y12068556D01*
X3331057Y12073483D01*
X3326942Y12077547D01*
X3322065Y12080646D01*
X3316579Y12082526D01*
X3310280Y12083237D01*
X3286861Y12083237D01*
X3283000Y12084050D01*
X3279698Y12086234D01*
X3277463Y12089536D01*
X3276701Y12093397D01*
X3276701Y12108992D01*
X3277260Y12112244D01*
X3278835Y12115190D01*
X3281222Y12117425D01*
X3289960Y12123267D01*
X3300018Y12132106D01*
X3308807Y12142114D01*
X3316224Y12153239D01*
X3322167Y12165177D01*
X3326434Y12177826D01*
X3329025Y12190933D01*
X3329940Y12204598D01*
X3329940Y12251537D01*
X3329025Y12265202D01*
X3326434Y12278309D01*
X3322167Y12290958D01*
X3316224Y12302896D01*
X3308807Y12314021D01*
X3300018Y12324029D01*
X3289960Y12332868D01*
X3278886Y12340285D01*
X3266897Y12346178D01*
X3254248Y12350496D01*
X3241141Y12353086D01*
X3227832Y12353950D01*
X3214522Y12353086D01*
X3201416Y12350496D01*
X3188766Y12346178D01*
X3176778Y12340285D01*
X3165703Y12332868D01*
X3155645Y12324029D01*
X3146856Y12314021D01*
X3139440Y12302896D01*
X3133496Y12290958D01*
X3129229Y12278309D01*
X3126638Y12265202D01*
X3125724Y12251537D01*
X3125724Y12204598D01*
X3126638Y12190933D01*
X3129229Y12177826D01*
X3133496Y12165177D01*
X3139440Y12153239D01*
X3146856Y12142114D01*
X3155645Y12132106D01*
X3165703Y12123267D01*
X3170377Y12120118D01*
X3172815Y12117882D01*
X3174339Y12114936D01*
X3174898Y12111685D01*
X3174898Y12093397D01*
X3174136Y12089536D01*
X3171901Y12086234D01*
X3168599Y12084050D01*
X3164738Y12083237D01*
X3141319Y12083237D01*
X3135020Y12082526D01*
X3129534Y12080646D01*
X3124657Y12077547D01*
X3120542Y12073483D01*
X3117443Y12068556D01*
X3115564Y12063120D01*
X3114852Y12056770D01*
X3114852Y11937187D01*
X3115564Y11930837D01*
X3117443Y11925401D01*
X3120542Y11920474D01*
X3124657Y11916410D01*
X3129534Y11913311D01*
X3135020Y11911380D01*
G37*
G36*
X2977896Y12101931D02*
G01*
X2991205Y12102795D01*
X3004312Y12105386D01*
X3016961Y12109704D01*
X3028950Y12115596D01*
X3040024Y12123013D01*
X3050082Y12131852D01*
X3058871Y12141860D01*
X3066288Y12152985D01*
X3072231Y12164923D01*
X3076498Y12177572D01*
X3079089Y12190679D01*
X3080004Y12204344D01*
X3080004Y12251283D01*
X3079089Y12264948D01*
X3076498Y12278055D01*
X3072231Y12290704D01*
X3066288Y12302642D01*
X3058871Y12313767D01*
X3050082Y12323775D01*
X3040024Y12332614D01*
X3028950Y12340031D01*
X3016961Y12345924D01*
X3004312Y12350242D01*
X2991205Y12352832D01*
X2977896Y12353696D01*
X2964586Y12352832D01*
X2951480Y12350242D01*
X2938830Y12345924D01*
X2926842Y12340031D01*
X2915767Y12332614D01*
X2905709Y12323775D01*
X2896920Y12313767D01*
X2889504Y12302642D01*
X2883560Y12290704D01*
X2879293Y12278055D01*
X2876702Y12264948D01*
X2875788Y12251283D01*
X2875788Y12204344D01*
X2876702Y12190679D01*
X2879293Y12177572D01*
X2883560Y12164923D01*
X2889504Y12152985D01*
X2896920Y12141860D01*
X2905709Y12131852D01*
X2915767Y12123013D01*
X2926842Y12115596D01*
X2938830Y12109704D01*
X2951480Y12105386D01*
X2964586Y12102795D01*
G37*
G36*
X2468118Y12101931D02*
G01*
X2481427Y12102795D01*
X2494534Y12105386D01*
X2507183Y12109704D01*
X2519172Y12115596D01*
X2530246Y12123013D01*
X2540304Y12131852D01*
X2549093Y12141860D01*
X2556510Y12152985D01*
X2562453Y12164923D01*
X2566720Y12177572D01*
X2569311Y12190679D01*
X2570226Y12204344D01*
X2570226Y12251283D01*
X2569311Y12264948D01*
X2566720Y12278055D01*
X2562453Y12290704D01*
X2556510Y12302642D01*
X2549093Y12313767D01*
X2540304Y12323775D01*
X2530246Y12332614D01*
X2519172Y12340031D01*
X2507183Y12345924D01*
X2494534Y12350242D01*
X2481427Y12352832D01*
X2468118Y12353696D01*
X2454808Y12352832D01*
X2441702Y12350242D01*
X2429052Y12345924D01*
X2417064Y12340031D01*
X2405989Y12332614D01*
X2395931Y12323775D01*
X2387142Y12313767D01*
X2379726Y12302642D01*
X2373782Y12290704D01*
X2372004Y12285370D01*
X2370175Y12282170D01*
X2367330Y12279782D01*
X2363825Y12278614D01*
X2357577Y12277699D01*
X2353513Y12277902D01*
X2349906Y12279680D01*
X2347264Y12282779D01*
X2346045Y12286589D01*
X2345436Y12291720D01*
X2343556Y12297156D01*
X2340457Y12302083D01*
X2336342Y12306147D01*
X2331466Y12309246D01*
X2325979Y12311126D01*
X2319680Y12311837D01*
X2150719Y12311837D01*
X2144420Y12311126D01*
X2138934Y12309246D01*
X2134057Y12306147D01*
X2129942Y12302083D01*
X2126843Y12297156D01*
X2124964Y12291720D01*
X2124252Y12285370D01*
X2124252Y12165787D01*
X2124964Y12159437D01*
X2126843Y12154001D01*
X2129942Y12149074D01*
X2134057Y12145010D01*
X2138934Y12141911D01*
X2144420Y12139980D01*
X2150719Y12139269D01*
X2319680Y12139269D01*
X2325979Y12139980D01*
X2331466Y12141911D01*
X2336342Y12145010D01*
X2340457Y12149074D01*
X2343556Y12154001D01*
X2345436Y12159437D01*
X2346147Y12165634D01*
X2347214Y12169190D01*
X2349449Y12172086D01*
X2352598Y12174016D01*
X2356256Y12174677D01*
X2363216Y12174677D01*
X2367330Y12173813D01*
X2370734Y12171375D01*
X2372817Y12167768D01*
X2373782Y12164923D01*
X2379726Y12152985D01*
X2387142Y12141860D01*
X2395931Y12131852D01*
X2405989Y12123013D01*
X2417064Y12115596D01*
X2429052Y12109704D01*
X2441702Y12105386D01*
X2454808Y12102795D01*
G37*
G36*
X3487928Y12101931D02*
G01*
X3501237Y12102795D01*
X3514344Y12105386D01*
X3526993Y12109704D01*
X3538982Y12115596D01*
X3550056Y12123013D01*
X3560114Y12131852D01*
X3568903Y12141860D01*
X3576320Y12152985D01*
X3582263Y12164923D01*
X3583228Y12167768D01*
X3585311Y12171375D01*
X3588715Y12173813D01*
X3592829Y12174677D01*
X3600043Y12174677D01*
X3603701Y12174016D01*
X3606850Y12172086D01*
X3609086Y12169190D01*
X3610152Y12165634D01*
X3610864Y12159437D01*
X3612743Y12154001D01*
X3615842Y12149074D01*
X3619957Y12145010D01*
X3624834Y12141911D01*
X3630320Y12139980D01*
X3636619Y12139269D01*
X3805580Y12139269D01*
X3811879Y12139980D01*
X3817365Y12141911D01*
X3822242Y12145010D01*
X3826357Y12149074D01*
X3829456Y12154001D01*
X3831336Y12159437D01*
X3832047Y12165787D01*
X3832047Y12285370D01*
X3831336Y12291720D01*
X3829456Y12297156D01*
X3826357Y12302083D01*
X3822242Y12306147D01*
X3817365Y12309246D01*
X3811879Y12311126D01*
X3805580Y12311837D01*
X3636619Y12311837D01*
X3630320Y12311126D01*
X3624834Y12309246D01*
X3619957Y12306147D01*
X3615842Y12302083D01*
X3612743Y12297156D01*
X3610864Y12291720D01*
X3610254Y12286589D01*
X3609035Y12282779D01*
X3606393Y12279731D01*
X3602786Y12277953D01*
X3598773Y12277699D01*
X3592271Y12278563D01*
X3588715Y12279782D01*
X3585870Y12282119D01*
X3584041Y12285370D01*
X3582263Y12290704D01*
X3576320Y12302642D01*
X3568903Y12313767D01*
X3560114Y12323775D01*
X3550056Y12332614D01*
X3538982Y12340031D01*
X3526993Y12345924D01*
X3514344Y12350242D01*
X3501237Y12352832D01*
X3487928Y12353696D01*
X3474618Y12352832D01*
X3461512Y12350242D01*
X3448862Y12345924D01*
X3436874Y12340031D01*
X3425799Y12332614D01*
X3415741Y12323775D01*
X3406952Y12313767D01*
X3399536Y12302642D01*
X3393592Y12290704D01*
X3389325Y12278055D01*
X3386734Y12264948D01*
X3385820Y12251283D01*
X3385820Y12204344D01*
X3386734Y12190679D01*
X3389325Y12177572D01*
X3393592Y12164923D01*
X3399536Y12152985D01*
X3406952Y12141860D01*
X3415741Y12131852D01*
X3425799Y12123013D01*
X3436874Y12115596D01*
X3448862Y12109704D01*
X3461512Y12105386D01*
X3474618Y12102795D01*
G37*

%LPD*%
D10*
X1671322Y9842500D02*
G01*
X1437515Y9842500D01*
X878715Y9283700D01*
X1665302Y9086900D02*
G01*
X1665302Y9068104D01*
X1665302Y9182100D02*
G01*
X1665302Y9086900D01*
X1665302Y9182100D02*
G01*
X1665302Y9277324D01*
X1665302Y9277324D02*
G01*
X1671322Y9283344D01*
X1671322Y9334500D01*
X1671322Y10223500D02*
G01*
X1677697Y10217124D01*
X1807618Y10217124D01*
D11*
X3139493Y9220200D02*
G01*
X3139493Y9121927D01*
X3225802Y11701221D02*
G01*
X3225802Y11806631D01*
X3225802Y11806631D02*
G01*
X3331212Y11806631D01*
X3559837Y12035256D01*
X3827172Y12035256D01*
X4407893Y11454536D01*
X4407893Y9552203D01*
X2235202Y11929821D02*
G01*
X2235202Y10356265D01*
X3139493Y9982200D02*
G01*
X3200554Y9982200D01*
X3495398Y9687356D01*
X3495398Y9290888D01*
D10*
X1813410Y9466961D02*
G01*
X1676783Y9466961D01*
X1671322Y9461500D01*
X4099511Y9220200D02*
G01*
X3913431Y9220200D01*
X3901823Y9231807D01*
X2265682Y10096500D02*
G01*
X2266317Y10095864D01*
X2405915Y10095864D01*
X4099511Y10109200D02*
G01*
X4168320Y10109200D01*
X4224733Y10165613D01*
X4099511Y9982200D02*
G01*
X4182518Y9982200D01*
X4235604Y9929113D01*
X2406042Y9939781D02*
G01*
X2295400Y9939781D01*
X2265682Y9969500D01*
X4099511Y9855200D02*
G01*
X4089478Y9865233D01*
X3945968Y9865233D01*
X2388745Y9794544D02*
G01*
X2340790Y9842500D01*
X2265682Y9842500D01*
X4099511Y9728200D02*
G01*
X4058693Y9769017D01*
X3956509Y9769017D01*
X2402207Y9715500D02*
G01*
X2265682Y9715500D01*
X4099511Y9601200D02*
G01*
X3947518Y9601200D01*
X2403426Y9588500D02*
G01*
X2265682Y9588500D01*
X4099511Y9474200D02*
G01*
X3947314Y9474200D01*
X2401470Y9461500D02*
G01*
X2265682Y9461500D01*
X2265682Y9334500D02*
G01*
X2300505Y9369323D01*
X2434922Y9369323D01*
X4099511Y9347200D02*
G01*
X3945308Y9347200D01*
X1671322Y9969500D02*
G01*
X1423774Y9969500D01*
X989459Y9535185D01*
X807671Y9535185D01*
X730430Y9457944D01*
X730430Y8769172D01*
X850902Y8648700D01*
D12*
X1865302Y9319666D02*
G01*
X1913968Y9368332D01*
X1913968Y9946284D01*
X2191184Y10223500D01*
X2265682Y10223500D01*
X850902Y8140700D02*
G01*
X961443Y8140700D01*
X1865302Y9044559D01*
X3621102Y10426700D02*
G01*
X3329993Y10426700D01*
X3139493Y10236200D01*
X1865302Y9182100D02*
G01*
X1865302Y9044559D01*
X1865302Y9238310D02*
G01*
X1865302Y9182100D01*
X1865302Y9238310D02*
G01*
X1865302Y9319666D01*
X4114802Y10989030D02*
G01*
X3979953Y10989030D01*
X3621102Y10426700D02*
G01*
X3621102Y10564266D01*
X3621102Y10564266D02*
G01*
X3979953Y10923117D01*
X3979953Y10989030D01*
D10*
X1797535Y9715500D02*
G01*
X1797535Y9555657D01*
X1761263Y9519386D01*
X1572999Y9519386D01*
X1301396Y9247784D01*
X1301396Y8678570D01*
X890526Y8267700D01*
X807316Y8267700D01*
X730430Y8190814D01*
X730430Y8007172D01*
X850902Y7886700D01*
X1671322Y10096500D02*
G01*
X1699897Y10096500D01*
X1797535Y9998862D01*
X1797535Y9715500D01*
X1797535Y9715500D02*
G01*
X1671322Y9715500D01*
D11*
X3708402Y6497878D02*
G01*
X3708402Y9597466D01*
X3196668Y10109200D01*
X3139493Y10109200D01*
X3708402Y6202121D02*
G01*
X3578329Y6202121D01*
X3477770Y6198107D02*
G01*
X3574315Y6198107D01*
X3578329Y6202121D01*
X2235202Y12225578D02*
G01*
X2365275Y12225578D01*
X2468120Y12227813D02*
G01*
X2367511Y12227813D01*
X2365275Y12225578D01*
X2727962Y12227813D02*
G01*
X2730502Y12225274D01*
X2730502Y11996978D01*
X3139493Y9728200D02*
G01*
X3083206Y9728200D01*
X2235202Y8880195D01*
X2235202Y6485178D01*
X2235202Y6189421D02*
G01*
X2365275Y6189421D01*
X2467866Y6188202D02*
G01*
X2366495Y6188202D01*
X2365275Y6189421D01*
X3139493Y9601200D02*
G01*
X3076348Y9601200D01*
X2717802Y9242653D01*
X2717802Y6739178D01*
X2718056Y6187947D02*
G01*
X2717802Y6188202D01*
X2717802Y6443421D01*
X3225802Y6739178D02*
G01*
X3225802Y6844588D01*
X3139493Y9474200D02*
G01*
X3071192Y9474200D01*
X2973986Y9376994D01*
X2973986Y7096404D01*
X3225802Y6844588D01*
X3227834Y6198107D02*
G01*
X3225802Y6200139D01*
X3225802Y6443421D01*
X3721102Y11824411D02*
G01*
X4224657Y11320856D01*
X4224657Y10882528D01*
X4155772Y10813643D01*
X4042666Y10813643D01*
X3949448Y10720425D01*
X3949448Y10031704D01*
X3826283Y9908539D01*
X3826283Y9200514D01*
X3838501Y9188297D01*
X3838501Y6413195D01*
X3809570Y6384264D01*
X3606396Y6384264D01*
X3497125Y6493535D01*
X3497125Y9042857D01*
X3192782Y9347200D01*
X3139493Y9347200D01*
X3721102Y11929821D02*
G01*
X3721102Y11824411D01*
X3721102Y12225578D02*
G01*
X3591029Y12225578D01*
X3487930Y12227813D02*
G01*
X3588793Y12227813D01*
X3591029Y12225578D01*
X3227834Y12228068D02*
G01*
X3225802Y12226036D01*
X3225802Y11996978D01*
D10*
X850902Y9156700D02*
G01*
X1282702Y9588500D01*
X1671322Y9588500D01*
D11*
X3139493Y9855200D02*
G01*
X3076272Y9855200D01*
X2727175Y10204297D01*
X2727175Y10354843D01*
X2730502Y11701221D01*
D12*
X3139493Y10236200D02*
G01*
X3139493Y11536705D01*
X2844548Y11831650D01*
X2616431Y11831650D01*
X2484554Y11699773D01*
X2484554Y10417962D01*
X2290091Y10223500D01*
X2265682Y10223500D01*
D13*
G01*
X4114800Y10651775D03*
D14*
G01*
X4114800Y10989030D03*
D15*
G01*
X3225800Y11996976D03*
D16*
G01*
X3225800Y11701221D03*
D15*
G01*
X3721100Y12225576D03*
D16*
G01*
X3721100Y11929821D03*
D15*
G01*
X3225800Y6443423D03*
D16*
G01*
X3225800Y6739178D03*
D15*
G01*
X2717800Y6443423D03*
D16*
G01*
X2717800Y6739178D03*
D15*
G01*
X2235200Y6189423D03*
D16*
G01*
X2235200Y6485178D03*
D15*
G01*
X2730500Y11996976D03*
D16*
G01*
X2730500Y11701221D03*
D15*
G01*
X2235200Y12225576D03*
D16*
G01*
X2235200Y11929821D03*
D15*
G01*
X3708400Y6202123D03*
D16*
G01*
X3708400Y6497878D03*
D17*
G01*
X1671320Y10223500D03*
G01*
X1671320Y10096500D03*
G01*
X1671320Y9969500D03*
G01*
X1671320Y9842500D03*
G01*
X1671320Y9715500D03*
G01*
X1671320Y9588500D03*
G01*
X1671320Y9461500D03*
G01*
X1671320Y9334500D03*
G01*
X2265679Y10223500D03*
G01*
X2265679Y10096500D03*
G01*
X2265679Y9969500D03*
G01*
X2265679Y9842500D03*
G01*
X2265679Y9715500D03*
G01*
X2265679Y9588500D03*
G01*
X2265679Y9461500D03*
G01*
X2265679Y9334500D03*
D18*
G01*
X4099509Y9220200D03*
G01*
X4099509Y9347200D03*
G01*
X4099509Y9474200D03*
G01*
X4099509Y9601200D03*
G01*
X4099509Y9728200D03*
G01*
X4099509Y9855200D03*
G01*
X4099509Y9982200D03*
G01*
X4099509Y10109200D03*
G01*
X4099509Y10236200D03*
G01*
X3139490Y9220200D03*
G01*
X3139490Y9347200D03*
G01*
X3139490Y9474200D03*
G01*
X3139490Y9601200D03*
G01*
X3139490Y9728200D03*
G01*
X3139490Y9855200D03*
G01*
X3139490Y9982200D03*
G01*
X3139490Y10109200D03*
G01*
X3139490Y10236200D03*
D19*
G01*
X1665297Y9182100D03*
G01*
X1865302Y9182100D03*
D20*
G01*
X3821102Y10426700D03*
G01*
X3621097Y10426700D03*
D21*
G01*
X850900Y7632700D03*
G01*
X850900Y7886700D03*
G01*
X850900Y8140700D03*
G01*
X850900Y8394700D03*
G01*
X850900Y8648700D03*
G01*
X850900Y8902700D03*
G01*
X850900Y9156700D03*
G01*
X850900Y9410700D03*
G01*
X850900Y9664700D03*
D22*
G01*
X850900Y9918700D03*
D21*
G01*
X5245100Y7632700D03*
G01*
X5245100Y7886700D03*
G01*
X5245100Y8140700D03*
G01*
X5245100Y8394700D03*
G01*
X5245100Y8648700D03*
G01*
X5245100Y8902700D03*
G01*
X5245100Y9156700D03*
G01*
X5245100Y9410700D03*
G01*
X5245100Y9664700D03*
D22*
G01*
X5245100Y9918700D03*
D23*
G01*
X3487927Y12227813D03*
G01*
X3227831Y12228068D03*
G01*
X2977895Y12227813D03*
G01*
X2727959Y12227813D03*
G01*
X2468118Y12227813D03*
G01*
X3477768Y6198107D03*
G01*
X3227831Y6198107D03*
G01*
X2977895Y6188202D03*
G01*
X2718054Y6187947D03*
G01*
X2467863Y6188202D03*
D24*
G01*
X878712Y9283700D03*
G01*
X1665300Y9068104D03*
G01*
X1807616Y10217124D03*
D12*
G01*
X3139490Y9121927D03*
G01*
X4407890Y9552203D03*
G01*
X2235200Y10356265D03*
G01*
X3495395Y9290888D03*
D24*
G01*
X1813407Y9466961D03*
G01*
X3901820Y9231807D03*
G01*
X2405913Y10095864D03*
G01*
X4224731Y10165613D03*
G01*
X2406040Y9939781D03*
G01*
X4235602Y9929113D03*
G01*
X2388743Y9794544D03*
G01*
X3945966Y9865233D03*
G01*
X2402204Y9715500D03*
G01*
X3956507Y9769017D03*
G01*
X2403424Y9588500D03*
G01*
X3947515Y9601200D03*
G01*
X2401468Y9461500D03*
G01*
X3947312Y9474200D03*
G01*
X2434920Y9369323D03*
G01*
X3945305Y9347200D03*
D12*
G01*
X3784600Y10198100D03*
G01*
X4102100Y10439400D03*
M02*
