G04 Layer: BottomSilkscreenLayer*
G04 EasyEDA v6.5.23, 2023-06-06 19:14:30*
G04 6ef57efb87d34416a569dc9a5926d664,0997c0c323a540828c61b468e30a80a1,10*
G04 Gerber Generator version 0.2*
G04 Scale: 100 percent, Rotated: No, Reflected: No *
G04 Dimensions in millimeters *
G04 leading zeros omitted , absolute positions ,4 integer and 5 decimal *
%FSLAX45Y45*%
%MOMM*%

%ADD10C,0.1500*%
%ADD11C,0.1200*%
%ADD12C,0.1700*%

%LPD*%
G36*
X738428Y6593992D02*
G01*
X738174Y6593331D01*
X737870Y6588912D01*
X737920Y6583832D01*
X738225Y6581952D01*
X738936Y6579920D01*
X740206Y6577482D01*
X742188Y6574536D01*
X749096Y6566001D01*
X760933Y6552793D01*
X843635Y6463538D01*
X842933Y6421729D01*
X856894Y6421729D01*
X856996Y6439204D01*
X857402Y6443218D01*
X857961Y6445910D01*
X858621Y6446926D01*
X862533Y6444234D01*
X867918Y6437985D01*
X872693Y6430975D01*
X874725Y6425895D01*
X874420Y6423761D01*
X873150Y6422491D01*
X870407Y6421882D01*
X842933Y6421729D01*
X842721Y6409080D01*
X868680Y6408978D01*
X873810Y6408470D01*
X875828Y6407505D01*
X890625Y6407505D01*
X890778Y6408420D01*
X891336Y6408724D01*
X892403Y6408369D01*
X896315Y6405321D01*
X903274Y6398564D01*
X929487Y6370929D01*
X983394Y6312865D01*
X1001725Y6312865D01*
X1004773Y6316827D01*
X1025499Y6340652D01*
X1062482Y6381648D01*
X1079500Y6399834D01*
X1080516Y6400698D01*
X1080820Y6399987D01*
X1080770Y6395262D01*
X1077417Y6357670D01*
X1071727Y6286449D01*
X1069136Y6258001D01*
X1067409Y6243370D01*
X1067155Y6242507D01*
X1066190Y6242964D01*
X1060602Y6248095D01*
X1039977Y6269431D01*
X1027887Y6282385D01*
X1016609Y6294831D01*
X1007668Y6305042D01*
X1002436Y6311544D01*
X1001725Y6312865D01*
X983394Y6312865D01*
X984148Y6312052D01*
X917651Y6238494D01*
X910793Y6231382D01*
X906983Y6227826D01*
X906475Y6227622D01*
X890625Y6407505D01*
X875828Y6407505D01*
X876147Y6407353D01*
X876706Y6405422D01*
X890269Y6247485D01*
X892606Y6216650D01*
X892149Y6214211D01*
X890473Y6210858D01*
X887120Y6205931D01*
X882893Y6200546D01*
X908710Y6200546D01*
X909116Y6205524D01*
X910691Y6209284D01*
X914196Y6214618D01*
X920191Y6222238D01*
X942035Y6247536D01*
X972870Y6281877D01*
X990650Y6301028D01*
X991717Y6301943D01*
X995070Y6298844D01*
X1015339Y6277864D01*
X1066749Y6223203D01*
X1060602Y6148578D01*
X946403Y6148578D01*
X945083Y6158026D01*
X943660Y6164529D01*
X941425Y6170676D01*
X938326Y6176264D01*
X934415Y6181394D01*
X929792Y6185966D01*
X924458Y6189878D01*
X918464Y6193180D01*
X911809Y6195720D01*
X910132Y6196634D01*
X909116Y6198158D01*
X908710Y6200546D01*
X882893Y6200546D01*
X868375Y6183426D01*
X800709Y6107379D01*
X778357Y6081776D01*
X772464Y6074359D01*
X769213Y6069634D01*
X768400Y6068009D01*
X768045Y6066739D01*
X768045Y6065774D01*
X768858Y6064250D01*
X771550Y6061506D01*
X772668Y6060694D01*
X773430Y6060389D01*
X780034Y6067044D01*
X796086Y6084519D01*
X861618Y6157620D01*
X863127Y6150660D01*
X883361Y6150660D01*
X884428Y6159042D01*
X885698Y6162598D01*
X887425Y6165951D01*
X889355Y6168745D01*
X891286Y6170625D01*
X895858Y6173165D01*
X900480Y6174638D01*
X905103Y6174994D01*
X909523Y6174384D01*
X913688Y6172758D01*
X917448Y6170218D01*
X920648Y6166713D01*
X923188Y6162344D01*
X924814Y6157569D01*
X925423Y6152946D01*
X925118Y6148527D01*
X924001Y6144361D01*
X922172Y6140551D01*
X919683Y6137249D01*
X916635Y6134506D01*
X913130Y6132423D01*
X909218Y6131052D01*
X905002Y6130594D01*
X900582Y6131052D01*
X896010Y6132525D01*
X889355Y6136944D01*
X885088Y6143142D01*
X883361Y6150660D01*
X863127Y6150660D01*
X866140Y6138824D01*
X868984Y6131458D01*
X872286Y6125464D01*
X876046Y6120993D01*
X880668Y6117336D01*
X885698Y6114389D01*
X891082Y6112256D01*
X896619Y6110833D01*
X902309Y6110173D01*
X907999Y6110224D01*
X913587Y6110986D01*
X918971Y6112459D01*
X924052Y6114694D01*
X928674Y6117590D01*
X932738Y6121146D01*
X936193Y6125464D01*
X940511Y6131814D01*
X1041400Y6131814D01*
X1041400Y6108700D01*
X1067206Y6108700D01*
X1067358Y6125565D01*
X1067917Y6129426D01*
X1068933Y6132017D01*
X1071372Y6134404D01*
X1072184Y6135979D01*
X1072946Y6138519D01*
X1074318Y6146952D01*
X1080008Y6206947D01*
X1085342Y6201613D01*
X1119022Y6166104D01*
X1191666Y6088126D01*
X1219809Y6057188D01*
X1228852Y6066688D01*
X1111351Y6192672D01*
X1081074Y6225387D01*
X1096975Y6420612D01*
X1129487Y6456324D01*
X1204264Y6540093D01*
X1225092Y6564122D01*
X1231138Y6571640D01*
X1234948Y6576974D01*
X1236980Y6580682D01*
X1237742Y6583476D01*
X1237691Y6587490D01*
X1237386Y6589775D01*
X1236929Y6591300D01*
X1236370Y6591858D01*
X1230426Y6585915D01*
X1193698Y6545681D01*
X1141171Y6487312D01*
X1119581Y6463842D01*
X1104950Y6448399D01*
X1100886Y6444437D01*
X1099413Y6443421D01*
X1099312Y6445859D01*
X1099870Y6457238D01*
X1101902Y6483705D01*
X1115110Y6484823D01*
X1117650Y6485890D01*
X1118616Y6488125D01*
X1118768Y6492189D01*
X1118616Y6496304D01*
X1117701Y6498488D01*
X1115364Y6499301D01*
X1107389Y6499606D01*
X1104900Y6500114D01*
X1103426Y6501028D01*
X1100785Y6507124D01*
X1095502Y6513982D01*
X1088796Y6520789D01*
X1082294Y6525717D01*
X1079042Y6527850D01*
X1076858Y6529984D01*
X1075537Y6532168D01*
X1074826Y6537198D01*
X1073200Y6538671D01*
X1069289Y6539230D01*
X1053846Y6539534D01*
X1045260Y6540093D01*
X1028903Y6541973D01*
X1021994Y6543192D01*
X1016558Y6544462D01*
X1012952Y6545783D01*
X1010107Y6548424D01*
X1004722Y6549288D01*
X994156Y6549745D01*
X966520Y6549847D01*
X952144Y6549593D01*
X947826Y6549288D01*
X944930Y6548780D01*
X943152Y6548120D01*
X942187Y6547154D01*
X940765Y6544106D01*
X938784Y6542684D01*
X935583Y6541566D01*
X925321Y6539687D01*
X919378Y6538214D01*
X913333Y6536385D01*
X907338Y6534251D01*
X901983Y6532016D01*
X956106Y6532016D01*
X956919Y6533591D01*
X960069Y6534556D01*
X966419Y6535013D01*
X976934Y6535166D01*
X987450Y6535013D01*
X993800Y6534556D01*
X996899Y6533591D01*
X997762Y6532016D01*
X996899Y6530390D01*
X993800Y6529476D01*
X987450Y6528968D01*
X966419Y6528968D01*
X960069Y6529476D01*
X956919Y6530390D01*
X956106Y6532016D01*
X901983Y6532016D01*
X895959Y6529171D01*
X890879Y6526326D01*
X880821Y6519621D01*
X877265Y6517843D01*
X874725Y6517894D01*
X868222Y6521653D01*
X864260Y6522669D01*
X860298Y6522669D01*
X856538Y6521754D01*
X853033Y6519976D01*
X849934Y6517487D01*
X847293Y6514388D01*
X845312Y6510781D01*
X843991Y6506819D01*
X843584Y6502552D01*
X843666Y6501841D01*
X886206Y6501841D01*
X886206Y6502654D01*
X886612Y6503568D01*
X888339Y6506057D01*
X891032Y6508597D01*
X894537Y6511188D01*
X898855Y6513779D01*
X903782Y6516217D01*
X909218Y6518554D01*
X915111Y6520688D01*
X921359Y6522567D01*
X933348Y6525615D01*
X939546Y6526326D01*
X941832Y6524345D01*
X942187Y6519418D01*
X942187Y6512052D01*
X1011631Y6512052D01*
X1011783Y6523685D01*
X1012088Y6526326D01*
X1012545Y6528003D01*
X1013155Y6528562D01*
X1040434Y6524650D01*
X1046886Y6522516D01*
X1049121Y6518452D01*
X1049324Y6505752D01*
X1075131Y6505752D01*
X1075588Y6510172D01*
X1076147Y6511544D01*
X1076756Y6512052D01*
X1077823Y6511544D01*
X1081735Y6508191D01*
X1089761Y6499453D01*
X1078433Y6499606D01*
X1076248Y6500368D01*
X1075334Y6502298D01*
X1075131Y6505752D01*
X1049324Y6505752D01*
X1049324Y6499453D01*
X919784Y6499504D01*
X901496Y6499758D01*
X891235Y6500266D01*
X888441Y6500672D01*
X886866Y6501231D01*
X886206Y6501841D01*
X843666Y6501841D01*
X844092Y6498132D01*
X845718Y6493713D01*
X849223Y6488938D01*
X854202Y6485229D01*
X859637Y6483146D01*
X867562Y6483248D01*
X868140Y6482638D01*
X1087424Y6482638D01*
X1084173Y6437782D01*
X1082954Y6431026D01*
X1082040Y6427927D01*
X1080871Y6424879D01*
X1077620Y6418732D01*
X1072692Y6411823D01*
X1065834Y6403441D01*
X992784Y6321247D01*
X940155Y6376517D01*
X1013612Y6377686D01*
X1013612Y6409080D01*
X926337Y6409080D01*
X926337Y6391351D01*
X892606Y6426860D01*
X892454Y6453174D01*
X891946Y6458508D01*
X890727Y6461150D01*
X886663Y6463182D01*
X885444Y6465011D01*
X884834Y6468110D01*
X884682Y6482638D01*
X868140Y6482638D01*
X869442Y6481267D01*
X870458Y6476898D01*
X870712Y6467398D01*
X870254Y6463639D01*
X869746Y6462369D01*
X868984Y6461556D01*
X867968Y6461252D01*
X866597Y6461455D01*
X864869Y6462217D01*
X862685Y6463588D01*
X860094Y6465570D01*
X853389Y6471615D01*
X844397Y6480556D01*
X818083Y6508394D01*
X765911Y6564731D01*
G37*
G36*
X904849Y6167323D02*
G01*
X899921Y6166256D01*
X895197Y6162954D01*
X891946Y6158280D01*
X890828Y6153150D01*
X891794Y6147917D01*
X894943Y6142939D01*
X899718Y6139281D01*
X904849Y6138164D01*
X909878Y6139637D01*
X914298Y6143650D01*
X917244Y6148730D01*
X918159Y6153505D01*
X917143Y6158077D01*
X914095Y6162649D01*
X909675Y6166104D01*
G37*
G36*
X783488Y5951118D02*
G01*
X783488Y5843981D01*
X1196187Y5843981D01*
X1196187Y5951118D01*
G37*
G36*
X4889703Y6299098D02*
G01*
X4888890Y6298844D01*
X4879035Y6260185D01*
X4868519Y6220155D01*
X4867148Y6214059D01*
X4866436Y6209792D01*
X4866436Y6207150D01*
X4867198Y6206032D01*
X4868722Y6206185D01*
X4871110Y6207556D01*
X4890566Y6222136D01*
X4900320Y6229146D01*
X4901895Y6230061D01*
X4908753Y6215176D01*
X4939893Y6145123D01*
X4943652Y6136132D01*
X4940655Y6136487D01*
X4920284Y6141262D01*
X4880305Y6151473D01*
X4871770Y6153404D01*
X4865319Y6154521D01*
X4860493Y6154928D01*
X4856886Y6154724D01*
X4854041Y6153861D01*
X4851552Y6152489D01*
X4847793Y6148832D01*
X4844846Y6143752D01*
X4843170Y6138418D01*
X4843272Y6133896D01*
X4880660Y6049518D01*
X4938420Y5920536D01*
X4950764Y5893460D01*
X4951272Y5893003D01*
X4952136Y5892952D01*
X4953558Y5893358D01*
X4958232Y5896000D01*
X4966309Y5901436D01*
X4978654Y5910326D01*
X5061813Y5972657D01*
X5075732Y5963412D01*
X5085537Y5957722D01*
X5095544Y5952794D01*
X5100624Y5950559D01*
X5110886Y5946749D01*
X5116068Y5945073D01*
X5126532Y5942330D01*
X5137099Y5940247D01*
X5147665Y5938875D01*
X5158282Y5938164D01*
X5168900Y5938113D01*
X5179466Y5938672D01*
X5189982Y5939891D01*
X5200396Y5941720D01*
X5210708Y5944158D01*
X5220817Y5947206D01*
X5230723Y5950813D01*
X5240426Y5954979D01*
X5249875Y5959703D01*
X5259070Y5964986D01*
X5267909Y5970778D01*
X5276443Y5977077D01*
X5284571Y5983884D01*
X5292293Y5991148D01*
X5299608Y5998921D01*
X5306415Y6007100D01*
X5312765Y6015786D01*
X5318556Y6024880D01*
X5323789Y6034379D01*
X5328462Y6044285D01*
X5332476Y6054598D01*
X5335879Y6065316D01*
X5338572Y6076391D01*
X5339689Y6082030D01*
X5341315Y6093460D01*
X5342229Y6104737D01*
X5342432Y6115812D01*
X5341975Y6126734D01*
X5340807Y6137452D01*
X5339080Y6147917D01*
X5336692Y6158179D01*
X5333695Y6168186D01*
X5330190Y6177889D01*
X5326075Y6187338D01*
X5321452Y6196482D01*
X5316321Y6205270D01*
X5310733Y6213754D01*
X5304688Y6221831D01*
X5298135Y6229553D01*
X5291226Y6236919D01*
X5283911Y6243828D01*
X5276189Y6250330D01*
X5268112Y6256375D01*
X5259730Y6261963D01*
X5251043Y6267094D01*
X5242052Y6271666D01*
X5232806Y6275781D01*
X5223306Y6279337D01*
X5213553Y6282385D01*
X5203647Y6284823D01*
X5193538Y6286703D01*
X5183276Y6287973D01*
X5172862Y6288633D01*
X5162346Y6288633D01*
X5151729Y6288024D01*
X5141010Y6286703D01*
X5130292Y6284722D01*
X5119522Y6282029D01*
X5108752Y6278575D01*
X5097983Y6274460D01*
X5087569Y6269634D01*
X5077612Y6264198D01*
X5068214Y6258204D01*
X5059273Y6251702D01*
X5050891Y6244691D01*
X5043017Y6237173D01*
X5035651Y6229248D01*
X5028844Y6220917D01*
X5022596Y6212230D01*
X5016906Y6203188D01*
X5011775Y6193840D01*
X5007203Y6184188D01*
X5003241Y6174333D01*
X4999837Y6164275D01*
X4997043Y6154013D01*
X4994859Y6143599D01*
X4993284Y6133084D01*
X4992319Y6122517D01*
X4992057Y6109614D01*
X5023307Y6109614D01*
X5023561Y6119876D01*
X5024475Y6130086D01*
X5026101Y6140196D01*
X5028438Y6150152D01*
X5029809Y6155080D01*
X5033162Y6164783D01*
X5037124Y6174232D01*
X5041747Y6183376D01*
X5047030Y6192215D01*
X5052872Y6200648D01*
X5059324Y6208674D01*
X5066385Y6216243D01*
X5074005Y6223355D01*
X5082235Y6229858D01*
X5090972Y6235801D01*
X5100269Y6241135D01*
X5110073Y6245758D01*
X5120386Y6249720D01*
X5131206Y6252870D01*
X5142280Y6255258D01*
X5153202Y6256731D01*
X5163972Y6257442D01*
X5174589Y6257290D01*
X5184952Y6256375D01*
X5195112Y6254750D01*
X5205018Y6252413D01*
X5214620Y6249416D01*
X5223916Y6245707D01*
X5232908Y6241440D01*
X5241544Y6236563D01*
X5249773Y6231128D01*
X5257596Y6225133D01*
X5265013Y6218682D01*
X5271922Y6211722D01*
X5278424Y6204356D01*
X5284368Y6196584D01*
X5289804Y6188405D01*
X5294680Y6179870D01*
X5298998Y6171031D01*
X5302707Y6161938D01*
X5305806Y6152540D01*
X5308193Y6142888D01*
X5309971Y6133084D01*
X5311038Y6123076D01*
X5311343Y6112967D01*
X5310936Y6102705D01*
X5309717Y6092393D01*
X5307736Y6082030D01*
X5304942Y6071616D01*
X5301284Y6061252D01*
X5296712Y6050889D01*
X5291124Y6040374D01*
X5284825Y6030518D01*
X5277815Y6021374D01*
X5274106Y6017006D01*
X5266182Y6008878D01*
X5257698Y6001410D01*
X5248757Y5994704D01*
X5239359Y5988761D01*
X5229555Y5983579D01*
X5224526Y5981242D01*
X5214213Y5977229D01*
X5203596Y5974029D01*
X5198211Y5972708D01*
X5187289Y5970778D01*
X5181803Y5970066D01*
X5170627Y5969406D01*
X5159451Y5969558D01*
X5148173Y5970625D01*
X5136946Y5972606D01*
X5125770Y5975553D01*
X5120233Y5977331D01*
X5109260Y5981649D01*
X5087924Y5992012D01*
X5140248Y6031992D01*
X5153253Y6042355D01*
X5158028Y6046520D01*
X5161686Y6050178D01*
X5164429Y6053429D01*
X5166207Y6056376D01*
X5167223Y6059170D01*
X5167477Y6061862D01*
X5167071Y6064554D01*
X5166106Y6067450D01*
X5162956Y6073394D01*
X5160873Y6075781D01*
X5158028Y6077915D01*
X5153812Y6079998D01*
X5147868Y6082131D01*
X5139690Y6084620D01*
X5078374Y6101080D01*
X5075021Y6102146D01*
X5078171Y6104890D01*
X5099354Y6121349D01*
X5128463Y6143294D01*
X5151170Y6159957D01*
X5155641Y6162954D01*
X5157165Y6161836D01*
X5159603Y6157976D01*
X5162956Y6151575D01*
X5173675Y6128410D01*
X5175859Y6124448D01*
X5176774Y6123381D01*
X5182463Y6144463D01*
X5190540Y6176314D01*
X5199735Y6214872D01*
X5200345Y6218529D01*
X5194401Y6220409D01*
X5152999Y6231585D01*
X5126126Y6238290D01*
X5124500Y6238494D01*
X5127447Y6231178D01*
X5145989Y6189929D01*
X5059781Y6125260D01*
X5046726Y6115050D01*
X5039156Y6108547D01*
X5036921Y6106210D01*
X5035499Y6104280D01*
X5034635Y6102553D01*
X5033721Y6099048D01*
X5033264Y6095492D01*
X5033264Y6092342D01*
X5033924Y6089497D01*
X5035296Y6086957D01*
X5037582Y6084570D01*
X5040833Y6082284D01*
X5045151Y6080048D01*
X5050688Y6077762D01*
X5057597Y6075426D01*
X5075834Y6070193D01*
X5128869Y6056426D01*
X5079238Y6019139D01*
X5073192Y6014923D01*
X5068976Y6012637D01*
X5066131Y6012027D01*
X5063947Y6012789D01*
X5061864Y6014770D01*
X5052110Y6026302D01*
X5045760Y6035294D01*
X5040223Y6044590D01*
X5035448Y6054140D01*
X5031536Y6063945D01*
X5028387Y6073902D01*
X5027066Y6078931D01*
X5025085Y6089091D01*
X5023815Y6099352D01*
X5023307Y6109614D01*
X4992057Y6109614D01*
X4992319Y6101232D01*
X4993284Y6090615D01*
X4994910Y6080048D01*
X4997145Y6069584D01*
X5000091Y6059220D01*
X5003698Y6049010D01*
X5008016Y6038951D01*
X5012994Y6029147D01*
X5018684Y6019596D01*
X5025034Y6010300D01*
X5032146Y6001359D01*
X5041188Y5990691D01*
X4981702Y5946089D01*
X4963769Y5933033D01*
X4962550Y5935065D01*
X4955336Y5950051D01*
X4928362Y6008573D01*
X4897831Y6076086D01*
X4886198Y6102350D01*
X4879644Y6117742D01*
X4878882Y6120028D01*
X4890770Y6117386D01*
X4939944Y6104940D01*
X4948174Y6103112D01*
X4955032Y6101842D01*
X4960670Y6101181D01*
X4965192Y6101080D01*
X4968798Y6101588D01*
X4971592Y6102705D01*
X4973777Y6104432D01*
X4975504Y6106718D01*
X4976876Y6109716D01*
X4978501Y6114694D01*
X4979060Y6117183D01*
X4978958Y6120180D01*
X4977739Y6124702D01*
X4975098Y6131814D01*
X4963718Y6157925D01*
X4923688Y6247028D01*
X4953406Y6269532D01*
X4959858Y6274816D01*
X4963820Y6278524D01*
X4964734Y6280048D01*
X4906416Y6295491D01*
X4894630Y6298336D01*
G37*
D10*
X1214518Y8168081D02*
G01*
X1219062Y8177171D01*
X1228153Y8186262D01*
X1237246Y8190809D01*
X1255428Y8190809D01*
X1264518Y8186262D01*
X1273609Y8177171D01*
X1278153Y8168081D01*
X1282700Y8154446D01*
X1282700Y8131718D01*
X1278153Y8118081D01*
X1273609Y8108990D01*
X1264518Y8099899D01*
X1255428Y8095353D01*
X1237246Y8095353D01*
X1228153Y8099899D01*
X1219062Y8108990D01*
X1214518Y8118081D01*
X1214518Y8131718D01*
X1237246Y8131718D02*
G01*
X1214518Y8131718D01*
X1184518Y8190809D02*
G01*
X1184518Y8095353D01*
X1184518Y8190809D02*
G01*
X1120881Y8095353D01*
X1120881Y8190809D02*
G01*
X1120881Y8095353D01*
X1090881Y8190809D02*
G01*
X1090881Y8095353D01*
X1090881Y8190809D02*
G01*
X1059063Y8190809D01*
X1045428Y8186262D01*
X1036337Y8177171D01*
X1031791Y8168081D01*
X1027247Y8154446D01*
X1027247Y8131718D01*
X1031791Y8118081D01*
X1036337Y8108990D01*
X1045428Y8099899D01*
X1059063Y8095353D01*
X1090881Y8095353D01*
X1335237Y8444809D02*
G01*
X1371600Y8349353D01*
X1335237Y8444809D02*
G01*
X1298872Y8349353D01*
X1357962Y8381171D02*
G01*
X1312509Y8381171D01*
X1200691Y8422081D02*
G01*
X1205237Y8431171D01*
X1214328Y8440262D01*
X1223418Y8444809D01*
X1241600Y8444809D01*
X1250690Y8440262D01*
X1259781Y8431171D01*
X1264328Y8422081D01*
X1268872Y8408446D01*
X1268872Y8385718D01*
X1264328Y8372081D01*
X1259781Y8362990D01*
X1250690Y8353899D01*
X1241600Y8349353D01*
X1223418Y8349353D01*
X1214328Y8353899D01*
X1205237Y8362990D01*
X1200691Y8372081D01*
X1200691Y8385718D01*
X1223418Y8385718D02*
G01*
X1200691Y8385718D01*
X1170691Y8444809D02*
G01*
X1170691Y8349353D01*
X1170691Y8444809D02*
G01*
X1107053Y8349353D01*
X1107053Y8444809D02*
G01*
X1107053Y8349353D01*
X1077053Y8444809D02*
G01*
X1077053Y8349353D01*
X1077053Y8444809D02*
G01*
X1045237Y8444809D01*
X1031600Y8440262D01*
X1022510Y8431171D01*
X1017963Y8422081D01*
X1013419Y8408446D01*
X1013419Y8385718D01*
X1017963Y8372081D01*
X1022510Y8362990D01*
X1031600Y8353899D01*
X1045237Y8349353D01*
X1077053Y8349353D01*
X5011818Y8142681D02*
G01*
X5016362Y8151771D01*
X5025453Y8160862D01*
X5034546Y8165409D01*
X5052728Y8165409D01*
X5061818Y8160862D01*
X5070909Y8151771D01*
X5075453Y8142681D01*
X5080000Y8129046D01*
X5080000Y8106318D01*
X5075453Y8092681D01*
X5070909Y8083590D01*
X5061818Y8074499D01*
X5052728Y8069953D01*
X5034546Y8069953D01*
X5025453Y8074499D01*
X5016362Y8083590D01*
X5011818Y8092681D01*
X5011818Y8106318D01*
X5034546Y8106318D02*
G01*
X5011818Y8106318D01*
X4981818Y8165409D02*
G01*
X4981818Y8069953D01*
X4981818Y8165409D02*
G01*
X4918181Y8069953D01*
X4918181Y8165409D02*
G01*
X4918181Y8069953D01*
X4888181Y8165409D02*
G01*
X4888181Y8069953D01*
X4888181Y8165409D02*
G01*
X4856363Y8165409D01*
X4842728Y8160862D01*
X4833637Y8151771D01*
X4829091Y8142681D01*
X4824547Y8129046D01*
X4824547Y8106318D01*
X4829091Y8092681D01*
X4833637Y8083590D01*
X4842728Y8074499D01*
X4856363Y8069953D01*
X4888181Y8069953D01*
X5043637Y8419409D02*
G01*
X5080000Y8323953D01*
X5043637Y8419409D02*
G01*
X5007272Y8323953D01*
X5066362Y8355771D02*
G01*
X5020909Y8355771D01*
X4909091Y8396681D02*
G01*
X4913637Y8405771D01*
X4922728Y8414862D01*
X4931818Y8419409D01*
X4950000Y8419409D01*
X4959090Y8414862D01*
X4968181Y8405771D01*
X4972728Y8396681D01*
X4977272Y8383046D01*
X4977272Y8360318D01*
X4972728Y8346681D01*
X4968181Y8337590D01*
X4959090Y8328499D01*
X4950000Y8323953D01*
X4931818Y8323953D01*
X4922728Y8328499D01*
X4913637Y8337590D01*
X4909091Y8346681D01*
X4909091Y8360318D01*
X4931818Y8360318D02*
G01*
X4909091Y8360318D01*
X4879091Y8419409D02*
G01*
X4879091Y8323953D01*
X4879091Y8419409D02*
G01*
X4815453Y8323953D01*
X4815453Y8419409D02*
G01*
X4815453Y8323953D01*
X4785453Y8419409D02*
G01*
X4785453Y8323953D01*
X4785453Y8419409D02*
G01*
X4753637Y8419409D01*
X4740000Y8414862D01*
X4730910Y8405771D01*
X4726363Y8396681D01*
X4721819Y8383046D01*
X4721819Y8360318D01*
X4726363Y8346681D01*
X4730910Y8337590D01*
X4740000Y8328499D01*
X4753637Y8323953D01*
X4785453Y8323953D01*
X5003662Y8659771D02*
G01*
X5012753Y8668862D01*
X5026390Y8673409D01*
X5044572Y8673409D01*
X5058209Y8668862D01*
X5067300Y8659771D01*
X5067300Y8650681D01*
X5062753Y8641590D01*
X5058209Y8637046D01*
X5049118Y8632499D01*
X5021846Y8623409D01*
X5012753Y8618862D01*
X5008209Y8614318D01*
X5003662Y8605227D01*
X5003662Y8591590D01*
X5012753Y8582499D01*
X5026390Y8577953D01*
X5044572Y8577953D01*
X5058209Y8582499D01*
X5067300Y8591590D01*
X4973662Y8614318D02*
G01*
X4919118Y8614318D01*
X4919118Y8623409D01*
X4923663Y8632499D01*
X4928209Y8637046D01*
X4937300Y8641590D01*
X4950937Y8641590D01*
X4960028Y8637046D01*
X4969118Y8627953D01*
X4973662Y8614318D01*
X4973662Y8605227D01*
X4969118Y8591590D01*
X4960028Y8582499D01*
X4950937Y8577953D01*
X4937300Y8577953D01*
X4928209Y8582499D01*
X4919118Y8591590D01*
X4889118Y8641590D02*
G01*
X4889118Y8577953D01*
X4889118Y8614318D02*
G01*
X4884572Y8627953D01*
X4875481Y8637046D01*
X4866391Y8641590D01*
X4852753Y8641590D01*
X4822753Y8673409D02*
G01*
X4818209Y8668862D01*
X4813663Y8673409D01*
X4818209Y8677953D01*
X4822753Y8673409D01*
X4818209Y8641590D02*
G01*
X4818209Y8577953D01*
X4729119Y8641590D02*
G01*
X4729119Y8577953D01*
X4729119Y8627953D02*
G01*
X4738209Y8637046D01*
X4747300Y8641590D01*
X4760937Y8641590D01*
X4770028Y8637046D01*
X4779119Y8627953D01*
X4783663Y8614318D01*
X4783663Y8605227D01*
X4779119Y8591590D01*
X4770028Y8582499D01*
X4760937Y8577953D01*
X4747300Y8577953D01*
X4738209Y8582499D01*
X4729119Y8591590D01*
X4699119Y8673409D02*
G01*
X4699119Y8577953D01*
X4530938Y8650681D02*
G01*
X4535482Y8659771D01*
X4544573Y8668862D01*
X4553663Y8673409D01*
X4571847Y8673409D01*
X4580938Y8668862D01*
X4590028Y8659771D01*
X4594572Y8650681D01*
X4599119Y8637046D01*
X4599119Y8614318D01*
X4594572Y8600681D01*
X4590028Y8591590D01*
X4580938Y8582499D01*
X4571847Y8577953D01*
X4553663Y8577953D01*
X4544573Y8582499D01*
X4535482Y8591590D01*
X4530938Y8600681D01*
X4500938Y8673409D02*
G01*
X4500938Y8577953D01*
X4500938Y8577953D02*
G01*
X4446391Y8577953D01*
X4416391Y8673409D02*
G01*
X4416391Y8577953D01*
X4352754Y8673409D02*
G01*
X4416391Y8609771D01*
X4393664Y8632499D02*
G01*
X4352754Y8577953D01*
X1663562Y8685171D02*
G01*
X1672653Y8694262D01*
X1686290Y8698809D01*
X1704472Y8698809D01*
X1718109Y8694262D01*
X1727200Y8685171D01*
X1727200Y8676081D01*
X1722653Y8666990D01*
X1718109Y8662446D01*
X1709018Y8657899D01*
X1681746Y8648809D01*
X1672653Y8644262D01*
X1668109Y8639718D01*
X1663562Y8630627D01*
X1663562Y8616990D01*
X1672653Y8607899D01*
X1686290Y8603353D01*
X1704472Y8603353D01*
X1718109Y8607899D01*
X1727200Y8616990D01*
X1633562Y8639718D02*
G01*
X1579018Y8639718D01*
X1579018Y8648809D01*
X1583562Y8657899D01*
X1588109Y8662446D01*
X1597200Y8666990D01*
X1610837Y8666990D01*
X1619928Y8662446D01*
X1629018Y8653353D01*
X1633562Y8639718D01*
X1633562Y8630627D01*
X1629018Y8616990D01*
X1619928Y8607899D01*
X1610837Y8603353D01*
X1597200Y8603353D01*
X1588109Y8607899D01*
X1579018Y8616990D01*
X1549019Y8666990D02*
G01*
X1549019Y8603353D01*
X1549019Y8639718D02*
G01*
X1544472Y8653353D01*
X1535381Y8662446D01*
X1526291Y8666990D01*
X1512653Y8666990D01*
X1482653Y8698809D02*
G01*
X1478109Y8694262D01*
X1473563Y8698809D01*
X1478109Y8703353D01*
X1482653Y8698809D01*
X1478109Y8666990D02*
G01*
X1478109Y8603353D01*
X1389019Y8666990D02*
G01*
X1389019Y8603353D01*
X1389019Y8653353D02*
G01*
X1398109Y8662446D01*
X1407200Y8666990D01*
X1420837Y8666990D01*
X1429928Y8662446D01*
X1439019Y8653353D01*
X1443563Y8639718D01*
X1443563Y8630627D01*
X1439019Y8616990D01*
X1429928Y8607899D01*
X1420837Y8603353D01*
X1407200Y8603353D01*
X1398109Y8607899D01*
X1389019Y8616990D01*
X1359019Y8698809D02*
G01*
X1359019Y8603353D01*
X1190838Y8676081D02*
G01*
X1195382Y8685171D01*
X1204473Y8694262D01*
X1213563Y8698809D01*
X1231747Y8698809D01*
X1240838Y8694262D01*
X1249928Y8685171D01*
X1254472Y8676081D01*
X1259019Y8662446D01*
X1259019Y8639718D01*
X1254472Y8626081D01*
X1249928Y8616990D01*
X1240838Y8607899D01*
X1231747Y8603353D01*
X1213563Y8603353D01*
X1204473Y8607899D01*
X1195382Y8616990D01*
X1190838Y8626081D01*
X1160838Y8698809D02*
G01*
X1160838Y8603353D01*
X1160838Y8603353D02*
G01*
X1106291Y8603353D01*
X1076291Y8698809D02*
G01*
X1076291Y8603353D01*
X1012654Y8698809D02*
G01*
X1076291Y8635171D01*
X1053564Y8657899D02*
G01*
X1012654Y8603353D01*
X1930400Y8940109D02*
G01*
X1930400Y8844653D01*
X1930400Y8940109D02*
G01*
X1889490Y8940109D01*
X1875853Y8935562D01*
X1871309Y8931018D01*
X1866762Y8921927D01*
X1866762Y8912837D01*
X1871309Y8903746D01*
X1875853Y8899199D01*
X1889490Y8894653D01*
X1930400Y8894653D01*
X1898581Y8894653D02*
G01*
X1866762Y8844653D01*
X1836762Y8881018D02*
G01*
X1782218Y8881018D01*
X1782218Y8890109D01*
X1786762Y8899199D01*
X1791309Y8903746D01*
X1800400Y8908290D01*
X1814037Y8908290D01*
X1823128Y8903746D01*
X1832218Y8894653D01*
X1836762Y8881018D01*
X1836762Y8871927D01*
X1832218Y8858290D01*
X1823128Y8849199D01*
X1814037Y8844653D01*
X1800400Y8844653D01*
X1791309Y8849199D01*
X1782218Y8858290D01*
X1697672Y8908290D02*
G01*
X1697672Y8835562D01*
X1702219Y8821928D01*
X1706763Y8817381D01*
X1715853Y8812837D01*
X1729491Y8812837D01*
X1738581Y8817381D01*
X1697672Y8894653D02*
G01*
X1706763Y8903746D01*
X1715853Y8908290D01*
X1729491Y8908290D01*
X1738581Y8903746D01*
X1747672Y8894653D01*
X1752219Y8881018D01*
X1752219Y8871927D01*
X1747672Y8858290D01*
X1738581Y8849199D01*
X1729491Y8844653D01*
X1715853Y8844653D01*
X1706763Y8849199D01*
X1697672Y8858290D01*
X1667672Y8940109D02*
G01*
X1663128Y8935562D01*
X1658581Y8940109D01*
X1663128Y8944653D01*
X1667672Y8940109D01*
X1663128Y8908290D02*
G01*
X1663128Y8844653D01*
X1578582Y8894653D02*
G01*
X1583128Y8903746D01*
X1596763Y8908290D01*
X1610400Y8908290D01*
X1624037Y8903746D01*
X1628581Y8894653D01*
X1624037Y8885562D01*
X1614947Y8881018D01*
X1592219Y8876471D01*
X1583128Y8871927D01*
X1578582Y8862837D01*
X1578582Y8858290D01*
X1583128Y8849199D01*
X1596763Y8844653D01*
X1610400Y8844653D01*
X1624037Y8849199D01*
X1628581Y8858290D01*
X1534947Y8940109D02*
G01*
X1534947Y8862837D01*
X1530400Y8849199D01*
X1521310Y8844653D01*
X1512219Y8844653D01*
X1548582Y8908290D02*
G01*
X1516763Y8908290D01*
X1482219Y8881018D02*
G01*
X1427673Y8881018D01*
X1427673Y8890109D01*
X1432219Y8899199D01*
X1436763Y8903746D01*
X1445854Y8908290D01*
X1459491Y8908290D01*
X1468582Y8903746D01*
X1477672Y8894653D01*
X1482219Y8881018D01*
X1482219Y8871927D01*
X1477672Y8858290D01*
X1468582Y8849199D01*
X1459491Y8844653D01*
X1445854Y8844653D01*
X1436763Y8849199D01*
X1427673Y8858290D01*
X1397673Y8908290D02*
G01*
X1397673Y8844653D01*
X1397673Y8881018D02*
G01*
X1393129Y8894653D01*
X1384038Y8903746D01*
X1374947Y8908290D01*
X1361310Y8908290D01*
X1193129Y8917381D02*
G01*
X1197673Y8926471D01*
X1206764Y8935562D01*
X1215854Y8940109D01*
X1234038Y8940109D01*
X1243129Y8935562D01*
X1252220Y8926471D01*
X1256764Y8917381D01*
X1261310Y8903746D01*
X1261310Y8881018D01*
X1256764Y8867381D01*
X1252220Y8858290D01*
X1243129Y8849199D01*
X1234038Y8844653D01*
X1215854Y8844653D01*
X1206764Y8849199D01*
X1197673Y8858290D01*
X1193129Y8867381D01*
X1163129Y8940109D02*
G01*
X1163129Y8844653D01*
X1163129Y8844653D02*
G01*
X1108582Y8844653D01*
X1078583Y8940109D02*
G01*
X1078583Y8844653D01*
X1014948Y8940109D02*
G01*
X1078583Y8876471D01*
X1055855Y8899199D02*
G01*
X1014948Y8844653D01*
X5092700Y8952809D02*
G01*
X5092700Y8857353D01*
X5092700Y8952809D02*
G01*
X5051790Y8952809D01*
X5038153Y8948262D01*
X5033609Y8943718D01*
X5029062Y8934627D01*
X5029062Y8925537D01*
X5033609Y8916446D01*
X5038153Y8911899D01*
X5051790Y8907353D01*
X5092700Y8907353D01*
X5060881Y8907353D02*
G01*
X5029062Y8857353D01*
X4999062Y8893718D02*
G01*
X4944518Y8893718D01*
X4944518Y8902809D01*
X4949063Y8911899D01*
X4953609Y8916446D01*
X4962700Y8920990D01*
X4976337Y8920990D01*
X4985428Y8916446D01*
X4994518Y8907353D01*
X4999062Y8893718D01*
X4999062Y8884627D01*
X4994518Y8870990D01*
X4985428Y8861899D01*
X4976337Y8857353D01*
X4962700Y8857353D01*
X4953609Y8861899D01*
X4944518Y8870990D01*
X4859972Y8920990D02*
G01*
X4859972Y8848262D01*
X4864519Y8834628D01*
X4869063Y8830081D01*
X4878153Y8825537D01*
X4891791Y8825537D01*
X4900881Y8830081D01*
X4859972Y8907353D02*
G01*
X4869063Y8916446D01*
X4878153Y8920990D01*
X4891791Y8920990D01*
X4900881Y8916446D01*
X4909972Y8907353D01*
X4914518Y8893718D01*
X4914518Y8884627D01*
X4909972Y8870990D01*
X4900881Y8861899D01*
X4891791Y8857353D01*
X4878153Y8857353D01*
X4869063Y8861899D01*
X4859972Y8870990D01*
X4829972Y8952809D02*
G01*
X4825428Y8948262D01*
X4820881Y8952809D01*
X4825428Y8957353D01*
X4829972Y8952809D01*
X4825428Y8920990D02*
G01*
X4825428Y8857353D01*
X4740882Y8907353D02*
G01*
X4745428Y8916446D01*
X4759063Y8920990D01*
X4772700Y8920990D01*
X4786337Y8916446D01*
X4790881Y8907353D01*
X4786337Y8898262D01*
X4777247Y8893718D01*
X4754519Y8889171D01*
X4745428Y8884627D01*
X4740882Y8875537D01*
X4740882Y8870990D01*
X4745428Y8861899D01*
X4759063Y8857353D01*
X4772700Y8857353D01*
X4786337Y8861899D01*
X4790881Y8870990D01*
X4697247Y8952809D02*
G01*
X4697247Y8875537D01*
X4692700Y8861899D01*
X4683610Y8857353D01*
X4674519Y8857353D01*
X4710882Y8920990D02*
G01*
X4679063Y8920990D01*
X4644519Y8893718D02*
G01*
X4589973Y8893718D01*
X4589973Y8902809D01*
X4594519Y8911899D01*
X4599063Y8916446D01*
X4608154Y8920990D01*
X4621791Y8920990D01*
X4630882Y8916446D01*
X4639972Y8907353D01*
X4644519Y8893718D01*
X4644519Y8884627D01*
X4639972Y8870990D01*
X4630882Y8861899D01*
X4621791Y8857353D01*
X4608154Y8857353D01*
X4599063Y8861899D01*
X4589973Y8870990D01*
X4559973Y8920990D02*
G01*
X4559973Y8857353D01*
X4559973Y8893718D02*
G01*
X4555429Y8907353D01*
X4546338Y8916446D01*
X4537247Y8920990D01*
X4523610Y8920990D01*
X4355429Y8930081D02*
G01*
X4359973Y8939171D01*
X4369064Y8948262D01*
X4378154Y8952809D01*
X4396338Y8952809D01*
X4405429Y8948262D01*
X4414520Y8939171D01*
X4419064Y8930081D01*
X4423610Y8916446D01*
X4423610Y8893718D01*
X4419064Y8880081D01*
X4414520Y8870990D01*
X4405429Y8861899D01*
X4396338Y8857353D01*
X4378154Y8857353D01*
X4369064Y8861899D01*
X4359973Y8870990D01*
X4355429Y8880081D01*
X4325429Y8952809D02*
G01*
X4325429Y8857353D01*
X4325429Y8857353D02*
G01*
X4270883Y8857353D01*
X4240883Y8952809D02*
G01*
X4240883Y8857353D01*
X4177248Y8952809D02*
G01*
X4240883Y8889171D01*
X4218155Y8911899D02*
G01*
X4177248Y8857353D01*
X5080000Y9194109D02*
G01*
X5080000Y9098653D01*
X5080000Y9194109D02*
G01*
X5048181Y9194109D01*
X5034546Y9189562D01*
X5025453Y9180471D01*
X5020909Y9171381D01*
X5016362Y9157746D01*
X5016362Y9135018D01*
X5020909Y9121381D01*
X5025453Y9112290D01*
X5034546Y9103199D01*
X5048181Y9098653D01*
X5080000Y9098653D01*
X4931818Y9162290D02*
G01*
X4931818Y9098653D01*
X4931818Y9148653D02*
G01*
X4940909Y9157746D01*
X4950000Y9162290D01*
X4963637Y9162290D01*
X4972728Y9157746D01*
X4981818Y9148653D01*
X4986362Y9135018D01*
X4986362Y9125927D01*
X4981818Y9112290D01*
X4972728Y9103199D01*
X4963637Y9098653D01*
X4950000Y9098653D01*
X4940909Y9103199D01*
X4931818Y9112290D01*
X4888181Y9194109D02*
G01*
X4888181Y9116837D01*
X4883637Y9103199D01*
X4874547Y9098653D01*
X4865453Y9098653D01*
X4901818Y9162290D02*
G01*
X4870000Y9162290D01*
X4780909Y9162290D02*
G01*
X4780909Y9098653D01*
X4780909Y9148653D02*
G01*
X4790000Y9157746D01*
X4799091Y9162290D01*
X4812728Y9162290D01*
X4821819Y9157746D01*
X4830909Y9148653D01*
X4835453Y9135018D01*
X4835453Y9125927D01*
X4830909Y9112290D01*
X4821819Y9103199D01*
X4812728Y9098653D01*
X4799091Y9098653D01*
X4790000Y9103199D01*
X4780909Y9112290D01*
X4653638Y9194109D02*
G01*
X4662728Y9189562D01*
X4671819Y9180471D01*
X4676363Y9171381D01*
X4680910Y9157746D01*
X4680910Y9135018D01*
X4676363Y9121381D01*
X4671819Y9112290D01*
X4662728Y9103199D01*
X4653638Y9098653D01*
X4635454Y9098653D01*
X4626363Y9103199D01*
X4617272Y9112290D01*
X4612728Y9121381D01*
X4608182Y9135018D01*
X4608182Y9157746D01*
X4612728Y9171381D01*
X4617272Y9180471D01*
X4626363Y9189562D01*
X4635454Y9194109D01*
X4653638Y9194109D01*
X4578182Y9194109D02*
G01*
X4578182Y9125927D01*
X4573638Y9112290D01*
X4564547Y9103199D01*
X4550910Y9098653D01*
X4541819Y9098653D01*
X4528182Y9103199D01*
X4519091Y9112290D01*
X4514547Y9125927D01*
X4514547Y9194109D01*
X4452729Y9194109D02*
G01*
X4452729Y9098653D01*
X4484547Y9194109D02*
G01*
X4420910Y9194109D01*
X1498600Y9206809D02*
G01*
X1498600Y9111353D01*
X1498600Y9206809D02*
G01*
X1466781Y9206809D01*
X1453146Y9202262D01*
X1444053Y9193171D01*
X1439509Y9184081D01*
X1434962Y9170446D01*
X1434962Y9147718D01*
X1439509Y9134081D01*
X1444053Y9124990D01*
X1453146Y9115899D01*
X1466781Y9111353D01*
X1498600Y9111353D01*
X1350418Y9174990D02*
G01*
X1350418Y9111353D01*
X1350418Y9161353D02*
G01*
X1359509Y9170446D01*
X1368600Y9174990D01*
X1382237Y9174990D01*
X1391328Y9170446D01*
X1400418Y9161353D01*
X1404962Y9147718D01*
X1404962Y9138627D01*
X1400418Y9124990D01*
X1391328Y9115899D01*
X1382237Y9111353D01*
X1368600Y9111353D01*
X1359509Y9115899D01*
X1350418Y9124990D01*
X1306781Y9206809D02*
G01*
X1306781Y9129537D01*
X1302237Y9115899D01*
X1293147Y9111353D01*
X1284053Y9111353D01*
X1320419Y9174990D02*
G01*
X1288600Y9174990D01*
X1199509Y9174990D02*
G01*
X1199509Y9111353D01*
X1199509Y9161353D02*
G01*
X1208600Y9170446D01*
X1217691Y9174990D01*
X1231328Y9174990D01*
X1240419Y9170446D01*
X1249509Y9161353D01*
X1254053Y9147718D01*
X1254053Y9138627D01*
X1249509Y9124990D01*
X1240419Y9115899D01*
X1231328Y9111353D01*
X1217691Y9111353D01*
X1208600Y9115899D01*
X1199509Y9124990D01*
X1099510Y9206809D02*
G01*
X1099510Y9111353D01*
X1069510Y9206809D02*
G01*
X1069510Y9111353D01*
X1069510Y9206809D02*
G01*
X1005873Y9111353D01*
X1005873Y9206809D02*
G01*
X1005873Y9111353D01*
X1790700Y9460809D02*
G01*
X1790700Y9365353D01*
X1790700Y9460809D02*
G01*
X1758881Y9460809D01*
X1745246Y9456262D01*
X1736153Y9447171D01*
X1731609Y9438081D01*
X1727062Y9424446D01*
X1727062Y9401718D01*
X1731609Y9388081D01*
X1736153Y9378990D01*
X1745246Y9369899D01*
X1758881Y9365353D01*
X1790700Y9365353D01*
X1697062Y9460809D02*
G01*
X1692518Y9456262D01*
X1687972Y9460809D01*
X1692518Y9465353D01*
X1697062Y9460809D01*
X1692518Y9428990D02*
G01*
X1692518Y9365353D01*
X1603428Y9428990D02*
G01*
X1603428Y9356262D01*
X1607972Y9342628D01*
X1612519Y9338081D01*
X1621609Y9333537D01*
X1635246Y9333537D01*
X1644337Y9338081D01*
X1603428Y9415353D02*
G01*
X1612519Y9424446D01*
X1621609Y9428990D01*
X1635246Y9428990D01*
X1644337Y9424446D01*
X1653428Y9415353D01*
X1657972Y9401718D01*
X1657972Y9392627D01*
X1653428Y9378990D01*
X1644337Y9369899D01*
X1635246Y9365353D01*
X1621609Y9365353D01*
X1612519Y9369899D01*
X1603428Y9378990D01*
X1573428Y9460809D02*
G01*
X1568881Y9456262D01*
X1564337Y9460809D01*
X1568881Y9465353D01*
X1573428Y9460809D01*
X1568881Y9428990D02*
G01*
X1568881Y9365353D01*
X1520700Y9460809D02*
G01*
X1520700Y9383537D01*
X1516153Y9369899D01*
X1507063Y9365353D01*
X1497972Y9365353D01*
X1534337Y9428990D02*
G01*
X1502519Y9428990D01*
X1413428Y9428990D02*
G01*
X1413428Y9365353D01*
X1413428Y9415353D02*
G01*
X1422519Y9424446D01*
X1431610Y9428990D01*
X1445247Y9428990D01*
X1454337Y9424446D01*
X1463428Y9415353D01*
X1467972Y9401718D01*
X1467972Y9392627D01*
X1463428Y9378990D01*
X1454337Y9369899D01*
X1445247Y9365353D01*
X1431610Y9365353D01*
X1422519Y9369899D01*
X1413428Y9378990D01*
X1383428Y9460809D02*
G01*
X1383428Y9365353D01*
X1283428Y9460809D02*
G01*
X1247063Y9365353D01*
X1210701Y9460809D02*
G01*
X1247063Y9365353D01*
X1112520Y9438081D02*
G01*
X1117064Y9447171D01*
X1126154Y9456262D01*
X1135247Y9460809D01*
X1153429Y9460809D01*
X1162519Y9456262D01*
X1171610Y9447171D01*
X1176154Y9438081D01*
X1180701Y9424446D01*
X1180701Y9401718D01*
X1176154Y9388081D01*
X1171610Y9378990D01*
X1162519Y9369899D01*
X1153429Y9365353D01*
X1135247Y9365353D01*
X1126154Y9369899D01*
X1117064Y9378990D01*
X1112520Y9388081D01*
X1014338Y9438081D02*
G01*
X1018882Y9447171D01*
X1027973Y9456262D01*
X1037064Y9460809D01*
X1055248Y9460809D01*
X1064338Y9456262D01*
X1073429Y9447171D01*
X1077973Y9438081D01*
X1082520Y9424446D01*
X1082520Y9401718D01*
X1077973Y9388081D01*
X1073429Y9378990D01*
X1064338Y9369899D01*
X1055248Y9365353D01*
X1037064Y9365353D01*
X1027973Y9369899D01*
X1018882Y9378990D01*
X1014338Y9388081D01*
X5080000Y9460809D02*
G01*
X5080000Y9365353D01*
X5080000Y9460809D02*
G01*
X5048181Y9460809D01*
X5034546Y9456262D01*
X5025453Y9447171D01*
X5020909Y9438081D01*
X5016362Y9424446D01*
X5016362Y9401718D01*
X5020909Y9388081D01*
X5025453Y9378990D01*
X5034546Y9369899D01*
X5048181Y9365353D01*
X5080000Y9365353D01*
X4986362Y9460809D02*
G01*
X4981818Y9456262D01*
X4977272Y9460809D01*
X4981818Y9465353D01*
X4986362Y9460809D01*
X4981818Y9428990D02*
G01*
X4981818Y9365353D01*
X4892728Y9428990D02*
G01*
X4892728Y9356262D01*
X4897272Y9342628D01*
X4901818Y9338081D01*
X4910909Y9333537D01*
X4924546Y9333537D01*
X4933637Y9338081D01*
X4892728Y9415353D02*
G01*
X4901818Y9424446D01*
X4910909Y9428990D01*
X4924546Y9428990D01*
X4933637Y9424446D01*
X4942728Y9415353D01*
X4947272Y9401718D01*
X4947272Y9392627D01*
X4942728Y9378990D01*
X4933637Y9369899D01*
X4924546Y9365353D01*
X4910909Y9365353D01*
X4901818Y9369899D01*
X4892728Y9378990D01*
X4862728Y9460809D02*
G01*
X4858181Y9456262D01*
X4853637Y9460809D01*
X4858181Y9465353D01*
X4862728Y9460809D01*
X4858181Y9428990D02*
G01*
X4858181Y9365353D01*
X4810000Y9460809D02*
G01*
X4810000Y9383537D01*
X4805453Y9369899D01*
X4796363Y9365353D01*
X4787272Y9365353D01*
X4823637Y9428990D02*
G01*
X4791819Y9428990D01*
X4702728Y9428990D02*
G01*
X4702728Y9365353D01*
X4702728Y9415353D02*
G01*
X4711819Y9424446D01*
X4720910Y9428990D01*
X4734547Y9428990D01*
X4743637Y9424446D01*
X4752728Y9415353D01*
X4757272Y9401718D01*
X4757272Y9392627D01*
X4752728Y9378990D01*
X4743637Y9369899D01*
X4734547Y9365353D01*
X4720910Y9365353D01*
X4711819Y9369899D01*
X4702728Y9378990D01*
X4672728Y9460809D02*
G01*
X4672728Y9365353D01*
X4572728Y9460809D02*
G01*
X4536363Y9365353D01*
X4500001Y9460809D02*
G01*
X4536363Y9365353D01*
X4401820Y9438081D02*
G01*
X4406364Y9447171D01*
X4415454Y9456262D01*
X4424547Y9460809D01*
X4442729Y9460809D01*
X4451819Y9456262D01*
X4460910Y9447171D01*
X4465454Y9438081D01*
X4470001Y9424446D01*
X4470001Y9401718D01*
X4465454Y9388081D01*
X4460910Y9378990D01*
X4451819Y9369899D01*
X4442729Y9365353D01*
X4424547Y9365353D01*
X4415454Y9369899D01*
X4406364Y9378990D01*
X4401820Y9388081D01*
X4303638Y9438081D02*
G01*
X4308182Y9447171D01*
X4317273Y9456262D01*
X4326364Y9460809D01*
X4344548Y9460809D01*
X4353638Y9456262D01*
X4362729Y9447171D01*
X4367273Y9438081D01*
X4371820Y9424446D01*
X4371820Y9401718D01*
X4367273Y9388081D01*
X4362729Y9378990D01*
X4353638Y9369899D01*
X4344548Y9365353D01*
X4326364Y9365353D01*
X4317273Y9369899D01*
X4308182Y9378990D01*
X4303638Y9388081D01*
X1689100Y9981509D02*
G01*
X1689100Y9886053D01*
X1689100Y9886053D02*
G01*
X1634553Y9886053D01*
X1604553Y9981509D02*
G01*
X1604553Y9886053D01*
X1604553Y9981509D02*
G01*
X1545462Y9981509D01*
X1604553Y9936053D02*
G01*
X1568190Y9936053D01*
X1604553Y9886053D02*
G01*
X1545462Y9886053D01*
X1515463Y9981509D02*
G01*
X1515463Y9886053D01*
X1515463Y9981509D02*
G01*
X1483647Y9981509D01*
X1470009Y9976962D01*
X1460919Y9967871D01*
X1456372Y9958781D01*
X1451828Y9945146D01*
X1451828Y9922418D01*
X1456372Y9908781D01*
X1460919Y9899690D01*
X1470009Y9890599D01*
X1483647Y9886053D01*
X1515463Y9886053D01*
X1351828Y9981509D02*
G01*
X1351828Y9886053D01*
X1351828Y9981509D02*
G01*
X1320010Y9981509D01*
X1306372Y9976962D01*
X1297282Y9967871D01*
X1292738Y9958781D01*
X1288191Y9945146D01*
X1288191Y9922418D01*
X1292738Y9908781D01*
X1297282Y9899690D01*
X1306372Y9890599D01*
X1320010Y9886053D01*
X1351828Y9886053D01*
X1258191Y9949690D02*
G01*
X1258191Y9886053D01*
X1258191Y9922418D02*
G01*
X1253647Y9936053D01*
X1244554Y9945146D01*
X1235463Y9949690D01*
X1221828Y9949690D01*
X1191828Y9981509D02*
G01*
X1187282Y9976962D01*
X1182738Y9981509D01*
X1187282Y9986053D01*
X1191828Y9981509D01*
X1187282Y9949690D02*
G01*
X1187282Y9886053D01*
X1152738Y9949690D02*
G01*
X1125463Y9886053D01*
X1098191Y9949690D02*
G01*
X1125463Y9886053D01*
X1068191Y9922418D02*
G01*
X1013647Y9922418D01*
X1013647Y9931509D01*
X1018192Y9940599D01*
X1022738Y9945146D01*
X1031829Y9949690D01*
X1045463Y9949690D01*
X1054554Y9945146D01*
X1063647Y9936053D01*
X1068191Y9922418D01*
X1068191Y9913327D01*
X1063647Y9899690D01*
X1054554Y9890599D01*
X1045463Y9886053D01*
X1031829Y9886053D01*
X1022738Y9890599D01*
X1013647Y9899690D01*
X1689100Y9740209D02*
G01*
X1689100Y9644753D01*
X1689100Y9644753D02*
G01*
X1634553Y9644753D01*
X1604553Y9740209D02*
G01*
X1604553Y9644753D01*
X1604553Y9740209D02*
G01*
X1545462Y9740209D01*
X1604553Y9694753D02*
G01*
X1568190Y9694753D01*
X1604553Y9644753D02*
G01*
X1545462Y9644753D01*
X1515463Y9740209D02*
G01*
X1515463Y9644753D01*
X1515463Y9740209D02*
G01*
X1483647Y9740209D01*
X1470009Y9735662D01*
X1460919Y9726571D01*
X1456372Y9717481D01*
X1451828Y9703846D01*
X1451828Y9681118D01*
X1456372Y9667481D01*
X1460919Y9658390D01*
X1470009Y9649299D01*
X1483647Y9644753D01*
X1515463Y9644753D01*
X1351828Y9740209D02*
G01*
X1351828Y9644753D01*
X1351828Y9740209D02*
G01*
X1320010Y9740209D01*
X1306372Y9735662D01*
X1297282Y9726571D01*
X1292738Y9717481D01*
X1288191Y9703846D01*
X1288191Y9681118D01*
X1292738Y9667481D01*
X1297282Y9658390D01*
X1306372Y9649299D01*
X1320010Y9644753D01*
X1351828Y9644753D01*
X1258191Y9708390D02*
G01*
X1258191Y9644753D01*
X1258191Y9681118D02*
G01*
X1253647Y9694753D01*
X1244554Y9703846D01*
X1235463Y9708390D01*
X1221828Y9708390D01*
X1191828Y9740209D02*
G01*
X1187282Y9735662D01*
X1182738Y9740209D01*
X1187282Y9744753D01*
X1191828Y9740209D01*
X1187282Y9708390D02*
G01*
X1187282Y9644753D01*
X1152738Y9708390D02*
G01*
X1125463Y9644753D01*
X1098191Y9708390D02*
G01*
X1125463Y9644753D01*
X1068191Y9681118D02*
G01*
X1013647Y9681118D01*
X1013647Y9690209D01*
X1018192Y9699299D01*
X1022738Y9703846D01*
X1031829Y9708390D01*
X1045463Y9708390D01*
X1054554Y9703846D01*
X1063647Y9694753D01*
X1068191Y9681118D01*
X1068191Y9672027D01*
X1063647Y9658390D01*
X1054554Y9649299D01*
X1045463Y9644753D01*
X1031829Y9644753D01*
X1022738Y9649299D01*
X1013647Y9658390D01*
X5080000Y9702109D02*
G01*
X5080000Y9606653D01*
X5080000Y9606653D02*
G01*
X5025453Y9606653D01*
X4995453Y9702109D02*
G01*
X4995453Y9606653D01*
X4995453Y9702109D02*
G01*
X4936363Y9702109D01*
X4995453Y9656653D02*
G01*
X4959090Y9656653D01*
X4995453Y9606653D02*
G01*
X4936363Y9606653D01*
X4906363Y9702109D02*
G01*
X4906363Y9606653D01*
X4906363Y9702109D02*
G01*
X4874547Y9702109D01*
X4860909Y9697562D01*
X4851819Y9688471D01*
X4847272Y9679381D01*
X4842728Y9665746D01*
X4842728Y9643018D01*
X4847272Y9629381D01*
X4851819Y9620290D01*
X4860909Y9611199D01*
X4874547Y9606653D01*
X4906363Y9606653D01*
X4742728Y9702109D02*
G01*
X4742728Y9606653D01*
X4742728Y9702109D02*
G01*
X4710910Y9702109D01*
X4697272Y9697562D01*
X4688182Y9688471D01*
X4683638Y9679381D01*
X4679091Y9665746D01*
X4679091Y9643018D01*
X4683638Y9629381D01*
X4688182Y9620290D01*
X4697272Y9611199D01*
X4710910Y9606653D01*
X4742728Y9606653D01*
X4649091Y9670290D02*
G01*
X4649091Y9606653D01*
X4649091Y9643018D02*
G01*
X4644547Y9656653D01*
X4635454Y9665746D01*
X4626363Y9670290D01*
X4612728Y9670290D01*
X4582728Y9702109D02*
G01*
X4578182Y9697562D01*
X4573638Y9702109D01*
X4578182Y9706653D01*
X4582728Y9702109D01*
X4578182Y9670290D02*
G01*
X4578182Y9606653D01*
X4543638Y9670290D02*
G01*
X4516363Y9606653D01*
X4489091Y9670290D02*
G01*
X4516363Y9606653D01*
X4459091Y9643018D02*
G01*
X4404547Y9643018D01*
X4404547Y9652109D01*
X4409092Y9661199D01*
X4413638Y9665746D01*
X4422729Y9670290D01*
X4436363Y9670290D01*
X4445454Y9665746D01*
X4454547Y9656653D01*
X4459091Y9643018D01*
X4459091Y9633927D01*
X4454547Y9620290D01*
X4445454Y9611199D01*
X4436363Y9606653D01*
X4422729Y9606653D01*
X4413638Y9611199D01*
X4404547Y9620290D01*
X5080000Y9943409D02*
G01*
X5080000Y9847953D01*
X5080000Y9847953D02*
G01*
X5025453Y9847953D01*
X4995453Y9943409D02*
G01*
X4995453Y9847953D01*
X4995453Y9943409D02*
G01*
X4936363Y9943409D01*
X4995453Y9897953D02*
G01*
X4959090Y9897953D01*
X4995453Y9847953D02*
G01*
X4936363Y9847953D01*
X4906363Y9943409D02*
G01*
X4906363Y9847953D01*
X4906363Y9943409D02*
G01*
X4874547Y9943409D01*
X4860909Y9938862D01*
X4851819Y9929771D01*
X4847272Y9920681D01*
X4842728Y9907046D01*
X4842728Y9884318D01*
X4847272Y9870681D01*
X4851819Y9861590D01*
X4860909Y9852499D01*
X4874547Y9847953D01*
X4906363Y9847953D01*
X4742728Y9943409D02*
G01*
X4742728Y9847953D01*
X4742728Y9943409D02*
G01*
X4710910Y9943409D01*
X4697272Y9938862D01*
X4688182Y9929771D01*
X4683638Y9920681D01*
X4679091Y9907046D01*
X4679091Y9884318D01*
X4683638Y9870681D01*
X4688182Y9861590D01*
X4697272Y9852499D01*
X4710910Y9847953D01*
X4742728Y9847953D01*
X4649091Y9911590D02*
G01*
X4649091Y9847953D01*
X4649091Y9884318D02*
G01*
X4644547Y9897953D01*
X4635454Y9907046D01*
X4626363Y9911590D01*
X4612728Y9911590D01*
X4582728Y9943409D02*
G01*
X4578182Y9938862D01*
X4573638Y9943409D01*
X4578182Y9947953D01*
X4582728Y9943409D01*
X4578182Y9911590D02*
G01*
X4578182Y9847953D01*
X4543638Y9911590D02*
G01*
X4516363Y9847953D01*
X4489091Y9911590D02*
G01*
X4516363Y9847953D01*
X4459091Y9884318D02*
G01*
X4404547Y9884318D01*
X4404547Y9893409D01*
X4409092Y9902499D01*
X4413638Y9907046D01*
X4422729Y9911590D01*
X4436363Y9911590D01*
X4445454Y9907046D01*
X4454547Y9897953D01*
X4459091Y9884318D01*
X4459091Y9875227D01*
X4454547Y9861590D01*
X4445454Y9852499D01*
X4436363Y9847953D01*
X4422729Y9847953D01*
X4413638Y9852499D01*
X4404547Y9861590D01*
D11*
X3276600Y11505509D02*
G01*
X3276600Y11410053D01*
X3276600Y11505509D02*
G01*
X3235690Y11505509D01*
X3222053Y11500962D01*
X3217509Y11496418D01*
X3212962Y11487327D01*
X3212962Y11478237D01*
X3217509Y11469146D01*
X3222053Y11464599D01*
X3235690Y11460053D01*
X3276600Y11460053D01*
X3244781Y11460053D02*
G01*
X3212962Y11410053D01*
X3182962Y11446418D02*
G01*
X3128418Y11446418D01*
X3128418Y11455509D01*
X3132963Y11464599D01*
X3137509Y11469146D01*
X3146600Y11473690D01*
X3160237Y11473690D01*
X3169328Y11469146D01*
X3178418Y11460053D01*
X3182962Y11446418D01*
X3182962Y11437327D01*
X3178418Y11423690D01*
X3169328Y11414599D01*
X3160237Y11410053D01*
X3146600Y11410053D01*
X3137509Y11414599D01*
X3128418Y11423690D01*
X3098418Y11473690D02*
G01*
X3071147Y11410053D01*
X3043872Y11473690D02*
G01*
X3071147Y11410053D01*
X3009328Y11432781D02*
G01*
X3013872Y11428237D01*
X3009328Y11423690D01*
X3004781Y11428237D01*
X3009328Y11432781D01*
X2904782Y11487327D02*
G01*
X2895691Y11491871D01*
X2882054Y11505509D01*
X2882054Y11410053D01*
X2847510Y11432781D02*
G01*
X2852054Y11428237D01*
X2847510Y11423690D01*
X2842963Y11428237D01*
X2847510Y11432781D01*
X2767510Y11505509D02*
G01*
X2812963Y11441871D01*
X2744782Y11441871D01*
X2767510Y11505509D02*
G01*
X2767510Y11410053D01*
X2710238Y11432781D02*
G01*
X2714782Y11428237D01*
X2710238Y11423690D01*
X2705691Y11428237D01*
X2710238Y11432781D01*
X2675691Y11487327D02*
G01*
X2666601Y11491871D01*
X2652963Y11505509D01*
X2652963Y11410053D01*
D12*
X4381500Y12076663D02*
G01*
X4381500Y11933481D01*
X4381500Y11933481D02*
G01*
X4299681Y11933481D01*
X4254682Y12076663D02*
G01*
X4254682Y11933481D01*
X4254682Y12076663D02*
G01*
X4206953Y12076663D01*
X4186500Y12069846D01*
X4172864Y12056209D01*
X4166047Y12042571D01*
X4159227Y12022117D01*
X4159227Y11988027D01*
X4166047Y11967573D01*
X4172864Y11953935D01*
X4186500Y11940299D01*
X4206953Y11933481D01*
X4254682Y11933481D01*
X4114228Y12076663D02*
G01*
X4114228Y11933481D01*
X4114228Y12076663D02*
G01*
X4059681Y11933481D01*
X4005138Y12076663D02*
G01*
X4059681Y11933481D01*
X4005138Y12076663D02*
G01*
X4005138Y11933481D01*
X3855138Y12049391D02*
G01*
X3841501Y12056209D01*
X3821046Y12076663D01*
X3821046Y11933481D01*
X3671046Y12076663D02*
G01*
X3671046Y11933481D01*
X3671046Y11933481D02*
G01*
X3589228Y11933481D01*
X3544229Y12076663D02*
G01*
X3544229Y11933481D01*
X3544229Y12076663D02*
G01*
X3455593Y12076663D01*
X3544229Y12008482D02*
G01*
X3489683Y12008482D01*
X3544229Y11933481D02*
G01*
X3455593Y11933481D01*
X3410592Y12076663D02*
G01*
X3410592Y11933481D01*
X3410592Y12076663D02*
G01*
X3362866Y12076663D01*
X3342411Y12069846D01*
X3328774Y12056209D01*
X3321956Y12042571D01*
X3315139Y12022117D01*
X3315139Y11988027D01*
X3321956Y11967573D01*
X3328774Y11953935D01*
X3342411Y11940299D01*
X3362866Y11933481D01*
X3410592Y11933481D01*
X3165139Y12076663D02*
G01*
X3165139Y11933481D01*
X3165139Y12076663D02*
G01*
X3117410Y12076663D01*
X3096955Y12069846D01*
X3083321Y12056209D01*
X3076501Y12042571D01*
X3069683Y12022117D01*
X3069683Y11988027D01*
X3076501Y11967573D01*
X3083321Y11953935D01*
X3096955Y11940299D01*
X3117410Y11933481D01*
X3165139Y11933481D01*
X3024685Y12076663D02*
G01*
X3017865Y12069846D01*
X3011048Y12076663D01*
X3017865Y12083481D01*
X3024685Y12076663D01*
X3017865Y12028937D02*
G01*
X3017865Y11933481D01*
X2891048Y12008482D02*
G01*
X2897865Y12022117D01*
X2918320Y12028937D01*
X2938774Y12028937D01*
X2959229Y12022117D01*
X2966049Y12008482D01*
X2959229Y11994845D01*
X2945594Y11988027D01*
X2911502Y11981207D01*
X2897865Y11974390D01*
X2891048Y11960753D01*
X2891048Y11953935D01*
X2897865Y11940299D01*
X2918320Y11933481D01*
X2938774Y11933481D01*
X2959229Y11940299D01*
X2966049Y11953935D01*
X2846049Y12028937D02*
G01*
X2846049Y11885754D01*
X2846049Y12008482D02*
G01*
X2832412Y12022117D01*
X2818775Y12028937D01*
X2798320Y12028937D01*
X2784685Y12022117D01*
X2771048Y12008482D01*
X2764231Y11988027D01*
X2764231Y11974390D01*
X2771048Y11953935D01*
X2784685Y11940299D01*
X2798320Y11933481D01*
X2818775Y11933481D01*
X2832412Y11940299D01*
X2846049Y11953935D01*
X2719230Y12076663D02*
G01*
X2719230Y11933481D01*
X2592412Y12028937D02*
G01*
X2592412Y11933481D01*
X2592412Y12008482D02*
G01*
X2606050Y12022117D01*
X2619684Y12028937D01*
X2640139Y12028937D01*
X2653776Y12022117D01*
X2667411Y12008482D01*
X2674231Y11988027D01*
X2674231Y11974390D01*
X2667411Y11953935D01*
X2653776Y11940299D01*
X2640139Y11933481D01*
X2619684Y11933481D01*
X2606050Y11940299D01*
X2592412Y11953935D01*
X2540594Y12028937D02*
G01*
X2499685Y11933481D01*
X2458775Y12028937D02*
G01*
X2499685Y11933481D01*
X2513322Y11906209D01*
X2526957Y11892572D01*
X2540594Y11885754D01*
X2547411Y11885754D01*
X2308776Y12076663D02*
G01*
X2308776Y11933481D01*
X2308776Y12076663D02*
G01*
X2247412Y12076663D01*
X2226957Y12069846D01*
X2220140Y12063026D01*
X2213322Y12049391D01*
X2213322Y12035754D01*
X2220140Y12022117D01*
X2226957Y12015299D01*
X2247412Y12008482D01*
X2308776Y12008482D02*
G01*
X2247412Y12008482D01*
X2226957Y12001662D01*
X2220140Y11994845D01*
X2213322Y11981207D01*
X2213322Y11960753D01*
X2220140Y11947118D01*
X2226957Y11940299D01*
X2247412Y11933481D01*
X2308776Y11933481D01*
X2134232Y12028937D02*
G01*
X2147867Y12022117D01*
X2161504Y12008482D01*
X2168321Y11988027D01*
X2168321Y11974390D01*
X2161504Y11953935D01*
X2147867Y11940299D01*
X2134232Y11933481D01*
X2113777Y11933481D01*
X2100140Y11940299D01*
X2086503Y11953935D01*
X2079685Y11974390D01*
X2079685Y11988027D01*
X2086503Y12008482D01*
X2100140Y12022117D01*
X2113777Y12028937D01*
X2134232Y12028937D01*
X1952868Y12028937D02*
G01*
X1952868Y11933481D01*
X1952868Y12008482D02*
G01*
X1966503Y12022117D01*
X1980140Y12028937D01*
X2000595Y12028937D01*
X2014232Y12022117D01*
X2027867Y12008482D01*
X2034687Y11988027D01*
X2034687Y11974390D01*
X2027867Y11953935D01*
X2014232Y11940299D01*
X2000595Y11933481D01*
X1980140Y11933481D01*
X1966503Y11940299D01*
X1952868Y11953935D01*
X1907867Y12028937D02*
G01*
X1907867Y11933481D01*
X1907867Y11988027D02*
G01*
X1901050Y12008482D01*
X1887413Y12022117D01*
X1873778Y12028937D01*
X1853323Y12028937D01*
X1726504Y12076663D02*
G01*
X1726504Y11933481D01*
X1726504Y12008482D02*
G01*
X1740141Y12022117D01*
X1753778Y12028937D01*
X1774233Y12028937D01*
X1787867Y12022117D01*
X1801505Y12008482D01*
X1808322Y11988027D01*
X1808322Y11974390D01*
X1801505Y11953935D01*
X1787867Y11940299D01*
X1774233Y11933481D01*
X1753778Y11933481D01*
X1740141Y11940299D01*
X1726504Y11953935D01*
D11*
X4406900Y11835709D02*
G01*
X4406900Y11740253D01*
X4406900Y11835709D02*
G01*
X4365990Y11835709D01*
X4352353Y11831162D01*
X4347809Y11826618D01*
X4343262Y11817527D01*
X4343262Y11803890D01*
X4347809Y11794799D01*
X4352353Y11790253D01*
X4365990Y11785709D01*
X4406900Y11785709D01*
X4313262Y11803890D02*
G01*
X4313262Y11758437D01*
X4308718Y11744799D01*
X4299628Y11740253D01*
X4285990Y11740253D01*
X4276900Y11744799D01*
X4263263Y11758437D01*
X4263263Y11803890D02*
G01*
X4263263Y11740253D01*
X4233263Y11835709D02*
G01*
X4233263Y11740253D01*
X4233263Y11790253D02*
G01*
X4224172Y11799346D01*
X4215081Y11803890D01*
X4201447Y11803890D01*
X4192353Y11799346D01*
X4183263Y11790253D01*
X4178719Y11776618D01*
X4178719Y11767527D01*
X4183263Y11753890D01*
X4192353Y11744799D01*
X4201447Y11740253D01*
X4215081Y11740253D01*
X4224172Y11744799D01*
X4233263Y11753890D01*
X4148719Y11835709D02*
G01*
X4148719Y11740253D01*
X4118719Y11835709D02*
G01*
X4114172Y11831162D01*
X4109628Y11835709D01*
X4114172Y11840253D01*
X4118719Y11835709D01*
X4114172Y11803890D02*
G01*
X4114172Y11740253D01*
X4029628Y11790253D02*
G01*
X4034172Y11799346D01*
X4047810Y11803890D01*
X4061447Y11803890D01*
X4075082Y11799346D01*
X4079628Y11790253D01*
X4075082Y11781162D01*
X4065991Y11776618D01*
X4043263Y11772071D01*
X4034172Y11767527D01*
X4029628Y11758437D01*
X4029628Y11753890D01*
X4034172Y11744799D01*
X4047810Y11740253D01*
X4061447Y11740253D01*
X4075082Y11744799D01*
X4079628Y11753890D01*
X3999628Y11835709D02*
G01*
X3999628Y11740253D01*
X3999628Y11785709D02*
G01*
X3985991Y11799346D01*
X3976900Y11803890D01*
X3963263Y11803890D01*
X3954172Y11799346D01*
X3949628Y11785709D01*
X3949628Y11740253D01*
X3919628Y11776618D02*
G01*
X3865082Y11776618D01*
X3865082Y11785709D01*
X3869629Y11794799D01*
X3874173Y11799346D01*
X3883263Y11803890D01*
X3896901Y11803890D01*
X3905991Y11799346D01*
X3915082Y11790253D01*
X3919628Y11776618D01*
X3919628Y11767527D01*
X3915082Y11753890D01*
X3905991Y11744799D01*
X3896901Y11740253D01*
X3883263Y11740253D01*
X3874173Y11744799D01*
X3865082Y11753890D01*
X3780538Y11835709D02*
G01*
X3780538Y11740253D01*
X3780538Y11790253D02*
G01*
X3789629Y11799346D01*
X3798719Y11803890D01*
X3812354Y11803890D01*
X3821447Y11799346D01*
X3830538Y11790253D01*
X3835082Y11776618D01*
X3835082Y11767527D01*
X3830538Y11753890D01*
X3821447Y11744799D01*
X3812354Y11740253D01*
X3798719Y11740253D01*
X3789629Y11744799D01*
X3780538Y11753890D01*
X3680538Y11803890D02*
G01*
X3680538Y11758437D01*
X3675992Y11744799D01*
X3666901Y11740253D01*
X3653264Y11740253D01*
X3644173Y11744799D01*
X3630538Y11758437D01*
X3630538Y11803890D02*
G01*
X3630538Y11740253D01*
X3600538Y11803890D02*
G01*
X3600538Y11740253D01*
X3600538Y11785709D02*
G01*
X3586901Y11799346D01*
X3577810Y11803890D01*
X3564173Y11803890D01*
X3555083Y11799346D01*
X3550538Y11785709D01*
X3550538Y11740253D01*
X3465992Y11835709D02*
G01*
X3465992Y11740253D01*
X3465992Y11790253D02*
G01*
X3475083Y11799346D01*
X3484173Y11803890D01*
X3497811Y11803890D01*
X3506901Y11799346D01*
X3515992Y11790253D01*
X3520539Y11776618D01*
X3520539Y11767527D01*
X3515992Y11753890D01*
X3506901Y11744799D01*
X3497811Y11740253D01*
X3484173Y11740253D01*
X3475083Y11744799D01*
X3465992Y11753890D01*
X3435992Y11776618D02*
G01*
X3381448Y11776618D01*
X3381448Y11785709D01*
X3385992Y11794799D01*
X3390539Y11799346D01*
X3399629Y11803890D01*
X3413264Y11803890D01*
X3422355Y11799346D01*
X3431448Y11790253D01*
X3435992Y11776618D01*
X3435992Y11767527D01*
X3431448Y11753890D01*
X3422355Y11744799D01*
X3413264Y11740253D01*
X3399629Y11740253D01*
X3390539Y11744799D01*
X3381448Y11753890D01*
X3351448Y11803890D02*
G01*
X3351448Y11740253D01*
X3351448Y11776618D02*
G01*
X3346902Y11790253D01*
X3337811Y11799346D01*
X3328720Y11803890D01*
X3315083Y11803890D01*
X3146902Y11812981D02*
G01*
X3151449Y11822071D01*
X3160539Y11831162D01*
X3169630Y11835709D01*
X3187811Y11835709D01*
X3196902Y11831162D01*
X3205993Y11822071D01*
X3210539Y11812981D01*
X3215083Y11799346D01*
X3215083Y11776618D01*
X3210539Y11762981D01*
X3205993Y11753890D01*
X3196902Y11744799D01*
X3187811Y11740253D01*
X3169630Y11740253D01*
X3160539Y11744799D01*
X3151449Y11753890D01*
X3146902Y11762981D01*
X3116902Y11835709D02*
G01*
X3116902Y11740253D01*
X3116902Y11835709D02*
G01*
X3057812Y11835709D01*
X3116902Y11790253D02*
G01*
X3080539Y11790253D01*
X3116902Y11740253D02*
G01*
X3057812Y11740253D01*
X3027812Y11835709D02*
G01*
X3027812Y11740253D01*
X3027812Y11835709D02*
G01*
X2986902Y11835709D01*
X2973265Y11831162D01*
X2968721Y11826618D01*
X2964174Y11817527D01*
X2964174Y11808437D01*
X2968721Y11799346D01*
X2973265Y11794799D01*
X2986902Y11790253D01*
X3027812Y11790253D01*
X2995993Y11790253D02*
G01*
X2964174Y11740253D01*
X2934174Y11835709D02*
G01*
X2934174Y11740253D01*
X2934174Y11835709D02*
G01*
X2870540Y11740253D01*
X2870540Y11835709D02*
G01*
X2870540Y11740253D01*
X2840540Y11781162D02*
G01*
X2758721Y11781162D01*
X2701450Y11835709D02*
G01*
X2710540Y11831162D01*
X2719631Y11822071D01*
X2724175Y11812981D01*
X2728722Y11799346D01*
X2728722Y11776618D01*
X2724175Y11762981D01*
X2719631Y11753890D01*
X2710540Y11744799D01*
X2701450Y11740253D01*
X2683266Y11740253D01*
X2674175Y11744799D01*
X2665084Y11753890D01*
X2660540Y11762981D01*
X2655994Y11776618D01*
X2655994Y11799346D01*
X2660540Y11812981D01*
X2665084Y11822071D01*
X2674175Y11831162D01*
X2683266Y11835709D01*
X2701450Y11835709D01*
X2625994Y11835709D02*
G01*
X2625994Y11740253D01*
X2562357Y11835709D02*
G01*
X2562357Y11740253D01*
X2625994Y11790253D02*
G01*
X2562357Y11790253D01*
X2532357Y11835709D02*
G01*
X2532357Y11740253D01*
X2532357Y11740253D02*
G01*
X2477813Y11740253D01*
X2447813Y11781162D02*
G01*
X2365994Y11781162D01*
X2272357Y11822071D02*
G01*
X2281450Y11831162D01*
X2295085Y11835709D01*
X2313266Y11835709D01*
X2326904Y11831162D01*
X2335994Y11822071D01*
X2335994Y11812981D01*
X2331450Y11803890D01*
X2326904Y11799346D01*
X2317813Y11794799D01*
X2290541Y11785709D01*
X2281450Y11781162D01*
X2276904Y11776618D01*
X2272357Y11767527D01*
X2272357Y11753890D01*
X2281450Y11744799D01*
X2295085Y11740253D01*
X2313266Y11740253D01*
X2326904Y11744799D01*
X2335994Y11753890D01*
X2172357Y11835709D02*
G01*
X2172357Y11740253D01*
X2142357Y11835709D02*
G01*
X2137813Y11831162D01*
X2133267Y11835709D01*
X2137813Y11840253D01*
X2142357Y11835709D01*
X2137813Y11803890D02*
G01*
X2137813Y11740253D01*
X2048723Y11790253D02*
G01*
X2057814Y11799346D01*
X2066904Y11803890D01*
X2080541Y11803890D01*
X2089632Y11799346D01*
X2098723Y11790253D01*
X2103267Y11776618D01*
X2103267Y11767527D01*
X2098723Y11753890D01*
X2089632Y11744799D01*
X2080541Y11740253D01*
X2066904Y11740253D01*
X2057814Y11744799D01*
X2048723Y11753890D01*
X2018723Y11776618D02*
G01*
X1964176Y11776618D01*
X1964176Y11785709D01*
X1968723Y11794799D01*
X1973267Y11799346D01*
X1982358Y11803890D01*
X1995995Y11803890D01*
X2005086Y11799346D01*
X2014176Y11790253D01*
X2018723Y11776618D01*
X2018723Y11767527D01*
X2014176Y11753890D01*
X2005086Y11744799D01*
X1995995Y11740253D01*
X1982358Y11740253D01*
X1973267Y11744799D01*
X1964176Y11753890D01*
X1934176Y11803890D02*
G01*
X1934176Y11740253D01*
X1934176Y11785709D02*
G01*
X1920542Y11799346D01*
X1911451Y11803890D01*
X1897814Y11803890D01*
X1888723Y11799346D01*
X1884177Y11785709D01*
X1884177Y11740253D01*
X1804177Y11790253D02*
G01*
X1808723Y11799346D01*
X1822358Y11803890D01*
X1835995Y11803890D01*
X1849633Y11799346D01*
X1854177Y11790253D01*
X1849633Y11781162D01*
X1840542Y11776618D01*
X1817814Y11772071D01*
X1808723Y11767527D01*
X1804177Y11758437D01*
X1804177Y11753890D01*
X1808723Y11744799D01*
X1822358Y11740253D01*
X1835995Y11740253D01*
X1849633Y11744799D01*
X1854177Y11753890D01*
X1774177Y11776618D02*
G01*
X1719633Y11776618D01*
X1719633Y11785709D01*
X1724177Y11794799D01*
X1728723Y11799346D01*
X1737814Y11803890D01*
X1751451Y11803890D01*
X1760542Y11799346D01*
X1769633Y11790253D01*
X1774177Y11776618D01*
X1774177Y11767527D01*
X1769633Y11753890D01*
X1760542Y11744799D01*
X1751451Y11740253D01*
X1737814Y11740253D01*
X1728723Y11744799D01*
X1719633Y11753890D01*
X1685086Y11762981D02*
G01*
X1689633Y11758437D01*
X1685086Y11753890D01*
X1680542Y11758437D01*
X1685086Y11762981D01*
X901700Y10184709D02*
G01*
X901700Y10089253D01*
X871700Y10184709D02*
G01*
X871700Y10089253D01*
X871700Y10184709D02*
G01*
X808062Y10089253D01*
X808062Y10184709D02*
G01*
X808062Y10089253D01*
X5332128Y10172009D02*
G01*
X5341218Y10167462D01*
X5350309Y10158371D01*
X5354853Y10149281D01*
X5359400Y10135646D01*
X5359400Y10112918D01*
X5354853Y10099281D01*
X5350309Y10090190D01*
X5341218Y10081099D01*
X5332128Y10076553D01*
X5313946Y10076553D01*
X5304853Y10081099D01*
X5295762Y10090190D01*
X5291218Y10099281D01*
X5286672Y10112918D01*
X5286672Y10135646D01*
X5291218Y10149281D01*
X5295762Y10158371D01*
X5304853Y10167462D01*
X5313946Y10172009D01*
X5332128Y10172009D01*
X5256672Y10172009D02*
G01*
X5256672Y10103827D01*
X5252128Y10090190D01*
X5243037Y10081099D01*
X5229400Y10076553D01*
X5220309Y10076553D01*
X5206672Y10081099D01*
X5197581Y10090190D01*
X5193037Y10103827D01*
X5193037Y10172009D01*
X5131219Y10172009D02*
G01*
X5131219Y10076553D01*
X5163037Y10172009D02*
G01*
X5099400Y10172009D01*
D10*
X1943100Y7924109D02*
G01*
X1943100Y7828653D01*
X1943100Y7924109D02*
G01*
X1902190Y7924109D01*
X1888553Y7919562D01*
X1884009Y7915018D01*
X1879462Y7905927D01*
X1879462Y7896837D01*
X1884009Y7887746D01*
X1888553Y7883199D01*
X1902190Y7878653D01*
X1943100Y7878653D01*
X1911281Y7878653D02*
G01*
X1879462Y7828653D01*
X1849462Y7865018D02*
G01*
X1794918Y7865018D01*
X1794918Y7874109D01*
X1799462Y7883199D01*
X1804009Y7887746D01*
X1813100Y7892290D01*
X1826737Y7892290D01*
X1835828Y7887746D01*
X1844918Y7878653D01*
X1849462Y7865018D01*
X1849462Y7855927D01*
X1844918Y7842290D01*
X1835828Y7833199D01*
X1826737Y7828653D01*
X1813100Y7828653D01*
X1804009Y7833199D01*
X1794918Y7842290D01*
X1710372Y7892290D02*
G01*
X1710372Y7819562D01*
X1714919Y7805928D01*
X1719463Y7801381D01*
X1728553Y7796837D01*
X1742191Y7796837D01*
X1751281Y7801381D01*
X1710372Y7878653D02*
G01*
X1719463Y7887746D01*
X1728553Y7892290D01*
X1742191Y7892290D01*
X1751281Y7887746D01*
X1760372Y7878653D01*
X1764919Y7865018D01*
X1764919Y7855927D01*
X1760372Y7842290D01*
X1751281Y7833199D01*
X1742191Y7828653D01*
X1728553Y7828653D01*
X1719463Y7833199D01*
X1710372Y7842290D01*
X1680372Y7924109D02*
G01*
X1675828Y7919562D01*
X1671281Y7924109D01*
X1675828Y7928653D01*
X1680372Y7924109D01*
X1675828Y7892290D02*
G01*
X1675828Y7828653D01*
X1591282Y7878653D02*
G01*
X1595828Y7887746D01*
X1609463Y7892290D01*
X1623100Y7892290D01*
X1636737Y7887746D01*
X1641281Y7878653D01*
X1636737Y7869562D01*
X1627647Y7865018D01*
X1604919Y7860471D01*
X1595828Y7855927D01*
X1591282Y7846837D01*
X1591282Y7842290D01*
X1595828Y7833199D01*
X1609463Y7828653D01*
X1623100Y7828653D01*
X1636737Y7833199D01*
X1641281Y7842290D01*
X1547647Y7924109D02*
G01*
X1547647Y7846837D01*
X1543100Y7833199D01*
X1534010Y7828653D01*
X1524919Y7828653D01*
X1561282Y7892290D02*
G01*
X1529463Y7892290D01*
X1494919Y7865018D02*
G01*
X1440373Y7865018D01*
X1440373Y7874109D01*
X1444919Y7883199D01*
X1449463Y7887746D01*
X1458554Y7892290D01*
X1472191Y7892290D01*
X1481282Y7887746D01*
X1490372Y7878653D01*
X1494919Y7865018D01*
X1494919Y7855927D01*
X1490372Y7842290D01*
X1481282Y7833199D01*
X1472191Y7828653D01*
X1458554Y7828653D01*
X1449463Y7833199D01*
X1440373Y7842290D01*
X1410373Y7892290D02*
G01*
X1410373Y7828653D01*
X1410373Y7865018D02*
G01*
X1405829Y7878653D01*
X1396738Y7887746D01*
X1387647Y7892290D01*
X1374010Y7892290D01*
X1205829Y7901381D02*
G01*
X1210373Y7910471D01*
X1219464Y7919562D01*
X1228554Y7924109D01*
X1246738Y7924109D01*
X1255829Y7919562D01*
X1264920Y7910471D01*
X1269464Y7901381D01*
X1274010Y7887746D01*
X1274010Y7865018D01*
X1269464Y7851381D01*
X1264920Y7842290D01*
X1255829Y7833199D01*
X1246738Y7828653D01*
X1228554Y7828653D01*
X1219464Y7833199D01*
X1210373Y7842290D01*
X1205829Y7851381D01*
X1175829Y7924109D02*
G01*
X1175829Y7828653D01*
X1175829Y7828653D02*
G01*
X1121282Y7828653D01*
X1091283Y7924109D02*
G01*
X1091283Y7828653D01*
X1091283Y7924109D02*
G01*
X1050373Y7924109D01*
X1036739Y7919562D01*
X1032192Y7915018D01*
X1027648Y7905927D01*
X1027648Y7896837D01*
X1032192Y7887746D01*
X1036739Y7883199D01*
X1050373Y7878653D01*
X1091283Y7878653D01*
X1059464Y7878653D02*
G01*
X1027648Y7828653D01*
X5080000Y7924109D02*
G01*
X5080000Y7828653D01*
X5080000Y7924109D02*
G01*
X5039090Y7924109D01*
X5025453Y7919562D01*
X5020909Y7915018D01*
X5016362Y7905927D01*
X5016362Y7896837D01*
X5020909Y7887746D01*
X5025453Y7883199D01*
X5039090Y7878653D01*
X5080000Y7878653D01*
X5048181Y7878653D02*
G01*
X5016362Y7828653D01*
X4986362Y7865018D02*
G01*
X4931818Y7865018D01*
X4931818Y7874109D01*
X4936363Y7883199D01*
X4940909Y7887746D01*
X4950000Y7892290D01*
X4963637Y7892290D01*
X4972728Y7887746D01*
X4981818Y7878653D01*
X4986362Y7865018D01*
X4986362Y7855927D01*
X4981818Y7842290D01*
X4972728Y7833199D01*
X4963637Y7828653D01*
X4950000Y7828653D01*
X4940909Y7833199D01*
X4931818Y7842290D01*
X4847272Y7892290D02*
G01*
X4847272Y7819562D01*
X4851819Y7805928D01*
X4856363Y7801381D01*
X4865453Y7796837D01*
X4879091Y7796837D01*
X4888181Y7801381D01*
X4847272Y7878653D02*
G01*
X4856363Y7887746D01*
X4865453Y7892290D01*
X4879091Y7892290D01*
X4888181Y7887746D01*
X4897272Y7878653D01*
X4901818Y7865018D01*
X4901818Y7855927D01*
X4897272Y7842290D01*
X4888181Y7833199D01*
X4879091Y7828653D01*
X4865453Y7828653D01*
X4856363Y7833199D01*
X4847272Y7842290D01*
X4817272Y7924109D02*
G01*
X4812728Y7919562D01*
X4808181Y7924109D01*
X4812728Y7928653D01*
X4817272Y7924109D01*
X4812728Y7892290D02*
G01*
X4812728Y7828653D01*
X4728182Y7878653D02*
G01*
X4732728Y7887746D01*
X4746363Y7892290D01*
X4760000Y7892290D01*
X4773637Y7887746D01*
X4778181Y7878653D01*
X4773637Y7869562D01*
X4764547Y7865018D01*
X4741819Y7860471D01*
X4732728Y7855927D01*
X4728182Y7846837D01*
X4728182Y7842290D01*
X4732728Y7833199D01*
X4746363Y7828653D01*
X4760000Y7828653D01*
X4773637Y7833199D01*
X4778181Y7842290D01*
X4684547Y7924109D02*
G01*
X4684547Y7846837D01*
X4680000Y7833199D01*
X4670910Y7828653D01*
X4661819Y7828653D01*
X4698182Y7892290D02*
G01*
X4666363Y7892290D01*
X4631819Y7865018D02*
G01*
X4577273Y7865018D01*
X4577273Y7874109D01*
X4581819Y7883199D01*
X4586363Y7887746D01*
X4595454Y7892290D01*
X4609091Y7892290D01*
X4618182Y7887746D01*
X4627272Y7878653D01*
X4631819Y7865018D01*
X4631819Y7855927D01*
X4627272Y7842290D01*
X4618182Y7833199D01*
X4609091Y7828653D01*
X4595454Y7828653D01*
X4586363Y7833199D01*
X4577273Y7842290D01*
X4547273Y7892290D02*
G01*
X4547273Y7828653D01*
X4547273Y7865018D02*
G01*
X4542729Y7878653D01*
X4533638Y7887746D01*
X4524547Y7892290D01*
X4510910Y7892290D01*
X4342729Y7901381D02*
G01*
X4347273Y7910471D01*
X4356364Y7919562D01*
X4365454Y7924109D01*
X4383638Y7924109D01*
X4392729Y7919562D01*
X4401820Y7910471D01*
X4406364Y7901381D01*
X4410910Y7887746D01*
X4410910Y7865018D01*
X4406364Y7851381D01*
X4401820Y7842290D01*
X4392729Y7833199D01*
X4383638Y7828653D01*
X4365454Y7828653D01*
X4356364Y7833199D01*
X4347273Y7842290D01*
X4342729Y7851381D01*
X4312729Y7924109D02*
G01*
X4312729Y7828653D01*
X4312729Y7828653D02*
G01*
X4258183Y7828653D01*
X4228183Y7924109D02*
G01*
X4228183Y7828653D01*
X4228183Y7924109D02*
G01*
X4187273Y7924109D01*
X4173639Y7919562D01*
X4169092Y7915018D01*
X4164548Y7905927D01*
X4164548Y7896837D01*
X4169092Y7887746D01*
X4173639Y7883199D01*
X4187273Y7878653D01*
X4228183Y7878653D01*
X4196364Y7878653D02*
G01*
X4164548Y7828653D01*
X1193800Y7682809D02*
G01*
X1193800Y7587353D01*
X1193800Y7682809D02*
G01*
X1130162Y7587353D01*
X1130162Y7682809D02*
G01*
X1130162Y7587353D01*
X1031981Y7660081D02*
G01*
X1036528Y7669171D01*
X1045618Y7678262D01*
X1054709Y7682809D01*
X1072890Y7682809D01*
X1081981Y7678262D01*
X1091072Y7669171D01*
X1095618Y7660081D01*
X1100162Y7646446D01*
X1100162Y7623718D01*
X1095618Y7610081D01*
X1091072Y7600990D01*
X1081981Y7591899D01*
X1072890Y7587353D01*
X1054709Y7587353D01*
X1045618Y7591899D01*
X1036528Y7600990D01*
X1031981Y7610081D01*
X5080000Y7670109D02*
G01*
X5080000Y7574653D01*
X5080000Y7670109D02*
G01*
X5016362Y7574653D01*
X5016362Y7670109D02*
G01*
X5016362Y7574653D01*
X4918181Y7647381D02*
G01*
X4922728Y7656471D01*
X4931818Y7665562D01*
X4940909Y7670109D01*
X4959090Y7670109D01*
X4968181Y7665562D01*
X4977272Y7656471D01*
X4981818Y7647381D01*
X4986362Y7633746D01*
X4986362Y7611018D01*
X4981818Y7597381D01*
X4977272Y7588290D01*
X4968181Y7579199D01*
X4959090Y7574653D01*
X4940909Y7574653D01*
X4931818Y7579199D01*
X4922728Y7588290D01*
X4918181Y7597381D01*
D11*
X3886200Y11670609D02*
G01*
X3886200Y11575153D01*
X3886200Y11670609D02*
G01*
X3854381Y11670609D01*
X3840746Y11666062D01*
X3831653Y11656971D01*
X3827109Y11647881D01*
X3822562Y11634246D01*
X3822562Y11611518D01*
X3827109Y11597881D01*
X3831653Y11588790D01*
X3840746Y11579699D01*
X3854381Y11575153D01*
X3886200Y11575153D01*
X3792562Y11611518D02*
G01*
X3738018Y11611518D01*
X3738018Y11620609D01*
X3742563Y11629699D01*
X3747109Y11634246D01*
X3756200Y11638790D01*
X3769837Y11638790D01*
X3778928Y11634246D01*
X3788018Y11625153D01*
X3792562Y11611518D01*
X3792562Y11602427D01*
X3788018Y11588790D01*
X3778928Y11579699D01*
X3769837Y11575153D01*
X3756200Y11575153D01*
X3747109Y11579699D01*
X3738018Y11588790D01*
X3658019Y11625153D02*
G01*
X3662563Y11634246D01*
X3676200Y11638790D01*
X3689837Y11638790D01*
X3703472Y11634246D01*
X3708018Y11625153D01*
X3703472Y11616062D01*
X3694381Y11611518D01*
X3671653Y11606971D01*
X3662563Y11602427D01*
X3658019Y11593337D01*
X3658019Y11588790D01*
X3662563Y11579699D01*
X3676200Y11575153D01*
X3689837Y11575153D01*
X3703472Y11579699D01*
X3708018Y11588790D01*
X3628019Y11670609D02*
G01*
X3623472Y11666062D01*
X3618928Y11670609D01*
X3623472Y11675153D01*
X3628019Y11670609D01*
X3623472Y11638790D02*
G01*
X3623472Y11575153D01*
X3534382Y11638790D02*
G01*
X3534382Y11566062D01*
X3538928Y11552428D01*
X3543472Y11547881D01*
X3552563Y11543337D01*
X3566200Y11543337D01*
X3575291Y11547881D01*
X3534382Y11625153D02*
G01*
X3543472Y11634246D01*
X3552563Y11638790D01*
X3566200Y11638790D01*
X3575291Y11634246D01*
X3584381Y11625153D01*
X3588928Y11611518D01*
X3588928Y11602427D01*
X3584381Y11588790D01*
X3575291Y11579699D01*
X3566200Y11575153D01*
X3552563Y11575153D01*
X3543472Y11579699D01*
X3534382Y11588790D01*
X3504382Y11638790D02*
G01*
X3504382Y11575153D01*
X3504382Y11620609D02*
G01*
X3490747Y11634246D01*
X3481654Y11638790D01*
X3468019Y11638790D01*
X3458928Y11634246D01*
X3454382Y11620609D01*
X3454382Y11575153D01*
X3424382Y11611518D02*
G01*
X3369838Y11611518D01*
X3369838Y11620609D01*
X3374382Y11629699D01*
X3378928Y11634246D01*
X3388019Y11638790D01*
X3401654Y11638790D01*
X3410747Y11634246D01*
X3419838Y11625153D01*
X3424382Y11611518D01*
X3424382Y11602427D01*
X3419838Y11588790D01*
X3410747Y11579699D01*
X3401654Y11575153D01*
X3388019Y11575153D01*
X3378928Y11579699D01*
X3369838Y11588790D01*
X3285291Y11670609D02*
G01*
X3285291Y11575153D01*
X3285291Y11625153D02*
G01*
X3294382Y11634246D01*
X3303473Y11638790D01*
X3317110Y11638790D01*
X3326201Y11634246D01*
X3335291Y11625153D01*
X3339838Y11611518D01*
X3339838Y11602427D01*
X3335291Y11588790D01*
X3326201Y11579699D01*
X3317110Y11575153D01*
X3303473Y11575153D01*
X3294382Y11579699D01*
X3285291Y11588790D01*
X3185292Y11670609D02*
G01*
X3185292Y11575153D01*
X3185292Y11625153D02*
G01*
X3176201Y11634246D01*
X3167110Y11638790D01*
X3153473Y11638790D01*
X3144382Y11634246D01*
X3135292Y11625153D01*
X3130748Y11611518D01*
X3130748Y11602427D01*
X3135292Y11588790D01*
X3144382Y11579699D01*
X3153473Y11575153D01*
X3167110Y11575153D01*
X3176201Y11579699D01*
X3185292Y11588790D01*
X3096201Y11638790D02*
G01*
X3068929Y11575153D01*
X3041655Y11638790D02*
G01*
X3068929Y11575153D01*
X3078020Y11556972D01*
X3087110Y11547881D01*
X3096201Y11543337D01*
X3100748Y11543337D01*
X2941655Y11670609D02*
G01*
X2941655Y11575153D01*
X2941655Y11670609D02*
G01*
X2878020Y11575153D01*
X2878020Y11670609D02*
G01*
X2878020Y11575153D01*
X2843474Y11597881D02*
G01*
X2848020Y11593337D01*
X2843474Y11588790D01*
X2838930Y11593337D01*
X2843474Y11597881D01*
X2808930Y11670609D02*
G01*
X2808930Y11575153D01*
X2808930Y11670609D02*
G01*
X2777111Y11670609D01*
X2763474Y11666062D01*
X2754383Y11656971D01*
X2749839Y11647881D01*
X2745292Y11634246D01*
X2745292Y11611518D01*
X2749839Y11597881D01*
X2754383Y11588790D01*
X2763474Y11579699D01*
X2777111Y11575153D01*
X2808930Y11575153D01*
X2692565Y11638790D02*
G01*
X2701655Y11634246D01*
X2710748Y11625153D01*
X2715293Y11611518D01*
X2715293Y11602427D01*
X2710748Y11588790D01*
X2701655Y11579699D01*
X2692565Y11575153D01*
X2678930Y11575153D01*
X2669839Y11579699D01*
X2660749Y11588790D01*
X2656202Y11602427D01*
X2656202Y11611518D01*
X2660749Y11625153D01*
X2669839Y11634246D01*
X2678930Y11638790D01*
X2692565Y11638790D01*
X2626202Y11638790D02*
G01*
X2626202Y11575153D01*
X2626202Y11611518D02*
G01*
X2621655Y11625153D01*
X2612565Y11634246D01*
X2603474Y11638790D01*
X2589839Y11638790D01*
X2559839Y11638790D02*
G01*
X2559839Y11575153D01*
X2559839Y11620609D02*
G01*
X2546202Y11634246D01*
X2537112Y11638790D01*
X2523474Y11638790D01*
X2514384Y11634246D01*
X2509840Y11620609D01*
X2509840Y11575153D01*
X2429840Y11625153D02*
G01*
X2434384Y11634246D01*
X2448021Y11638790D01*
X2461656Y11638790D01*
X2475293Y11634246D01*
X2479840Y11625153D01*
X2475293Y11616062D01*
X2466202Y11611518D01*
X2443474Y11606971D01*
X2434384Y11602427D01*
X2429840Y11593337D01*
X2429840Y11588790D01*
X2434384Y11579699D01*
X2448021Y11575153D01*
X2461656Y11575153D01*
X2475293Y11579699D01*
X2479840Y11588790D01*
X2399840Y11611518D02*
G01*
X2345293Y11611518D01*
X2345293Y11620609D01*
X2349840Y11629699D01*
X2354384Y11634246D01*
X2363475Y11638790D01*
X2377112Y11638790D01*
X2386202Y11634246D01*
X2395293Y11625153D01*
X2399840Y11611518D01*
X2399840Y11602427D01*
X2395293Y11588790D01*
X2386202Y11579699D01*
X2377112Y11575153D01*
X2363475Y11575153D01*
X2354384Y11579699D01*
X2345293Y11588790D01*
X2315293Y11670609D02*
G01*
X2310749Y11666062D01*
X2306203Y11670609D01*
X2310749Y11675153D01*
X2315293Y11670609D01*
X2310749Y11638790D02*
G01*
X2310749Y11575153D01*
X2239840Y11670609D02*
G01*
X2248931Y11670609D01*
X2258021Y11666062D01*
X2262565Y11652427D01*
X2262565Y11575153D01*
X2276203Y11638790D02*
G01*
X2244384Y11638790D01*
M02*
